<svg width="20" height="20" viewBox="0 0 20 20" fill="none" xmlns="http://www.w3.org/2000/svg">
<path d="M0 10C0 4.47715 4.47715 0 10 0C15.5228 0 20 4.47715 20 10C20 15.5228 15.5228 20 10 20C4.47715 20 0 15.5228 0 10Z" fill="#346DFF"/>
<g clip-path="url(#clip0_3_396)">
<path d="M12.5396 12.2697C12.5188 12.5548 12.2705 12.7694 11.9854 12.7487L8.33634 12.483C8.05125 12.4622 7.83662 12.2139 7.85738 11.9288C7.87814 11.6437 8.12648 11.4291 8.41157 11.4498L10.8165 11.6261L7.57265 7.87278C7.38551 7.65624 7.40925 7.33011 7.62579 7.14297C7.84233 6.95582 8.16846 6.97957 8.35561 7.19611L11.5984 10.9482L11.7744 8.54558C11.7952 8.26049 12.0435 8.04586 12.3286 8.06662C12.6137 8.08738 12.8283 8.33572 12.8076 8.62081L12.5419 12.2699L12.5396 12.2697Z" fill="white"/>
</g>
<defs>
<clipPath id="clip0_3_396">
<rect width="6.20908" height="8.27878" fill="white" transform="matrix(0.756592 -0.653887 -0.653887 -0.756592 10.352 15.0452)"/>
</clipPath>
</defs>
</svg>
