<svg width="36" height="37" viewBox="0 0 36 37" fill="none" xmlns="http://www.w3.org/2000/svg">
<path d="M0 18.5C0 8.55888 8.05888 0.5 18 0.5C27.9411 0.5 36 8.55888 36 18.5C36 28.4411 27.9411 36.5 18 36.5C8.05888 36.5 0 28.4411 0 18.5Z" fill="#0C0C0C"/>
<g clip-path="url(#clip0_3_370)">
<path d="M24.857 19.1061C25.2567 18.7063 25.2567 18.0572 24.857 17.6574L19.7402 12.5407C19.3405 12.1409 18.6913 12.1409 18.2916 12.5407C17.8918 12.9404 17.8918 13.5896 18.2916 13.9893L21.6654 17.36L11.854 17.36C11.288 17.36 10.8307 17.8173 10.8307 18.3833C10.8307 18.9494 11.288 19.4067 11.854 19.4067L21.6622 19.4067L18.2948 22.7774C17.895 23.1771 17.895 23.8263 18.2948 24.226C18.6945 24.6258 19.3437 24.6258 19.7434 24.226L24.8602 19.1093L24.857 19.1061Z" fill="#A0A0A0"/>
</g>
<defs>
<clipPath id="clip0_3_370">
<rect width="12.2802" height="16.3736" fill="white" transform="translate(26.181 12.2433) rotate(90)"/>
</clipPath>
</defs>
</svg>
