<svg width="15" height="14" viewBox="0 0 15 14" fill="none" xmlns="http://www.w3.org/2000/svg">
<path d="M14.0262 7.72274C14.426 7.32299 14.426 6.6738 14.0262 6.27406L8.90949 1.15731C8.50974 0.757561 7.86056 0.757561 7.46081 1.15731C7.06106 1.55705 7.06106 2.20624 7.46081 2.60599L10.8347 5.97665L1.0233 5.97665C0.457257 5.97665 -5.26958e-05 6.43396 -5.27206e-05 7C-5.27453e-05 7.56604 0.457257 8.02335 1.0233 8.02335L10.8315 8.02335L7.46401 11.394C7.06426 11.7938 7.06426 12.4429 7.46401 12.8427C7.86375 13.2424 8.51294 13.2424 8.91269 12.8427L14.0294 7.72594L14.0262 7.72274Z" fill="#111111"/>
</svg>
