<svg width="46" height="47" viewBox="0 0 46 47" fill="none" xmlns="http://www.w3.org/2000/svg">
<path d="M38.3333 29.25V14.875L26.3542 8.13696M19.6458 8.13696L7.66667 14.875V29.25M10.5417 33.7427L23 40.75L30.6667 36.4375L35.4583 33.7427" stroke="#E2E4D4" stroke-width="2" stroke-linecap="round" stroke-linejoin="round"/>
<path d="M20.125 18.4688L17.25 20.1459V26.8542L20.125 28.5313L23 30.2084L25.875 28.5313L28.75 26.8542V20.1459L25.875 18.4688L23 16.7917L20.125 18.4688Z" fill="#E2E4D4" stroke="#E2E4D4" stroke-width="2" stroke-linecap="round" stroke-linejoin="round"/>
<path d="M23 16.7917V10.0834M28.75 26.375L35.4583 30.2084M17.25 26.375L10.5417 30.2084" stroke="#E2E4D4" stroke-width="2" stroke-linecap="round" stroke-linejoin="round"/>
<path d="M23 10.0834C24.5878 10.0834 25.875 8.79619 25.875 7.20837C25.875 5.62056 24.5878 4.33337 23 4.33337C21.4122 4.33337 20.125 5.62056 20.125 7.20837C20.125 8.79619 21.4122 10.0834 23 10.0834Z" fill="#E2E4D4" stroke="#E2E4D4" stroke-width="2" stroke-linecap="round" stroke-linejoin="round"/>
<path d="M7.66667 35C9.25449 35 10.5417 33.7128 10.5417 32.125C10.5417 30.5372 9.25449 29.25 7.66667 29.25C6.07885 29.25 4.79167 30.5372 4.79167 32.125C4.79167 33.7128 6.07885 35 7.66667 35Z" fill="#E2E4D4" stroke="#E2E4D4" stroke-width="2" stroke-linecap="round" stroke-linejoin="round"/>
<path d="M38.3333 35C39.9212 35 41.2083 33.7128 41.2083 32.125C41.2083 30.5372 39.9212 29.25 38.3333 29.25C36.7455 29.25 35.4583 30.5372 35.4583 32.125C35.4583 33.7128 36.7455 35 38.3333 35Z" fill="#E2E4D4" stroke="#E2E4D4" stroke-width="2" stroke-linecap="round" stroke-linejoin="round"/>
</svg>
