<svg width="163" height="137" viewBox="0 0 163 137" fill="none" xmlns="http://www.w3.org/2000/svg">
<g clip-path="url(#clip0_240_137)">
<rect x="0.5" y="0.309891" width="162" height="136" rx="20" fill="url(#paint0_linear_240_137)"/>
<g filter="url(#filter0_f_240_137)">
<path d="M86.7353 130.981C58.2728 108.262 63.7945 128.314 46.8448 112.703C29.895 97.0917 44.5076 98.7867 25.3548 74.4471C30.436 68.9302 48.2957 77.1135 65.2454 92.7249C82.1952 108.336 91.8165 125.464 86.7353 130.981Z" fill="#346DFF"/>
</g>
<g filter="url(#filter1_d_240_137)">
<path d="M35.5 67.8099C35.5 42.6809 55.871 22.3099 81 22.3099C106.129 22.3099 126.5 42.6809 126.5 67.8099C126.5 92.9388 106.129 113.31 81 113.31C55.871 113.31 35.5 92.9388 35.5 67.8099Z" fill="#0A0A0A" shape-rendering="crispEdges"/>
<path d="M81 22.8099C105.853 22.8099 126 42.9571 126 67.8099C126 92.6627 105.853 112.81 81 112.81C56.1472 112.81 36 92.6627 36 67.8099C36 42.9571 56.1472 22.8099 81 22.8099Z" stroke="#3B518A" shape-rendering="crispEdges"/>
<path d="M94.0881 72.8599C94.7603 72.8599 95.4259 72.9923 96.0469 73.2495C96.668 73.5068 97.2322 73.8838 97.7076 74.3591C98.1829 74.8345 98.5599 75.3987 98.8172 76.0198C99.0744 76.6408 99.2068 77.3064 99.2068 77.9786V80.0352C99.2071 81.265 98.9416 82.4803 98.4283 83.5978C97.9151 84.7154 97.1664 85.7087 96.2334 86.5099C92.673 89.5675 87.5747 91.0599 81 91.0599C74.4252 91.0599 69.3338 89.5675 65.7802 86.5099C64.8485 85.7093 64.1007 84.7169 63.5879 83.6006C63.0751 82.4844 62.8095 81.2705 62.8091 80.0421V77.9764C62.8097 76.6192 63.3492 75.3178 64.3091 74.3583C65.269 73.3989 66.5706 72.8599 67.9278 72.8599H94.0881ZM81 45.5599C81.4123 45.5599 81.8107 45.7092 82.1214 45.9802C82.4321 46.2512 82.6342 46.6256 82.6903 47.0341L82.7062 47.2661L82.704 48.9701H90.6665C92.024 48.9701 93.326 49.5094 94.286 50.4694C95.2459 51.4293 95.7852 52.7313 95.7852 54.0889V64.3377C95.7852 65.6953 95.2459 66.9973 94.286 67.9572C93.326 68.9172 92.024 69.4565 90.6665 69.4565H71.329C69.9714 69.4565 68.6694 68.9172 67.7095 67.9572C66.7495 66.9973 66.2102 65.6953 66.2102 64.3377V54.0911C66.2102 53.4187 66.3427 52.7529 66.6001 52.1318C66.8574 51.5106 67.2347 50.9462 67.7103 50.4708C68.1858 49.9955 68.7504 49.6185 69.3717 49.3614C69.993 49.1043 70.6588 48.9721 71.3312 48.9724L79.2937 48.9701V47.2661C79.2938 46.8535 79.4435 46.4548 79.7149 46.1441C79.9864 45.8333 80.3613 45.6314 80.7702 45.5758L81 45.5599ZM75.879 55.7974C75.4962 55.7821 75.1144 55.8442 74.7563 55.9801C74.3982 56.116 74.0712 56.3229 73.795 56.5882C73.5188 56.8536 73.2991 57.172 73.149 57.5244C72.9989 57.8768 72.9215 58.2558 72.9215 58.6389C72.9215 59.0219 72.9989 59.401 73.149 59.7533C73.2991 60.1057 73.5188 60.4241 73.795 60.6895C74.0712 60.9549 74.3982 61.1617 74.7563 61.2976C75.1144 61.4335 75.4962 61.4957 75.879 61.4803C76.6129 61.451 77.307 61.1388 77.8159 60.6091C78.3248 60.0794 78.609 59.3734 78.609 58.6389C78.609 57.9043 78.3248 57.1983 77.8159 56.6686C77.307 56.139 76.6129 55.8268 75.879 55.7974ZM86.1005 55.7974C85.7178 55.7821 85.3359 55.8442 84.9778 55.9801C84.6197 56.116 84.2928 56.3229 84.0166 56.5882C83.7404 56.8536 83.5206 57.172 83.3705 57.5244C83.2204 57.8768 83.1431 58.2558 83.1431 58.6389C83.1431 59.0219 83.2204 59.401 83.3705 59.7533C83.5206 60.1057 83.7404 60.4241 84.0166 60.6895C84.2928 60.9549 84.6197 61.1617 84.9778 61.2976C85.3359 61.4335 85.7178 61.4957 86.1005 61.4803C86.8345 61.451 87.5286 61.1388 88.0375 60.6091C88.5463 60.0794 88.8306 59.3734 88.8306 58.6389C88.8306 57.9043 88.5463 57.1983 88.0375 56.6686C87.5286 56.139 86.8345 55.8268 86.1005 55.7974Z" fill="white"/>
</g>
<g filter="url(#filter2_f_240_137)">
<path d="M36.6078 84.9411C47.4512 85.2299 52.4994 89.6751 58.2466 92.328C63.7359 98.5898 67.0742 102.998 68.1843 112.796C64.3681 116.913 54.2058 114.016 45.4862 106.324C36.7666 98.632 32.7916 89.0587 36.6078 84.9411Z" fill="#346DFF" fill-opacity="0.6"/>
</g>
</g>
<rect x="1.25" y="1.05989" width="160.5" height="134.5" rx="19.25" stroke="url(#paint1_linear_240_137)" stroke-width="1.5"/>
<defs>
<filter id="filter0_f_240_137" x="-4.64526" y="42.7258" width="122.739" height="118.255" filterUnits="userSpaceOnUse" color-interpolation-filters="sRGB">
<feFlood flood-opacity="0" result="BackgroundImageFix"/>
<feBlend mode="normal" in="SourceGraphic" in2="BackgroundImageFix" result="shape"/>
<feGaussianBlur stdDeviation="15" result="effect1_foregroundBlur_240_137"/>
</filter>
<filter id="filter1_d_240_137" x="29.5" y="19.3099" width="111" height="111" filterUnits="userSpaceOnUse" color-interpolation-filters="sRGB">
<feFlood flood-opacity="0" result="BackgroundImageFix"/>
<feColorMatrix in="SourceAlpha" type="matrix" values="0 0 0 0 0 0 0 0 0 0 0 0 0 0 0 0 0 0 127 0" result="hardAlpha"/>
<feOffset dx="4" dy="7"/>
<feGaussianBlur stdDeviation="5"/>
<feComposite in2="hardAlpha" operator="out"/>
<feColorMatrix type="matrix" values="0 0 0 0 0 0 0 0 0 0 0 0 0 0 0 0 0 0 0.8 0"/>
<feBlend mode="normal" in2="BackgroundImageFix" result="effect1_dropShadow_240_137"/>
<feBlend mode="normal" in="SourceGraphic" in2="effect1_dropShadow_240_137" result="shape"/>
</filter>
<filter id="filter2_f_240_137" x="11.1577" y="60.9411" width="81.0266" height="77.7275" filterUnits="userSpaceOnUse" color-interpolation-filters="sRGB">
<feFlood flood-opacity="0" result="BackgroundImageFix"/>
<feBlend mode="normal" in="SourceGraphic" in2="BackgroundImageFix" result="shape"/>
<feGaussianBlur stdDeviation="12" result="effect1_foregroundBlur_240_137"/>
</filter>
<linearGradient id="paint0_linear_240_137" x1="52.4353" y1="-5.63186" x2="104.657" y2="127.206" gradientUnits="userSpaceOnUse">
<stop stop-color="#0E0E0E"/>
<stop offset="1" stop-color="#131313"/>
</linearGradient>
<linearGradient id="paint1_linear_240_137" x1="1.55105" y1="-27.1247" x2="67.9802" y2="-31.8843" gradientUnits="userSpaceOnUse">
<stop stop-color="#1A1A1A"/>
<stop offset="1" stop-color="#1F1F1F"/>
</linearGradient>
<clipPath id="clip0_240_137">
<rect x="0.5" y="0.309891" width="162" height="136" rx="20" fill="white"/>
</clipPath>
</defs>
</svg>
