<svg width="46" height="47" viewBox="0 0 46 47" fill="none" xmlns="http://www.w3.org/2000/svg">
<g clip-path="url(#clip0_3_365)">
<path d="M35.1996 20.2091C35.2878 20.273 35.3721 20.3401 35.4526 20.4104C35.4564 20.326 35.4583 20.2411 35.4583 20.1555V11.5209C35.4583 10.3771 35.004 9.28023 34.1952 8.47148C33.3865 7.66273 32.2896 7.20837 31.1458 7.20837H24.4375V5.77087L24.426 5.57729C24.3791 5.23247 24.2088 4.91636 23.9465 4.6876C23.6843 4.45885 23.348 4.33299 23 4.33337L22.8045 4.34679C22.4604 4.39403 22.145 4.5643 21.9166 4.82609C21.6883 5.08789 21.5625 5.4235 21.5625 5.77087L21.5606 7.20837H14.8522C13.7088 7.20888 12.6124 7.66346 11.8041 8.47215C10.9958 9.28085 10.5417 10.3775 10.5417 11.5209V20.1555C10.5417 21.2992 10.996 22.3961 11.8048 23.2049C12.6135 24.0136 13.7104 24.468 14.8542 24.468H29.7735L29.8118 24.3664L29.8272 24.3165L30.6897 21.6639L30.6993 21.6409C30.8514 21.2092 31.1017 20.8188 31.4303 20.5002C31.7589 20.1816 32.1569 19.9435 32.593 19.8048C33.0292 19.666 33.4916 19.6303 33.9438 19.7005C34.3961 19.7706 34.826 19.9448 35.1996 20.2091ZM18.6875 12.9584C19.0077 12.9493 19.3265 13.0046 19.6249 13.1208C19.9234 13.2371 20.1956 13.4121 20.4252 13.6354C20.6549 13.8586 20.8375 14.1257 20.9622 14.4208C21.0869 14.7158 21.1511 15.0329 21.1511 15.3532C21.1511 15.6736 21.0869 15.9907 20.9622 16.2857C20.8375 16.5808 20.6549 16.8479 20.4252 17.0711C20.1956 17.2944 19.9234 17.4694 19.6249 17.5857C19.3265 17.7019 19.0077 17.7572 18.6875 17.7481C18.0641 17.7305 17.4721 17.4704 17.0374 17.0232C16.6026 16.576 16.3594 15.9769 16.3594 15.3532C16.3594 14.7296 16.6026 14.1305 17.0374 13.6833C17.4721 13.2361 18.0641 12.976 18.6875 12.9584ZM27.2972 12.9584C27.6174 12.9493 27.9361 13.0046 28.2346 13.1208C28.5331 13.2371 28.8052 13.4121 29.0349 13.6354C29.2646 13.8586 29.4472 14.1257 29.5718 14.4208C29.6965 14.7158 29.7608 15.0329 29.7608 15.3532C29.7608 15.6736 29.6965 15.9907 29.5718 16.2857C29.4472 16.5808 29.2646 16.8479 29.0349 17.0711C28.8052 17.2944 28.5331 17.4694 28.2346 17.5857C27.9361 17.7019 27.6174 17.7572 27.2972 17.7481C26.6737 17.7305 26.0818 17.4704 25.647 17.0232C25.2123 16.576 24.9691 15.9769 24.9691 15.3532C24.9691 14.7296 25.2123 14.1305 25.647 13.6833C26.0818 13.2361 26.6737 12.976 27.2972 12.9584ZM24.9972 27.4043L25.2137 27.3334H11.9868C10.8431 27.3334 9.74618 27.7877 8.93743 28.5965C8.12868 29.4052 7.67433 30.5021 7.67433 31.6459V33.3843C7.67414 34.4194 7.89754 35.4423 8.32923 36.3831C8.76093 37.3239 9.39074 38.1604 10.1756 38.8353C13.1713 41.4094 17.4627 42.6686 23 42.6686C26.979 42.6686 30.3159 42.0189 32.9916 40.6983C32.483 40.6009 32.0086 40.3723 31.6156 40.0351C31.2226 39.6979 30.9245 39.2638 30.751 38.7759L30.7433 38.7529L29.8808 36.0983C29.7082 35.5784 29.4168 35.104 29.0298 34.7164L28.3417 34.2142L27.6537 33.8635L24.9991 33.001L24.9761 32.9914C24.4002 32.7864 23.9019 32.4082 23.5496 31.9087C23.1972 31.4092 23.0081 30.8129 23.0081 30.2017C23.0081 29.5904 23.1972 28.9941 23.5496 28.4947C23.9019 27.9952 24.4002 27.617 24.9761 27.412L24.9972 27.4043ZM30.3868 33.3632C30.9869 33.9613 31.4368 34.693 31.6997 35.4984L32.5584 38.1376C32.6298 38.3417 32.7629 38.5186 32.9392 38.6437C33.1155 38.7689 33.3264 38.8361 33.5426 38.8361C33.7588 38.8361 33.9697 38.7689 34.146 38.6437C34.3224 38.5186 34.4555 38.3417 34.5268 38.1376L35.3836 35.4984C35.6499 34.6957 36.1002 33.9663 36.6985 33.3686C37.2969 32.7709 38.0267 32.3214 38.8298 32.056L41.4709 31.1974C41.6728 31.1243 41.8473 30.9908 41.9707 30.8151C42.094 30.6393 42.1602 30.4298 42.1602 30.2151C42.1602 30.0004 42.094 29.7909 41.9707 29.6151C41.8473 29.4393 41.6728 29.3058 41.4709 29.2328L41.4192 29.2194L38.778 28.3607C37.9757 28.094 37.2466 27.644 36.6484 27.0465C36.0502 26.449 35.5995 25.7204 35.3318 24.9184L34.4732 22.2791C34.4014 22.0757 34.2683 21.8995 34.0922 21.7749C33.9161 21.6503 33.7056 21.5834 33.4899 21.5834C33.2742 21.5834 33.0638 21.6503 32.8877 21.7749C32.7116 21.8995 32.5784 22.0757 32.5067 22.2791L31.648 24.9184L31.625 24.9835C31.3564 25.7655 30.9133 26.4761 30.3291 27.0613C29.7449 27.6464 29.0351 28.0908 28.2536 28.3607L25.6143 29.2194C25.4124 29.2924 25.2379 29.4259 25.1146 29.6017C24.9912 29.7774 24.9251 29.9869 24.9251 30.2017C24.9251 30.4164 24.9912 30.6259 25.1146 30.8017C25.2379 30.9774 25.4124 31.1109 25.6143 31.184L28.2536 32.0426C29.0586 32.311 29.7888 32.7633 30.3868 33.3632ZM44.1178 40.683L45.5841 41.1583L45.6147 41.166C45.728 41.2056 45.826 41.2795 45.8954 41.3774C45.9648 41.4752 46.0021 41.5922 46.0021 41.7122C46.0021 41.8322 45.9648 41.9492 45.8954 42.047C45.826 42.1449 45.728 42.2188 45.6147 42.2585L44.1466 42.7338C43.7007 42.8825 43.2956 43.1329 42.9633 43.4652C42.6309 43.7976 42.3805 44.2027 42.2318 44.6485L41.7565 46.1129C41.7168 46.2261 41.6429 46.3242 41.5451 46.3936C41.4472 46.463 41.3302 46.5002 41.2103 46.5002C41.0903 46.5002 40.9733 46.463 40.8754 46.3936C40.7776 46.3242 40.7037 46.2261 40.664 46.1129L40.1848 44.6485C40.0371 44.2018 39.7873 43.7957 39.4553 43.4623C39.1233 43.129 38.7181 42.8776 38.272 42.728L36.8038 42.2508C36.6906 42.2111 36.5925 42.1372 36.5231 42.0394C36.4537 41.9415 36.4165 41.8245 36.4165 41.7045C36.4165 41.5846 36.4537 41.4676 36.5231 41.3697C36.5925 41.2719 36.6906 41.198 36.8038 41.1583L38.272 40.683C38.712 40.5304 39.1108 40.2785 39.4376 39.9468C39.7644 39.615 40.0102 39.2124 40.1561 38.7701L40.6333 37.3039C40.673 37.1907 40.7469 37.0926 40.8448 37.0232C40.9426 36.9538 41.0596 36.9165 41.1796 36.9165C41.2996 36.9165 41.4166 36.9538 41.5144 37.0232C41.6123 37.0926 41.6862 37.1907 41.7258 37.3039L42.2031 38.7682C42.3518 39.2141 42.6022 39.6192 42.9345 39.9515C43.2669 40.2839 43.672 40.5343 44.1178 40.683Z" fill="white"/>
</g>
<defs>
<clipPath id="clip0_3_365">
<rect width="46" height="46" fill="white" transform="translate(0 0.5)"/>
</clipPath>
</defs>
</svg>
