<svg width="175" height="175" viewBox="0 0 175 175" fill="none" xmlns="http://www.w3.org/2000/svg">
<path d="M10.5 1.05989H164.5C169.609 1.05989 173.75 5.20126 173.75 10.3099V164.31C173.75 169.419 169.609 173.56 164.5 173.56H10.5C5.39137 173.56 1.25 169.419 1.25 164.31V10.3099C1.25 5.20126 5.39137 1.05989 10.5 1.05989Z" fill="url(#paint0_linear_240_105)"/>
<path d="M10.5 1.05989H164.5C169.609 1.05989 173.75 5.20126 173.75 10.3099V164.31C173.75 169.419 169.609 173.56 164.5 173.56H10.5C5.39137 173.56 1.25 169.419 1.25 164.31V10.3099C1.25 5.20126 5.39137 1.05989 10.5 1.05989Z" stroke="url(#paint1_linear_240_105)" stroke-width="1.5"/>
<path d="M56.1467 57.7118C55.3667 56.9362 54.1068 56.936 53.3266 57.7114L25.9275 84.941C25.1406 85.7231 25.1406 86.9962 25.9276 87.7783L53.3273 115.005C54.1072 115.78 55.3666 115.78 56.1466 115.005L64.3073 106.898C65.0945 106.116 65.0946 104.843 64.3076 104.061L47.9244 87.7785C47.1374 86.9964 47.1376 85.7231 47.9247 84.9411L64.3078 68.665C65.0947 67.8832 65.095 66.6102 64.3084 65.828L56.1467 57.7118ZM120.402 57.7117C119.622 56.9362 118.362 56.9362 117.582 57.7117L109.428 65.8179C108.641 66.5999 108.641 67.8729 109.428 68.6548L125.812 84.9374C126.599 85.7195 126.599 86.9928 125.811 87.7748L109.428 104.051C108.641 104.833 108.641 106.106 109.428 106.888L117.579 114.994C118.359 115.769 119.619 115.77 120.399 114.995L147.804 87.7685C148.591 86.9862 148.591 85.7125 147.804 84.9304L128.584 65.8455L120.402 57.7117Z" fill="url(#paint2_linear_240_105)"/>
<path d="M104.167 29.3099L73.6666 137.31" stroke="url(#paint3_linear_240_105)" stroke-width="13" stroke-linecap="round"/>
<defs>
<linearGradient id="paint0_linear_240_105" x1="10.7353" y1="0.309889" x2="87.5" y2="174.31" gradientUnits="userSpaceOnUse">
<stop stop-color="#272727"/>
<stop offset="1" stop-color="#2E2E2E"/>
</linearGradient>
<linearGradient id="paint1_linear_240_105" x1="0.499999" y1="8.30989" x2="149" y2="164.31" gradientUnits="userSpaceOnUse">
<stop stop-color="#3445FF"/>
<stop offset="1" stop-color="#00042B" stop-opacity="0.4"/>
</linearGradient>
<linearGradient id="paint2_linear_240_105" x1="76.8663" y1="56.3099" x2="135.376" y2="155.157" gradientUnits="userSpaceOnUse">
<stop stop-color="#7098FF"/>
<stop offset="1" stop-color="#7294EB"/>
</linearGradient>
<linearGradient id="paint3_linear_240_105" x1="86.3087" y1="35.6085" x2="96.4598" y2="121.511" gradientUnits="userSpaceOnUse">
<stop offset="1" stop-color="#7098FF"/>
<stop offset="1" stop-color="#7294EB"/>
</linearGradient>
</defs>
</svg>
