<svg width="26" height="20" viewBox="0 0 26 20" fill="none" xmlns="http://www.w3.org/2000/svg">
<path d="M21.9375 1.0625H4.0625C3.63152 1.0625 3.2182 1.2337 2.91345 1.53845C2.6087 1.8432 2.4375 2.25652 2.4375 2.6875V17.3125C2.4375 17.7435 2.6087 18.1568 2.91345 18.4615C3.2182 18.7663 3.63152 18.9375 4.0625 18.9375H21.9375C22.3685 18.9375 22.7818 18.7663 23.0865 18.4615C23.3913 18.1568 23.5625 17.7435 23.5625 17.3125V2.6875C23.5625 2.25652 23.3913 1.8432 23.0865 1.53845C22.7818 1.2337 22.3685 1.0625 21.9375 1.0625ZM9.425 11.7875C9.59739 11.9168 9.71136 12.1093 9.74183 12.3226C9.77231 12.5359 9.71679 12.7526 9.5875 12.925C9.45821 13.0974 9.26573 13.2114 9.0524 13.2418C8.83908 13.2723 8.62239 13.2168 8.45 13.0875L5.2 10.65C5.09909 10.5743 5.01719 10.4762 4.96078 10.3634C4.90437 10.2505 4.875 10.1261 4.875 10C4.875 9.87386 4.90437 9.74946 4.96078 9.63664C5.01719 9.52382 5.09909 9.42568 5.2 9.35L8.45 6.9125C8.62239 6.78321 8.83908 6.72769 9.0524 6.75817C9.26573 6.78864 9.45821 6.90261 9.5875 7.075C9.71679 7.24739 9.77231 7.46408 9.74183 7.6774C9.71136 7.89073 9.59739 8.08321 9.425 8.2125L7.04133 10L9.425 11.7875ZM15.406 4.53594L12.156 15.9109C12.1283 16.0153 12.0801 16.1132 12.0141 16.1987C11.9482 16.2843 11.8658 16.3558 11.7719 16.4091C11.6779 16.4625 11.5743 16.4965 11.4671 16.5094C11.3598 16.5222 11.2511 16.5135 11.1472 16.4838C11.0433 16.454 10.9465 16.4039 10.8622 16.3363C10.778 16.2687 10.708 16.185 10.6565 16.0901C10.605 15.9951 10.5729 15.8908 10.5622 15.7834C10.5515 15.6759 10.5623 15.5673 10.594 15.4641L13.844 4.08906C13.9064 3.88567 14.0462 3.71489 14.2332 3.61343C14.4202 3.51197 14.6396 3.48791 14.8442 3.54643C15.0487 3.60496 15.2222 3.74139 15.3272 3.92641C15.4323 4.11143 15.4606 4.33028 15.406 4.53594ZM20.8 10.65L17.55 13.0875C17.3776 13.2168 17.1609 13.2723 16.9476 13.2418C16.7343 13.2114 16.5418 13.0974 16.4125 12.925C16.2832 12.7526 16.2277 12.5359 16.2582 12.3226C16.2886 12.1093 16.4026 11.9168 16.575 11.7875L18.9587 10L16.575 8.2125C16.4896 8.14848 16.4177 8.06828 16.3634 7.97646C16.309 7.88465 16.2733 7.78303 16.2582 7.6774C16.2431 7.57178 16.2489 7.46421 16.2754 7.36085C16.3019 7.25749 16.3485 7.16036 16.4125 7.075C16.4765 6.98964 16.5567 6.91773 16.6485 6.86336C16.7403 6.809 16.842 6.77326 16.9476 6.75817C17.0532 6.74308 17.1608 6.74894 17.2641 6.77542C17.3675 6.8019 17.4646 6.84848 17.55 6.9125L20.8 9.35C20.9009 9.42568 20.9828 9.52382 21.0392 9.63664C21.0956 9.74946 21.125 9.87386 21.125 10C21.125 10.1261 21.0956 10.2505 21.0392 10.3634C20.9828 10.4762 20.9009 10.5743 20.8 10.65Z" fill="#4AC73F"/>
</svg>
