<svg width="46" height="44" viewBox="0 0 46 44" fill="none" xmlns="http://www.w3.org/2000/svg">
<path d="M38.8125 7.6875H7.1875C6.425 7.6875 5.69373 7.9904 5.15457 8.52957C4.6154 9.06873 4.3125 9.8 4.3125 10.5625V36.4375C4.3125 37.2 4.6154 37.9313 5.15457 38.4704C5.69373 39.0096 6.425 39.3125 7.1875 39.3125H38.8125C39.575 39.3125 40.3063 39.0096 40.8454 38.4704C41.3846 37.9313 41.6875 37.2 41.6875 36.4375V10.5625C41.6875 9.8 41.3846 9.06873 40.8454 8.52957C40.3063 7.9904 39.575 7.6875 38.8125 7.6875ZM16.675 26.6625C16.98 26.8913 17.1816 27.2318 17.2356 27.6092C17.2895 27.9866 17.1912 28.37 16.9625 28.675C16.7338 28.98 16.3932 29.1816 16.0158 29.2356C15.6384 29.2895 15.255 29.1912 14.95 28.9625L9.2 24.65C9.02147 24.5161 8.87656 24.3425 8.77676 24.1429C8.67696 23.9433 8.625 23.7232 8.625 23.5C8.625 23.2768 8.67696 23.0567 8.77676 22.8571C8.87656 22.6575 9.02147 22.4839 9.2 22.35L14.95 18.0375C15.255 17.8088 15.6384 17.7105 16.0158 17.7644C16.3932 17.8184 16.7338 18.02 16.9625 18.325C17.1912 18.63 17.2895 19.0134 17.2356 19.3908C17.1816 19.7682 16.98 20.1088 16.675 20.3375L12.4577 23.5L16.675 26.6625ZM27.2568 13.8328L21.5068 33.9578C21.4578 34.1425 21.3724 34.3156 21.2557 34.467C21.139 34.6183 20.9933 34.7449 20.8272 34.8392C20.661 34.9336 20.4776 34.9939 20.2879 35.0166C20.0981 35.0392 19.9057 35.0238 19.722 34.9713C19.5382 34.9187 19.3668 34.83 19.2178 34.7104C19.0687 34.5908 18.945 34.4427 18.8538 34.2747C18.7627 34.1067 18.706 33.9223 18.687 33.7321C18.668 33.5419 18.6871 33.3499 18.7432 33.1672L24.4932 13.0422C24.6037 12.6823 24.851 12.3802 25.1819 12.2007C25.5127 12.0212 25.9008 11.9786 26.2627 12.0822C26.6247 12.1857 26.9315 12.4271 27.1174 12.7544C27.3033 13.0818 27.3533 13.469 27.2568 13.8328ZM36.8 24.65L31.05 28.9625C30.745 29.1912 30.3616 29.2895 29.9842 29.2356C29.6068 29.1816 29.2663 28.98 29.0375 28.675C28.8088 28.37 28.7105 27.9866 28.7644 27.6092C28.8184 27.2318 29.02 26.8913 29.325 26.6625L33.5423 23.5L29.325 20.3375C29.174 20.2242 29.0467 20.0823 28.9506 19.9199C28.8544 19.7575 28.7911 19.5777 28.7644 19.3908C28.7377 19.2039 28.7481 19.0136 28.795 18.8307C28.8418 18.6479 28.9242 18.476 29.0375 18.325C29.1508 18.174 29.2927 18.0467 29.4551 17.9506C29.6175 17.8544 29.7973 17.7911 29.9842 17.7644C30.1711 17.7378 30.3614 17.7481 30.5443 17.795C30.7271 17.8418 30.899 17.9242 31.05 18.0375L36.8 22.35C36.9785 22.4839 37.1234 22.6575 37.2232 22.8571C37.323 23.0567 37.375 23.2768 37.375 23.5C37.375 23.7232 37.323 23.9433 37.2232 24.1429C37.1234 24.3425 36.9785 24.5161 36.8 24.65Z" fill="#E2E4D4"/>
</svg>
