<svg width="124" height="25" viewBox="0 0 124 25" fill="none" xmlns="http://www.w3.org/2000/svg">
<path d="M65.7507 20.3271V4.65112H75.3167V8.28794H69.7331V20.3271H65.7507Z" fill="#757575"/>
<path d="M87.3665 20.3271V14.1821H81.434V20.3271H77.4515V4.65112H81.434V10.5035H87.3665V4.65112H91.3489V20.3271H87.3665Z" fill="#757575"/>
<path d="M114.505 20.3271V8.28794H109.845V4.65112H123.167V8.28794H118.487V20.3271H114.505Z" fill="#757575"/>
<path d="M103.974 20.3271V11.4022L97.6102 20.3271H94.2847V4.65112H98.2671V13.4924L104.508 4.65112H107.956V20.3271H103.974Z" fill="#757575"/>
<path d="M42.8418 20.3271V11.0051L38.8593 15.9378L34.8769 11.026V20.3271H30.8945V4.65112H34.8359L38.8799 10.0436L42.9239 4.65112H46.8652V20.3271H42.8418Z" fill="#757575"/>
<path d="M54.3988 14.8091H58.1143L56.2668 9.89734L54.3988 14.8091ZM60.1876 20.3271L59.346 18.1324H53.1466L52.3049 20.3271H48.302L54.4398 4.65112H58.1349L64.2727 20.3271H60.1876Z" fill="#757575"/>
<path d="M0 7.82814C0 5.92612 0.739003 4.12861 2.03226 2.79093C3.32552 1.45325 5.07039 0.700806 6.91789 0.700806H22.8681V4.33763H6.91789C6.01467 4.33763 5.1525 4.71385 4.51613 5.36179C3.87977 6.00973 3.53079 6.90848 3.51027 7.84904L3.48974 13.9522C3.40763 14.7256 3.09971 15.4571 2.58651 16.0423C2.07332 16.6067 1.37537 16.9829 0.636364 17.1292L0 17.2337V7.82814Z" fill="#757575"/>
<path d="M0 24.2774V20.6406H15.9296C16.8329 20.6406 17.695 20.2644 18.3314 19.6165C18.9678 18.9685 19.3167 18.0698 19.3373 17.1292V11.3396C19.3373 10.5035 19.6246 9.68836 20.1584 9.06132C20.6921 8.43429 21.4106 7.99536 22.2112 7.86995L22.8475 7.76544V17.1292C22.8475 19.0312 22.1085 20.8287 20.8153 22.1664C19.522 23.5041 17.7771 24.2565 15.9296 24.2565H0V24.2774Z" fill="#757575"/>
<path d="M13.5075 17.2128V12.51L11.4342 15.0809L9.34034 12.51V17.2128H6.5896V7.97443H9.19664L11.4137 10.9424L13.6512 7.97443H16.2582V17.2128H13.5075Z" fill="#757575"/>
</svg>
