<svg width="124" height="24" viewBox="0 0 124 24" fill="none" xmlns="http://www.w3.org/2000/svg">
<path d="M65.7508 19.8271V4.15112H75.3168V7.78794H69.7332V19.8271H65.7508Z" fill="#E30613"/>
<path d="M87.3666 19.8271V13.6821H81.434V19.8271H77.4516V4.15112H81.434V10.0035H87.3666V4.15112H91.349V19.8271H87.3666Z" fill="#E30613"/>
<path d="M114.505 19.8271V7.78794H109.845V4.15112H123.167V7.78794H118.487V19.8271H114.505Z" fill="#E30613"/>
<path d="M103.974 19.8271V10.9022L97.6102 19.8271H94.2847V4.15112H98.2671V12.9924L104.508 4.15112H107.956V19.8271H103.974Z" fill="#E30613"/>
<path d="M42.8418 19.8271V10.5051L38.8594 15.4378L34.877 10.526V19.8271H30.8946V4.15112H34.8359L38.8799 9.54365L42.9239 4.15112H46.8653V19.8271H42.8418Z" fill="#E30613"/>
<path d="M54.3988 14.3091H58.1144L56.2669 9.39734L54.3988 14.3091ZM60.1877 19.8271L59.3461 17.6324H53.1466L52.305 19.8271H48.3021L54.4399 4.15112H58.1349L64.2728 19.8271H60.1877Z" fill="#E30613"/>
<path d="M0 7.32814C0 5.42612 0.739003 3.62861 2.03226 2.29093C3.32552 0.953251 5.07039 0.200806 6.91789 0.200806H22.8681V3.83763H6.91789C6.01467 3.83763 5.1525 4.21385 4.51613 4.86179C3.87977 5.50973 3.53079 6.40848 3.51027 7.34904L3.48974 13.4522C3.40763 14.2256 3.09971 14.9571 2.58651 15.5423C2.07332 16.1067 1.37537 16.4829 0.636364 16.6292L0 16.7337V7.32814Z" fill="#E30613"/>
<path d="M0 23.7774V20.1406H15.9296C16.8329 20.1406 17.695 19.7644 18.3314 19.1165C18.9678 18.4685 19.3167 17.5698 19.3373 16.6292V10.8396C19.3373 10.0035 19.6246 9.18836 20.1584 8.56132C20.6921 7.93429 21.4106 7.49536 22.2112 7.36995L22.8475 7.26544V16.6292C22.8475 18.5312 22.1085 20.3287 20.8153 21.6664C19.522 23.0041 17.7771 23.7565 15.9296 23.7565H0V23.7774Z" fill="#E30613"/>
<path d="M13.5074 16.7128V12.01L11.4341 14.5809L9.34027 12.01V16.7128H6.58954V7.47443H9.19658L11.4136 10.4424L13.6511 7.47443H16.2582V16.7128H13.5074Z" fill="#E30613"/>
</svg>
