<svg width="168" height="22" viewBox="0 0 168 22" fill="none" xmlns="http://www.w3.org/2000/svg">
<path d="M162.363 21.6291L154.837 11.3635C154.242 10.5525 153.756 9.82063 153.379 9.1679H153.32C153.379 10.2162 153.409 11.3931 153.409 12.6986V21.6291H147.46V0.356033H153.528L160.742 10.1173C160.831 10.2459 160.94 10.3992 161.069 10.5772C161.198 10.7552 161.327 10.9382 161.456 11.1261C161.585 11.314 161.704 11.497 161.813 11.675C161.932 11.853 162.021 12.0112 162.08 12.1497H162.14C162.08 11.7145 162.051 10.9629 162.051 9.89481V0.356033H168V21.6291H162.363Z" fill="white"/>
<path d="M145.035 10.9332C145.035 13.0695 144.574 14.9831 143.652 16.6743C142.729 18.3556 141.44 19.666 139.785 20.6055C138.129 21.5352 136.274 22 134.222 22C132.219 22 130.394 21.55 128.748 20.65C127.112 19.7402 125.838 18.4693 124.926 16.8375C124.014 15.1958 123.558 13.3414 123.558 11.2744C123.558 9.10856 124.019 7.16026 124.941 5.42953C125.863 3.69881 127.157 2.36368 128.823 1.42414C130.489 0.474713 132.383 0 134.504 0C136.547 0 138.372 0.454934 139.978 1.3648C141.594 2.26478 142.839 3.55541 143.711 5.23668C144.594 6.90807 145.035 8.80692 145.035 10.9332ZM138.223 11.1113C138.223 9.36075 137.886 7.98112 137.211 6.97235C136.537 5.96359 135.615 5.4592 134.445 5.4592C133.166 5.4592 132.169 5.94381 131.455 6.91301C130.741 7.88222 130.385 9.25197 130.385 11.0223C130.385 12.753 130.737 14.1029 131.441 15.0722C132.154 16.0414 133.121 16.526 134.341 16.526C135.085 16.526 135.754 16.3084 136.349 15.8732C136.944 15.4381 137.405 14.815 137.732 14.004C138.059 13.1931 138.223 12.2288 138.223 11.1113Z" fill="white"/>
<path d="M114.737 21.6291V0.356033H121.162V21.6291H114.737Z" fill="white"/>
<path d="M102.868 16.615H112.505V21.6291H94.6128V17.1342L104.459 5.37019H95.2226V0.356033H112.193V4.82131L102.868 16.615Z" fill="white"/>
<path d="M86.6847 21.6291L85.0932 17.0452C84.7858 16.1452 84.3842 15.4381 83.8885 14.9238C83.4026 14.4095 82.8721 14.1524 82.297 14.1524H82.0442V21.6291H75.6188V0.356033H84.1562C87.1408 0.356033 89.342 0.845582 90.76 1.82468C92.1878 2.79388 92.9017 4.25264 92.9017 6.20094C92.9017 7.66464 92.4853 8.89098 91.6524 9.87997C90.8294 10.869 89.5998 11.586 87.9638 12.031V12.0904C88.8661 12.3673 89.6147 12.8173 90.2097 13.4403C90.8145 14.0634 91.3549 14.9881 91.8309 16.2144L93.928 21.6291H86.6847ZM86.0748 7.10586C86.0748 6.39379 85.8567 5.83007 85.4204 5.4147C84.9841 4.99932 84.3 4.79164 83.3679 4.79164H82.0442V9.65745H83.2043C84.0669 9.65745 84.761 9.41515 85.2866 8.93054C85.8121 8.44594 86.0748 7.83771 86.0748 7.10586Z" fill="white"/>
<path d="M59.4211 21.6291V0.356033H72.703V5.37019H65.8464V8.47067H72.2866V13.4848H65.8464V16.615H73.1939V21.6291H59.4211Z" fill="white"/>
<path d="M57.1895 15.1018C57.1895 17.1886 56.4557 18.8006 54.9882 19.938C53.5207 21.0654 51.4236 21.6291 48.6968 21.6291H38.9695V0.356033H48.0275C53.6893 0.356033 56.5202 2.07192 56.5202 5.50371C56.5202 6.24545 56.3417 6.92785 55.9847 7.55091C55.6278 8.16408 55.0824 8.70308 54.3487 9.1679C53.6248 9.63272 52.8266 9.9492 51.954 10.1173V10.1767C52.9654 10.2953 53.8727 10.597 54.6759 11.0816C55.479 11.5563 56.0988 12.1546 56.535 12.8766C56.9713 13.5887 57.1895 14.3304 57.1895 15.1018ZM49.6933 6.61632C49.6933 5.30096 48.6571 4.64329 46.5847 4.64329H45.3949V8.66352H47.254C47.968 8.66352 48.553 8.47561 49.0091 8.0998C49.4652 7.71409 49.6933 7.2196 49.6933 6.61632ZM50.3626 15.0721C50.3626 14.459 50.1395 13.9546 49.6933 13.559C49.2471 13.1634 48.6571 12.9656 47.9233 12.9656H45.3949V17.3122H47.5366C48.4092 17.3122 49.0983 17.1144 49.604 16.7188C50.1097 16.3133 50.3626 15.7644 50.3626 15.0721Z" fill="white"/>
<path d="M30.6696 14.2414V21.6291H24.2443V14.3304L17.6702 0.356033H25.0474L27.3528 7.04653C27.5115 7.50146 27.6205 7.89705 27.68 8.23331C27.7494 8.56956 27.8238 8.91076 27.9031 9.25691H27.9626C28.0915 8.35693 28.2353 7.6597 28.3939 7.1652L30.6696 0.356033H37.4667L30.6696 14.2414Z" fill="white"/>
<path d="M17.0598 21.0506C15.2948 21.6835 13.2572 22 10.9468 22C8.67616 22 6.71783 21.5698 5.07183 20.7094C3.42584 19.8391 2.16656 18.6078 1.29399 17.0155C0.431329 15.4134 0 13.5689 0 11.4821C0 9.23713 0.485865 7.23938 1.45759 5.48887C2.42932 3.73837 3.80264 2.3884 5.57753 1.43897C7.35242 0.479658 9.39504 0 11.7054 0C13.5497 0 15.3345 0.222522 17.0598 0.667566V6.58665C16.4649 6.23061 15.7559 5.9537 14.9329 5.7559C14.1099 5.5581 13.277 5.4592 12.4342 5.4592C10.689 5.4592 9.31076 5.95864 8.29937 6.95752C7.29789 7.95639 6.79715 9.31131 6.79715 11.0223C6.79715 12.7233 7.29789 14.0683 8.29937 15.0573C9.31076 16.0364 10.6593 16.526 12.3449 16.526C13.9017 16.526 15.4733 16.1304 17.0598 15.3392V21.0506Z" fill="white"/>
</svg>
