<svg width="46" height="47" viewBox="0 0 46 47" fill="none" xmlns="http://www.w3.org/2000/svg">
<path fill-rule="evenodd" clip-rule="evenodd" d="M23 4.33337V16.7917C23 17.5542 23.3029 18.2855 23.8421 18.8246C24.3812 19.3638 25.1125 19.6667 25.875 19.6667H38.3333V38.8334C38.3333 39.85 37.9295 40.8251 37.2106 41.5439C36.4917 42.2628 35.5167 42.6667 34.5 42.6667H11.5C10.4833 42.6667 9.50832 42.2628 8.78943 41.5439C8.07054 40.8251 7.66667 39.85 7.66667 38.8334V8.16671C7.66667 7.15004 8.07054 6.17502 8.78943 5.45613C9.50832 4.73724 10.4833 4.33337 11.5 4.33337H23ZM26.956 24.744L25.875 27.6247L24.9742 25.2231C24.2899 23.3985 21.7101 23.3985 21.0258 25.2231L20.125 27.6247L19.044 24.744C18.8563 24.281 18.4952 23.9097 18.0378 23.7091C17.5803 23.5084 17.0626 23.4943 16.5949 23.6697C16.1271 23.8451 15.7464 24.1961 15.5336 24.6481C15.3209 25.1001 15.2931 25.6172 15.456 26.0895L18.1508 33.277C18.8351 35.1016 21.4149 35.1016 22.0992 33.277L23 30.8754L23.9008 33.277C24.5851 35.1016 27.1649 35.1016 27.8492 33.277L30.544 26.0895C30.7069 25.6172 30.6791 25.1001 30.4664 24.6481C30.2536 24.1961 29.8729 23.8451 29.4051 23.6697C28.9374 23.4943 28.4197 23.5084 27.9622 23.7091C27.5048 23.9097 27.1437 24.281 26.956 24.744ZM26.8333 4.41579C27.5595 4.56981 28.2254 4.93136 28.75 5.45654L37.2102 13.9167C37.7354 14.4413 38.0969 15.1072 38.2509 15.8334H26.8333V4.41579Z" fill="#E2E4D4"/>
</svg>
