<svg width="699" height="595" viewBox="0 0 699 595" fill="none" xmlns="http://www.w3.org/2000/svg">
<path d="M283 577L283 362" stroke="url(#paint0_linear_240_177)"/>
<path d="M454 595L454 467" stroke="url(#paint1_linear_240_177)"/>
<path d="M396 149L396 193" stroke="url(#paint2_linear_240_177)"/>
<path d="M472 466C392.333 466 347.667 466 268 466" stroke="#242424"/>
<path d="M474 250L433 250" stroke="#242424"/>
<path d="M538 10L538 144" stroke="url(#paint3_linear_240_177)"/>
<path d="M538 270L538 404" stroke="#242424"/>
<path d="M433 337L665 337" stroke="url(#paint4_linear_240_177)"/>
<path d="M473.5 76.5H602" stroke="url(#paint5_linear_240_177)"/>
<g clip-path="url(#clip0_240_177)">
<rect x="304" y="41" width="170" height="103" rx="20" fill="url(#paint6_linear_240_177)"/>
<g filter="url(#filter0_f_240_177)">
<path d="M439.666 89.6889C417.991 113.468 435.988 109.76 421.245 123.8C406.501 137.841 408.841 125.056 386.275 140.534C381.705 135.735 389.952 120.463 404.696 106.423C419.439 92.3821 435.096 84.8902 439.666 89.6889Z" fill="#346DFF"/>
</g>
<g filter="url(#filter1_d_240_177)">
<path d="M354 93C354 73.67 369.67 58 389 58V58C408.33 58 424 73.67 424 93V93C424 112.33 408.33 128 389 128V128C369.67 128 354 112.33 354 93V93Z" fill="#0A0A0A" shape-rendering="crispEdges"/>
<path d="M389 58.5C408.054 58.5 423.5 73.9462 423.5 93C423.5 112.054 408.054 127.5 389 127.5C369.946 127.5 354.5 112.054 354.5 93C354.5 73.9462 369.946 58.5 389 58.5Z" stroke="#3B518A" shape-rendering="crispEdges"/>
<g filter="url(#filter2_d_240_177)">
<path d="M375.287 82.4416C374.737 80.5163 376.516 78.7384 378.442 79.2881L391.414 82.9941C395.658 84.2067 398.701 87.628 398.701 92.1812C398.701 92.8753 398.619 93.5553 398.469 94.2169C398.41 94.479 398.486 94.6787 398.587 94.7793L402.066 98.2587C402.303 98.4955 402.491 98.7766 402.619 99.086C402.747 99.3955 402.813 99.7271 402.813 100.062C402.813 100.397 402.747 100.729 402.619 101.038C402.491 101.348 402.303 101.629 402.066 101.865L397.866 106.066C397.629 106.303 397.348 106.491 397.038 106.619C396.729 106.747 396.397 106.813 396.062 106.813C395.727 106.813 395.396 106.747 395.086 106.619C394.777 106.491 394.496 106.303 394.259 106.066L390.774 102.581C390.675 102.48 390.473 102.404 390.211 102.465C389.546 102.62 388.865 102.699 388.181 102.701C383.628 102.701 380.205 99.6583 378.994 95.414L375.287 82.4416ZM382.058 86.0569C381.96 86.1556 381.881 86.2727 381.828 86.4017C381.774 86.5306 381.747 86.6689 381.747 86.8085C381.747 86.948 381.774 87.0863 381.828 87.2152C381.881 87.3442 381.96 87.4613 382.058 87.56L386.316 91.8185C386.516 92.0121 386.784 92.1194 387.063 92.1171C387.341 92.1148 387.608 92.0032 387.805 91.8063C388.002 91.6094 388.114 91.3429 388.116 91.0643C388.119 90.7857 388.012 90.5173 387.819 90.3168L383.56 86.0555C383.361 85.8565 383.091 85.7448 382.809 85.7448C382.528 85.7448 382.258 85.8579 382.058 86.0569Z" fill="white"/>
</g>
</g>
<g filter="url(#filter3_f_240_177)">
<path d="M427.371 94.0669C426.655 107.147 421.117 113.091 417.72 119.939C409.974 126.353 404.539 130.233 392.674 131.241C387.833 126.494 391.676 114.325 401.257 104.059C410.838 93.7941 422.53 89.3203 427.371 94.0669Z" fill="#346DFF" fill-opacity="0.6"/>
</g>
</g>
<rect x="304.75" y="41.75" width="168.5" height="101.5" rx="19.25" stroke="url(#paint7_linear_240_177)" stroke-width="1.5"/>
<path d="M269 188.75H423C428.109 188.75 432.25 192.891 432.25 198V352C432.25 357.109 428.109 361.25 423 361.25H269C263.891 361.25 259.75 357.109 259.75 352V198C259.75 192.891 263.891 188.75 269 188.75Z" fill="url(#paint8_linear_240_177)"/>
<path d="M269 188.75H423C428.109 188.75 432.25 192.891 432.25 198V352C432.25 357.109 428.109 361.25 423 361.25H269C263.891 361.25 259.75 357.109 259.75 352V198C259.75 192.891 263.891 188.75 269 188.75Z" stroke="url(#paint9_linear_240_177)" stroke-width="1.5"/>
<path d="M314.647 245.402C313.867 244.626 312.607 244.626 311.827 245.402L284.428 272.631C283.641 273.413 283.641 274.686 284.428 275.468L311.827 302.695C312.607 303.47 313.867 303.471 314.647 302.696L322.807 294.588C323.594 293.806 323.595 292.533 322.808 291.751L306.424 275.469C305.637 274.686 305.638 273.413 306.425 272.631L322.808 256.355C323.595 255.573 323.595 254.3 322.808 253.518L314.647 245.402ZM378.902 245.402C378.122 244.626 376.862 244.626 376.082 245.402L367.928 253.508C367.141 254.29 367.141 255.563 367.928 256.345L384.312 272.627C385.099 273.41 385.099 274.683 384.311 275.465L367.928 291.741C367.141 292.523 367.141 293.796 367.928 294.578L376.079 302.684C376.859 303.459 378.119 303.46 378.899 302.685L406.304 275.459C407.091 274.676 407.091 273.403 406.304 272.621L387.084 253.536L378.902 245.402Z" fill="url(#paint10_linear_240_177)"/>
<path d="M362.667 217L332.167 325" stroke="url(#paint11_linear_240_177)" stroke-width="13" stroke-linecap="round"/>
<g clip-path="url(#clip1_240_177)">
<rect x="50" y="250" width="168" height="126" rx="20" fill="url(#paint12_linear_240_177)"/>
<g filter="url(#filter4_f_240_177)">
<path d="M183.337 324.286C154 337.5 171.99 341.245 152.882 348.275C133.775 355.304 141 344.5 114.143 349.741C111.855 343.522 125.49 332.782 144.597 325.753C163.705 318.724 181.049 318.067 183.337 324.286Z" fill="#346DFF"/>
</g>
<g filter="url(#filter5_d_240_177)">
<path d="M97 315C97 294.565 113.565 278 134 278V278C154.435 278 171 294.565 171 315V315C171 335.435 154.435 352 134 352V352C113.565 352 97 335.435 97 315V315Z" fill="#0A0A0A" shape-rendering="crispEdges"/>
<path d="M134 278.5C154.158 278.5 170.5 294.842 170.5 315C170.5 335.158 154.158 351.5 134 351.5C113.842 351.5 97.5 335.158 97.5 315C97.5 294.842 113.842 278.5 134 278.5Z" stroke="#3B518A" shape-rendering="crispEdges"/>
<g filter="url(#filter6_d_240_177)">
<path d="M146.719 302.281H121.281C120.668 302.281 120.08 302.525 119.646 302.959C119.212 303.392 118.969 303.98 118.969 304.594V325.406C118.969 326.02 119.212 326.608 119.646 327.041C120.08 327.475 120.668 327.719 121.281 327.719H146.719C147.332 327.719 147.92 327.475 148.354 327.041C148.788 326.608 149.031 326.02 149.031 325.406V304.594C149.031 303.98 148.788 303.392 148.354 302.959C147.92 302.525 147.332 302.281 146.719 302.281ZM128.913 317.544C129.158 317.728 129.32 318.002 129.363 318.305C129.407 318.609 129.328 318.917 129.144 319.163C128.96 319.408 128.686 319.57 128.382 319.613C128.079 319.657 127.77 319.578 127.525 319.394L122.9 315.925C122.756 315.817 122.64 315.678 122.56 315.517C122.479 315.357 122.438 315.18 122.438 315C122.438 314.82 122.479 314.643 122.56 314.483C122.64 314.322 122.756 314.183 122.9 314.075L127.525 310.606C127.77 310.422 128.079 310.343 128.382 310.387C128.686 310.43 128.96 310.592 129.144 310.837C129.328 311.083 129.407 311.391 129.363 311.695C129.32 311.998 129.158 312.272 128.913 312.456L125.52 315L128.913 317.544ZM137.424 307.224L132.799 323.412C132.76 323.56 132.691 323.7 132.597 323.821C132.503 323.943 132.386 324.045 132.252 324.121C132.119 324.197 131.971 324.245 131.818 324.263C131.666 324.282 131.511 324.269 131.363 324.227C131.216 324.185 131.078 324.113 130.958 324.017C130.838 323.921 130.738 323.802 130.665 323.667C130.592 323.531 130.546 323.383 130.531 323.23C130.516 323.077 130.531 322.923 130.576 322.776L135.201 306.588C135.29 306.299 135.489 306.056 135.755 305.911C136.021 305.767 136.333 305.733 136.624 305.816C136.915 305.899 137.162 306.094 137.312 306.357C137.461 306.62 137.502 306.932 137.424 307.224ZM145.1 315.925L140.475 319.394C140.23 319.578 139.921 319.657 139.618 319.613C139.314 319.57 139.04 319.408 138.856 319.163C138.672 318.917 138.593 318.609 138.637 318.305C138.68 318.002 138.842 317.728 139.087 317.544L142.48 315L139.087 312.456C138.966 312.365 138.864 312.251 138.786 312.12C138.709 311.99 138.658 311.845 138.637 311.695C138.615 311.544 138.623 311.391 138.661 311.244C138.699 311.097 138.765 310.959 138.856 310.837C138.947 310.716 139.061 310.614 139.192 310.536C139.323 310.459 139.467 310.408 139.618 310.387C139.768 310.365 139.921 310.373 140.068 310.411C140.215 310.449 140.354 310.515 140.475 310.606L145.1 314.075C145.244 314.183 145.36 314.322 145.44 314.483C145.521 314.643 145.562 314.82 145.562 315C145.562 315.18 145.521 315.357 145.44 315.517C145.36 315.678 145.244 315.817 145.1 315.925Z" fill="white"/>
</g>
<g filter="url(#filter7_f_240_177)">
<path d="M170.371 314.067C169.655 327.147 164.117 333.091 160.72 339.939C152.974 346.353 147.539 350.233 135.674 351.241C130.833 346.494 134.676 334.325 144.257 324.059C153.838 313.794 165.53 309.32 170.371 314.067Z" fill="#346DFF" fill-opacity="0.6"/>
</g>
</g>
</g>
<rect x="50.75" y="250.75" width="166.5" height="124.5" rx="19.25" stroke="url(#paint13_linear_240_177)" stroke-width="1.5"/>
<path d="M121 205C113.82 205 108 199.18 108 192L108 126C108 118.268 114.268 112 122 112V112C129.732 112 136 118.268 136 126L136 202C136 203.657 134.657 205 133 205L121 205Z" fill="#DDFF05"/>
<path d="M124 192.211L116 192.211L116 189.211C116 188.596 116.115 188.081 116.344 187.664C116.573 187.245 116.888 186.928 117.289 186.715C117.687 186.499 118.141 186.391 118.648 186.391C119.161 186.391 119.617 186.499 120.016 186.715C120.414 186.931 120.728 187.25 120.957 187.672C121.184 188.094 121.297 188.613 121.297 189.23L121.297 191.219L120.105 191.219L120.105 189.426C120.105 189.066 120.043 188.772 119.918 188.543C119.793 188.314 119.621 188.145 119.402 188.035C119.184 187.923 118.932 187.867 118.648 187.867C118.365 187.867 118.115 187.923 117.898 188.035C117.682 188.145 117.514 188.315 117.395 188.547C117.272 188.776 117.211 189.072 117.211 189.434L117.211 190.762L124 190.762L124 192.211ZM124.121 183.355C124.121 183.735 124.053 184.078 123.918 184.383C123.78 184.685 123.577 184.924 123.309 185.101C123.04 185.276 122.71 185.363 122.316 185.363C121.978 185.363 121.698 185.301 121.477 185.176C121.255 185.051 121.078 184.88 120.945 184.664C120.812 184.448 120.712 184.204 120.645 183.933C120.574 183.66 120.523 183.377 120.492 183.086C120.456 182.734 120.423 182.449 120.395 182.23C120.363 182.011 120.316 181.853 120.254 181.754C120.189 181.652 120.089 181.601 119.953 181.601L119.93 181.601C119.635 181.601 119.408 181.689 119.246 181.863C119.085 182.037 119.004 182.289 119.004 182.617C119.004 182.963 119.079 183.238 119.23 183.441C119.382 183.642 119.56 183.777 119.766 183.847L119.578 185.168C119.214 185.064 118.909 184.892 118.664 184.652C118.417 184.412 118.232 184.12 118.109 183.773C117.984 183.427 117.922 183.044 117.922 182.625C117.922 182.336 117.956 182.048 118.023 181.761C118.091 181.475 118.203 181.213 118.359 180.976C118.513 180.739 118.723 180.549 118.988 180.406C119.254 180.26 119.586 180.187 119.984 180.187L124 180.187L124 181.547L123.176 181.547L123.176 181.593C123.342 181.679 123.499 181.801 123.645 181.957C123.788 182.11 123.904 182.304 123.992 182.539C124.078 182.771 124.121 183.043 124.121 183.355ZM123.082 182.988C123.082 182.704 123.026 182.458 122.914 182.25C122.799 182.041 122.648 181.881 122.461 181.769C122.273 181.655 122.069 181.597 121.848 181.597L121.141 181.597C121.177 181.642 121.211 181.717 121.242 181.824C121.273 181.928 121.301 182.045 121.324 182.176C121.348 182.306 121.368 182.435 121.387 182.562C121.405 182.69 121.421 182.801 121.434 182.894C121.462 183.105 121.509 183.294 121.574 183.461C121.639 183.627 121.73 183.759 121.848 183.855C121.962 183.952 122.111 184 122.293 184C122.553 184 122.75 183.905 122.883 183.715C123.016 183.524 123.082 183.282 123.082 182.988ZM122.355 178.877L122.355 177.475C122.579 177.462 122.753 177.362 122.875 177.174C122.997 176.987 123.059 176.743 123.059 176.444C123.059 176.139 122.992 175.883 122.859 175.674C122.724 175.463 122.52 175.358 122.246 175.358C122.085 175.358 121.943 175.398 121.82 175.479C121.695 175.56 121.599 175.673 121.531 175.819C121.464 175.965 121.43 176.136 121.43 176.334L121.43 177.252L120.426 177.252L120.426 176.334C120.426 176.04 120.358 175.817 120.223 175.666C120.087 175.513 119.917 175.436 119.711 175.436C119.49 175.436 119.31 175.517 119.172 175.678C119.034 175.837 118.965 176.057 118.965 176.338C118.965 176.62 119.029 176.854 119.156 177.041C119.284 177.226 119.448 177.323 119.648 177.331L119.648 178.725C119.299 178.72 118.996 178.616 118.738 178.413C118.48 178.207 118.28 177.931 118.137 177.584C117.993 177.235 117.922 176.842 117.922 176.405C117.922 175.936 117.992 175.531 118.133 175.19C118.273 174.849 118.47 174.586 118.723 174.401C118.973 174.216 119.267 174.123 119.605 174.123C119.931 174.123 120.201 174.225 120.414 174.428C120.625 174.631 120.776 174.905 120.867 175.248L120.93 175.248C120.943 175.011 121.01 174.798 121.133 174.608C121.253 174.418 121.415 174.267 121.621 174.155C121.827 174.043 122.065 173.987 122.336 173.987C122.703 173.987 123.021 174.092 123.289 174.303C123.555 174.514 123.759 174.804 123.902 175.174C124.046 175.541 124.117 175.962 124.117 176.436C124.117 176.897 124.048 177.31 123.91 177.674C123.77 178.036 123.568 178.324 123.305 178.538C123.042 178.751 122.725 178.864 122.355 178.877ZM126.25 172.653L118 172.653L118 171.263L118.992 171.263L118.992 171.181C118.846 171.108 118.691 171.005 118.527 170.872C118.361 170.739 118.219 170.56 118.102 170.333C117.982 170.107 117.922 169.818 117.922 169.466C117.922 169.002 118.04 168.584 118.277 168.212C118.512 167.837 118.859 167.54 119.32 167.321C119.779 167.1 120.341 166.989 121.008 166.989C121.667 166.989 122.227 167.097 122.687 167.314C123.148 167.53 123.5 167.824 123.742 168.196C123.984 168.569 124.105 168.991 124.105 169.462C124.105 169.806 124.048 170.091 123.934 170.318C123.819 170.544 123.681 170.726 123.52 170.864C123.355 171 123.201 171.105 123.055 171.181L123.055 171.239L126.25 171.239L126.25 172.653ZM121 171.267C121.388 171.267 121.728 171.212 122.02 171.103C122.311 170.991 122.539 170.831 122.703 170.622C122.865 170.411 122.945 170.156 122.945 169.857C122.945 169.544 122.862 169.282 122.695 169.071C122.526 168.861 122.296 168.702 122.004 168.595C121.71 168.486 121.375 168.431 121 168.431C120.628 168.431 120.297 168.484 120.008 168.591C119.719 168.698 119.492 168.857 119.328 169.068C119.164 169.278 119.082 169.541 119.082 169.857C119.082 170.159 119.161 170.415 119.32 170.626C119.479 170.837 119.702 170.997 119.988 171.107C120.275 171.213 120.612 171.267 121 171.267ZM124.121 163.832C124.121 164.212 124.053 164.555 123.918 164.859C123.78 165.161 123.577 165.401 123.309 165.578C123.04 165.752 122.71 165.84 122.316 165.84C121.978 165.84 121.698 165.777 121.477 165.652C121.255 165.527 121.078 165.357 120.945 165.141C120.812 164.924 120.712 164.681 120.645 164.41C120.574 164.137 120.523 163.854 120.492 163.562C120.456 163.211 120.423 162.926 120.395 162.707C120.363 162.488 120.316 162.329 120.254 162.23C120.189 162.129 120.089 162.078 119.953 162.078L119.93 162.078C119.635 162.078 119.408 162.165 119.246 162.34C119.085 162.514 119.004 162.766 119.004 163.094C119.004 163.44 119.079 163.715 119.23 163.918C119.382 164.118 119.56 164.254 119.766 164.324L119.578 165.644C119.214 165.54 118.909 165.368 118.664 165.129C118.417 164.889 118.232 164.596 118.109 164.25C117.984 163.904 117.922 163.521 117.922 163.101C117.922 162.812 117.956 162.525 118.023 162.238C118.091 161.952 118.203 161.69 118.359 161.453C118.513 161.216 118.723 161.026 118.988 160.883C119.254 160.737 119.586 160.664 119.984 160.664L124 160.664L124 162.023L123.176 162.023L123.176 162.07C123.342 162.156 123.499 162.277 123.645 162.433C123.788 162.587 123.904 162.781 123.992 163.016C124.078 163.247 124.121 163.519 124.121 163.832ZM123.082 163.465C123.082 163.181 123.026 162.935 122.914 162.726C122.799 162.518 122.648 162.358 122.461 162.246C122.273 162.131 122.069 162.074 121.848 162.074L121.141 162.074C121.177 162.118 121.211 162.194 121.242 162.301C121.273 162.405 121.301 162.522 121.324 162.652C121.348 162.782 121.368 162.911 121.387 163.039C121.405 163.167 121.421 163.277 121.434 163.371C121.462 163.582 121.509 163.771 121.574 163.937C121.639 164.104 121.73 164.236 121.848 164.332C121.962 164.428 122.111 164.476 122.293 164.476C122.553 164.476 122.75 164.381 122.883 164.191C123.016 164.001 123.082 163.759 123.082 163.465ZM115.781 154.213L116.695 153.721C116.846 153.896 116.956 154.091 117.023 154.307C117.091 154.523 117.135 154.777 117.156 155.069C117.174 155.358 117.187 155.702 117.195 156.1C117.206 156.548 117.29 156.914 117.449 157.198C117.608 157.482 117.849 157.699 118.172 157.85C118.492 158.001 118.901 158.1 119.398 158.147L119.398 158.081C119.031 157.893 118.751 157.63 118.559 157.292C118.366 156.953 118.27 156.556 118.27 156.1C118.27 155.603 118.382 155.164 118.605 154.784C118.827 154.401 119.148 154.103 119.57 153.889C119.992 153.673 120.503 153.565 121.102 153.565C121.719 153.565 122.254 153.681 122.707 153.913C123.158 154.144 123.505 154.474 123.75 154.901C123.995 155.325 124.117 155.829 124.117 156.413C124.117 156.993 123.991 157.499 123.738 157.928C123.483 158.355 123.107 158.686 122.609 158.921C122.109 159.152 121.493 159.268 120.762 159.268L120.223 159.268C118.811 159.268 117.758 159.005 117.062 158.479C116.367 157.953 116.013 157.173 116 156.139C115.995 155.832 115.993 155.557 115.996 155.315C115.999 155.07 115.987 154.857 115.961 154.674C115.935 154.492 115.875 154.338 115.781 154.213ZM122.984 156.405C122.984 156.116 122.91 155.866 122.762 155.655C122.611 155.444 122.397 155.282 122.121 155.171C121.845 155.056 121.518 154.999 121.141 154.999C120.768 154.999 120.452 155.056 120.191 155.171C119.928 155.285 119.728 155.448 119.59 155.659C119.452 155.87 119.383 156.121 119.383 156.413C119.383 156.631 119.422 156.828 119.5 157.003C119.578 157.177 119.693 157.325 119.844 157.448C119.995 157.57 120.178 157.664 120.395 157.729C120.611 157.794 120.859 157.829 121.141 157.835C121.706 157.835 122.155 157.707 122.488 157.452C122.819 157.197 122.984 156.848 122.984 156.405ZM124.117 149.525C124.117 150.111 123.988 150.618 123.73 151.048C123.473 151.478 123.112 151.811 122.648 152.048C122.185 152.283 121.643 152.4 121.023 152.4C120.404 152.4 119.861 152.283 119.395 152.048C118.928 151.811 118.566 151.478 118.309 151.048C118.051 150.618 117.922 150.111 117.922 149.525C117.922 148.939 118.051 148.431 118.309 148.001C118.566 147.572 118.928 147.24 119.395 147.005C119.861 146.768 120.404 146.65 121.023 146.65C121.643 146.65 122.185 146.768 122.648 147.005C123.112 147.24 123.473 147.572 123.73 148.001C123.988 148.431 124.117 148.939 124.117 149.525ZM122.984 149.517C122.984 149.199 122.897 148.934 122.723 148.72C122.546 148.506 122.309 148.348 122.012 148.243C121.715 148.137 121.384 148.083 121.02 148.083C120.652 148.083 120.32 148.137 120.023 148.243C119.724 148.348 119.486 148.506 119.309 148.72C119.132 148.934 119.043 149.199 119.043 149.517C119.043 149.842 119.132 150.113 119.309 150.329C119.486 150.543 119.724 150.703 120.023 150.81C120.32 150.914 120.652 150.966 121.02 150.966C121.384 150.966 121.715 150.914 122.012 150.81C122.309 150.703 122.546 150.543 122.723 150.329C122.897 150.113 122.984 149.842 122.984 149.517ZM119.16 145.891L118 145.891L118 140.641L119.16 140.641L119.16 142.582L124 142.582L124 143.949L119.16 143.949L119.16 145.891ZM124 139.295L118 139.295L118 137.881L120.422 137.881L120.422 137.365L118 135.56L118 133.857L120.945 136.08L124 133.834L124 135.545L121.738 137.189L121.738 137.881L124 137.881L124 139.295ZM124.121 131.085C124.121 131.466 124.053 131.808 123.918 132.113C123.78 132.415 123.577 132.654 123.309 132.832C123.04 133.006 122.71 133.093 122.316 133.093C121.978 133.093 121.698 133.031 121.477 132.906C121.255 132.781 121.078 132.61 120.945 132.394C120.812 132.178 120.712 131.934 120.645 131.664C120.574 131.39 120.523 131.108 120.492 130.816C120.456 130.464 120.423 130.179 120.395 129.96C120.363 129.742 120.316 129.583 120.254 129.484C120.189 129.382 120.089 129.332 119.953 129.332L119.93 129.332C119.635 129.332 119.408 129.419 119.246 129.593C119.085 129.768 119.004 130.019 119.004 130.347C119.004 130.694 119.079 130.968 119.23 131.171C119.382 131.372 119.56 131.507 119.766 131.578L119.578 132.898C119.214 132.794 118.909 132.622 118.664 132.382C118.417 132.143 118.232 131.85 118.109 131.503C117.984 131.157 117.922 130.774 117.922 130.355C117.922 130.066 117.956 129.778 118.023 129.492C118.091 129.205 118.203 128.944 118.359 128.707C118.513 128.47 118.723 128.279 118.988 128.136C119.254 127.99 119.586 127.917 119.984 127.917L124 127.917L124 129.277L123.176 129.277L123.176 129.324C123.342 129.41 123.499 129.531 123.645 129.687C123.788 129.841 123.904 130.035 123.992 130.269C124.078 130.501 124.121 130.773 124.121 131.085ZM123.082 130.718C123.082 130.434 123.026 130.188 122.914 129.98C122.799 129.772 122.648 129.611 122.461 129.499C122.273 129.385 122.069 129.328 121.848 129.328L121.141 129.328C121.177 129.372 121.211 129.447 121.242 129.554C121.273 129.658 121.301 129.776 121.324 129.906C121.348 130.036 121.368 130.165 121.387 130.292C121.405 130.42 121.421 130.531 121.434 130.624C121.462 130.835 121.509 131.024 121.574 131.191C121.639 131.358 121.73 131.489 121.848 131.585C121.962 131.682 122.111 131.73 122.293 131.73C122.553 131.73 122.75 131.635 122.883 131.445C123.016 131.255 123.082 131.013 123.082 130.718Z" fill="black"/>
<path d="M659 281C652.373 281 647 275.627 647 269L647 227C647 225.343 648.343 224 650 224L658 224C665.18 224 671 229.82 671 237L671 269C671 275.627 665.627 281 659 281V281Z" fill="#F24E1E"/>
<path d="M663 265.211L655 265.211L655 260.066L656.215 260.066L656.215 263.762L658.09 263.762L658.09 262.219C658.09 261.607 658.19 261.082 658.391 260.645C658.589 260.204 658.868 259.867 659.23 259.633C659.592 259.398 660.018 259.281 660.508 259.281C661 259.281 661.434 259.398 661.809 259.633C662.181 259.867 662.473 260.204 662.684 260.645C662.895 261.082 663 261.607 663 262.219L663 265.211ZM661.812 263.762L661.812 262.219C661.812 261.896 661.751 261.622 661.629 261.398C661.507 261.174 661.345 261.005 661.145 260.891C660.944 260.773 660.727 260.715 660.492 260.715C660.154 260.715 659.866 260.845 659.629 261.105C659.389 261.363 659.27 261.734 659.27 262.219L659.27 263.762L661.812 263.762ZM663.117 255.239C663.117 255.825 662.988 256.333 662.73 256.762C662.473 257.192 662.112 257.525 661.648 257.762C661.185 257.997 660.643 258.114 660.023 258.114C659.404 258.114 658.861 257.997 658.395 257.762C657.928 257.525 657.566 257.192 657.309 256.762C657.051 256.333 656.922 255.825 656.922 255.239C656.922 254.653 657.051 254.145 657.309 253.716C657.566 253.286 657.928 252.954 658.395 252.719C658.861 252.482 659.404 252.364 660.023 252.364C660.643 252.364 661.185 252.482 661.648 252.719C662.112 252.954 662.473 253.286 662.73 253.716C662.988 254.145 663.117 254.653 663.117 255.239ZM661.984 255.231C661.984 254.913 661.897 254.648 661.723 254.434C661.546 254.221 661.309 254.062 661.012 253.958C660.715 253.851 660.384 253.798 660.02 253.798C659.652 253.798 659.32 253.851 659.023 253.958C658.724 254.062 658.486 254.221 658.309 254.434C658.132 254.648 658.043 254.913 658.043 255.231C658.043 255.557 658.132 255.828 658.309 256.044C658.486 256.257 658.724 256.417 659.023 256.524C659.32 256.628 659.652 256.68 660.02 256.68C660.384 256.68 660.715 256.628 661.012 256.524C661.309 256.417 661.546 256.257 661.723 256.044C661.897 255.828 661.984 255.557 661.984 255.231ZM658.16 251.605L657 251.605L657 246.355L658.16 246.355L658.16 248.296L663 248.296L663 249.664L658.16 249.664L658.16 251.605ZM658.953 244.052L658.953 242.282C658.953 241.517 659.139 240.924 659.512 240.505C659.884 240.086 660.372 239.875 660.977 239.872C661.37 239.875 661.719 239.971 662.023 240.161C662.328 240.349 662.568 240.622 662.742 240.982C662.914 241.338 663 241.772 663 242.282L663 245.009L657 245.009L657 243.646L661.84 243.646L661.84 242.282C661.84 241.975 661.762 241.722 661.605 241.525C661.447 241.327 661.243 241.228 660.996 241.228C660.736 241.228 660.523 241.327 660.359 241.525C660.195 241.722 660.113 241.975 660.113 242.282L660.113 244.052L658.953 244.052ZM663 239.126L657 239.126L657 237.712L663 237.712L663 239.126Z" fill="black"/>
<g clip-path="url(#clip2_240_177)">
<rect x="146" y="410" width="122" height="122" rx="20" fill="url(#paint14_linear_240_177)"/>
<g filter="url(#filter8_f_240_177)">
<path d="M252.539 499.147C216.195 501.472 233.766 512.6 210.723 512.444C187.68 512.287 199.635 503.715 169.092 498.58C169.143 491.08 187.865 485.127 210.908 485.284C233.951 485.44 252.59 491.647 252.539 499.147Z" fill="#346DFF"/>
</g>
<g filter="url(#filter9_d_240_177)">
<path d="M172 471C172 451.67 187.67 436 207 436V436C226.33 436 242 451.67 242 471V471C242 490.33 226.33 506 207 506V506C187.67 506 172 490.33 172 471V471Z" fill="#0A0A0A" shape-rendering="crispEdges"/>
<path d="M207 436.5C226.054 436.5 241.5 451.946 241.5 471C241.5 490.054 226.054 505.5 207 505.5C187.946 505.5 172.5 490.054 172.5 471C172.5 451.946 187.946 436.5 207 436.5Z" stroke="#3B518A" shape-rendering="crispEdges"/>
<path d="M222.338 462.727C222.89 462.727 223.338 463.175 223.338 463.727V477C223.338 477.552 222.89 478 222.338 478H220.646C220.094 478 219.646 477.552 219.646 477V463.727C219.646 463.175 220.094 462.727 220.646 462.727H222.338Z" fill="white"/>
<path d="M206.527 478C205.975 478 205.527 477.552 205.527 477V463.727C205.527 463.175 205.975 462.727 206.527 462.727H211.836C212.98 462.727 213.966 462.951 214.797 463.398C215.632 463.841 216.276 464.46 216.728 465.255C217.181 466.046 217.407 466.966 217.407 468.015C217.407 469.069 217.176 469.991 216.713 470.781C216.256 471.567 215.602 472.176 214.752 472.608C213.902 473.041 212.893 473.257 211.724 473.257H208.831C208.279 473.257 207.831 472.809 207.831 472.257V471.349C207.831 470.796 208.279 470.349 208.831 470.349H211.038C211.595 470.349 212.06 470.252 212.433 470.058C212.81 469.864 213.096 469.593 213.29 469.245C213.484 468.892 213.581 468.482 213.581 468.015C213.581 467.542 213.484 467.135 213.29 466.792C213.096 466.444 212.81 466.175 212.433 465.986C212.055 465.797 211.59 465.703 211.038 465.703H210.219C209.666 465.703 209.219 466.151 209.219 466.703V477C209.219 477.552 208.771 478 208.219 478H206.527Z" fill="white"/>
<path d="M192.429 477.299C192.298 477.716 191.912 478 191.475 478H189.635C188.951 478 188.469 477.329 188.687 476.68L193.166 463.408C193.303 463.001 193.684 462.727 194.113 462.727H197.592C198.021 462.727 198.402 463.001 198.539 463.408L203.017 476.68C203.236 477.329 202.754 478 202.07 478H200.23C199.793 478 199.406 477.716 199.275 477.3L195.926 466.632C195.916 466.598 195.884 466.575 195.849 466.575V466.575C195.813 466.575 195.782 466.598 195.771 466.632L192.429 477.299ZM191.68 472.989C191.68 472.437 192.128 471.989 192.68 471.989H198.973C199.525 471.989 199.973 472.437 199.973 472.989V473.793C199.973 474.346 199.525 474.793 198.973 474.793H192.68C192.128 474.793 191.68 474.346 191.68 473.793V472.989Z" fill="white"/>
</g>
<g filter="url(#filter10_f_240_177)">
<path d="M191.111 502.059C198.289 493.927 204.937 492.906 210.659 490.199C218.984 490.006 224.508 490.273 232.735 495.707C233.445 501.276 224.703 507.213 213.209 508.967C201.715 510.721 191.821 507.628 191.111 502.059Z" fill="#346DFF" fill-opacity="0.6"/>
</g>
</g>
<rect x="146.75" y="410.75" width="120.5" height="120.5" rx="19.25" stroke="url(#paint15_linear_240_177)" stroke-width="1.5"/>
<g clip-path="url(#clip3_240_177)">
<rect y="410" width="122" height="122" rx="20" fill="url(#paint16_linear_240_177)"/>
<g filter="url(#filter11_f_240_177)">
<path d="M99.1906 504.25C62.8359 502.111 78.9132 515.305 56.0624 512.33C33.2116 509.356 46.1257 502.311 16.4405 493.477C17.4088 486.04 36.718 482.422 59.5688 485.397C82.4196 488.372 100.159 496.813 99.1906 504.25Z" fill="#346DFF"/>
</g>
<g filter="url(#filter12_d_240_177)">
<path d="M26 471C26 451.67 41.67 436 61 436V436C80.33 436 96 451.67 96 471V471C96 490.33 80.33 506 61 506V506C41.67 506 26 490.33 26 471V471Z" fill="#0A0A0A" shape-rendering="crispEdges"/>
<path d="M61 436.5C80.0538 436.5 95.5 451.946 95.5 471C95.5 490.054 80.0538 505.5 61 505.5C41.9462 505.5 26.5 490.054 26.5 471C26.5 451.946 41.9462 436.5 61 436.5Z" stroke="#3B518A" shape-rendering="crispEdges"/>
<path d="M70.0997 465.725C69.5474 465.725 69.0997 465.277 69.0997 464.725V463.727C69.0997 463.175 69.5474 462.727 70.0997 462.727H81.0085C81.5608 462.727 82.0085 463.175 82.0085 463.727V464.725C82.0085 465.277 81.5608 465.725 81.0085 465.725H78.3774C77.8251 465.725 77.3774 466.173 77.3774 466.725V477C77.3774 477.552 76.9297 478 76.3774 478H74.7382C74.1859 478 73.7382 477.552 73.7382 477V466.725C73.7382 466.173 73.2905 465.725 72.7382 465.725H70.0997Z" fill="white"/>
<path d="M57.8953 478C57.343 478 56.8953 477.552 56.8953 477V463.727C56.8953 463.175 57.343 462.727 57.8953 462.727H66.3207C66.873 462.727 67.3207 463.175 67.3207 463.727V464.725C67.3207 465.277 66.873 465.725 66.3207 465.725H61.5867C61.0344 465.725 60.5867 466.173 60.5867 466.725V467.857C60.5867 468.41 61.0344 468.857 61.5867 468.857H65.657C66.2093 468.857 66.657 469.305 66.657 469.857V470.863C66.657 471.415 66.2093 471.863 65.657 471.863H61.5867C61.0344 471.863 60.5867 472.31 60.5867 472.863V477C60.5867 477.552 60.139 478 59.5867 478H57.8953Z" fill="white"/>
<path d="M53.1541 462.727C53.7064 462.727 54.1541 463.175 54.1541 463.727V477C54.1541 477.552 53.7064 478 53.1541 478H51.5472C51.2184 478 50.9106 477.838 50.7239 477.568L44.9632 469.213C44.9513 469.196 44.9318 469.185 44.9109 469.185V469.185C44.8757 469.185 44.8473 469.214 44.8473 469.249V477C44.8473 477.552 44.3996 478 43.8473 478H42.1559C41.6036 478 41.1559 477.552 41.1559 477V463.727C41.1559 463.175 41.6036 462.727 42.1559 462.727H43.8048C44.1351 462.727 44.4442 462.89 44.6305 463.163L50.3187 471.491C50.3341 471.513 50.3598 471.527 50.3872 471.527V471.527C50.433 471.527 50.4702 471.49 50.4702 471.444V463.727C50.4702 463.175 50.9179 462.727 51.4702 462.727H53.1541Z" fill="white"/>
</g>
<g filter="url(#filter13_f_240_177)">
<path d="M38.0273 492.963C47.9762 488.641 54.4303 490.536 60.7602 490.51C68.3819 493.865 73.2709 496.449 78.4184 504.858C76.7005 510.203 66.266 511.873 55.1123 508.588C43.9586 505.304 36.3094 498.308 38.0273 492.963Z" fill="#346DFF" fill-opacity="0.6"/>
</g>
</g>
<rect x="0.75" y="410.75" width="120.5" height="120.5" rx="19.25" stroke="url(#paint17_linear_240_177)" stroke-width="1.5"/>
<g clip-path="url(#clip4_240_177)">
<rect x="474" y="144" width="162" height="136" rx="20" fill="url(#paint18_linear_240_177)"/>
<g filter="url(#filter14_f_240_177)">
<path d="M560.235 274.671C531.773 251.953 537.295 272.005 520.345 256.393C503.395 240.782 518.008 242.477 498.855 218.137C503.936 212.62 521.796 220.804 538.745 236.415C555.695 252.026 565.317 269.154 560.235 274.671Z" fill="#346DFF"/>
</g>
<g filter="url(#filter15_d_240_177)">
<path d="M509 211.5C509 186.371 529.371 166 554.5 166V166C579.629 166 600 186.371 600 211.5V211.5C600 236.629 579.629 257 554.5 257V257C529.371 257 509 236.629 509 211.5V211.5Z" fill="#0A0A0A" shape-rendering="crispEdges"/>
<path d="M554.5 166.5C579.353 166.5 599.5 186.647 599.5 211.5C599.5 236.353 579.353 256.5 554.5 256.5C529.647 256.5 509.5 236.353 509.5 211.5C509.5 186.647 529.647 166.5 554.5 166.5Z" stroke="#3B518A" shape-rendering="crispEdges"/>
<path d="M567.588 216.55C568.26 216.55 568.926 216.682 569.547 216.94C570.168 217.197 570.732 217.574 571.208 218.049C571.683 218.525 572.06 219.089 572.317 219.71C572.574 220.331 572.707 220.997 572.707 221.669V223.725C572.707 224.955 572.442 226.17 571.928 227.288C571.415 228.405 570.666 229.399 569.733 230.2C566.173 233.258 561.075 234.75 554.5 234.75C547.925 234.75 542.834 233.258 539.28 230.2C538.349 229.399 537.601 228.407 537.088 227.291C536.575 226.174 536.309 224.961 536.309 223.732V221.666C536.31 220.309 536.849 219.008 537.809 218.048C538.769 217.089 540.071 216.55 541.428 216.55H567.588ZM554.5 189.25C554.912 189.25 555.311 189.399 555.621 189.67C555.932 189.941 556.134 190.316 556.19 190.724L556.206 190.956L556.204 192.66H564.166C565.524 192.66 566.826 193.2 567.786 194.159C568.746 195.119 569.285 196.421 569.285 197.779V208.028C569.285 209.385 568.746 210.687 567.786 211.647C566.826 212.607 565.524 213.147 564.166 213.147H544.829C543.471 213.147 542.169 212.607 541.209 211.647C540.25 210.687 539.71 209.385 539.71 208.028V197.781C539.71 197.109 539.843 196.443 540.1 195.822C540.357 195.201 540.735 194.636 541.21 194.161C541.686 193.686 542.25 193.309 542.872 193.051C543.493 192.794 544.159 192.662 544.831 192.663L552.794 192.66V190.956C552.794 190.544 552.943 190.145 553.215 189.834C553.486 189.523 553.861 189.321 554.27 189.266L554.5 189.25ZM549.379 199.488C548.996 199.472 548.614 199.534 548.256 199.67C547.898 199.806 547.571 200.013 547.295 200.278C547.019 200.544 546.799 200.862 546.649 201.214C546.499 201.567 546.421 201.946 546.421 202.329C546.421 202.712 546.499 203.091 546.649 203.443C546.799 203.796 547.019 204.114 547.295 204.38C547.571 204.645 547.898 204.852 548.256 204.988C548.614 205.124 548.996 205.186 549.379 205.17C550.113 205.141 550.807 204.829 551.316 204.299C551.825 203.77 552.109 203.063 552.109 202.329C552.109 201.594 551.825 200.888 551.316 200.359C550.807 199.829 550.113 199.517 549.379 199.488ZM559.601 199.488C559.218 199.472 558.836 199.534 558.478 199.67C558.12 199.806 557.793 200.013 557.517 200.278C557.24 200.544 557.021 200.862 556.871 201.214C556.72 201.567 556.643 201.946 556.643 202.329C556.643 202.712 556.72 203.091 556.871 203.443C557.021 203.796 557.24 204.114 557.517 204.38C557.793 204.645 558.12 204.852 558.478 204.988C558.836 205.124 559.218 205.186 559.601 205.17C560.334 205.141 561.029 204.829 561.537 204.299C562.046 203.77 562.331 203.063 562.331 202.329C562.331 201.594 562.046 200.888 561.537 200.359C561.029 199.829 560.334 199.517 559.601 199.488Z" fill="white"/>
</g>
<g filter="url(#filter16_f_240_177)">
<path d="M510.108 228.631C520.951 228.92 525.999 233.365 531.747 236.018C537.236 242.28 540.574 246.689 541.684 256.486C537.868 260.603 527.706 257.706 518.986 250.014C510.267 242.322 506.292 232.749 510.108 228.631Z" fill="#346DFF" fill-opacity="0.6"/>
</g>
</g>
<rect x="474.75" y="144.75" width="160.5" height="134.5" rx="19.25" stroke="url(#paint19_linear_240_177)" stroke-width="1.5"/>
<path d="M259 214L38 214" stroke="url(#paint20_linear_240_177)"/>
<path d="M146 472L122 472" stroke="url(#paint21_linear_240_177)"/>
<path d="M259 313L218 313" stroke="url(#paint22_linear_240_177)"/>
<g clip-path="url(#clip5_240_177)">
<rect x="472" y="404" width="192" height="136" rx="20" fill="url(#paint23_linear_240_177)"/>
<g filter="url(#filter17_f_240_177)">
<path d="M616.539 512.147C580.195 514.472 597.766 525.6 574.723 525.444C551.68 525.287 563.635 516.715 533.092 511.58C533.143 504.08 551.865 498.127 574.908 498.284C597.951 498.44 616.59 504.647 616.539 512.147Z" fill="#346DFF"/>
</g>
<g filter="url(#filter18_d_240_177)">
<path d="M528 472C528 449.909 545.909 432 568 432V432C590.091 432 608 449.909 608 472V472C608 494.091 590.091 512 568 512V512C545.909 512 528 494.091 528 472V472Z" fill="#0A0A0A" shape-rendering="crispEdges"/>
<path d="M568 432.5C589.815 432.5 607.5 450.185 607.5 472C607.5 493.815 589.815 511.5 568 511.5C546.185 511.5 528.5 493.815 528.5 472C528.5 450.185 546.185 432.5 568 432.5Z" stroke="#3B518A" shape-rendering="crispEdges"/>
<path fill-rule="evenodd" clip-rule="evenodd" d="M568 455.333V466.167C568 466.83 568.263 467.466 568.732 467.934C569.201 468.403 569.837 468.667 570.5 468.667H581.333V485.333C581.333 486.217 580.982 487.065 580.357 487.69C579.732 488.315 578.884 488.667 578 488.667H558C557.116 488.667 556.268 488.315 555.643 487.69C555.018 487.065 554.667 486.217 554.667 485.333V458.667C554.667 457.783 555.018 456.935 555.643 456.31C556.268 455.685 557.116 455.333 558 455.333H568ZM571.44 473.082L570.5 475.587L569.717 473.498C569.122 471.912 566.878 471.912 566.283 473.498L565.5 475.587L564.56 473.082C564.397 472.679 564.083 472.356 563.685 472.182C563.287 472.007 562.837 471.995 562.43 472.147C562.024 472.3 561.693 472.605 561.508 472.998C561.323 473.391 561.298 473.841 561.44 474.252L563.783 480.502C564.378 482.088 566.622 482.088 567.217 480.502L568 478.413L568.783 480.502C569.378 482.088 571.622 482.088 572.217 480.502L574.56 474.252C574.702 473.841 574.678 473.391 574.493 472.998C574.308 472.605 573.976 472.3 573.57 472.147C573.163 471.995 572.713 472.007 572.315 472.182C571.917 472.356 571.603 472.679 571.44 473.082ZM571.333 455.405C571.965 455.539 572.544 455.853 573 456.31L580.357 463.667C580.813 464.123 581.128 464.702 581.262 465.333H571.333V455.405Z" fill="white"/>
</g>
<g filter="url(#filter19_f_240_177)">
<path d="M557.111 506.059C564.289 497.927 570.937 496.906 576.659 494.199C584.984 494.006 590.508 494.273 598.735 499.707C599.445 505.276 590.703 511.213 579.209 512.967C567.715 514.721 557.821 511.628 557.111 506.059Z" fill="#346DFF" fill-opacity="0.6"/>
</g>
</g>
<rect x="472.75" y="404.75" width="190.5" height="134.5" rx="19.25" stroke="url(#paint24_linear_240_177)" stroke-width="1.5"/>
<path d="M146 0L146 250" stroke="url(#paint25_linear_240_177)"/>
<path d="M283 0L283 188" stroke="url(#paint26_linear_240_177)"/>
<path d="M71 76H304" stroke="url(#paint27_linear_240_177)"/>
<g filter="url(#filter20_d_240_177)">
<path d="M533.492 76.7782L537.778 71.2218L542.064 76.7782L537.778 82.3346L533.492 76.7782Z" fill="#D9D9D9"/>
</g>
<g filter="url(#filter21_d_240_177)">
<path d="M278.27 466.556L282.556 461L286.843 466.556L282.556 472.113L278.27 466.556Z" fill="#D9D9D9"/>
</g>
<g filter="url(#filter22_d_240_177)">
<path d="M449.27 466.556L453.556 461L457.843 466.556L453.556 472.113L449.27 466.556Z" fill="#D9D9D9"/>
</g>
<g filter="url(#filter23_d_240_177)">
<path d="M533.27 336.556L537.556 331L541.843 336.556L537.556 342.113L533.27 336.556Z" fill="#D9D9D9"/>
</g>
<g filter="url(#filter24_d_240_177)">
<path d="M141.27 75.5564L145.556 70L149.843 75.5564L145.556 81.1128L141.27 75.5564Z" fill="#D9D9D9"/>
</g>
<g filter="url(#filter25_d_240_177)">
<path d="M278.27 75.5564L282.556 70L286.843 75.5564L282.556 81.1128L278.27 75.5564Z" fill="#D9D9D9"/>
</g>
<g filter="url(#filter26_d_240_177)">
<path d="M141.27 213.556L145.556 208L149.843 213.556L145.556 219.113L141.27 213.556Z" fill="#D9D9D9"/>
</g>
<path d="M187 376L187 410" stroke="url(#paint28_linear_240_177)"/>
<path d="M81 376L81 410" stroke="url(#paint29_linear_240_177)"/>
<path d="M699 214H636" stroke="url(#paint30_linear_240_177)"/>
<path d="M206 98.5C206 91.5964 211.596 86 218.5 86H275C276.657 86 278 87.3431 278 89V98C278 105.18 272.18 111 265 111H218.5C211.596 111 206 105.404 206 98.5V98.5Z" fill="#F24E1E"/>
<path d="M221.27 103.93V100.816H221.805C221.984 100.673 222.152 100.471 222.309 100.211C222.465 99.9505 222.598 99.5937 222.707 99.1406C222.816 98.6875 222.892 98.1016 222.934 97.3828L223.145 94H228.258V100.816H229.148V103.922H227.758V102H222.66V103.93H221.27ZM223.492 100.816H226.867V95.2148H224.449L224.324 97.3828C224.29 97.9271 224.236 98.4141 224.16 98.8438C224.085 99.2734 223.99 99.6523 223.875 99.9805C223.76 100.306 223.633 100.585 223.492 100.816ZM231.85 100.086L234.252 96H235.705V102H234.338V97.9102L231.944 102H230.487V96H231.85V100.086ZM237.045 100.355H238.448C238.461 100.579 238.561 100.753 238.749 100.875C238.936 100.997 239.18 101.059 239.479 101.059C239.784 101.059 240.04 100.992 240.249 100.859C240.46 100.724 240.565 100.52 240.565 100.246C240.565 100.085 240.525 99.9427 240.444 99.8203C240.363 99.6953 240.25 99.599 240.104 99.5312C239.958 99.4635 239.786 99.4297 239.588 99.4297H238.67V98.4258H239.588C239.883 98.4258 240.105 98.3581 240.256 98.2227C240.41 98.0872 240.487 97.9167 240.487 97.7109C240.487 97.4896 240.406 97.3099 240.245 97.1719C240.086 97.0339 239.866 96.9648 239.585 96.9648C239.303 96.9648 239.069 97.0286 238.881 97.1562C238.697 97.2839 238.6 97.4479 238.592 97.6484H237.198C237.203 97.2995 237.307 96.9961 237.51 96.7383C237.716 96.4805 237.992 96.2799 238.338 96.1367C238.687 95.9935 239.081 95.9219 239.518 95.9219C239.987 95.9219 240.392 95.9922 240.733 96.1328C241.074 96.2734 241.337 96.4701 241.522 96.7227C241.707 96.9727 241.799 97.2669 241.799 97.6055C241.799 97.931 241.698 98.2005 241.495 98.4141C241.292 98.625 241.018 98.776 240.674 98.8672V98.9297C240.911 98.9427 241.125 99.0104 241.315 99.1328C241.505 99.2526 241.656 99.4154 241.768 99.6211C241.88 99.8268 241.936 100.065 241.936 100.336C241.936 100.703 241.831 101.021 241.62 101.289C241.409 101.555 241.118 101.759 240.749 101.902C240.381 102.046 239.961 102.117 239.487 102.117C239.026 102.117 238.613 102.048 238.249 101.91C237.887 101.77 237.599 101.568 237.385 101.305C237.172 101.042 237.058 100.725 237.045 100.355ZM244.996 102.121C244.616 102.121 244.273 102.053 243.969 101.918C243.667 101.78 243.427 101.577 243.25 101.309C243.075 101.04 242.988 100.71 242.988 100.316C242.988 99.9779 243.051 99.6979 243.176 99.4766C243.301 99.2552 243.471 99.0781 243.687 98.9453C243.903 98.8125 244.147 98.7122 244.418 98.6445C244.691 98.5742 244.974 98.5234 245.265 98.4922C245.617 98.4557 245.902 98.4232 246.121 98.3945C246.34 98.3633 246.499 98.3164 246.597 98.2539C246.699 98.1888 246.75 98.0885 246.75 97.9531V97.9297C246.75 97.6354 246.663 97.4076 246.488 97.2461C246.314 97.0846 246.062 97.0039 245.734 97.0039C245.388 97.0039 245.113 97.0794 244.91 97.2305C244.709 97.3815 244.574 97.5599 244.504 97.7656L243.183 97.5781C243.288 97.2135 243.459 96.9089 243.699 96.6641C243.939 96.4167 244.232 96.2318 244.578 96.1094C244.924 95.9844 245.307 95.9219 245.726 95.9219C246.015 95.9219 246.303 95.9557 246.59 96.0234C246.876 96.0911 247.138 96.2031 247.375 96.3594C247.612 96.513 247.802 96.7227 247.945 96.9883C248.091 97.2539 248.164 97.5859 248.164 97.9844V102H246.805V101.176H246.758C246.672 101.342 246.551 101.499 246.394 101.645C246.241 101.788 246.047 101.904 245.812 101.992C245.581 102.078 245.308 102.121 244.996 102.121ZM245.363 101.082C245.647 101.082 245.893 101.026 246.101 100.914C246.31 100.799 246.47 100.648 246.582 100.461C246.696 100.273 246.754 100.069 246.754 99.8477V99.1406C246.709 99.1771 246.634 99.2109 246.527 99.2422C246.423 99.2734 246.306 99.3008 246.176 99.3242C246.045 99.3477 245.917 99.3685 245.789 99.3867C245.661 99.4049 245.551 99.4206 245.457 99.4336C245.246 99.4622 245.057 99.5091 244.89 99.5742C244.724 99.6393 244.592 99.7305 244.496 99.8477C244.4 99.9622 244.351 100.111 244.351 100.293C244.351 100.553 244.446 100.75 244.637 100.883C244.827 101.016 245.069 101.082 245.363 101.082ZM251.169 100.086L253.571 96H255.025V102H253.657V97.9102L251.263 102H249.806V96H251.169V100.086ZM253.185 93.9375H254.243C254.243 94.3932 254.078 94.763 253.747 95.0469C253.419 95.3281 252.974 95.4688 252.411 95.4688C251.854 95.4688 251.41 95.3281 251.079 95.0469C250.751 94.763 250.588 94.3932 250.591 93.9375H251.642C251.642 94.125 251.699 94.293 251.814 94.4414C251.931 94.5872 252.13 94.6602 252.411 94.6602C252.687 94.6602 252.884 94.5872 253.001 94.4414C253.121 94.2956 253.182 94.1276 253.185 93.9375ZM260.818 98.4141V99.5742H257.622V98.4141H260.818ZM258.06 96V102H256.697V96H258.06ZM261.744 96V102H260.384V96H261.744Z" fill="black"/>
<path d="M553 94C553 92.3431 554.343 91 556 91H659.5C666.404 91 672 96.5964 672 103.5V103.5C672 110.404 666.404 116 659.5 116H566C558.82 116 553 110.18 553 103V94Z" fill="#429AFF"/>
<path d="M569.816 107H568.27L571.086 99H572.875L575.695 107H574.148L572.012 100.641H571.949L569.816 107ZM569.867 103.863H574.086V105.027H569.867V103.863ZM576.907 107V101H579.426C580.137 101 580.698 101.142 581.11 101.426C581.524 101.71 581.731 102.105 581.731 102.613C581.731 102.949 581.614 103.224 581.379 103.437C581.147 103.648 580.831 103.79 580.43 103.863C580.745 103.889 581.021 103.969 581.258 104.102C581.498 104.234 581.685 104.409 581.821 104.625C581.956 104.841 582.024 105.09 582.024 105.371C582.024 105.702 581.936 105.99 581.762 106.234C581.59 106.477 581.339 106.665 581.008 106.801C580.68 106.934 580.282 107 579.813 107H576.907ZM578.231 105.887H579.813C580.073 105.887 580.278 105.826 580.426 105.703C580.574 105.578 580.649 105.409 580.649 105.195C580.649 104.948 580.574 104.754 580.426 104.613C580.278 104.47 580.073 104.398 579.813 104.398H578.231V105.887ZM578.231 103.484H579.453C579.646 103.484 579.811 103.457 579.949 103.402C580.088 103.345 580.193 103.266 580.266 103.164C580.339 103.06 580.375 102.936 580.375 102.793C580.375 102.587 580.291 102.426 580.121 102.309C579.955 102.191 579.723 102.133 579.426 102.133H578.231V103.484ZM583.083 102.16V101H588.333V102.16H586.391V107H585.024V102.16H583.083ZM592.049 107.117C591.463 107.117 590.955 106.988 590.525 106.73C590.096 106.473 589.762 106.112 589.525 105.648C589.291 105.185 589.174 104.643 589.174 104.023C589.174 103.404 589.291 102.861 589.525 102.395C589.762 101.928 590.096 101.566 590.525 101.309C590.955 101.051 591.463 100.922 592.049 100.922C592.635 100.922 593.142 101.051 593.572 101.309C594.002 101.566 594.334 101.928 594.568 102.395C594.805 102.861 594.924 103.404 594.924 104.023C594.924 104.643 594.805 105.185 594.568 105.648C594.334 106.112 594.002 106.473 593.572 106.73C593.142 106.988 592.635 107.117 592.049 107.117ZM592.056 105.984C592.374 105.984 592.64 105.897 592.853 105.723C593.067 105.546 593.226 105.309 593.33 105.012C593.437 104.715 593.49 104.384 593.49 104.02C593.49 103.652 593.437 103.32 593.33 103.023C593.226 102.724 593.067 102.486 592.853 102.309C592.64 102.132 592.374 102.043 592.056 102.043C591.731 102.043 591.46 102.132 591.244 102.309C591.03 102.486 590.87 102.724 590.764 103.023C590.659 103.32 590.607 103.652 590.607 104.02C590.607 104.384 590.659 104.715 590.764 105.012C590.87 105.309 591.03 105.546 591.244 105.723C591.46 105.897 591.731 105.984 592.056 105.984ZM599.797 105.355L601.578 101H602.719L600.293 107H599.305L596.934 101H598.063L599.797 105.355ZM597.707 101V107H596.344V101H597.707ZM601.945 107V101H603.297V107H601.945ZM606.669 107.121C606.289 107.121 605.947 107.053 605.642 106.918C605.34 106.78 605.1 106.577 604.923 106.309C604.749 106.04 604.662 105.71 604.662 105.316C604.662 104.978 604.724 104.698 604.849 104.477C604.974 104.255 605.145 104.078 605.361 103.945C605.577 103.812 605.82 103.712 606.091 103.645C606.365 103.574 606.647 103.523 606.939 103.492C607.29 103.456 607.576 103.423 607.794 103.395C608.013 103.363 608.172 103.316 608.271 103.254C608.372 103.189 608.423 103.089 608.423 102.953V102.93C608.423 102.635 608.336 102.408 608.162 102.246C607.987 102.085 607.736 102.004 607.408 102.004C607.061 102.004 606.787 102.079 606.583 102.23C606.383 102.382 606.247 102.56 606.177 102.766L604.857 102.578C604.961 102.214 605.133 101.909 605.372 101.664C605.612 101.417 605.905 101.232 606.251 101.109C606.598 100.984 606.981 100.922 607.4 100.922C607.689 100.922 607.977 100.956 608.263 101.023C608.55 101.091 608.811 101.203 609.048 101.359C609.285 101.513 609.475 101.723 609.619 101.988C609.764 102.254 609.837 102.586 609.837 102.984V107H608.478V106.176H608.431C608.345 106.342 608.224 106.499 608.068 106.645C607.914 106.788 607.72 106.904 607.486 106.992C607.254 107.078 606.982 107.121 606.669 107.121ZM607.037 106.082C607.32 106.082 607.566 106.026 607.775 105.914C607.983 105.799 608.143 105.648 608.255 105.461C608.37 105.273 608.427 105.069 608.427 104.848V104.141C608.383 104.177 608.307 104.211 608.201 104.242C608.096 104.273 607.979 104.301 607.849 104.324C607.719 104.348 607.59 104.368 607.462 104.387C607.335 104.405 607.224 104.421 607.13 104.434C606.919 104.462 606.731 104.509 606.564 104.574C606.397 104.639 606.266 104.73 606.169 104.848C606.073 104.962 606.025 105.111 606.025 105.293C606.025 105.553 606.12 105.75 606.31 105.883C606.5 106.016 606.742 106.082 607.037 106.082ZM610.807 102.16V101H616.057V102.16H614.116V107H612.749V102.16H610.807ZM618.767 105.086L621.169 101H622.622V107H621.255V102.91L618.86 107H617.403V101H618.767V105.086ZM623.962 105.355H625.364C625.378 105.579 625.478 105.753 625.665 105.875C625.853 105.997 626.096 106.059 626.396 106.059C626.7 106.059 626.957 105.992 627.165 105.859C627.376 105.724 627.482 105.52 627.482 105.246C627.482 105.085 627.441 104.943 627.361 104.82C627.28 104.695 627.167 104.599 627.021 104.531C626.875 104.464 626.703 104.43 626.505 104.43H625.587V103.426H626.505C626.799 103.426 627.022 103.358 627.173 103.223C627.327 103.087 627.404 102.917 627.404 102.711C627.404 102.49 627.323 102.31 627.161 102.172C627.003 102.034 626.782 101.965 626.501 101.965C626.22 101.965 625.986 102.029 625.798 102.156C625.613 102.284 625.517 102.448 625.509 102.648H624.114C624.12 102.299 624.224 101.996 624.427 101.738C624.633 101.48 624.909 101.28 625.255 101.137C625.604 100.993 625.997 100.922 626.435 100.922C626.904 100.922 627.309 100.992 627.65 101.133C627.991 101.273 628.254 101.47 628.439 101.723C628.624 101.973 628.716 102.267 628.716 102.605C628.716 102.931 628.614 103.201 628.411 103.414C628.208 103.625 627.935 103.776 627.591 103.867V103.93C627.828 103.943 628.042 104.01 628.232 104.133C628.422 104.253 628.573 104.415 628.685 104.621C628.797 104.827 628.853 105.065 628.853 105.336C628.853 105.703 628.747 106.021 628.536 106.289C628.325 106.555 628.035 106.759 627.665 106.902C627.298 107.046 626.878 107.117 626.404 107.117C625.943 107.117 625.53 107.048 625.165 106.91C624.803 106.77 624.516 106.568 624.302 106.305C624.088 106.042 623.975 105.725 623.962 105.355ZM631.913 107.121C631.532 107.121 631.19 107.053 630.885 106.918C630.583 106.78 630.344 106.577 630.167 106.309C629.992 106.04 629.905 105.71 629.905 105.316C629.905 104.978 629.967 104.698 630.092 104.477C630.217 104.255 630.388 104.078 630.604 103.945C630.82 103.812 631.064 103.712 631.334 103.645C631.608 103.574 631.89 103.523 632.182 103.492C632.534 103.456 632.819 103.423 633.038 103.395C633.256 103.363 633.415 103.316 633.514 103.254C633.616 103.189 633.667 103.089 633.667 102.953V102.93C633.667 102.635 633.579 102.408 633.405 102.246C633.23 102.085 632.979 102.004 632.651 102.004C632.305 102.004 632.03 102.079 631.827 102.23C631.626 102.382 631.491 102.56 631.42 102.766L630.1 102.578C630.204 102.214 630.376 101.909 630.616 101.664C630.855 101.417 631.148 101.232 631.495 101.109C631.841 100.984 632.224 100.922 632.643 100.922C632.932 100.922 633.22 100.956 633.506 101.023C633.793 101.091 634.055 101.203 634.292 101.359C634.529 101.513 634.719 101.723 634.862 101.988C635.008 102.254 635.081 102.586 635.081 102.984V107H633.721V106.176H633.674C633.588 106.342 633.467 106.499 633.311 106.645C633.157 106.788 632.963 106.904 632.729 106.992C632.497 107.078 632.225 107.121 631.913 107.121ZM632.28 106.082C632.564 106.082 632.81 106.026 633.018 105.914C633.226 105.799 633.387 105.648 633.499 105.461C633.613 105.273 633.67 105.069 633.67 104.848V104.141C633.626 104.177 633.551 104.211 633.444 104.242C633.34 104.273 633.223 104.301 633.092 104.324C632.962 104.348 632.833 104.368 632.706 104.387C632.578 104.405 632.467 104.421 632.374 104.434C632.163 104.462 631.974 104.509 631.807 104.574C631.64 104.639 631.509 104.73 631.413 104.848C631.316 104.962 631.268 105.111 631.268 105.293C631.268 105.553 631.363 105.75 631.553 105.883C631.743 106.016 631.986 106.082 632.28 106.082ZM641.789 101V105.945H642.707V108.93H641.324V107H636.722V101H638.086V105.84H640.437V101H641.789ZM645.449 105.086L647.852 101H649.305V107H647.938V102.91L645.543 107H644.086V101H645.449V105.086ZM654.524 107V102.148H653.243C652.917 102.148 652.667 102.224 652.493 102.375C652.318 102.526 652.232 102.714 652.235 102.937C652.232 103.161 652.314 103.346 652.481 103.492C652.647 103.638 652.886 103.711 653.196 103.711H654.969V104.742H653.196C652.716 104.742 652.302 104.667 651.953 104.516C651.605 104.365 651.336 104.151 651.149 103.875C650.961 103.599 650.868 103.276 650.868 102.906C650.868 102.521 650.963 102.186 651.153 101.902C651.345 101.616 651.619 101.395 651.973 101.238C652.33 101.079 652.753 101 653.243 101H655.848V107H654.524ZM650.649 107L652.325 103.922H653.719L652.039 107H650.649Z" fill="black"/>
<path d="M294 438C294 430.82 299.82 425 307 425H353.5C360.404 425 366 430.596 366 437.5V437.5C366 444.404 360.404 450 353.5 450H297C295.343 450 294 448.657 294 447V438Z" fill="#4AC73F"/>
<path d="M309.437 434.215V433H315.82V434.215H313.348V441H311.91V434.215H309.437ZM318.955 441.117C318.369 441.117 317.862 440.988 317.432 440.73C317.002 440.473 316.669 440.112 316.432 439.648C316.198 439.185 316.08 438.643 316.08 438.023C316.08 437.404 316.198 436.861 316.432 436.395C316.669 435.928 317.002 435.566 317.432 435.309C317.862 435.051 318.369 434.922 318.955 434.922C319.541 434.922 320.049 435.051 320.479 435.309C320.908 435.566 321.241 435.928 321.475 436.395C321.712 436.861 321.83 437.404 321.83 438.023C321.83 438.643 321.712 439.185 321.475 439.648C321.241 440.112 320.908 440.473 320.479 440.73C320.049 440.988 319.541 441.117 318.955 441.117ZM318.963 439.984C319.281 439.984 319.546 439.897 319.76 439.723C319.974 439.546 320.132 439.309 320.237 439.012C320.343 438.715 320.397 438.384 320.397 438.02C320.397 437.652 320.343 437.32 320.237 437.023C320.132 436.724 319.974 436.486 319.76 436.309C319.546 436.132 319.281 436.043 318.963 436.043C318.638 436.043 318.367 436.132 318.151 436.309C317.937 436.486 317.777 436.724 317.67 437.023C317.566 437.32 317.514 437.652 317.514 438.02C317.514 438.384 317.566 438.715 317.67 439.012C317.777 439.309 317.937 439.546 318.151 439.723C318.367 439.897 318.638 439.984 318.963 439.984ZM323.251 441V435H324.665V437.422H325.18L326.985 435H328.688L326.465 437.945L328.711 441H327.001L325.356 438.738H324.665V441H323.251ZM332.142 441.117C331.541 441.117 331.021 440.992 330.584 440.742C330.149 440.49 329.814 440.133 329.58 439.672C329.346 439.208 329.228 438.663 329.228 438.035C329.228 437.418 329.346 436.876 329.58 436.41C329.817 435.941 330.148 435.577 330.572 435.316C330.997 435.053 331.495 434.922 332.068 434.922C332.438 434.922 332.787 434.982 333.115 435.102C333.446 435.219 333.737 435.401 333.99 435.648C334.245 435.896 334.446 436.211 334.592 436.594C334.737 436.974 334.81 437.427 334.81 437.953V438.387H329.892V437.434H333.455C333.452 437.163 333.394 436.922 333.279 436.711C333.165 436.497 333.004 436.329 332.799 436.207C332.596 436.085 332.359 436.023 332.088 436.023C331.799 436.023 331.545 436.094 331.326 436.234C331.107 436.372 330.937 436.555 330.814 436.781C330.695 437.005 330.633 437.251 330.631 437.52V438.352C330.631 438.701 330.695 439 330.822 439.25C330.95 439.497 331.128 439.687 331.357 439.82C331.586 439.951 331.855 440.016 332.162 440.016C332.368 440.016 332.554 439.987 332.721 439.93C332.887 439.87 333.032 439.783 333.154 439.668C333.277 439.553 333.369 439.411 333.431 439.242L334.752 439.391C334.668 439.74 334.51 440.044 334.275 440.305C334.043 440.562 333.747 440.763 333.385 440.906C333.023 441.047 332.609 441.117 332.142 441.117ZM340.348 437.414V438.574H337.152V437.414H340.348ZM337.59 435V441H336.227V435H337.59ZM341.274 435V441H339.914V435H341.274ZM343.881 436.953H345.651C346.416 436.953 347.009 437.139 347.428 437.512C347.847 437.884 348.058 438.372 348.061 438.977C348.058 439.37 347.962 439.719 347.772 440.023C347.584 440.328 347.311 440.568 346.952 440.742C346.595 440.914 346.161 441 345.651 441H342.924V435H344.287V439.84H345.651C345.958 439.84 346.211 439.762 346.409 439.605C346.607 439.447 346.705 439.243 346.705 438.996C346.705 438.736 346.607 438.523 346.409 438.359C346.211 438.195 345.958 438.113 345.651 438.113H343.881V436.953ZM348.807 441V435H350.221V441H348.807Z" fill="black"/>
<path d="M548 352C548 350.343 549.343 349 551 349H666.5C673.404 349 679 354.596 679 361.5V361.5C679 368.404 673.404 374 666.5 374H561C553.82 374 548 368.18 548 361V352Z" fill="#4AC73F"/>
<path d="M570.637 359.699H569.176C569.134 359.46 569.057 359.247 568.945 359.062C568.833 358.875 568.694 358.716 568.527 358.586C568.361 358.456 568.171 358.358 567.957 358.293C567.746 358.225 567.518 358.191 567.273 358.191C566.839 358.191 566.453 358.301 566.117 358.52C565.781 358.736 565.518 359.053 565.328 359.473C565.138 359.889 565.043 360.398 565.043 361C565.043 361.612 565.138 362.128 565.328 362.547C565.521 362.964 565.784 363.279 566.117 363.492C566.453 363.703 566.837 363.809 567.27 363.809C567.509 363.809 567.733 363.777 567.941 363.715C568.152 363.65 568.341 363.555 568.508 363.43C568.677 363.305 568.819 363.151 568.934 362.969C569.051 362.786 569.132 362.578 569.176 362.344L570.637 362.352C570.582 362.732 570.464 363.089 570.281 363.422C570.102 363.755 569.866 364.049 569.574 364.305C569.283 364.557 568.941 364.755 568.551 364.898C568.16 365.039 567.727 365.109 567.25 365.109C566.547 365.109 565.919 364.947 565.367 364.621C564.815 364.296 564.38 363.826 564.063 363.211C563.745 362.596 563.586 361.859 563.586 361C563.586 360.138 563.746 359.401 564.066 358.789C564.387 358.174 564.823 357.704 565.375 357.379C565.927 357.053 566.552 356.891 567.25 356.891C567.695 356.891 568.109 356.953 568.492 357.078C568.875 357.203 569.216 357.387 569.516 357.629C569.815 357.868 570.061 358.163 570.254 358.512C570.449 358.858 570.577 359.254 570.637 359.699ZM575.574 363.355L577.356 359H578.496L576.071 365H575.082L572.711 359H573.84L575.574 363.355ZM573.485 359V365H572.121V359H573.485ZM577.723 365V359H579.074V365H577.723ZM582.447 365.121C582.067 365.121 581.724 365.053 581.419 364.918C581.117 364.78 580.878 364.577 580.701 364.309C580.526 364.04 580.439 363.71 580.439 363.316C580.439 362.978 580.502 362.698 580.627 362.477C580.752 362.255 580.922 362.078 581.138 361.945C581.354 361.812 581.598 361.712 581.869 361.645C582.142 361.574 582.425 361.523 582.716 361.492C583.068 361.456 583.353 361.423 583.572 361.395C583.791 361.363 583.949 361.316 584.048 361.254C584.15 361.189 584.201 361.089 584.201 360.953V360.93C584.201 360.635 584.114 360.408 583.939 360.246C583.765 360.085 583.513 360.004 583.185 360.004C582.839 360.004 582.564 360.079 582.361 360.23C582.16 360.382 582.025 360.56 581.955 360.766L580.634 360.578C580.739 360.214 580.91 359.909 581.15 359.664C581.39 359.417 581.683 359.232 582.029 359.109C582.375 358.984 582.758 358.922 583.177 358.922C583.466 358.922 583.754 358.956 584.041 359.023C584.327 359.091 584.589 359.203 584.826 359.359C585.063 359.513 585.253 359.723 585.396 359.988C585.542 360.254 585.615 360.586 585.615 360.984V365H584.255V364.176H584.209C584.123 364.342 584.002 364.499 583.845 364.645C583.692 364.788 583.498 364.904 583.263 364.992C583.031 365.078 582.759 365.121 582.447 365.121ZM582.814 364.082C583.098 364.082 583.344 364.026 583.552 363.914C583.761 363.799 583.921 363.648 584.033 363.461C584.147 363.273 584.205 363.069 584.205 362.848V362.141C584.16 362.177 584.085 362.211 583.978 362.242C583.874 362.273 583.757 362.301 583.627 362.324C583.496 362.348 583.367 362.368 583.24 362.387C583.112 362.405 583.002 362.421 582.908 362.434C582.697 362.462 582.508 362.509 582.341 362.574C582.175 362.639 582.043 362.73 581.947 362.848C581.85 362.962 581.802 363.111 581.802 363.293C581.802 363.553 581.897 363.75 582.087 363.883C582.278 364.016 582.52 364.082 582.814 364.082ZM587.257 367.25V359H588.647V359.992H588.729C588.802 359.846 588.905 359.691 589.038 359.527C589.171 359.361 589.35 359.219 589.577 359.102C589.804 358.982 590.093 358.922 590.444 358.922C590.908 358.922 591.326 359.04 591.698 359.277C592.073 359.512 592.37 359.859 592.589 360.32C592.81 360.779 592.921 361.341 592.921 362.008C592.921 362.667 592.813 363.227 592.597 363.687C592.38 364.148 592.086 364.5 591.714 364.742C591.341 364.984 590.919 365.105 590.448 365.105C590.104 365.105 589.819 365.048 589.593 364.934C589.366 364.819 589.184 364.681 589.046 364.52C588.91 364.355 588.805 364.201 588.729 364.055H588.671V367.25H587.257ZM588.643 362C588.643 362.388 588.698 362.728 588.807 363.02C588.919 363.311 589.08 363.539 589.288 363.703C589.499 363.865 589.754 363.945 590.054 363.945C590.366 363.945 590.628 363.862 590.839 363.695C591.05 363.526 591.209 363.296 591.315 363.004C591.425 362.71 591.479 362.375 591.479 362C591.479 361.628 591.426 361.297 591.319 361.008C591.212 360.719 591.054 360.492 590.843 360.328C590.632 360.164 590.369 360.082 590.054 360.082C589.751 360.082 589.495 360.161 589.284 360.32C589.073 360.479 588.913 360.702 588.804 360.988C588.697 361.275 588.643 361.612 588.643 362ZM593.691 360.16V359H598.941V360.16H596.999V365H595.632V360.16H593.691ZM603.235 365V359H604.649V361.422H605.165L606.969 359H608.673L606.45 361.945L608.696 365H606.985L605.341 362.738H604.649V365H603.235ZM612.088 365.117C611.502 365.117 610.994 364.988 610.564 364.73C610.135 364.473 609.801 364.112 609.564 363.648C609.33 363.185 609.213 362.643 609.213 362.023C609.213 361.404 609.33 360.861 609.564 360.395C609.801 359.928 610.135 359.566 610.564 359.309C610.994 359.051 611.502 358.922 612.088 358.922C612.674 358.922 613.182 359.051 613.611 359.309C614.041 359.566 614.373 359.928 614.607 360.395C614.844 360.861 614.963 361.404 614.963 362.023C614.963 362.643 614.844 363.185 614.607 363.648C614.373 364.112 614.041 364.473 613.611 364.73C613.182 364.988 612.674 365.117 612.088 365.117ZM612.096 363.984C612.413 363.984 612.679 363.897 612.893 363.723C613.106 363.546 613.265 363.309 613.369 363.012C613.476 362.715 613.529 362.384 613.529 362.02C613.529 361.652 613.476 361.32 613.369 361.023C613.265 360.724 613.106 360.486 612.893 360.309C612.679 360.132 612.413 360.043 612.096 360.043C611.77 360.043 611.499 360.132 611.283 360.309C611.07 360.486 610.909 360.724 610.803 361.023C610.699 361.32 610.646 361.652 610.646 362.02C610.646 362.384 610.699 362.715 610.803 363.012C610.909 363.309 611.07 363.546 611.283 363.723C611.499 363.897 611.77 363.984 612.096 363.984ZM620.504 361.414V362.574H617.309V361.414H620.504ZM617.746 359V365H616.383V359H617.746ZM621.43 359V365H620.071V359H621.43ZM622.409 360.16V359H627.659V360.16H625.717V365H624.35V360.16H622.409ZM629.005 367.25V359H630.395V359.992H630.477C630.55 359.846 630.653 359.691 630.786 359.527C630.919 359.361 631.098 359.219 631.325 359.102C631.552 358.982 631.841 358.922 632.192 358.922C632.656 358.922 633.074 359.04 633.446 359.277C633.821 359.512 634.118 359.859 634.337 360.32C634.558 360.779 634.669 361.341 634.669 362.008C634.669 362.667 634.561 363.227 634.345 363.687C634.128 364.148 633.834 364.5 633.462 364.742C633.089 364.984 632.667 365.105 632.196 365.105C631.852 365.105 631.567 365.048 631.341 364.934C631.114 364.819 630.932 364.681 630.794 364.52C630.658 364.355 630.553 364.201 630.477 364.055H630.419V367.25H629.005ZM630.391 362C630.391 362.388 630.446 362.728 630.555 363.02C630.667 363.311 630.828 363.539 631.036 363.703C631.247 363.865 631.502 363.945 631.802 363.945C632.114 363.945 632.376 363.862 632.587 363.695C632.798 363.526 632.957 363.296 633.063 363.004C633.173 362.71 633.227 362.375 633.227 362C633.227 361.628 633.174 361.297 633.067 361.008C632.96 360.719 632.802 360.492 632.591 360.328C632.38 360.164 632.117 360.082 631.802 360.082C631.499 360.082 631.243 360.161 631.032 360.32C630.821 360.479 630.661 360.702 630.552 360.988C630.445 361.275 630.391 361.612 630.391 362ZM637.826 365.121C637.446 365.121 637.104 365.053 636.799 364.918C636.497 364.78 636.257 364.577 636.08 364.309C635.906 364.04 635.818 363.71 635.818 363.316C635.818 362.978 635.881 362.698 636.006 362.477C636.131 362.255 636.302 362.078 636.518 361.945C636.734 361.812 636.977 361.712 637.248 361.645C637.522 361.574 637.804 361.523 638.096 361.492C638.447 361.456 638.732 361.423 638.951 361.395C639.17 361.363 639.329 361.316 639.428 361.254C639.529 361.189 639.58 361.089 639.58 360.953V360.93C639.58 360.635 639.493 360.408 639.318 360.246C639.144 360.085 638.893 360.004 638.565 360.004C638.218 360.004 637.943 360.079 637.74 360.23C637.54 360.382 637.404 360.56 637.334 360.766L636.014 360.578C636.118 360.214 636.29 359.909 636.529 359.664C636.769 359.417 637.062 359.232 637.408 359.109C637.755 358.984 638.137 358.922 638.557 358.922C638.846 358.922 639.134 358.956 639.42 359.023C639.706 359.091 639.968 359.203 640.205 359.359C640.442 359.513 640.632 359.723 640.775 359.988C640.921 360.254 640.994 360.586 640.994 360.984V365H639.635V364.176H639.588C639.502 364.342 639.381 364.499 639.225 364.645C639.071 364.788 638.877 364.904 638.643 364.992C638.411 365.078 638.139 365.121 637.826 365.121ZM638.193 364.082C638.477 364.082 638.723 364.026 638.932 363.914C639.14 363.799 639.3 363.648 639.412 363.461C639.527 363.273 639.584 363.069 639.584 362.848V362.141C639.54 362.177 639.464 362.211 639.357 362.242C639.253 362.273 639.136 362.301 639.006 362.324C638.876 362.348 638.747 362.368 638.619 362.387C638.492 362.405 638.381 362.421 638.287 362.434C638.076 362.462 637.887 362.509 637.721 362.574C637.554 362.639 637.423 362.73 637.326 362.848C637.23 362.962 637.182 363.111 637.182 363.293C637.182 363.553 637.277 363.75 637.467 363.883C637.657 364.016 637.899 364.082 638.193 364.082ZM642.636 365V359H644.05V361.422H644.566L646.37 359H648.074L645.851 361.945L648.097 365H646.386L644.742 362.738H644.05V365H642.636ZM648.791 360.16V359H654.041V360.16H652.099V365H650.732V360.16H648.791ZM656.344 360.953H658.113C658.879 360.953 659.471 361.139 659.891 361.512C660.31 361.884 660.521 362.372 660.523 362.977C660.521 363.37 660.424 363.719 660.234 364.023C660.047 364.328 659.773 364.568 659.414 364.742C659.057 364.914 658.624 365 658.113 365H655.387V359H656.75V363.84H658.113C658.42 363.84 658.673 363.762 658.871 363.605C659.069 363.447 659.168 363.243 659.168 362.996C659.168 362.736 659.069 362.523 658.871 362.359C658.673 362.195 658.42 362.113 658.113 362.113H656.344V360.953ZM661.269 365V359H662.684V365H661.269Z" fill="black"/>
<g filter="url(#filter27_d_240_177)">
<path d="M325 488C325 486.343 326.343 485 328 485H412C413.657 485 415 486.343 415 488V497C415 504.18 409.18 510 402 510H338C330.82 510 325 504.18 325 497V488Z" fill="#4AC73F" shape-rendering="crispEdges"/>
<path d="M340.789 501V493H342.203V495.992H342.262C342.335 495.846 342.438 495.691 342.57 495.527C342.703 495.361 342.883 495.219 343.109 495.102C343.336 494.982 343.625 494.922 343.977 494.922C344.44 494.922 344.858 495.04 345.23 495.277C345.605 495.512 345.902 495.859 346.121 496.32C346.342 496.779 346.453 497.341 346.453 498.008C346.453 498.667 346.345 499.227 346.129 499.687C345.913 500.148 345.618 500.5 345.246 500.742C344.874 500.984 344.452 501.105 343.98 501.105C343.637 501.105 343.352 501.048 343.125 500.934C342.898 500.819 342.716 500.681 342.578 500.52C342.443 500.355 342.337 500.201 342.262 500.055H342.18V501H340.789ZM342.176 498C342.176 498.388 342.23 498.728 342.34 499.02C342.452 499.311 342.612 499.539 342.82 499.703C343.031 499.865 343.286 499.945 343.586 499.945C343.898 499.945 344.16 499.862 344.371 499.695C344.582 499.526 344.741 499.296 344.848 499.004C344.957 498.71 345.012 498.375 345.012 498C345.012 497.628 344.958 497.297 344.852 497.008C344.745 496.719 344.586 496.492 344.375 496.328C344.164 496.164 343.901 496.082 343.586 496.082C343.284 496.082 343.027 496.161 342.816 496.32C342.605 496.479 342.445 496.702 342.336 496.988C342.229 497.275 342.176 497.612 342.176 498ZM349.289 493V501H347.875V493H349.289ZM353.581 501.117C352.995 501.117 352.487 500.988 352.057 500.73C351.627 500.473 351.294 500.112 351.057 499.648C350.823 499.185 350.706 498.643 350.706 498.023C350.706 497.404 350.823 496.861 351.057 496.395C351.294 495.928 351.627 495.566 352.057 495.309C352.487 495.051 352.995 494.922 353.581 494.922C354.167 494.922 354.674 495.051 355.104 495.309C355.534 495.566 355.866 495.928 356.1 496.395C356.337 496.861 356.456 497.404 356.456 498.023C356.456 498.643 356.337 499.185 356.1 499.648C355.866 500.112 355.534 500.473 355.104 500.73C354.674 500.988 354.167 501.117 353.581 501.117ZM353.588 499.984C353.906 499.984 354.172 499.897 354.385 499.723C354.599 499.546 354.758 499.309 354.862 499.012C354.969 498.715 355.022 498.384 355.022 498.02C355.022 497.652 354.969 497.32 354.862 497.023C354.758 496.724 354.599 496.486 354.385 496.309C354.172 496.132 353.906 496.043 353.588 496.043C353.263 496.043 352.992 496.132 352.776 496.309C352.562 496.486 352.402 496.724 352.295 497.023C352.191 497.32 352.139 497.652 352.139 498.02C352.139 498.384 352.191 498.715 352.295 499.012C352.402 499.309 352.562 499.546 352.776 499.723C352.992 499.897 353.263 499.984 353.588 499.984ZM360.493 501.117C359.894 501.117 359.38 500.986 358.95 500.723C358.523 500.46 358.194 500.096 357.962 499.633C357.733 499.167 357.618 498.63 357.618 498.023C357.618 497.414 357.735 496.876 357.97 496.41C358.204 495.941 358.535 495.577 358.962 495.316C359.391 495.053 359.899 494.922 360.485 494.922C360.972 494.922 361.403 495.012 361.778 495.191C362.156 495.368 362.457 495.62 362.681 495.945C362.904 496.268 363.032 496.646 363.063 497.078H361.712C361.657 496.789 361.527 496.548 361.321 496.355C361.118 496.16 360.846 496.062 360.505 496.062C360.216 496.062 359.962 496.141 359.743 496.297C359.524 496.451 359.354 496.672 359.231 496.961C359.111 497.25 359.052 497.596 359.052 498C359.052 498.409 359.111 498.76 359.231 499.055C359.351 499.346 359.519 499.572 359.735 499.73C359.954 499.887 360.21 499.965 360.505 499.965C360.713 499.965 360.899 499.926 361.063 499.848C361.23 499.767 361.369 499.651 361.481 499.5C361.593 499.349 361.67 499.165 361.712 498.949H363.063C363.029 499.374 362.904 499.75 362.688 500.078C362.472 500.404 362.178 500.659 361.806 500.844C361.433 501.026 360.996 501.117 360.493 501.117ZM365.734 499.117L365.73 497.41H365.956L368.112 495H369.765L367.112 497.953H366.819L365.734 499.117ZM364.444 501V493H365.859V501H364.444ZM368.21 501L366.257 498.27L367.21 497.273L369.901 501H368.21ZM373.297 501.117C372.698 501.117 372.184 500.986 371.754 500.723C371.327 500.46 370.998 500.096 370.766 499.633C370.537 499.167 370.422 498.63 370.422 498.023C370.422 497.414 370.539 496.876 370.774 496.41C371.008 495.941 371.339 495.577 371.766 495.316C372.196 495.053 372.704 494.922 373.289 494.922C373.776 494.922 374.207 495.012 374.582 495.191C374.96 495.368 375.261 495.62 375.485 495.945C375.709 496.268 375.836 496.646 375.868 497.078H374.516C374.461 496.789 374.331 496.548 374.125 496.355C373.922 496.16 373.65 496.062 373.309 496.062C373.02 496.062 372.766 496.141 372.547 496.297C372.329 496.451 372.158 496.672 372.036 496.961C371.916 497.25 371.856 497.596 371.856 498C371.856 498.409 371.916 498.76 372.036 499.055C372.155 499.346 372.323 499.572 372.539 499.73C372.758 499.887 373.015 499.965 373.309 499.965C373.517 499.965 373.704 499.926 373.868 499.848C374.034 499.767 374.174 499.651 374.286 499.5C374.398 499.349 374.474 499.165 374.516 498.949H375.868C375.834 499.374 375.709 499.75 375.493 500.078C375.276 500.404 374.982 500.659 374.61 500.844C374.237 501.026 373.8 501.117 373.297 501.117ZM378.663 497.484V501H377.249V493H378.632V496.02H378.702C378.842 495.681 379.06 495.414 379.354 495.219C379.651 495.021 380.029 494.922 380.487 494.922C380.904 494.922 381.267 495.009 381.577 495.184C381.887 495.358 382.126 495.613 382.296 495.949C382.467 496.285 382.553 496.695 382.553 497.18V501H381.139V497.398C381.139 496.995 381.035 496.681 380.827 496.457C380.621 496.23 380.332 496.117 379.96 496.117C379.71 496.117 379.486 496.172 379.288 496.281C379.092 496.388 378.939 496.543 378.827 496.746C378.717 496.949 378.663 497.195 378.663 497.484ZM385.941 501.121C385.561 501.121 385.219 501.053 384.914 500.918C384.612 500.78 384.372 500.577 384.195 500.309C384.021 500.04 383.934 499.71 383.934 499.316C383.934 498.978 383.996 498.698 384.121 498.477C384.246 498.255 384.417 498.078 384.633 497.945C384.849 497.812 385.092 497.712 385.363 497.645C385.637 497.574 385.919 497.523 386.211 497.492C386.562 497.456 386.848 497.423 387.066 497.395C387.285 497.363 387.444 497.316 387.543 497.254C387.644 497.189 387.695 497.089 387.695 496.953V496.93C387.695 496.635 387.608 496.408 387.434 496.246C387.259 496.085 387.008 496.004 386.68 496.004C386.333 496.004 386.059 496.079 385.855 496.23C385.655 496.382 385.519 496.56 385.449 496.766L384.129 496.578C384.233 496.214 384.405 495.909 384.644 495.664C384.884 495.417 385.177 495.232 385.523 495.109C385.87 494.984 386.253 494.922 386.672 494.922C386.961 494.922 387.249 494.956 387.535 495.023C387.822 495.091 388.083 495.203 388.32 495.359C388.557 495.513 388.747 495.723 388.891 495.988C389.036 496.254 389.109 496.586 389.109 496.984V501H387.75V500.176H387.703C387.617 500.342 387.496 500.499 387.34 500.645C387.186 500.788 386.992 500.904 386.758 500.992C386.526 501.078 386.254 501.121 385.941 501.121ZM386.309 500.082C386.592 500.082 386.839 500.026 387.047 499.914C387.255 499.799 387.415 499.648 387.527 499.461C387.642 499.273 387.699 499.069 387.699 498.848V498.141C387.655 498.177 387.579 498.211 387.473 498.242C387.368 498.273 387.251 498.301 387.121 498.324C386.991 498.348 386.862 498.368 386.734 498.387C386.607 498.405 386.496 498.421 386.402 498.434C386.191 498.462 386.003 498.509 385.836 498.574C385.669 498.639 385.538 498.73 385.441 498.848C385.345 498.962 385.297 499.111 385.297 499.293C385.297 499.553 385.392 499.75 385.582 499.883C385.772 500.016 386.014 500.082 386.309 500.082ZM390.751 501V495H392.165V501H390.751ZM391.462 494.148C391.238 494.148 391.045 494.074 390.884 493.926C390.723 493.775 390.642 493.594 390.642 493.383C390.642 493.169 390.723 492.988 390.884 492.84C391.045 492.689 391.238 492.613 391.462 492.613C391.689 492.613 391.881 492.689 392.04 492.84C392.202 492.988 392.282 493.169 392.282 493.383C392.282 493.594 392.202 493.775 392.04 493.926C391.881 494.074 391.689 494.148 391.462 494.148ZM395.253 497.484V501H393.839V495H395.191V496.02H395.261C395.399 495.684 395.619 495.417 395.921 495.219C396.226 495.021 396.602 494.922 397.05 494.922C397.464 494.922 397.825 495.01 398.132 495.187C398.442 495.365 398.682 495.621 398.851 495.957C399.023 496.293 399.108 496.701 399.105 497.18V501H397.691V497.398C397.691 496.997 397.587 496.684 397.378 496.457C397.173 496.23 396.888 496.117 396.523 496.117C396.276 496.117 396.056 496.172 395.863 496.281C395.673 496.388 395.523 496.543 395.414 496.746C395.307 496.949 395.253 497.195 395.253 497.484Z" fill="black"/>
</g>
<defs>
<filter id="filter0_f_240_177" x="355.014" y="58.2378" width="114.652" height="112.296" filterUnits="userSpaceOnUse" color-interpolation-filters="sRGB">
<feFlood flood-opacity="0" result="BackgroundImageFix"/>
<feBlend mode="normal" in="SourceGraphic" in2="BackgroundImageFix" result="shape"/>
<feGaussianBlur stdDeviation="15" result="effect1_foregroundBlur_240_177"/>
</filter>
<filter id="filter1_d_240_177" x="348" y="55" width="90" height="90" filterUnits="userSpaceOnUse" color-interpolation-filters="sRGB">
<feFlood flood-opacity="0" result="BackgroundImageFix"/>
<feColorMatrix in="SourceAlpha" type="matrix" values="0 0 0 0 0 0 0 0 0 0 0 0 0 0 0 0 0 0 127 0" result="hardAlpha"/>
<feOffset dx="4" dy="7"/>
<feGaussianBlur stdDeviation="5"/>
<feComposite in2="hardAlpha" operator="out"/>
<feColorMatrix type="matrix" values="0 0 0 0 0 0 0 0 0 0 0 0 0 0 0 0 0 0 0.8 0"/>
<feBlend mode="normal" in2="BackgroundImageFix" result="effect1_dropShadow_240_177"/>
<feBlend mode="normal" in="SourceGraphic" in2="effect1_dropShadow_240_177" result="shape"/>
</filter>
<filter id="filter2_d_240_177" x="365.186" y="69.1868" width="47.6277" height="47.6263" filterUnits="userSpaceOnUse" color-interpolation-filters="sRGB">
<feFlood flood-opacity="0" result="BackgroundImageFix"/>
<feColorMatrix in="SourceAlpha" type="matrix" values="0 0 0 0 0 0 0 0 0 0 0 0 0 0 0 0 0 0 127 0" result="hardAlpha"/>
<feOffset/>
<feGaussianBlur stdDeviation="5"/>
<feComposite in2="hardAlpha" operator="out"/>
<feColorMatrix type="matrix" values="0 0 0 0 1 0 0 0 0 0.817761 0 0 0 0 0.764423 0 0 0 0.3 0"/>
<feBlend mode="normal" in2="BackgroundImageFix" result="effect1_dropShadow_240_177"/>
<feBlend mode="normal" in="SourceGraphic" in2="effect1_dropShadow_240_177" result="shape"/>
</filter>
<filter id="filter3_f_240_177" x="366.581" y="68.1711" width="84.79" height="87.0697" filterUnits="userSpaceOnUse" color-interpolation-filters="sRGB">
<feFlood flood-opacity="0" result="BackgroundImageFix"/>
<feBlend mode="normal" in="SourceGraphic" in2="BackgroundImageFix" result="shape"/>
<feGaussianBlur stdDeviation="12" result="effect1_foregroundBlur_240_177"/>
</filter>
<filter id="filter4_f_240_177" x="83.892" y="290.02" width="129.445" height="90.7168" filterUnits="userSpaceOnUse" color-interpolation-filters="sRGB">
<feFlood flood-opacity="0" result="BackgroundImageFix"/>
<feBlend mode="normal" in="SourceGraphic" in2="BackgroundImageFix" result="shape"/>
<feGaussianBlur stdDeviation="15" result="effect1_foregroundBlur_240_177"/>
</filter>
<filter id="filter5_d_240_177" x="91" y="275" width="94" height="94" filterUnits="userSpaceOnUse" color-interpolation-filters="sRGB">
<feFlood flood-opacity="0" result="BackgroundImageFix"/>
<feColorMatrix in="SourceAlpha" type="matrix" values="0 0 0 0 0 0 0 0 0 0 0 0 0 0 0 0 0 0 127 0" result="hardAlpha"/>
<feOffset dx="4" dy="7"/>
<feGaussianBlur stdDeviation="5"/>
<feComposite in2="hardAlpha" operator="out"/>
<feColorMatrix type="matrix" values="0 0 0 0 0 0 0 0 0 0 0 0 0 0 0 0 0 0 0.8 0"/>
<feBlend mode="normal" in2="BackgroundImageFix" result="effect1_dropShadow_240_177"/>
<feBlend mode="normal" in="SourceGraphic" in2="effect1_dropShadow_240_177" result="shape"/>
</filter>
<filter id="filter6_d_240_177" x="108.969" y="292.281" width="50.0625" height="45.4375" filterUnits="userSpaceOnUse" color-interpolation-filters="sRGB">
<feFlood flood-opacity="0" result="BackgroundImageFix"/>
<feColorMatrix in="SourceAlpha" type="matrix" values="0 0 0 0 0 0 0 0 0 0 0 0 0 0 0 0 0 0 127 0" result="hardAlpha"/>
<feOffset/>
<feGaussianBlur stdDeviation="5"/>
<feComposite in2="hardAlpha" operator="out"/>
<feColorMatrix type="matrix" values="0 0 0 0 0.835733 0 0 0 0 0.772115 0 0 0 0 1 0 0 0 0.3 0"/>
<feBlend mode="normal" in2="BackgroundImageFix" result="effect1_dropShadow_240_177"/>
<feBlend mode="normal" in="SourceGraphic" in2="effect1_dropShadow_240_177" result="shape"/>
</filter>
<filter id="filter7_f_240_177" x="109.581" y="288.171" width="84.7902" height="87.0698" filterUnits="userSpaceOnUse" color-interpolation-filters="sRGB">
<feFlood flood-opacity="0" result="BackgroundImageFix"/>
<feBlend mode="normal" in="SourceGraphic" in2="BackgroundImageFix" result="shape"/>
<feGaussianBlur stdDeviation="12" result="effect1_foregroundBlur_240_177"/>
</filter>
<filter id="filter8_f_240_177" x="139.092" y="455.281" width="143.447" height="87.1649" filterUnits="userSpaceOnUse" color-interpolation-filters="sRGB">
<feFlood flood-opacity="0" result="BackgroundImageFix"/>
<feBlend mode="normal" in="SourceGraphic" in2="BackgroundImageFix" result="shape"/>
<feGaussianBlur stdDeviation="15" result="effect1_foregroundBlur_240_177"/>
</filter>
<filter id="filter9_d_240_177" x="165" y="435" width="90" height="90" filterUnits="userSpaceOnUse" color-interpolation-filters="sRGB">
<feFlood flood-opacity="0" result="BackgroundImageFix"/>
<feColorMatrix in="SourceAlpha" type="matrix" values="0 0 0 0 0 0 0 0 0 0 0 0 0 0 0 0 0 0 127 0" result="hardAlpha"/>
<feOffset dx="3" dy="9"/>
<feGaussianBlur stdDeviation="5"/>
<feComposite in2="hardAlpha" operator="out"/>
<feColorMatrix type="matrix" values="0 0 0 0 0 0 0 0 0 0 0 0 0 0 0 0 0 0 0.8 0"/>
<feBlend mode="normal" in2="BackgroundImageFix" result="effect1_dropShadow_240_177"/>
<feBlend mode="normal" in="SourceGraphic" in2="effect1_dropShadow_240_177" result="shape"/>
</filter>
<filter id="filter10_f_240_177" x="167.111" y="466.158" width="89.6648" height="67.3002" filterUnits="userSpaceOnUse" color-interpolation-filters="sRGB">
<feFlood flood-opacity="0" result="BackgroundImageFix"/>
<feBlend mode="normal" in="SourceGraphic" in2="BackgroundImageFix" result="shape"/>
<feGaussianBlur stdDeviation="12" result="effect1_foregroundBlur_240_177"/>
</filter>
<filter id="filter11_f_240_177" x="-13.5594" y="454.356" width="142.788" height="88.4138" filterUnits="userSpaceOnUse" color-interpolation-filters="sRGB">
<feFlood flood-opacity="0" result="BackgroundImageFix"/>
<feBlend mode="normal" in="SourceGraphic" in2="BackgroundImageFix" result="shape"/>
<feGaussianBlur stdDeviation="15" result="effect1_foregroundBlur_240_177"/>
</filter>
<filter id="filter12_d_240_177" x="13" y="435" width="90" height="90" filterUnits="userSpaceOnUse" color-interpolation-filters="sRGB">
<feFlood flood-opacity="0" result="BackgroundImageFix"/>
<feColorMatrix in="SourceAlpha" type="matrix" values="0 0 0 0 0 0 0 0 0 0 0 0 0 0 0 0 0 0 127 0" result="hardAlpha"/>
<feOffset dx="-3" dy="9"/>
<feGaussianBlur stdDeviation="5"/>
<feComposite in2="hardAlpha" operator="out"/>
<feColorMatrix type="matrix" values="0 0 0 0 0 0 0 0 0 0 0 0 0 0 0 0 0 0 0.8 0"/>
<feBlend mode="normal" in2="BackgroundImageFix" result="effect1_dropShadow_240_177"/>
<feBlend mode="normal" in="SourceGraphic" in2="effect1_dropShadow_240_177" result="shape"/>
</filter>
<filter id="filter13_f_240_177" x="13.7863" y="466.118" width="88.6321" height="68.1531" filterUnits="userSpaceOnUse" color-interpolation-filters="sRGB">
<feFlood flood-opacity="0" result="BackgroundImageFix"/>
<feBlend mode="normal" in="SourceGraphic" in2="BackgroundImageFix" result="shape"/>
<feGaussianBlur stdDeviation="12" result="effect1_foregroundBlur_240_177"/>
</filter>
<filter id="filter14_f_240_177" x="468.855" y="186.416" width="122.739" height="118.255" filterUnits="userSpaceOnUse" color-interpolation-filters="sRGB">
<feFlood flood-opacity="0" result="BackgroundImageFix"/>
<feBlend mode="normal" in="SourceGraphic" in2="BackgroundImageFix" result="shape"/>
<feGaussianBlur stdDeviation="15" result="effect1_foregroundBlur_240_177"/>
</filter>
<filter id="filter15_d_240_177" x="503" y="163" width="111" height="111" filterUnits="userSpaceOnUse" color-interpolation-filters="sRGB">
<feFlood flood-opacity="0" result="BackgroundImageFix"/>
<feColorMatrix in="SourceAlpha" type="matrix" values="0 0 0 0 0 0 0 0 0 0 0 0 0 0 0 0 0 0 127 0" result="hardAlpha"/>
<feOffset dx="4" dy="7"/>
<feGaussianBlur stdDeviation="5"/>
<feComposite in2="hardAlpha" operator="out"/>
<feColorMatrix type="matrix" values="0 0 0 0 0 0 0 0 0 0 0 0 0 0 0 0 0 0 0.8 0"/>
<feBlend mode="normal" in2="BackgroundImageFix" result="effect1_dropShadow_240_177"/>
<feBlend mode="normal" in="SourceGraphic" in2="effect1_dropShadow_240_177" result="shape"/>
</filter>
<filter id="filter16_f_240_177" x="484.658" y="204.631" width="81.0266" height="77.7275" filterUnits="userSpaceOnUse" color-interpolation-filters="sRGB">
<feFlood flood-opacity="0" result="BackgroundImageFix"/>
<feBlend mode="normal" in="SourceGraphic" in2="BackgroundImageFix" result="shape"/>
<feGaussianBlur stdDeviation="12" result="effect1_foregroundBlur_240_177"/>
</filter>
<filter id="filter17_f_240_177" x="503.092" y="468.281" width="143.447" height="87.1649" filterUnits="userSpaceOnUse" color-interpolation-filters="sRGB">
<feFlood flood-opacity="0" result="BackgroundImageFix"/>
<feBlend mode="normal" in="SourceGraphic" in2="BackgroundImageFix" result="shape"/>
<feGaussianBlur stdDeviation="15" result="effect1_foregroundBlur_240_177"/>
</filter>
<filter id="filter18_d_240_177" x="521" y="431" width="100" height="100" filterUnits="userSpaceOnUse" color-interpolation-filters="sRGB">
<feFlood flood-opacity="0" result="BackgroundImageFix"/>
<feColorMatrix in="SourceAlpha" type="matrix" values="0 0 0 0 0 0 0 0 0 0 0 0 0 0 0 0 0 0 127 0" result="hardAlpha"/>
<feOffset dx="3" dy="9"/>
<feGaussianBlur stdDeviation="5"/>
<feComposite in2="hardAlpha" operator="out"/>
<feColorMatrix type="matrix" values="0 0 0 0 0 0 0 0 0 0 0 0 0 0 0 0 0 0 0.8 0"/>
<feBlend mode="normal" in2="BackgroundImageFix" result="effect1_dropShadow_240_177"/>
<feBlend mode="normal" in="SourceGraphic" in2="effect1_dropShadow_240_177" result="shape"/>
</filter>
<filter id="filter19_f_240_177" x="533.111" y="470.158" width="89.6648" height="67.3002" filterUnits="userSpaceOnUse" color-interpolation-filters="sRGB">
<feFlood flood-opacity="0" result="BackgroundImageFix"/>
<feBlend mode="normal" in="SourceGraphic" in2="BackgroundImageFix" result="shape"/>
<feGaussianBlur stdDeviation="12" result="effect1_foregroundBlur_240_177"/>
</filter>
<filter id="filter20_d_240_177" x="506.492" y="44.2218" width="62.5723" height="65.1127" filterUnits="userSpaceOnUse" color-interpolation-filters="sRGB">
<feFlood flood-opacity="0" result="BackgroundImageFix"/>
<feColorMatrix in="SourceAlpha" type="matrix" values="0 0 0 0 0 0 0 0 0 0 0 0 0 0 0 0 0 0 127 0" result="hardAlpha"/>
<feOffset/>
<feGaussianBlur stdDeviation="13.5"/>
<feComposite in2="hardAlpha" operator="out"/>
<feColorMatrix type="matrix" values="0 0 0 0 1 0 0 0 0 1 0 0 0 0 1 0 0 0 1 0"/>
<feBlend mode="normal" in2="BackgroundImageFix" result="effect1_dropShadow_240_177"/>
<feBlend mode="normal" in="SourceGraphic" in2="effect1_dropShadow_240_177" result="shape"/>
</filter>
<filter id="filter21_d_240_177" x="251.27" y="434" width="62.5723" height="65.1128" filterUnits="userSpaceOnUse" color-interpolation-filters="sRGB">
<feFlood flood-opacity="0" result="BackgroundImageFix"/>
<feColorMatrix in="SourceAlpha" type="matrix" values="0 0 0 0 0 0 0 0 0 0 0 0 0 0 0 0 0 0 127 0" result="hardAlpha"/>
<feOffset/>
<feGaussianBlur stdDeviation="13.5"/>
<feComposite in2="hardAlpha" operator="out"/>
<feColorMatrix type="matrix" values="0 0 0 0 1 0 0 0 0 1 0 0 0 0 1 0 0 0 1 0"/>
<feBlend mode="normal" in2="BackgroundImageFix" result="effect1_dropShadow_240_177"/>
<feBlend mode="normal" in="SourceGraphic" in2="effect1_dropShadow_240_177" result="shape"/>
</filter>
<filter id="filter22_d_240_177" x="422.27" y="434" width="62.5723" height="65.1128" filterUnits="userSpaceOnUse" color-interpolation-filters="sRGB">
<feFlood flood-opacity="0" result="BackgroundImageFix"/>
<feColorMatrix in="SourceAlpha" type="matrix" values="0 0 0 0 0 0 0 0 0 0 0 0 0 0 0 0 0 0 127 0" result="hardAlpha"/>
<feOffset/>
<feGaussianBlur stdDeviation="13.5"/>
<feComposite in2="hardAlpha" operator="out"/>
<feColorMatrix type="matrix" values="0 0 0 0 1 0 0 0 0 1 0 0 0 0 1 0 0 0 1 0"/>
<feBlend mode="normal" in2="BackgroundImageFix" result="effect1_dropShadow_240_177"/>
<feBlend mode="normal" in="SourceGraphic" in2="effect1_dropShadow_240_177" result="shape"/>
</filter>
<filter id="filter23_d_240_177" x="506.27" y="304" width="62.5723" height="65.1127" filterUnits="userSpaceOnUse" color-interpolation-filters="sRGB">
<feFlood flood-opacity="0" result="BackgroundImageFix"/>
<feColorMatrix in="SourceAlpha" type="matrix" values="0 0 0 0 0 0 0 0 0 0 0 0 0 0 0 0 0 0 127 0" result="hardAlpha"/>
<feOffset/>
<feGaussianBlur stdDeviation="13.5"/>
<feComposite in2="hardAlpha" operator="out"/>
<feColorMatrix type="matrix" values="0 0 0 0 1 0 0 0 0 1 0 0 0 0 1 0 0 0 1 0"/>
<feBlend mode="normal" in2="BackgroundImageFix" result="effect1_dropShadow_240_177"/>
<feBlend mode="normal" in="SourceGraphic" in2="effect1_dropShadow_240_177" result="shape"/>
</filter>
<filter id="filter24_d_240_177" x="114.27" y="43" width="62.5723" height="65.1127" filterUnits="userSpaceOnUse" color-interpolation-filters="sRGB">
<feFlood flood-opacity="0" result="BackgroundImageFix"/>
<feColorMatrix in="SourceAlpha" type="matrix" values="0 0 0 0 0 0 0 0 0 0 0 0 0 0 0 0 0 0 127 0" result="hardAlpha"/>
<feOffset/>
<feGaussianBlur stdDeviation="13.5"/>
<feComposite in2="hardAlpha" operator="out"/>
<feColorMatrix type="matrix" values="0 0 0 0 1 0 0 0 0 1 0 0 0 0 1 0 0 0 1 0"/>
<feBlend mode="normal" in2="BackgroundImageFix" result="effect1_dropShadow_240_177"/>
<feBlend mode="normal" in="SourceGraphic" in2="effect1_dropShadow_240_177" result="shape"/>
</filter>
<filter id="filter25_d_240_177" x="251.27" y="43" width="62.5723" height="65.1127" filterUnits="userSpaceOnUse" color-interpolation-filters="sRGB">
<feFlood flood-opacity="0" result="BackgroundImageFix"/>
<feColorMatrix in="SourceAlpha" type="matrix" values="0 0 0 0 0 0 0 0 0 0 0 0 0 0 0 0 0 0 127 0" result="hardAlpha"/>
<feOffset/>
<feGaussianBlur stdDeviation="13.5"/>
<feComposite in2="hardAlpha" operator="out"/>
<feColorMatrix type="matrix" values="0 0 0 0 1 0 0 0 0 1 0 0 0 0 1 0 0 0 1 0"/>
<feBlend mode="normal" in2="BackgroundImageFix" result="effect1_dropShadow_240_177"/>
<feBlend mode="normal" in="SourceGraphic" in2="effect1_dropShadow_240_177" result="shape"/>
</filter>
<filter id="filter26_d_240_177" x="114.27" y="181" width="62.5723" height="65.1127" filterUnits="userSpaceOnUse" color-interpolation-filters="sRGB">
<feFlood flood-opacity="0" result="BackgroundImageFix"/>
<feColorMatrix in="SourceAlpha" type="matrix" values="0 0 0 0 0 0 0 0 0 0 0 0 0 0 0 0 0 0 127 0" result="hardAlpha"/>
<feOffset/>
<feGaussianBlur stdDeviation="13.5"/>
<feComposite in2="hardAlpha" operator="out"/>
<feColorMatrix type="matrix" values="0 0 0 0 1 0 0 0 0 1 0 0 0 0 1 0 0 0 1 0"/>
<feBlend mode="normal" in2="BackgroundImageFix" result="effect1_dropShadow_240_177"/>
<feBlend mode="normal" in="SourceGraphic" in2="effect1_dropShadow_240_177" result="shape"/>
</filter>
<filter id="filter27_d_240_177" x="290" y="450" width="160" height="95" filterUnits="userSpaceOnUse" color-interpolation-filters="sRGB">
<feFlood flood-opacity="0" result="BackgroundImageFix"/>
<feColorMatrix in="SourceAlpha" type="matrix" values="0 0 0 0 0 0 0 0 0 0 0 0 0 0 0 0 0 0 127 0" result="hardAlpha"/>
<feOffset/>
<feGaussianBlur stdDeviation="17.5"/>
<feComposite in2="hardAlpha" operator="out"/>
<feColorMatrix type="matrix" values="0 0 0 0 0.545179 0 0 0 0 0.984615 0 0 0 0 0.506509 0 0 0 0.25 0"/>
<feBlend mode="normal" in2="BackgroundImageFix" result="effect1_dropShadow_240_177"/>
<feBlend mode="normal" in="SourceGraphic" in2="effect1_dropShadow_240_177" result="shape"/>
</filter>
<linearGradient id="paint0_linear_240_177" x1="283" y1="575" x2="326.127" y2="371.123" gradientUnits="userSpaceOnUse">
<stop stop-color="#060606"/>
<stop offset="1" stop-color="#242424"/>
</linearGradient>
<linearGradient id="paint1_linear_240_177" x1="454" y1="593.809" x2="469.721" y2="468.98" gradientUnits="userSpaceOnUse">
<stop stop-color="#060606"/>
<stop offset="1" stop-color="#242424"/>
</linearGradient>
<linearGradient id="paint2_linear_240_177" x1="396" y1="149.409" x2="394.116" y2="192.918" gradientUnits="userSpaceOnUse">
<stop stop-color="#060606"/>
<stop offset="1" stop-color="#242424"/>
</linearGradient>
<linearGradient id="paint3_linear_240_177" x1="536.004" y1="143.707" x2="555.335" y2="12.2551" gradientUnits="userSpaceOnUse">
<stop stop-color="#242424"/>
<stop offset="1" stop-color="#060606"/>
</linearGradient>
<linearGradient id="paint4_linear_240_177" x1="433" y1="336.5" x2="665" y2="336.5" gradientUnits="userSpaceOnUse">
<stop stop-color="#242424"/>
<stop offset="1" stop-color="#060606"/>
</linearGradient>
<linearGradient id="paint5_linear_240_177" x1="473.259" y1="77.0006" x2="603.688" y2="77.0003" gradientUnits="userSpaceOnUse">
<stop stop-color="#242424"/>
<stop offset="1" stop-color="#060606"/>
</linearGradient>
<linearGradient id="paint6_linear_240_177" x1="358.5" y1="36.5" x2="389" y2="144" gradientUnits="userSpaceOnUse">
<stop stop-color="#0E0E0E"/>
<stop offset="1" stop-color="#131313"/>
</linearGradient>
<linearGradient id="paint7_linear_240_177" x1="305.103" y1="20.2224" x2="374.487" y2="13.3342" gradientUnits="userSpaceOnUse">
<stop stop-color="#1A1A1A"/>
<stop offset="1" stop-color="#1F1F1F"/>
</linearGradient>
<linearGradient id="paint8_linear_240_177" x1="269.235" y1="188" x2="346" y2="362" gradientUnits="userSpaceOnUse">
<stop stop-color="#272727"/>
<stop offset="1" stop-color="#2E2E2E"/>
</linearGradient>
<linearGradient id="paint9_linear_240_177" x1="259" y1="196" x2="407.5" y2="352" gradientUnits="userSpaceOnUse">
<stop stop-color="#3445FF"/>
<stop offset="1" stop-color="#00042B" stop-opacity="0.4"/>
</linearGradient>
<linearGradient id="paint10_linear_240_177" x1="335.366" y1="244" x2="393.876" y2="342.848" gradientUnits="userSpaceOnUse">
<stop stop-color="#7098FF"/>
<stop offset="1" stop-color="#7294EB"/>
</linearGradient>
<linearGradient id="paint11_linear_240_177" x1="344.809" y1="223.299" x2="354.96" y2="309.201" gradientUnits="userSpaceOnUse">
<stop offset="1" stop-color="#7098FF"/>
<stop offset="1" stop-color="#7294EB"/>
</linearGradient>
<linearGradient id="paint12_linear_240_177" x1="103.859" y1="244.495" x2="148.283" y2="370.984" gradientUnits="userSpaceOnUse">
<stop stop-color="#0E0E0E"/>
<stop offset="1" stop-color="#131313"/>
</linearGradient>
<linearGradient id="paint13_linear_240_177" x1="51.09" y1="224.583" x2="119.891" y2="219.065" gradientUnits="userSpaceOnUse">
<stop stop-color="#1A1A1A"/>
<stop offset="1" stop-color="#1F1F1F"/>
</linearGradient>
<linearGradient id="paint14_linear_240_177" x1="185.112" y1="404.67" x2="237.951" y2="517.507" gradientUnits="userSpaceOnUse">
<stop stop-color="#0E0E0E"/>
<stop offset="1" stop-color="#131313"/>
</linearGradient>
<linearGradient id="paint15_linear_240_177" x1="146.792" y1="385.39" x2="196.894" y2="382.376" gradientUnits="userSpaceOnUse">
<stop stop-color="#1A1A1A"/>
<stop offset="1" stop-color="#1F1F1F"/>
</linearGradient>
<linearGradient id="paint16_linear_240_177" x1="39.1118" y1="404.67" x2="91.9506" y2="517.507" gradientUnits="userSpaceOnUse">
<stop stop-color="#0E0E0E"/>
<stop offset="1" stop-color="#131313"/>
</linearGradient>
<linearGradient id="paint17_linear_240_177" x1="0.79153" y1="385.39" x2="50.894" y2="382.376" gradientUnits="userSpaceOnUse">
<stop stop-color="#1A1A1A"/>
<stop offset="1" stop-color="#1F1F1F"/>
</linearGradient>
<linearGradient id="paint18_linear_240_177" x1="525.935" y1="138.058" x2="578.157" y2="270.897" gradientUnits="userSpaceOnUse">
<stop stop-color="#0E0E0E"/>
<stop offset="1" stop-color="#131313"/>
</linearGradient>
<linearGradient id="paint19_linear_240_177" x1="475.051" y1="116.565" x2="541.48" y2="111.806" gradientUnits="userSpaceOnUse">
<stop stop-color="#1A1A1A"/>
<stop offset="1" stop-color="#1F1F1F"/>
</linearGradient>
<linearGradient id="paint20_linear_240_177" x1="37.5854" y1="214.501" x2="261.902" y2="214.5" gradientUnits="userSpaceOnUse">
<stop stop-color="#060606"/>
<stop offset="1" stop-color="#242424"/>
</linearGradient>
<linearGradient id="paint21_linear_240_177" x1="121.955" y1="472.501" x2="146.315" y2="472.501" gradientUnits="userSpaceOnUse">
<stop stop-color="#060606"/>
<stop offset="1" stop-color="#242424"/>
</linearGradient>
<linearGradient id="paint22_linear_240_177" x1="217.923" y1="313.501" x2="259.538" y2="313.501" gradientUnits="userSpaceOnUse">
<stop stop-color="#060606"/>
<stop offset="1" stop-color="#242424"/>
</linearGradient>
<linearGradient id="paint23_linear_240_177" x1="533.553" y1="398.058" x2="579.382" y2="536.225" gradientUnits="userSpaceOnUse">
<stop stop-color="#0E0E0E"/>
<stop offset="1" stop-color="#131313"/>
</linearGradient>
<linearGradient id="paint24_linear_240_177" x1="473.246" y1="376.565" x2="551.814" y2="369.894" gradientUnits="userSpaceOnUse">
<stop stop-color="#1A1A1A"/>
<stop offset="1" stop-color="#1F1F1F"/>
</linearGradient>
<linearGradient id="paint25_linear_240_177" x1="146.5" y1="2.18557e-08" x2="146.5" y2="250" gradientUnits="userSpaceOnUse">
<stop stop-color="#060606"/>
<stop offset="1" stop-color="#242424"/>
</linearGradient>
<linearGradient id="paint26_linear_240_177" x1="283.5" y1="2.18557e-08" x2="283.5" y2="188" gradientUnits="userSpaceOnUse">
<stop stop-color="#060606"/>
<stop offset="1" stop-color="#242424"/>
</linearGradient>
<linearGradient id="paint27_linear_240_177" x1="70.5629" y1="76.5006" x2="307.06" y2="76.4998" gradientUnits="userSpaceOnUse">
<stop stop-color="#060606"/>
<stop offset="1" stop-color="#242424"/>
</linearGradient>
<linearGradient id="paint28_linear_240_177" x1="187.5" y1="376" x2="187.5" y2="410" gradientUnits="userSpaceOnUse">
<stop stop-color="#060606"/>
<stop offset="1" stop-color="#242424"/>
</linearGradient>
<linearGradient id="paint29_linear_240_177" x1="81.5" y1="376" x2="81.5" y2="410" gradientUnits="userSpaceOnUse">
<stop stop-color="#060606"/>
<stop offset="1" stop-color="#242424"/>
</linearGradient>
<linearGradient id="paint30_linear_240_177" x1="699" y1="214.5" x2="636" y2="214.5" gradientUnits="userSpaceOnUse">
<stop stop-color="#060606"/>
<stop offset="1" stop-color="#242424"/>
</linearGradient>
<clipPath id="clip0_240_177">
<rect x="304" y="41" width="170" height="103" rx="20" fill="white"/>
</clipPath>
<clipPath id="clip1_240_177">
<rect x="50" y="250" width="168" height="126" rx="20" fill="white"/>
</clipPath>
<clipPath id="clip2_240_177">
<rect x="146" y="410" width="122" height="122" rx="20" fill="white"/>
</clipPath>
<clipPath id="clip3_240_177">
<rect y="410" width="122" height="122" rx="20" fill="white"/>
</clipPath>
<clipPath id="clip4_240_177">
<rect x="474" y="144" width="162" height="136" rx="20" fill="white"/>
</clipPath>
<clipPath id="clip5_240_177">
<rect x="472" y="404" width="192" height="136" rx="20" fill="white"/>
</clipPath>
</defs>
</svg>
