<svg width="18" height="18" viewBox="0 0 18 18" fill="none" xmlns="http://www.w3.org/2000/svg">
<path d="M9 10.8857L10.4667 11.7619C10.6063 11.8508 10.743 11.8477 10.8766 11.7528C11.0102 11.6578 11.0577 11.5275 11.019 11.3619L10.6381 9.70476L11.9333 8.58095C12.0603 8.46667 12.0984 8.33029 12.0476 8.17181C11.9968 8.01333 11.8825 7.92749 11.7048 7.91429L10.0095 7.78095L9.34286 6.2C9.27937 6.04762 9.16508 5.97143 9 5.97143C8.83492 5.97143 8.72064 6.04762 8.65714 6.2L7.99048 7.78095L6.29524 7.91429C6.11746 7.92698 6.00317 8.01283 5.95238 8.17181C5.90159 8.33079 5.93968 8.46717 6.06667 8.58095L7.36191 9.70476L6.98095 11.3619C6.94286 11.527 6.9906 11.6573 7.12419 11.7528C7.25778 11.8483 7.39416 11.8513 7.53333 11.7619L9 10.8857ZM6.44762 15.0952H4.42857C4.00952 15.0952 3.65092 14.9462 3.35276 14.648C3.0546 14.3498 2.90527 13.991 2.90476 13.5714V11.5524L1.4381 10.0667C1.29841 9.91429 1.19048 9.74616 1.11429 9.56229C1.0381 9.37841 1 9.19098 1 9C1 8.80902 1.0381 8.62184 1.11429 8.43848C1.19048 8.25511 1.29841 8.08673 1.4381 7.93333L2.90476 6.44762V4.42857C2.90476 4.00952 3.0541 3.65092 3.35276 3.35276C3.65143 3.0546 4.01003 2.90527 4.42857 2.90476H6.44762L7.93333 1.4381C8.08571 1.29841 8.2541 1.19048 8.43848 1.11429C8.62286 1.0381 8.81003 1 9 1C9.18997 1 9.3774 1.0381 9.56229 1.11429C9.74717 1.19048 9.9153 1.29841 10.0667 1.4381L11.5524 2.90476H13.5714C13.9905 2.90476 14.3493 3.0541 14.648 3.35276C14.9467 3.65143 15.0957 4.01003 15.0952 4.42857V6.44762L16.5619 7.93333C16.7016 8.08571 16.8095 8.2541 16.8857 8.43848C16.9619 8.62286 17 8.81003 17 9C17 9.18997 16.9619 9.3774 16.8857 9.56229C16.8095 9.74717 16.7016 9.9153 16.5619 10.0667L15.0952 11.5524V13.5714C15.0952 13.9905 14.9462 14.3493 14.648 14.648C14.3498 14.9467 13.991 15.0957 13.5714 15.0952H11.5524L10.0667 16.5619C9.91429 16.7016 9.74616 16.8095 9.56229 16.8857C9.37841 16.9619 9.19098 17 9 17C8.80902 17 8.62184 16.9619 8.43848 16.8857C8.25511 16.8095 8.08673 16.7016 7.93333 16.5619L6.44762 15.0952Z" fill="#4AC73F"/>
</svg>
