<svg width="18" height="18" viewBox="0 0 18 18" fill="none" xmlns="http://www.w3.org/2000/svg">
<path d="M9.60003 17.25C8.57502 17.25 7.61252 17.0158 6.71252 16.5473C5.81252 16.0788 5.07502 15.4255 4.50002 14.5875L0.900024 9.3L1.25627 8.94375C1.50627 8.68125 1.81577 8.53125 2.18477 8.49375C2.55377 8.45625 2.88802 8.54375 3.18752 8.75625L5.25002 10.1813V3C5.25002 2.7875 5.32202 2.6095 5.46602 2.466C5.61002 2.3225 5.78802 2.2505 6.00002 2.25C6.21202 2.2495 6.39028 2.3215 6.53477 2.466C6.67927 2.6105 6.75102 2.7885 6.75002 3V9H8.25002V1.5C8.25002 1.2875 8.32202 1.1095 8.46602 0.966003C8.61002 0.822503 8.78802 0.750503 9.00002 0.750003C9.21202 0.749503 9.39028 0.821503 9.53477 0.966003C9.67927 1.1105 9.75102 1.2885 9.75002 1.5V9H11.25V2.25C11.25 2.0375 11.322 1.8595 11.466 1.716C11.61 1.5725 11.788 1.5005 12 1.5C12.212 1.4995 12.3903 1.5715 12.5348 1.716C12.6793 1.8605 12.751 2.0385 12.75 2.25V9H14.25V3.75C14.25 3.5375 14.322 3.3595 14.466 3.216C14.61 3.0725 14.788 3.0005 15 3C15.212 2.9995 15.3903 3.0715 15.5348 3.216C15.6793 3.3605 15.751 3.5385 15.75 3.75V11.1C15.75 12.8125 15.1533 14.2658 13.9598 15.4598C12.7663 16.6538 11.313 17.2505 9.60003 17.25Z" fill="#4AC73F"/>
</svg>
