<svg width="18" height="18" viewBox="0 0 18 18" fill="none" xmlns="http://www.w3.org/2000/svg">
<g clip-path="url(#clip0_3_425)">
<path d="M4.55699 1.22783C4.5434 1.22737 4.52994 1.23062 4.51805 1.23722C4.50616 1.24383 4.49629 1.25354 4.48949 1.26533L0.010495 8.96258C0.00334134 8.97433 -0.000442505 8.98782 -0.000442505 9.00158C-0.000442505 9.01533 0.00334134 9.02883 0.010495 9.04058L4.53974 16.7356C4.56975 16.7866 4.64474 16.7866 4.67474 16.7356L9.15375 9.03908C9.16067 9.02719 9.1642 9.01362 9.16394 8.99987C9.16367 8.98611 9.15963 8.97269 9.15225 8.96108L4.62449 1.26533C4.6177 1.25354 4.60783 1.24383 4.59594 1.23722C4.58405 1.23062 4.57059 1.22737 4.55699 1.22783ZM6.70425 1.22783C6.69069 1.22776 6.67735 1.23126 6.66558 1.23798C6.6538 1.24469 6.64401 1.25439 6.63717 1.2661C6.63032 1.2778 6.62669 1.2911 6.62661 1.30466C6.62654 1.31821 6.63003 1.33155 6.63675 1.34333L10.5262 8.06858C10.5327 8.08078 10.5425 8.09095 10.5544 8.09796C10.5663 8.10498 10.5799 8.10856 10.5937 8.10833H12.9315C12.9915 8.10833 13.029 8.04233 12.999 7.99058L9.1095 1.26608C9.1028 1.25415 9.09297 1.24429 9.08108 1.23754C9.06918 1.2308 9.05566 1.22744 9.042 1.22783H6.70425ZM11.1225 1.22783C11.109 1.22779 11.0957 1.23134 11.084 1.23811C11.0723 1.24488 11.0626 1.25463 11.0559 1.26637C11.0492 1.27811 11.0457 1.29141 11.0458 1.30493C11.0459 1.31845 11.0496 1.3317 11.0565 1.34333L15.492 9.00008L11.0565 16.6568C11.0496 16.6685 11.0459 16.6817 11.0458 16.6952C11.0457 16.7087 11.0492 16.722 11.0559 16.7338C11.0626 16.7455 11.0723 16.7553 11.084 16.762C11.0957 16.7688 11.109 16.7724 11.1225 16.7723H13.4647C13.4781 16.7725 13.4912 16.7691 13.5028 16.7625C13.5144 16.7559 13.5241 16.7464 13.5307 16.7348L17.9895 9.03833C17.9964 9.02675 18 9.01354 18 9.00008C18 8.98662 17.9964 8.9734 17.9895 8.96183L13.5307 1.26608C13.5242 1.25438 13.5146 1.24466 13.503 1.23793C13.4914 1.23121 13.4782 1.22771 13.4647 1.22783H11.1225ZM10.53 10.0028C10.5164 10.0027 10.503 10.0062 10.4912 10.0131C10.4794 10.0199 10.4698 10.0299 10.4632 10.0418L6.6375 16.6568C6.6075 16.7086 6.64499 16.7723 6.705 16.7723H9.04275C9.05634 16.7728 9.0698 16.7695 9.08169 16.7629C9.09358 16.7563 9.10345 16.7466 9.11025 16.7348L12.9352 10.1198C12.9421 10.108 12.9458 10.0946 12.9458 10.0809C12.9458 10.0673 12.9422 10.0539 12.9354 10.042C12.9285 10.0302 12.9186 10.0204 12.9068 10.0137C12.8949 10.0069 12.8814 10.0034 12.8677 10.0036L10.53 10.0028Z" fill="#4AC73F"/>
</g>
<defs>
<clipPath id="clip0_3_425">
<rect width="18" height="18" fill="white"/>
</clipPath>
</defs>
</svg>
