<svg width="15" height="14" viewBox="0 0 15 14" fill="none" xmlns="http://www.w3.org/2000/svg">
<path d="M14.0264 7.72275C14.4261 7.32301 14.4261 6.67382 14.0264 6.27407L8.90961 1.15732C8.50987 0.757577 7.86068 0.757577 7.46093 1.15732C7.06119 1.55707 7.06119 2.20626 7.46093 2.606L10.8348 5.97666L1.02342 5.97666C0.457379 5.97666 6.93745e-05 6.43397 6.93497e-05 7.00001C6.9325e-05 7.56605 0.457379 8.02336 1.02342 8.02336L10.8316 8.02336L7.46413 11.394C7.06438 11.7938 7.06438 12.443 7.46413 12.8427C7.86387 13.2424 8.51306 13.2424 8.91281 12.8427L14.0296 7.72595L14.0264 7.72275Z" fill="white"/>
</svg>
