<svg width="360" height="276" viewBox="0 0 360 276" fill="none" xmlns="http://www.w3.org/2000/svg">
<path d="M51.1733 180.129C50.5639 180.129 50.0207 180.025 49.5437 179.815C49.0697 179.606 48.6927 179.315 48.4126 178.943C48.1357 178.567 47.9848 178.132 47.9602 177.636H49.1236C49.1482 177.941 49.2528 178.204 49.4375 178.426C49.6222 178.644 49.8638 178.814 50.1623 178.934C50.4608 179.054 50.7917 179.114 51.1548 179.114C51.5611 179.114 51.9212 179.043 52.2351 178.901C52.549 178.76 52.7952 178.563 52.9737 178.31C53.1522 178.058 53.2415 177.766 53.2415 177.433C53.2415 177.085 53.1553 176.779 52.983 176.515C52.8106 176.247 52.5582 176.038 52.2259 175.887C51.8935 175.736 51.4872 175.661 51.0071 175.661H50.25V174.645H51.0071C51.3826 174.645 51.7119 174.577 51.995 174.442C52.2813 174.306 52.5044 174.116 52.6644 173.869C52.8275 173.623 52.9091 173.334 52.9091 173.001C52.9091 172.681 52.8383 172.403 52.6967 172.166C52.5552 171.929 52.3551 171.744 52.0966 171.612C51.8411 171.48 51.5395 171.413 51.1918 171.413C50.8655 171.413 50.5578 171.473 50.2685 171.593C49.9822 171.71 49.7483 171.881 49.5668 172.106C49.3852 172.327 49.2867 172.595 49.2713 172.909H48.1634C48.1818 172.414 48.3311 171.98 48.6112 171.607C48.8912 171.232 49.2575 170.939 49.7099 170.73C50.1654 170.521 50.6655 170.416 51.2102 170.416C51.795 170.416 52.2966 170.535 52.7152 170.772C53.1338 171.006 53.4554 171.315 53.68 171.7C53.9047 172.084 54.017 172.5 54.017 172.946C54.017 173.478 53.877 173.932 53.5969 174.308C53.32 174.683 52.9429 174.943 52.4659 175.088V175.162C53.063 175.26 53.5292 175.514 53.8647 175.924C54.2002 176.33 54.3679 176.833 54.3679 177.433C54.3679 177.947 54.2279 178.409 53.9478 178.818C53.6708 179.224 53.2923 179.545 52.8121 179.778C52.332 180.012 51.7857 180.129 51.1733 180.129ZM59.8598 180.129C59.1643 180.129 58.5718 179.94 58.0825 179.561C57.5932 179.18 57.2192 178.627 56.9607 177.904C56.7022 177.178 56.5729 176.301 56.5729 175.273C56.5729 174.251 56.7022 173.378 56.9607 172.655C57.2223 171.929 57.5978 171.375 58.0871 170.993C58.5795 170.609 59.1705 170.416 59.8598 170.416C60.5492 170.416 61.1386 170.609 61.628 170.993C62.1204 171.375 62.4959 171.929 62.7544 172.655C63.016 173.378 63.1468 174.251 63.1468 175.273C63.1468 176.301 63.0175 177.178 62.759 177.904C62.5005 178.627 62.1265 179.18 61.6372 179.561C61.1478 179.94 60.5554 180.129 59.8598 180.129ZM59.8598 179.114C60.5492 179.114 61.0847 178.781 61.4664 178.116C61.848 177.452 62.0388 176.504 62.0388 175.273C62.0388 174.454 61.9511 173.757 61.7757 173.181C61.6033 172.606 61.354 172.167 61.0278 171.866C60.7047 171.564 60.3153 171.413 59.8598 171.413C59.1766 171.413 58.6426 171.75 58.2579 172.424C57.8732 173.095 57.6809 174.045 57.6809 175.273C57.6809 176.091 57.767 176.787 57.9394 177.359C58.1117 177.932 58.3595 178.367 58.6826 178.666C59.0089 178.964 59.4013 179.114 59.8598 179.114Z" fill="#222222"/>
<path d="M96.7571 178.061V177.119L100.912 170.545H101.595V172.004H101.134L97.9943 176.972V177.045H103.589V178.061H96.7571ZM101.207 180V177.775V177.336V170.545H102.297V180H101.207ZM108.923 180.129C108.228 180.129 107.635 179.94 107.146 179.561C106.657 179.18 106.283 178.627 106.024 177.904C105.766 177.178 105.636 176.301 105.636 175.273C105.636 174.251 105.766 173.378 106.024 172.655C106.286 171.929 106.661 171.375 107.151 170.993C107.643 170.609 108.234 170.416 108.923 170.416C109.613 170.416 110.202 170.609 110.691 170.993C111.184 171.375 111.559 171.929 111.818 172.655C112.079 173.378 112.21 174.251 112.21 175.273C112.21 176.301 112.081 177.178 111.822 177.904C111.564 178.627 111.19 179.18 110.701 179.561C110.211 179.94 109.619 180.129 108.923 180.129ZM108.923 179.114C109.613 179.114 110.148 178.781 110.53 178.116C110.911 177.452 111.102 176.504 111.102 175.273C111.102 174.454 111.015 173.757 110.839 173.181C110.667 172.606 110.418 172.167 110.091 171.866C109.768 171.564 109.379 171.413 108.923 171.413C108.24 171.413 107.706 171.75 107.321 172.424C106.937 173.095 106.744 174.045 106.744 175.273C106.744 176.091 106.831 176.787 107.003 177.359C107.175 177.932 107.423 178.367 107.746 178.666C108.072 178.964 108.465 179.114 108.923 179.114Z" fill="#222222"/>
<path d="M149.933 180.129C149.392 180.129 148.904 180.022 148.47 179.806C148.036 179.591 147.688 179.295 147.426 178.92C147.165 178.544 147.022 178.116 146.997 177.636H148.105C148.148 178.064 148.342 178.418 148.687 178.698C149.035 178.975 149.45 179.114 149.933 179.114C150.321 179.114 150.666 179.023 150.967 178.841C151.272 178.66 151.511 178.41 151.683 178.093C151.858 177.773 151.946 177.412 151.946 177.009C151.946 176.596 151.855 176.228 151.674 175.905C151.495 175.579 151.249 175.322 150.935 175.134C150.621 174.946 150.263 174.851 149.859 174.848C149.57 174.845 149.273 174.89 148.968 174.982C148.664 175.071 148.413 175.187 148.216 175.328L147.145 175.199L147.717 170.545H152.629V171.561H148.678L148.345 174.349H148.401C148.594 174.196 148.838 174.068 149.13 173.966C149.422 173.865 149.727 173.814 150.044 173.814C150.623 173.814 151.138 173.952 151.591 174.229C152.046 174.503 152.403 174.879 152.662 175.356C152.923 175.833 153.054 176.378 153.054 176.99C153.054 177.593 152.919 178.132 152.648 178.606C152.38 179.077 152.011 179.449 151.54 179.723C151.069 179.994 150.533 180.129 149.933 180.129ZM158.492 180.129C157.796 180.129 157.204 179.94 156.714 179.561C156.225 179.18 155.851 178.627 155.593 177.904C155.334 177.178 155.205 176.301 155.205 175.273C155.205 174.251 155.334 173.378 155.593 172.655C155.854 171.929 156.23 171.375 156.719 170.993C157.211 170.609 157.802 170.416 158.492 170.416C159.181 170.416 159.77 170.609 160.26 170.993C160.752 171.375 161.128 171.929 161.386 172.655C161.648 173.378 161.779 174.251 161.779 175.273C161.779 176.301 161.649 177.178 161.391 177.904C161.132 178.627 160.758 179.18 160.269 179.561C159.78 179.94 159.187 180.129 158.492 180.129ZM158.492 179.114C159.181 179.114 159.717 178.781 160.098 178.116C160.48 177.452 160.671 176.504 160.671 175.273C160.671 174.454 160.583 173.757 160.408 173.181C160.235 172.606 159.986 172.167 159.66 171.866C159.336 171.564 158.947 171.413 158.492 171.413C157.808 171.413 157.274 171.75 156.89 172.424C156.505 173.095 156.313 174.045 156.313 175.273C156.313 176.091 156.399 176.787 156.571 177.359C156.744 177.932 156.991 178.367 157.314 178.666C157.641 178.964 158.033 179.114 158.492 179.114Z" fill="#222222"/>
<path d="M247.274 180L251.503 171.635V171.561H246.628V170.545H252.685V171.616L248.474 180H247.274ZM257.806 180.129C257.111 180.129 256.518 179.94 256.029 179.561C255.539 179.18 255.166 178.627 254.907 177.904C254.648 177.178 254.519 176.301 254.519 175.273C254.519 174.251 254.648 173.378 254.907 172.655C255.169 171.929 255.544 171.375 256.033 170.993C256.526 170.609 257.117 170.416 257.806 170.416C258.496 170.416 259.085 170.609 259.574 170.993C260.067 171.375 260.442 171.929 260.701 172.655C260.962 173.378 261.093 174.251 261.093 175.273C261.093 176.301 260.964 177.178 260.705 177.904C260.447 178.627 260.073 179.18 259.583 179.561C259.094 179.94 258.502 180.129 257.806 180.129ZM257.806 179.114C258.496 179.114 259.031 178.781 259.413 178.116C259.794 177.452 259.985 176.504 259.985 175.273C259.985 174.454 259.897 173.757 259.722 173.181C259.55 172.606 259.3 172.167 258.974 171.866C258.651 171.564 258.262 171.413 257.806 171.413C257.123 171.413 256.589 171.75 256.204 172.424C255.82 173.095 255.627 174.045 255.627 175.273C255.627 176.091 255.713 176.787 255.886 177.359C256.058 177.932 256.306 178.367 256.629 178.666C256.955 178.964 257.348 179.114 257.806 179.114Z" fill="#222222"/>
<path d="M200.118 180.129C199.73 180.123 199.342 180.049 198.955 179.908C198.567 179.766 198.213 179.528 197.893 179.192C197.573 178.854 197.316 178.397 197.122 177.821C196.928 177.242 196.831 176.516 196.831 175.642C196.831 174.805 196.909 174.063 197.066 173.417C197.223 172.768 197.451 172.221 197.75 171.778C198.048 171.332 198.408 170.993 198.83 170.762C199.255 170.532 199.733 170.416 200.266 170.416C200.795 170.416 201.266 170.522 201.678 170.735C202.094 170.944 202.432 171.236 202.694 171.612C202.955 171.987 203.125 172.42 203.202 172.909H202.075C201.971 172.484 201.768 172.132 201.466 171.852C201.164 171.572 200.764 171.432 200.266 171.432C199.533 171.432 198.956 171.75 198.534 172.387C198.116 173.025 197.905 173.919 197.902 175.07H197.976C198.148 174.808 198.353 174.585 198.59 174.4C198.83 174.212 199.095 174.068 199.384 173.966C199.673 173.865 199.979 173.814 200.303 173.814C200.844 173.814 201.34 173.949 201.789 174.22C202.238 174.488 202.598 174.859 202.869 175.333C203.14 175.804 203.276 176.344 203.276 176.953C203.276 177.538 203.145 178.073 202.883 178.56C202.622 179.043 202.254 179.428 201.78 179.714C201.309 179.997 200.755 180.135 200.118 180.129ZM200.118 179.114C200.506 179.114 200.853 179.017 201.161 178.823C201.472 178.629 201.717 178.369 201.895 178.043C202.077 177.716 202.168 177.353 202.168 176.953C202.168 176.562 202.08 176.207 201.904 175.887C201.732 175.564 201.494 175.307 201.189 175.116C200.887 174.925 200.543 174.83 200.155 174.83C199.862 174.83 199.59 174.888 199.338 175.005C199.085 175.119 198.864 175.276 198.673 175.476C198.485 175.676 198.337 175.905 198.23 176.164C198.122 176.419 198.068 176.688 198.068 176.972C198.068 177.347 198.156 177.698 198.331 178.024C198.51 178.35 198.753 178.614 199.061 178.814C199.372 179.014 199.724 179.114 200.118 179.114ZM208.695 180.129C207.999 180.129 207.407 179.94 206.917 179.561C206.428 179.18 206.054 178.627 205.796 177.904C205.537 177.178 205.408 176.301 205.408 175.273C205.408 174.251 205.537 173.378 205.796 172.655C206.057 171.929 206.433 171.375 206.922 170.993C207.415 170.609 208.005 170.416 208.695 170.416C209.384 170.416 209.974 170.609 210.463 170.993C210.955 171.375 211.331 171.929 211.589 172.655C211.851 173.378 211.982 174.251 211.982 175.273C211.982 176.301 211.852 177.178 211.594 177.904C211.335 178.627 210.961 179.18 210.472 179.561C209.983 179.94 209.39 180.129 208.695 180.129ZM208.695 179.114C209.384 179.114 209.92 178.781 210.301 178.116C210.683 177.452 210.874 176.504 210.874 175.273C210.874 174.454 210.786 173.757 210.611 173.181C210.438 172.606 210.189 172.167 209.863 171.866C209.54 171.564 209.15 171.413 208.695 171.413C208.012 171.413 207.478 171.75 207.093 172.424C206.708 173.095 206.516 174.045 206.516 175.273C206.516 176.091 206.602 176.787 206.774 177.359C206.947 177.932 207.194 178.367 207.518 178.666C207.844 178.964 208.236 179.114 208.695 179.114Z" fill="#222222"/>
<path d="M300.007 180.129C299.373 180.129 298.813 180.017 298.327 179.792C297.844 179.565 297.467 179.252 297.196 178.855C296.925 178.455 296.791 178 296.794 177.489C296.791 177.089 296.869 176.719 297.029 176.381C297.19 176.039 297.408 175.754 297.685 175.527C297.965 175.296 298.277 175.15 298.622 175.088V175.033C298.17 174.916 297.81 174.662 297.542 174.271C297.274 173.877 297.142 173.429 297.145 172.928C297.142 172.447 297.263 172.018 297.51 171.64C297.756 171.261 298.094 170.962 298.525 170.744C298.959 170.525 299.453 170.416 300.007 170.416C300.555 170.416 301.044 170.525 301.475 170.744C301.906 170.962 302.245 171.261 302.491 171.64C302.74 172.018 302.866 172.447 302.869 172.928C302.866 173.429 302.729 173.877 302.458 174.271C302.191 174.662 301.835 174.916 301.392 175.033V175.088C301.734 175.15 302.041 175.296 302.315 175.527C302.589 175.754 302.808 176.039 302.971 176.381C303.134 176.719 303.217 177.089 303.22 177.489C303.217 178 303.079 178.455 302.805 178.855C302.534 179.252 302.157 179.565 301.674 179.792C301.194 180.017 300.638 180.129 300.007 180.129ZM300.007 179.114C300.435 179.114 300.804 179.044 301.115 178.906C301.426 178.767 301.666 178.572 301.835 178.32C302.004 178.067 302.091 177.772 302.094 177.433C302.091 177.076 301.998 176.761 301.817 176.487C301.635 176.213 301.387 175.998 301.074 175.841C300.763 175.684 300.407 175.605 300.007 175.605C299.604 175.605 299.244 175.684 298.927 175.841C298.613 175.998 298.365 176.213 298.184 176.487C298.005 176.761 297.917 177.076 297.92 177.433C297.917 177.772 297.999 178.067 298.165 178.32C298.334 178.572 298.576 178.767 298.89 178.906C299.204 179.044 299.576 179.114 300.007 179.114ZM300.007 174.626C300.346 174.626 300.646 174.559 300.907 174.423C301.172 174.288 301.38 174.099 301.531 173.855C301.681 173.612 301.758 173.328 301.761 173.001C301.758 172.681 301.683 172.403 301.535 172.166C301.387 171.926 301.183 171.741 300.921 171.612C300.66 171.48 300.355 171.413 300.007 171.413C299.653 171.413 299.344 171.48 299.079 171.612C298.815 171.741 298.61 171.926 298.465 172.166C298.321 172.403 298.25 172.681 298.253 173.001C298.25 173.328 298.322 173.612 298.47 173.855C298.621 174.099 298.828 174.288 299.093 174.423C299.358 174.559 299.662 174.626 300.007 174.626ZM308.593 180.129C307.898 180.129 307.305 179.94 306.816 179.561C306.327 179.18 305.953 178.627 305.694 177.904C305.436 177.178 305.306 176.301 305.306 175.273C305.306 174.251 305.436 173.378 305.694 172.655C305.956 171.929 306.331 171.375 306.821 170.993C307.313 170.609 307.904 170.416 308.593 170.416C309.283 170.416 309.872 170.609 310.361 170.993C310.854 171.375 311.229 171.929 311.488 172.655C311.749 173.378 311.88 174.251 311.88 175.273C311.88 176.301 311.751 177.178 311.492 177.904C311.234 178.627 310.86 179.18 310.371 179.561C309.881 179.94 309.289 180.129 308.593 180.129ZM308.593 179.114C309.283 179.114 309.818 178.781 310.2 178.116C310.581 177.452 310.772 176.504 310.772 175.273C310.772 174.454 310.685 173.757 310.509 173.181C310.337 172.606 310.087 172.167 309.761 171.866C309.438 171.564 309.049 171.413 308.593 171.413C307.91 171.413 307.376 171.75 306.991 172.424C306.607 173.095 306.414 174.045 306.414 175.273C306.414 176.091 306.5 176.787 306.673 177.359C306.845 177.932 307.093 178.367 307.416 178.666C307.742 178.964 308.135 179.114 308.593 179.114Z" fill="#222222"/>
<path d="M349.989 170.416C350.376 170.419 350.764 170.493 351.152 170.638C351.54 170.782 351.894 171.022 352.214 171.358C352.534 171.69 352.791 172.144 352.985 172.72C353.179 173.295 353.276 174.017 353.276 174.885C353.276 175.725 353.196 176.471 353.036 177.124C352.879 177.773 352.651 178.321 352.352 178.767C352.057 179.214 351.697 179.552 351.272 179.783C350.85 180.014 350.373 180.129 349.841 180.129C349.312 180.129 348.839 180.025 348.424 179.815C348.011 179.603 347.673 179.309 347.408 178.934C347.146 178.555 346.979 178.116 346.905 177.618H348.031C348.133 178.052 348.334 178.41 348.636 178.694C348.941 178.974 349.342 179.114 349.841 179.114C350.57 179.114 351.146 178.795 351.567 178.158C351.992 177.521 352.205 176.621 352.205 175.457H352.131C351.958 175.716 351.754 175.939 351.517 176.127C351.28 176.315 351.017 176.459 350.727 176.561C350.438 176.662 350.13 176.713 349.804 176.713C349.262 176.713 348.765 176.579 348.313 176.311C347.864 176.041 347.503 175.67 347.233 175.199C346.965 174.725 346.831 174.183 346.831 173.574C346.831 172.995 346.96 172.466 347.219 171.986C347.48 171.503 347.847 171.118 348.317 170.832C348.791 170.545 349.348 170.407 349.989 170.416ZM349.989 171.432C349.601 171.432 349.252 171.529 348.941 171.723C348.633 171.913 348.388 172.172 348.207 172.498C348.028 172.821 347.939 173.18 347.939 173.574C347.939 173.968 348.025 174.326 348.197 174.65C348.373 174.97 348.611 175.225 348.913 175.416C349.218 175.604 349.564 175.697 349.952 175.697C350.244 175.697 350.516 175.641 350.769 175.527C351.021 175.41 351.241 175.251 351.429 175.051C351.62 174.848 351.769 174.619 351.877 174.363C351.984 174.105 352.038 173.835 352.038 173.555C352.038 173.186 351.949 172.84 351.771 172.517C351.595 172.194 351.352 171.932 351.041 171.732C350.733 171.532 350.383 171.432 349.989 171.432ZM358.695 180.129C357.999 180.129 357.407 179.94 356.917 179.561C356.428 179.18 356.054 178.627 355.796 177.904C355.537 177.178 355.408 176.301 355.408 175.273C355.408 174.251 355.537 173.378 355.796 172.655C356.057 171.929 356.433 171.375 356.922 170.993C357.415 170.609 358.005 170.416 358.695 170.416C359.384 170.416 359.974 170.609 360.463 170.993C360.955 171.375 361.331 171.929 361.589 172.655C361.851 173.378 361.982 174.251 361.982 175.273C361.982 176.301 361.852 177.178 361.594 177.904C361.335 178.627 360.961 179.18 360.472 179.561C359.983 179.94 359.39 180.129 358.695 180.129ZM358.695 179.114C359.384 179.114 359.92 178.781 360.301 178.116C360.683 177.452 360.874 176.504 360.874 175.273C360.874 174.454 360.786 173.757 360.611 173.181C360.438 172.606 360.189 172.167 359.863 171.866C359.54 171.564 359.15 171.413 358.695 171.413C358.012 171.413 357.478 171.75 357.093 172.424C356.708 173.095 356.516 174.045 356.516 175.273C356.516 176.091 356.602 176.787 356.774 177.359C356.947 177.932 357.194 178.367 357.518 178.666C357.844 178.964 358.236 179.114 358.695 179.114Z" fill="#222222"/>
<path d="M130 315L130 34" stroke="url(#paint0_linear_237_203)" stroke-dasharray="6 6"/>
<path d="M280 315L280 34" stroke="url(#paint1_linear_237_203)" stroke-dasharray="6 6"/>
<path d="M80 315L80 34" stroke="url(#paint2_linear_237_203)" stroke-dasharray="6 6"/>
<path d="M230 315L230 34" stroke="url(#paint3_linear_237_203)" stroke-dasharray="6 6"/>
<path d="M330 315L330 34" stroke="url(#paint4_linear_237_203)" stroke-dasharray="6 6"/>
<path d="M30 315L30 34" stroke="url(#paint5_linear_237_203)" stroke-dasharray="6 6"/>
<path d="M180 315L180 34" stroke="url(#paint6_linear_237_203)" stroke-dasharray="6 6"/>
<path d="M226.125 137.313C222.952 141.276 218.627 144.155 213.748 145.553C208.868 146.95 203.675 146.798 198.885 145.117C194.096 143.436 189.947 140.309 187.012 136.168C184.077 132.026 182.5 127.076 182.5 122" stroke="url(#paint7_linear_237_203)"/>
<g filter="url(#filter0_d_237_203)">
<path d="M2 271.5C19.6667 251.167 65.9 211 109.5 213C132 213 129 178.5 150 192C190 226 204.667 159.5 207 122C208 99.8332 221.277 71.2891 264.5 62.9999C301 56 316 73.5 376.5 7" stroke="#222222" stroke-width="4"/>
</g>
<path d="M2 271.5C19.6667 251.167 65.9 211 109.5 213C132 213 129 178.5 150 192C190 226 204.667 159.5 207 122" stroke="url(#paint8_linear_237_203)" stroke-width="4"/>
<path d="M186.433 108.687C189.306 104.249 193.537 100.859 198.495 99.0237C203.453 97.1884 208.871 97.0061 213.941 98.5038C219.011 100.002 223.461 103.099 226.625 107.334C229.79 111.569 231.5 116.713 231.5 122" stroke="url(#paint9_linear_237_203)"/>
<g filter="url(#filter1_f_237_203)">
<circle cx="207" cy="122" r="47" fill="#346DEB" fill-opacity="0.3"/>
</g>
<circle cx="207" cy="122" r="14" fill="#346DEB" fill-opacity="0.3"/>
<circle cx="207" cy="122" r="6" fill="#8EB3FF"/>
<g filter="url(#filter2_d_237_203)">
<circle cx="231.5" cy="122.5" r="1.5" fill="#B6B6B6"/>
</g>
<g filter="url(#filter3_d_237_203)">
<circle cx="182.5" cy="122.5" r="1.5" fill="#B6B6B6"/>
</g>
<rect x="29.6301" y="81.0079" width="65.9069" height="65.9069" rx="14.5" transform="rotate(-18.0105 29.6301 81.0079)" fill="#0A0A0A"/>
<rect x="29.6301" y="81.0079" width="65.9069" height="65.9069" rx="14.5" transform="rotate(-18.0105 29.6301 81.0079)" stroke="url(#paint10_linear_237_203)"/>
<g filter="url(#filter4_d_237_203)">
<g clip-path="url(#clip0_237_203)">
<rect x="52.9436" y="92.8813" width="28.9069" height="28.9069" rx="14.4534" transform="rotate(-18.0105 52.9436 92.8813)" fill="url(#paint11_linear_237_203)"/>
<g clip-path="url(#clip1_237_203)">
<path d="M67.2742 98.4415C67.2942 97.1052 68.9441 96.5284 69.7987 97.4999L69.8757 97.5964L70.9577 99.0381C71.2057 99.3687 71.5218 99.6423 71.8845 99.8404C72.2473 100.039 72.6484 100.157 73.0606 100.186L73.2278 100.194L75.0299 100.22C76.3662 100.24 76.9429 101.89 75.9722 102.745L75.8756 102.822L74.434 103.903C74.1032 104.151 73.8294 104.468 73.6312 104.83C73.433 105.193 73.3149 105.594 73.2849 106.007L73.2775 106.173L73.2511 107.976C73.2311 109.312 71.5812 109.889 70.7275 108.918L70.6491 108.822L69.5679 107.38C69.3199 107.049 69.0038 106.775 68.641 106.577C68.2782 106.379 67.877 106.261 67.4647 106.231L67.2982 106.224L65.4961 106.197C64.1591 106.177 63.5824 104.527 64.5541 103.673L64.6502 103.595L66.092 102.514C66.4226 102.266 66.6963 101.95 66.8944 101.587C67.0925 101.224 67.2105 100.823 67.2404 100.411L67.2478 100.244L67.2742 98.4415ZM73.3029 93.8613C73.4314 93.8195 73.5692 93.8146 73.7004 93.8471C73.8316 93.8797 73.951 93.9484 74.0452 94.0455L74.1043 94.1152L74.5741 94.7421L75.3581 94.7532C75.5012 94.755 75.6405 94.7994 75.7584 94.8805C75.8762 94.9616 75.9674 95.0759 76.0202 95.2089C76.073 95.3419 76.0852 95.4876 76.0552 95.6275C76.0251 95.7674 75.9542 95.8952 75.8515 95.9948L75.7811 96.0541L75.1542 96.5239L75.1431 97.308C75.1411 97.451 75.0967 97.5903 75.0155 97.7081C74.9343 97.8259 74.82 97.917 74.687 97.9697C74.554 98.0225 74.4083 98.0346 74.2684 98.0045C74.1285 97.9744 74.0008 97.9034 73.9012 97.8006L73.8421 97.7309L73.3723 97.104L72.5883 97.093C72.4452 97.0911 72.3059 97.0468 72.188 96.9656C72.0702 96.8845 71.979 96.7702 71.9262 96.6372C71.8734 96.5042 71.8612 96.3585 71.8912 96.2186C71.9213 96.0787 71.9922 95.9509 72.0949 95.8513L72.1653 95.792L72.7922 95.3222L72.8033 94.5382C72.8055 94.3873 72.8548 94.2409 72.9444 94.1195C73.034 93.9981 73.1594 93.9078 73.3029 93.8613Z" fill="#00002D"/>
</g>
</g>
</g>
<rect x="280.247" y="175.646" width="53" height="49" rx="14.5" transform="rotate(21.0513 280.247 175.646)" fill="#0A0A0A"/>
<rect x="280.247" y="175.646" width="53" height="49" rx="14.5" transform="rotate(21.0513 280.247 175.646)" stroke="url(#paint12_linear_237_203)"/>
<g filter="url(#filter5_d_237_203)">
<g clip-path="url(#clip2_237_203)">
<rect x="290.438" y="195.105" width="20" height="20" rx="10" transform="rotate(21.0513 290.438 195.105)" fill="url(#paint13_linear_237_203)"/>
<path d="M293.681 209.462L291.781 208.73C291.536 208.636 291.397 208.457 291.363 208.192C291.33 207.927 291.425 207.72 291.647 207.571L298.763 202.746C298.92 202.643 299.091 202.594 299.276 202.601C299.461 202.608 299.629 202.675 299.779 202.803C299.929 202.931 300.015 203.087 300.038 203.272C300.061 203.457 300.028 203.632 299.941 203.798L297.924 207.577L300.298 208.491C300.564 208.593 300.705 208.782 300.722 209.059C300.739 209.335 300.622 209.542 300.369 209.679L293.005 213.775C292.842 213.864 292.671 213.898 292.492 213.876C292.312 213.854 292.16 213.778 292.034 213.647C291.909 213.517 291.831 213.361 291.801 213.18C291.772 212.999 291.8 212.825 291.887 212.659L293.681 209.462Z" fill="#00002D"/>
</g>
</g>
<defs>
<filter id="filter0_d_237_203" x="-4.50977" y="0.654053" width="387.489" height="277.157" filterUnits="userSpaceOnUse" color-interpolation-filters="sRGB">
<feFlood flood-opacity="0" result="BackgroundImageFix"/>
<feColorMatrix in="SourceAlpha" type="matrix" values="0 0 0 0 0 0 0 0 0 0 0 0 0 0 0 0 0 0 127 0" result="hardAlpha"/>
<feOffset/>
<feGaussianBlur stdDeviation="2.5"/>
<feComposite in2="hardAlpha" operator="out"/>
<feColorMatrix type="matrix" values="0 0 0 0 0 0 0 0 0 0 0 0 0 0 0 0 0 0 0.3 0"/>
<feBlend mode="normal" in2="BackgroundImageFix" result="effect1_dropShadow_237_203"/>
<feBlend mode="normal" in="SourceGraphic" in2="effect1_dropShadow_237_203" result="shape"/>
</filter>
<filter id="filter1_f_237_203" x="86" y="1" width="242" height="242" filterUnits="userSpaceOnUse" color-interpolation-filters="sRGB">
<feFlood flood-opacity="0" result="BackgroundImageFix"/>
<feBlend mode="normal" in="SourceGraphic" in2="BackgroundImageFix" result="shape"/>
<feGaussianBlur stdDeviation="37" result="effect1_foregroundBlur_237_203"/>
</filter>
<filter id="filter2_d_237_203" x="203" y="94" width="57" height="57" filterUnits="userSpaceOnUse" color-interpolation-filters="sRGB">
<feFlood flood-opacity="0" result="BackgroundImageFix"/>
<feColorMatrix in="SourceAlpha" type="matrix" values="0 0 0 0 0 0 0 0 0 0 0 0 0 0 0 0 0 0 127 0" result="hardAlpha"/>
<feOffset/>
<feGaussianBlur stdDeviation="13.5"/>
<feComposite in2="hardAlpha" operator="out"/>
<feColorMatrix type="matrix" values="0 0 0 0 1 0 0 0 0 1 0 0 0 0 1 0 0 0 1 0"/>
<feBlend mode="normal" in2="BackgroundImageFix" result="effect1_dropShadow_237_203"/>
<feBlend mode="normal" in="SourceGraphic" in2="effect1_dropShadow_237_203" result="shape"/>
</filter>
<filter id="filter3_d_237_203" x="154" y="94" width="57" height="57" filterUnits="userSpaceOnUse" color-interpolation-filters="sRGB">
<feFlood flood-opacity="0" result="BackgroundImageFix"/>
<feColorMatrix in="SourceAlpha" type="matrix" values="0 0 0 0 0 0 0 0 0 0 0 0 0 0 0 0 0 0 127 0" result="hardAlpha"/>
<feOffset/>
<feGaussianBlur stdDeviation="13.5"/>
<feComposite in2="hardAlpha" operator="out"/>
<feColorMatrix type="matrix" values="0 0 0 0 1 0 0 0 0 1 0 0 0 0 1 0 0 0 1 0"/>
<feBlend mode="normal" in2="BackgroundImageFix" result="effect1_dropShadow_237_203"/>
<feBlend mode="normal" in="SourceGraphic" in2="effect1_dropShadow_237_203" result="shape"/>
</filter>
<filter id="filter4_d_237_203" x="33.3436" y="64.3436" width="75.6282" height="75.6282" filterUnits="userSpaceOnUse" color-interpolation-filters="sRGB">
<feFlood flood-opacity="0" result="BackgroundImageFix"/>
<feColorMatrix in="SourceAlpha" type="matrix" values="0 0 0 0 0 0 0 0 0 0 0 0 0 0 0 0 0 0 127 0" result="hardAlpha"/>
<feMorphology radius="1" operator="erode" in="SourceAlpha" result="effect1_dropShadow_237_203"/>
<feOffset/>
<feGaussianBlur stdDeviation="10.3"/>
<feComposite in2="hardAlpha" operator="out"/>
<feColorMatrix type="matrix" values="0 0 0 0 0.459486 0 0 0 0 0.602824 0 0 0 0 0.965385 0 0 0 0.5 0"/>
<feBlend mode="normal" in2="BackgroundImageFix" result="effect1_dropShadow_237_203"/>
<feBlend mode="normal" in="SourceGraphic" in2="effect1_dropShadow_237_203" result="shape"/>
</filter>
<filter id="filter5_d_237_203" x="263.653" y="175.505" width="65.0492" height="65.0494" filterUnits="userSpaceOnUse" color-interpolation-filters="sRGB">
<feFlood flood-opacity="0" result="BackgroundImageFix"/>
<feColorMatrix in="SourceAlpha" type="matrix" values="0 0 0 0 0 0 0 0 0 0 0 0 0 0 0 0 0 0 127 0" result="hardAlpha"/>
<feMorphology radius="1" operator="erode" in="SourceAlpha" result="effect1_dropShadow_237_203"/>
<feOffset/>
<feGaussianBlur stdDeviation="10.3"/>
<feComposite in2="hardAlpha" operator="out"/>
<feColorMatrix type="matrix" values="0 0 0 0 0.459486 0 0 0 0 0.602824 0 0 0 0 0.965385 0 0 0 0.5 0"/>
<feBlend mode="normal" in2="BackgroundImageFix" result="effect1_dropShadow_237_203"/>
<feBlend mode="normal" in="SourceGraphic" in2="effect1_dropShadow_237_203" result="shape"/>
</filter>
<linearGradient id="paint0_linear_237_203" x1="129.5" y1="315" x2="129.5" y2="34" gradientUnits="userSpaceOnUse">
<stop stop-color="#181819"/>
<stop offset="0.485577" stop-color="#2A2A2B"/>
<stop offset="0.9999" stop-color="#181819"/>
</linearGradient>
<linearGradient id="paint1_linear_237_203" x1="279.5" y1="315" x2="279.5" y2="34" gradientUnits="userSpaceOnUse">
<stop stop-color="#181819"/>
<stop offset="0.485577" stop-color="#2A2A2B"/>
<stop offset="0.9999" stop-color="#181819"/>
</linearGradient>
<linearGradient id="paint2_linear_237_203" x1="79.5" y1="315" x2="79.5" y2="34" gradientUnits="userSpaceOnUse">
<stop stop-color="#181819"/>
<stop offset="0.485577" stop-color="#2A2A2B"/>
<stop offset="0.9999" stop-color="#181819"/>
</linearGradient>
<linearGradient id="paint3_linear_237_203" x1="229.5" y1="315" x2="229.5" y2="34" gradientUnits="userSpaceOnUse">
<stop stop-color="#181819"/>
<stop offset="0.485577" stop-color="#2A2A2B"/>
<stop offset="0.9999" stop-color="#181819"/>
</linearGradient>
<linearGradient id="paint4_linear_237_203" x1="329.5" y1="315" x2="329.5" y2="34" gradientUnits="userSpaceOnUse">
<stop stop-color="#181819"/>
<stop offset="0.485577" stop-color="#2A2A2B"/>
<stop offset="0.9999" stop-color="#181819"/>
</linearGradient>
<linearGradient id="paint5_linear_237_203" x1="29.5" y1="315" x2="29.5" y2="34" gradientUnits="userSpaceOnUse">
<stop stop-color="#181819"/>
<stop offset="0.485577" stop-color="#2A2A2B"/>
<stop offset="0.9999" stop-color="#181819"/>
</linearGradient>
<linearGradient id="paint6_linear_237_203" x1="179.5" y1="315" x2="179.5" y2="34" gradientUnits="userSpaceOnUse">
<stop stop-color="#181819"/>
<stop offset="0.485577" stop-color="#2A2A2B"/>
<stop offset="0.9999" stop-color="#181819"/>
</linearGradient>
<linearGradient id="paint7_linear_237_203" x1="182" y1="144.5" x2="217" y2="146" gradientUnits="userSpaceOnUse">
<stop stop-color="#B6B6B6"/>
<stop offset="1" stop-color="#181818"/>
</linearGradient>
<linearGradient id="paint8_linear_237_203" x1="198.5" y1="107.5" x2="-3.00001" y2="272" gradientUnits="userSpaceOnUse">
<stop stop-color="#346DFF"/>
<stop offset="1" stop-color="#03112E"/>
</linearGradient>
<linearGradient id="paint9_linear_237_203" x1="196" y1="100" x2="235" y2="120.5" gradientUnits="userSpaceOnUse">
<stop stop-color="#181818"/>
<stop offset="1" stop-color="#B6B6B6"/>
</linearGradient>
<linearGradient id="paint10_linear_237_203" x1="29" y1="114.14" x2="95.9069" y2="114.14" gradientUnits="userSpaceOnUse">
<stop stop-color="#1E1E1E"/>
<stop offset="1" stop-color="#202B47"/>
</linearGradient>
<linearGradient id="paint11_linear_237_203" x1="73.342" y1="108.206" x2="48.5192" y2="102.628" gradientUnits="userSpaceOnUse">
<stop stop-color="#346DFF"/>
<stop offset="1" stop-color="#7AB3FF"/>
</linearGradient>
<linearGradient id="paint12_linear_237_203" x1="278.816" y1="187.227" x2="332.129" y2="207.425" gradientUnits="userSpaceOnUse">
<stop stop-color="#202B47"/>
<stop offset="1" stop-color="#1E1E1E"/>
</linearGradient>
<linearGradient id="paint13_linear_237_203" x1="304.551" y1="205.708" x2="287.376" y2="201.849" gradientUnits="userSpaceOnUse">
<stop stop-color="#346DFF"/>
<stop offset="1" stop-color="#7AB3FF"/>
</linearGradient>
<clipPath id="clip0_237_203">
<rect x="52.9436" y="92.8813" width="28.9069" height="28.9069" rx="14.4534" transform="rotate(-18.0105 52.9436 92.8813)" fill="white"/>
</clipPath>
<clipPath id="clip1_237_203">
<rect width="17.3441" height="17.3441" fill="white" transform="translate(59.798 96.7322) rotate(-18.0105)"/>
</clipPath>
<clipPath id="clip2_237_203">
<rect x="290.438" y="195.105" width="20" height="20" rx="10" transform="rotate(21.0513 290.438 195.105)" fill="white"/>
</clipPath>
</defs>
</svg>
