<svg width="360" height="254" viewBox="0 0 360 254" fill="none" xmlns="http://www.w3.org/2000/svg">
<path d="M186.124 198.013C223.878 198.243 271.195 201.52 309.513 204.789C329.291 206.477 346.677 208.162 359.117 209.426C365.337 210.058 370.322 210.584 373.751 210.952C375.465 211.136 376.792 211.281 377.689 211.38C378.138 211.429 378.479 211.468 378.709 211.493C378.823 211.506 378.911 211.515 378.969 211.522C378.997 211.525 379.02 211.528 379.034 211.529C379.041 211.53 379.046 211.531 379.05 211.531C379.051 211.532 379.054 211.531 379.055 211.531C379.055 211.532 379.053 211.554 379 212.028C378.944 212.525 378.943 212.526 378.942 212.525C378.941 212.525 378.94 212.525 378.938 212.524C378.935 212.524 378.929 212.523 378.923 212.523C378.908 212.521 378.886 212.519 378.857 212.516C378.799 212.509 378.713 212.499 378.599 212.486C378.369 212.461 378.028 212.423 377.58 212.374C376.683 212.275 375.358 212.13 373.644 211.946C370.217 211.578 365.234 211.053 359.016 210.421C346.58 209.158 329.2 207.473 309.428 205.786C271.115 202.518 223.831 199.243 186.119 199.013L182.5 199C144.619 198.969 96.5111 202.35 57.8651 205.739C38.5443 207.434 21.5917 209.131 9.46959 210.403C3.40885 211.04 -1.44449 211.57 -4.78236 211.941C-6.45114 212.127 -7.74166 212.273 -8.61439 212.372C-9.05056 212.422 -9.38273 212.461 -9.6056 212.486C-9.7169 212.499 -9.8013 212.509 -9.85755 212.516C-9.88553 212.519 -9.90694 212.521 -9.92103 212.523C-9.92777 212.523 -9.93316 212.524 -9.93666 212.524C-9.93808 212.525 -9.93974 212.524 -9.94056 212.524C-9.94157 212.523 -9.9457 212.496 -10.0001 212.028C-10.0557 211.552 -10.0575 211.532 -10.0568 211.531C-10.056 211.531 -10.0544 211.531 -10.0529 211.531C-10.0493 211.531 -10.0433 211.53 -10.0363 211.529C-10.0221 211.528 -10.0008 211.525 -9.97279 211.522C-9.91634 211.515 -9.83139 211.505 -9.71986 211.492C-9.49658 211.467 -9.16407 211.429 -8.72767 211.379C-7.85416 211.279 -6.56327 211.133 -4.89369 210.947C-1.55396 210.576 3.30192 210.045 9.3651 209.408C21.4916 208.135 38.4503 206.438 57.7782 204.743C96.4297 201.353 144.573 197.969 182.5 198L186.124 198.013ZM186.623 181.512C224.368 181.719 271.561 184.634 309.758 187.539C329.474 189.039 346.797 190.536 359.19 191.659C365.387 192.221 370.352 192.689 373.767 193.017C375.475 193.18 376.796 193.309 377.689 193.397C378.136 193.44 378.476 193.474 378.704 193.496C378.818 193.507 378.905 193.516 378.963 193.522C378.992 193.524 379.014 193.527 379.028 193.528C379.035 193.529 379.04 193.53 379.044 193.53C379.046 193.531 379.048 193.53 379.049 193.53C379.049 193.534 379.045 193.577 379 194.028C378.954 194.488 378.95 194.523 378.949 194.525C378.948 194.525 378.946 194.526 378.944 194.525C378.941 194.525 378.935 194.524 378.929 194.524C378.914 194.522 378.892 194.52 378.863 194.517C378.806 194.511 378.719 194.503 378.605 194.491C378.377 194.469 378.038 194.435 377.592 194.392C376.699 194.304 375.379 194.175 373.672 194.012C370.258 193.685 365.294 193.217 359.099 192.655C346.71 191.533 329.392 190.036 309.682 188.536C271.49 185.631 224.325 182.719 186.618 182.512L183 182.5C145.116 182.469 96.8816 185.475 58.1102 188.489C38.7265 189.996 21.7111 191.506 9.54186 192.638C3.45735 193.204 -1.41605 193.677 -4.76771 194.007C-6.44331 194.172 -7.73899 194.301 -8.61537 194.39C-9.05325 194.434 -9.38666 194.468 -9.61048 194.491C-9.72202 194.503 -9.80692 194.511 -9.86341 194.517C-9.89158 194.52 -9.91372 194.522 -9.92787 194.524C-9.9347 194.524 -9.94003 194.525 -9.94349 194.525C-9.94509 194.526 -9.94655 194.525 -9.9474 194.525C-9.94827 194.525 -9.95017 194.513 -10.0001 194.028C-10.0468 193.576 -10.0503 193.534 -10.0499 193.53C-10.0491 193.53 -10.0476 193.53 -10.046 193.53C-10.0426 193.53 -10.0372 193.529 -10.0304 193.528C-10.0162 193.527 -9.99418 193.525 -9.96595 193.523C-9.90928 193.517 -9.82406 193.508 -9.71205 193.496C-9.48789 193.473 -9.15414 193.439 -8.71595 193.395C-7.83877 193.306 -6.54194 193.176 -4.86537 193.011C-1.51211 192.68 3.36279 192.209 9.44909 191.643C21.6222 190.51 38.6431 189 58.0331 187.492C96.8093 184.477 145.075 181.469 183 181.5L186.623 181.512ZM186.123 166.009C223.868 166.149 271.177 167.973 309.494 169.788C329.271 170.725 346.655 171.661 359.095 172.361C365.314 172.712 370.298 173.004 373.727 173.208C375.442 173.31 376.768 173.39 377.665 173.444C378.113 173.472 378.455 173.493 378.684 173.507C378.799 173.514 378.885 173.52 378.943 173.524C378.972 173.525 378.994 173.527 379.009 173.527C379.016 173.528 379.022 173.528 379.025 173.528C379.027 173.528 379.028 173.528 379.029 173.528C379.03 173.528 379.031 173.529 379 174.027C378.971 174.488 378.969 174.524 378.968 174.526C378.967 174.526 378.965 174.527 378.964 174.526C378.96 174.526 378.954 174.526 378.947 174.525C378.933 174.525 378.911 174.523 378.882 174.522C378.824 174.518 378.737 174.512 378.623 174.505C378.394 174.491 378.052 174.47 377.604 174.442C376.708 174.388 375.382 174.308 373.668 174.206C370.24 174.002 365.257 173.71 359.039 173.359C346.602 172.659 329.22 171.724 309.446 170.787C271.132 168.972 223.841 167.149 186.119 167.009L182.5 167C144.609 166.969 96.4937 168.851 57.8465 170.74C38.5243 171.685 21.5702 172.631 9.44713 173.342C3.38579 173.697 -1.46849 173.994 -4.80677 174.201C-6.47585 174.305 -7.76687 174.386 -8.63978 174.441C-9.07597 174.469 -9.4081 174.491 -9.63099 174.505C-9.74238 174.512 -9.82666 174.518 -9.88295 174.522C-9.911 174.523 -9.93231 174.525 -9.94642 174.525C-9.95319 174.526 -9.95854 174.526 -9.96205 174.526C-9.9635 174.527 -9.96512 174.526 -9.96595 174.526C-9.96688 174.525 -9.96954 174.498 -10.0001 174.027C-10.0312 173.549 -10.0322 173.529 -10.0314 173.528C-10.0306 173.528 -10.0291 173.528 -10.0275 173.528C-10.0239 173.528 -10.0179 173.528 -10.0109 173.527C-9.99671 173.527 -9.97532 173.525 -9.9474 173.524C-9.89104 173.52 -9.80676 173.514 -9.69545 173.507C-9.47232 173.493 -9.1397 173.471 -8.70326 173.443C-7.82991 173.388 -6.53875 173.306 -4.86927 173.202C-1.52993 172.995 3.32581 172.699 9.38854 172.344C21.514 171.633 38.4715 170.686 57.7977 169.741C96.448 167.852 144.583 165.969 182.5 166L186.123 166.009ZM182.5 148L197.329 148.027C232.928 148.127 274.867 148.46 309.474 148.787C329.25 148.974 346.633 149.16 359.072 149.298C365.291 149.367 370.275 149.424 373.704 149.464C375.418 149.484 376.744 149.5 377.641 149.511C378.089 149.516 378.431 149.521 378.66 149.524C378.774 149.525 378.861 149.526 378.919 149.526C378.948 149.527 378.97 149.527 378.984 149.527H379.005C379.006 149.529 379.006 149.555 379 150.027C378.994 150.527 378.993 150.527 378.992 150.527H378.972C378.957 150.527 378.935 150.527 378.906 150.526C378.848 150.526 378.762 150.525 378.647 150.524C378.418 150.521 378.077 150.516 377.629 150.511C376.732 150.5 375.406 150.484 373.692 150.464C370.264 150.424 365.28 150.366 359.061 150.297C346.623 150.159 329.241 149.974 309.466 149.787C274.858 149.46 232.922 149.127 197.327 149.027L182.5 149C144.599 148.969 96.4755 149.351 57.827 149.74C38.5031 149.935 21.5477 150.132 9.42369 150.28C3.36193 150.354 -1.4925 150.416 -4.83119 150.459C-6.5003 150.481 -7.7911 150.498 -8.6642 150.51C-9.10068 150.516 -9.43333 150.52 -9.65638 150.523C-9.76772 150.524 -9.85201 150.526 -9.90834 150.526C-9.93628 150.527 -9.95768 150.527 -9.97181 150.527H-9.99232C-9.99311 150.525 -9.99379 150.493 -10.0001 150.027C-10.0065 149.561 -10.0067 149.53 -10.006 149.527H-9.98548C-9.97134 149.527 -9.95002 149.527 -9.92201 149.526C-9.86569 149.526 -9.7814 149.524 -9.67005 149.523C-9.44697 149.52 -9.11436 149.516 -8.67787 149.51C-7.80473 149.498 -6.51407 149.481 -4.84486 149.459C-1.50599 149.416 3.34892 149.354 9.411 149.28C21.5355 149.132 38.4916 148.935 57.8163 148.74C96.4654 148.351 144.593 147.969 182.5 148ZM57.8212 130.504C96.4699 130.496 144.595 130.497 182.5 130.527L212.932 130.545C244.758 130.558 279.806 130.557 309.47 130.551C329.245 130.547 346.628 130.541 359.066 130.536C365.285 130.534 370.269 130.532 373.697 130.53C375.411 130.53 376.738 130.529 377.635 130.528C378.083 130.528 378.424 130.528 378.653 130.527H378.998C378.999 130.527 379 130.528 379 131.027C379 131.5 379 131.526 378.999 131.527H378.654C378.425 131.528 378.083 131.528 377.635 131.528C376.738 131.529 375.412 131.53 373.698 131.53C370.27 131.532 365.286 131.534 359.067 131.536C346.629 131.541 329.246 131.547 309.471 131.551C279.807 131.557 244.757 131.558 212.932 131.545L182.5 131.527C144.596 131.497 96.4709 131.496 57.8221 131.504C38.4979 131.508 21.5421 131.514 9.41784 131.519C3.35576 131.521 -1.49922 131.524 -4.83802 131.525C-6.50722 131.526 -7.79793 131.526 -8.67103 131.526C-9.10746 131.527 -9.44017 131.527 -9.66322 131.527H-9.99818C-9.99901 131.526 -9.99988 131.499 -10.0001 131.027C-10.0004 130.549 -9.99997 130.528 -9.99916 130.527H-9.66322C-9.44014 130.527 -9.10747 130.527 -8.67103 130.526C-7.79788 130.526 -6.50715 130.526 -4.83802 130.525C-1.49927 130.524 3.35504 130.521 9.41686 130.519C21.5411 130.514 38.4969 130.508 57.8212 130.504ZM57.8212 110.477C96.4699 110.469 144.595 110.469 182.5 110.5L212.932 110.518C244.758 110.53 279.806 110.529 309.47 110.524C329.245 110.52 346.628 110.514 359.066 110.509C365.285 110.506 370.269 110.505 373.697 110.503C375.411 110.502 376.738 110.501 377.635 110.501C378.083 110.501 378.424 110.5 378.653 110.5H378.998C378.999 110.5 379 110.5 379 111C379 111.472 379 111.499 378.999 111.5H378.654C378.425 111.5 378.083 111.501 377.635 111.501C376.738 111.501 375.412 111.502 373.698 111.503C370.27 111.505 365.286 111.506 359.067 111.509C346.629 111.514 329.246 111.52 309.471 111.524C279.807 111.529 244.757 111.53 212.932 111.518L182.5 111.5C144.596 111.469 96.4709 111.469 57.8221 111.477C38.4979 111.48 21.5421 111.486 9.41784 111.491C3.35576 111.494 -1.49922 111.497 -4.83802 111.498C-6.50722 111.499 -7.79793 111.499 -8.67103 111.499C-9.10746 111.499 -9.44017 111.5 -9.66322 111.5H-9.99818C-9.99901 111.499 -9.99988 111.472 -10.0001 111C-10.0004 110.522 -9.99997 110.501 -9.99916 110.5H-9.66322C-9.44014 110.5 -9.10747 110.499 -8.67103 110.499C-7.79788 110.499 -6.50715 110.499 -4.83802 110.498C-1.49927 110.497 3.35504 110.494 9.41686 110.491C21.5411 110.486 38.4969 110.48 57.8212 110.477ZM-9.89466 85.504C-9.83883 85.5064 -9.75508 85.5101 -9.64466 85.5147C-9.42356 85.5241 -9.09392 85.5377 -8.66127 85.5557C-7.7956 85.5919 -6.51585 85.6454 -4.86048 85.713C-1.54941 85.8481 3.26554 86.0406 9.28014 86.2725C21.3099 86.7364 38.1396 87.3565 57.3378 87.9776C95.7354 89.2199 143.604 90.4692 181.5 90.5001L188.804 90.4913C225.919 90.3751 271.641 89.2027 308.954 88.0235C328.853 87.3947 346.36 86.7637 358.891 86.2901C365.157 86.0533 370.179 85.8561 373.635 85.7178C375.362 85.6487 376.698 85.5947 377.602 85.5577C378.054 85.5392 378.399 85.5243 378.63 85.5147C378.745 85.5099 378.833 85.5064 378.891 85.504C378.92 85.5028 378.942 85.5017 378.957 85.5011H378.977C378.978 85.5049 378.981 85.5465 379 86.0001C379.021 86.4996 379.02 86.5 379.019 86.5001H378.999C378.984 86.5007 378.962 86.5018 378.932 86.503C378.874 86.5054 378.787 86.509 378.672 86.5137C378.441 86.5233 378.096 86.5382 377.643 86.5567C376.739 86.5938 375.402 86.6477 373.675 86.7169C370.219 86.8552 365.196 87.0533 358.93 87.2901C346.397 87.7638 328.888 88.3946 308.986 89.0235C271.671 90.2027 225.936 91.375 188.806 91.4913L181.5 91.5001C143.587 91.4692 95.7055 90.219 57.3055 88.9766C38.105 88.3555 21.2734 87.7365 9.24205 87.2725C3.22643 87.0406 -1.58969 86.8472 -4.9015 86.712C-6.55726 86.6444 -7.8373 86.591 -8.70326 86.5548C-9.13591 86.5367 -9.46541 86.5231 -9.68666 86.5137C-9.79721 86.5091 -9.88173 86.5054 -9.93763 86.503C-9.9652 86.5018 -9.98617 86.5007 -10.0001 86.5001H-10.0197C-10.0204 86.4986 -10.0203 86.4726 -10.0001 86.0001C-9.98088 85.5491 -9.97857 85.5053 -9.97767 85.5011H-9.95814C-9.94414 85.5016 -9.92251 85.5028 -9.89466 85.504ZM379 66.0001C379.046 66.4979 379.046 66.498 379.045 66.4981C379.044 66.4982 379.042 66.498 379.041 66.4981C379.037 66.4985 379.031 66.4994 379.023 66.5001C379.008 66.5015 378.986 66.5032 378.956 66.5059C378.896 66.5115 378.807 66.5204 378.688 66.5313C378.451 66.5532 378.098 66.5857 377.635 66.628C376.708 66.7127 375.339 66.8372 373.57 66.9952C370.032 67.3113 364.891 67.7622 358.484 68.3038C345.669 69.3869 327.784 70.831 307.506 72.2725C268.22 75.0654 219.936 77.8512 182.125 77.9942L178.5 78.0001C140.576 77.9692 93.4357 75.0931 55.784 72.2257C36.9566 70.7918 20.4982 69.3597 8.74694 68.2862C2.87155 67.7495 -1.8275 67.3023 -5.05775 66.9893C-6.67281 66.8329 -7.92153 66.7099 -8.76576 66.6261C-9.18765 66.5842 -9.50911 66.552 -9.72474 66.5303C-9.83207 66.5196 -9.91344 66.5114 -9.96791 66.5059C-9.99509 66.5032 -10.0167 66.5015 -10.0304 66.5001C-10.0367 66.4994 -10.0417 66.4985 -10.0451 66.4981C-10.0465 66.498 -10.0481 66.4982 -10.049 66.4981C-10.0496 66.4967 -10.048 66.4712 -10.0001 66.0001C-9.95323 65.538 -9.94934 65.5053 -9.94838 65.503C-9.94755 65.5031 -9.94607 65.5029 -9.94447 65.503C-9.94109 65.5033 -9.93553 65.5043 -9.92884 65.505C-9.9153 65.5063 -9.89496 65.5081 -9.8683 65.5108L-8.66713 65.6309C-7.82372 65.7147 -6.5761 65.8378 -4.96205 65.9942C-1.73346 66.307 2.96425 66.7536 8.83776 67.2901C20.5851 68.3632 37.038 69.7952 55.8592 71.2286C93.5052 74.0956 140.615 76.9692 178.5 77.0001L182.123 76.9942C219.898 76.8512 268.152 74.0671 307.434 71.2745C327.707 69.8333 345.587 68.3905 358.399 67.3077C364.805 66.7663 369.944 66.3151 373.481 65.9991C375.25 65.8411 376.618 65.7166 377.544 65.6319C378.007 65.5896 378.36 65.5571 378.597 65.5352C378.714 65.5244 378.803 65.5164 378.863 65.5108C378.893 65.5081 378.916 65.5054 378.931 65.504C378.938 65.5033 378.944 65.5033 378.948 65.503C378.95 65.5029 378.951 65.5022 378.952 65.502C378.953 65.502 378.954 65.5052 379 66.0001ZM-10.4279 47.505C-10.4138 47.5064 -10.3923 47.5089 -10.3644 47.5118C-10.3084 47.5175 -10.2248 47.526 -10.1144 47.5372C-9.8925 47.5597 -9.56139 47.5931 -9.12709 47.6368C-8.25798 47.7242 -6.97274 47.8525 -5.31068 48.0157C-1.98635 48.3422 2.84794 48.8083 8.88561 49.3682C20.9611 50.4882 37.8515 51.9827 57.1102 53.4786C95.6314 56.4707 143.616 59.4692 181.5 59.5001L185.12 59.4942C222.842 59.3438 270.248 56.4381 308.682 53.5245C328.517 52.0208 345.96 50.5155 358.443 49.3858C364.685 48.821 369.687 48.3502 373.129 48.0206C374.849 47.8558 376.18 47.7261 377.08 47.6378C377.53 47.5937 377.872 47.56 378.102 47.5372C378.217 47.5258 378.305 47.5166 378.363 47.5108C378.392 47.508 378.414 47.5064 378.429 47.505C378.435 47.5043 378.441 47.5034 378.444 47.503C378.446 47.5028 378.448 47.5031 378.449 47.503C378.45 47.5066 378.455 47.5477 378.5 48.0001C378.548 48.4813 378.55 48.4975 378.549 48.4981C378.548 48.4982 378.546 48.4979 378.544 48.4981C378.54 48.4985 378.534 48.4994 378.527 48.5001C378.513 48.5015 378.491 48.5031 378.462 48.5059C378.404 48.5117 378.316 48.5209 378.201 48.5323C377.971 48.5551 377.628 48.5887 377.178 48.6329C376.277 48.7213 374.945 48.8508 373.224 49.0157C369.781 49.3455 364.777 49.8169 358.534 50.3819C346.047 51.5119 328.599 53.0174 308.758 54.5216C270.319 57.4355 222.883 60.3437 185.123 60.4942L181.5 60.5001C143.576 60.4692 95.5595 57.4681 57.0331 54.4757C37.7682 52.9793 20.8722 51.4847 8.79284 50.3643C2.75333 49.8042 -2.08244 49.3374 -5.40834 49.0108C-7.07118 48.8475 -8.35684 48.7194 -9.2267 48.6319C-9.66151 48.5882 -9.99267 48.5539 -10.215 48.5313C-10.3261 48.52 -10.4107 48.5117 -10.4669 48.5059C-10.4944 48.5031 -10.5154 48.5015 -10.5294 48.5001C-10.5364 48.4994 -10.5425 48.4985 -10.546 48.4981C-10.5476 48.4979 -10.5491 48.4972 -10.5499 48.4971C-10.5502 48.4926 -10.5461 48.4477 -10.5001 48.0001C-10.451 47.5222 -10.4483 47.5036 -10.4474 47.503C-10.4466 47.5031 -10.445 47.5029 -10.4435 47.503C-10.44 47.5034 -10.4346 47.5043 -10.4279 47.505ZM378.5 28.0001C378.563 28.4769 378.565 28.4954 378.564 28.4962C378.563 28.4962 378.561 28.4959 378.559 28.4962C378.556 28.4967 378.55 28.4981 378.542 28.4991C378.526 28.5012 378.503 28.5038 378.472 28.5079C378.409 28.5161 378.315 28.5289 378.192 28.545C377.946 28.5773 377.579 28.6251 377.098 28.6876C376.134 28.8126 374.711 28.9963 372.874 29.2296C369.198 29.6961 363.863 30.3618 357.221 31.1612C343.936 32.7601 325.425 34.8913 304.52 37.0206C264.023 41.1455 214.523 45.2652 176.63 45.4903L173 45.5001C135.066 45.4692 89.1674 41.2166 52.7635 36.9737C34.5595 34.852 18.7248 32.732 7.44127 31.1427C1.79957 30.348 -2.70497 29.6862 -5.79896 29.2227C-7.34559 28.9911 -8.53999 28.8088 -9.34779 28.6846C-9.75162 28.6226 -10.0594 28.5751 -10.2658 28.543C-10.3689 28.527 -10.447 28.5141 -10.4992 28.5059C-10.5249 28.5019 -10.5447 28.4992 -10.5578 28.4971C-10.564 28.4962 -10.5691 28.4957 -10.5724 28.4952C-10.5739 28.4949 -10.5755 28.4943 -10.5763 28.4942C-10.5769 28.4928 -10.5737 28.4679 -10.5001 28.0001C-10.4256 27.5259 -10.4219 27.5066 -10.421 27.5059C-10.4203 27.506 -10.4193 27.5067 -10.4181 27.5069C-10.415 27.5074 -10.4096 27.5079 -10.4035 27.5089C-10.3905 27.5109 -10.3706 27.5146 -10.3449 27.5186C-10.293 27.5267 -10.2151 27.5388 -10.1124 27.5548C-9.9067 27.5868 -9.5996 27.6344 -9.19642 27.6964C-8.38979 27.8203 -7.19616 28.0019 -5.65052 28.2335C-2.55911 28.6966 1.94235 29.3582 7.58092 30.1524C18.8584 31.7409 34.6851 33.86 52.8797 35.9805C89.2735 40.2222 135.125 44.4692 173 44.5001L176.626 44.4903C214.467 44.2654 263.926 40.151 304.42 36.0264C325.316 33.898 343.821 31.7674 357.1 30.169C363.74 29.3699 369.074 28.7037 372.748 28.2374C374.584 28.0043 376.006 27.8203 376.969 27.6954C377.45 27.633 377.816 27.5851 378.062 27.5528C378.185 27.5367 378.279 27.5249 378.341 27.5167C378.372 27.5126 378.395 27.5099 378.411 27.5079C378.419 27.5069 378.425 27.5055 378.429 27.505C378.43 27.5048 378.432 27.505 378.432 27.505C378.433 27.5048 378.434 27.5045 378.5 28.0001Z" fill="#2D2D2D"/>
<rect x="24.5" y="0.5" width="308" height="253" rx="9.5" fill="#191919"/>
<rect x="24.5" y="0.5" width="308" height="253" rx="9.5" stroke="url(#paint0_linear_237_204)"/>
<path d="M58.229 109.843C58.229 110.707 58.013 111.535 57.581 112.327C57.149 113.101 56.51 113.749 55.664 114.271C54.836 114.793 53.837 115.09 52.667 115.162V117.349H51.209V115.162C49.571 115.018 48.239 114.496 47.213 113.596C46.187 112.678 45.665 111.517 45.647 110.113H48.266C48.338 110.869 48.617 111.526 49.103 112.084C49.607 112.642 50.309 112.993 51.209 113.137V106.387C50.003 106.081 49.031 105.766 48.293 105.442C47.555 105.118 46.925 104.614 46.403 103.93C45.881 103.246 45.62 102.328 45.62 101.176C45.62 99.718 46.124 98.512 47.132 97.558C48.158 96.604 49.517 96.073 51.209 95.965V93.724H52.667V95.965C54.197 96.091 55.43 96.586 56.366 97.45C57.302 98.296 57.842 99.403 57.986 100.771H55.367C55.277 100.141 54.998 99.574 54.53 99.07C54.062 98.548 53.441 98.206 52.667 98.044V104.632C53.855 104.938 54.818 105.253 55.556 105.577C56.312 105.883 56.942 106.378 57.446 107.062C57.968 107.746 58.229 108.673 58.229 109.843ZM48.131 101.041C48.131 101.923 48.392 102.598 48.914 103.066C49.436 103.534 50.201 103.921 51.209 104.227V97.99C50.273 98.08 49.526 98.386 48.968 98.908C48.41 99.412 48.131 100.123 48.131 101.041ZM52.667 113.164C53.639 113.056 54.395 112.705 54.935 112.111C55.493 111.517 55.772 110.806 55.772 109.978C55.772 109.096 55.502 108.421 54.962 107.953C54.422 107.467 53.657 107.08 52.667 106.792V113.164Z" fill="white"/>
<path d="M78.5398 29.6364C78.5398 30.5682 78.3693 31.3693 78.0284 32.0398C77.6875 32.7074 77.2202 33.2216 76.6264 33.5824C76.0355 33.9403 75.3636 34.1193 74.6108 34.1193C73.8551 34.1193 73.1804 33.9403 72.5866 33.5824C71.9957 33.2216 71.5298 32.706 71.1889 32.0355C70.848 31.3651 70.6776 30.5653 70.6776 29.6364C70.6776 28.7045 70.848 27.9048 71.1889 27.2372C71.5298 26.5668 71.9957 26.0526 72.5866 25.6946C73.1804 25.3338 73.8551 25.1534 74.6108 25.1534C75.3636 25.1534 76.0355 25.3338 76.6264 25.6946C77.2202 26.0526 77.6875 26.5668 78.0284 27.2372C78.3693 27.9048 78.5398 28.7045 78.5398 29.6364ZM77.2358 29.6364C77.2358 28.9261 77.1207 28.3281 76.8906 27.8423C76.6634 27.3537 76.3509 26.9844 75.9531 26.7344C75.5582 26.4815 75.1108 26.3551 74.6108 26.3551C74.108 26.3551 73.6591 26.4815 73.2642 26.7344C72.8693 26.9844 72.5568 27.3537 72.3267 27.8423C72.0994 28.3281 71.9858 28.9261 71.9858 29.6364C71.9858 30.3466 72.0994 30.946 72.3267 31.4347C72.5568 31.9205 72.8693 32.2898 73.2642 32.5426C73.6591 32.7926 74.108 32.9176 74.6108 32.9176C75.1108 32.9176 75.5582 32.7926 75.9531 32.5426C76.3509 32.2898 76.6634 31.9205 76.8906 31.4347C77.1207 30.946 77.2358 30.3466 77.2358 29.6364ZM80.3192 34V27.4545H85.6587V34H84.4101V28.554H81.5592V34H80.3192ZM87.0865 34L87.0823 32.8963H87.3166C87.4985 32.8963 87.6505 32.858 87.7726 32.7812C87.8976 32.7017 87.9999 32.5682 88.0794 32.3807C88.159 32.1932 88.2201 31.9347 88.2627 31.6051C88.3053 31.2727 88.3365 30.8551 88.3564 30.3523L88.4715 27.4545H93.0397V34H91.7911V28.554H89.6519L89.5496 30.7784C89.524 31.3182 89.4686 31.7898 89.3834 32.1932C89.301 32.5966 89.1803 32.9332 89.0212 33.2031C88.8621 33.4702 88.6576 33.6705 88.4076 33.804C88.1576 33.9347 87.8536 34 87.4956 34H87.0865ZM96.8837 34.1449C96.4689 34.1449 96.0939 34.0682 95.7587 33.9148C95.4235 33.7585 95.1579 33.5327 94.9618 33.2372C94.7686 32.9418 94.6721 32.5795 94.6721 32.1506C94.6721 31.7812 94.7431 31.4773 94.8851 31.2386C95.0272 31 95.2189 30.8111 95.4604 30.6719C95.7019 30.5327 95.9718 30.4276 96.2701 30.3565C96.5684 30.2855 96.8723 30.2315 97.182 30.1946C97.574 30.1491 97.8922 30.1122 98.1365 30.0838C98.3809 30.0526 98.5584 30.0028 98.6692 29.9347C98.78 29.8665 98.8354 29.7557 98.8354 29.6023V29.5724C98.8354 29.2003 98.7303 28.9119 98.5201 28.7074C98.3127 28.5028 98.003 28.4006 97.5911 28.4006C97.1621 28.4006 96.824 28.4957 96.5769 28.6861C96.3326 28.8736 96.1635 29.0824 96.0698 29.3125L94.8723 29.0398C95.0144 28.642 95.2218 28.321 95.4945 28.0767C95.7701 27.8295 96.0868 27.6506 96.4448 27.5398C96.8027 27.4261 97.1792 27.3693 97.574 27.3693C97.8354 27.3693 98.1124 27.4006 98.405 27.4631C98.7005 27.5227 98.976 27.6335 99.2317 27.7955C99.4902 27.9574 99.7019 28.1889 99.8667 28.4901C100.031 28.7884 100.114 29.1761 100.114 29.6534V34H98.8695V33.1051H98.8184C98.736 33.2699 98.6124 33.4318 98.4476 33.5909C98.2829 33.75 98.0712 33.8821 97.8127 33.9872C97.5542 34.0923 97.2445 34.1449 96.8837 34.1449ZM97.1607 33.1222C97.513 33.1222 97.8141 33.0526 98.0641 32.9134C98.3169 32.7741 98.5087 32.5923 98.6394 32.3679C98.7729 32.1406 98.8397 31.8977 98.8397 31.6392V30.7955C98.7942 30.8409 98.7062 30.8835 98.5755 30.9233C98.4476 30.9602 98.3013 30.9929 98.1365 31.0213C97.9718 31.0469 97.8113 31.071 97.655 31.0938C97.4988 31.1136 97.3681 31.1307 97.263 31.1449C97.0158 31.1761 96.79 31.2287 96.5854 31.3026C96.3837 31.3764 96.2218 31.483 96.0996 31.6222C95.9803 31.7585 95.9206 31.9403 95.9206 32.1676C95.9206 32.483 96.0371 32.7216 96.2701 32.8835C96.503 33.0426 96.7999 33.1222 97.1607 33.1222ZM101.239 28.554V27.4545H106.762V28.554H104.627V34H103.383V28.554H101.239ZM109.95 34.1449C109.535 34.1449 109.16 34.0682 108.825 33.9148C108.489 33.7585 108.224 33.5327 108.028 33.2372C107.835 32.9418 107.738 32.5795 107.738 32.1506C107.738 31.7812 107.809 31.4773 107.951 31.2386C108.093 31 108.285 30.8111 108.526 30.6719C108.768 30.5327 109.038 30.4276 109.336 30.3565C109.634 30.2855 109.938 30.2315 110.248 30.1946C110.64 30.1491 110.958 30.1122 111.202 30.0838C111.447 30.0526 111.624 30.0028 111.735 29.9347C111.846 29.8665 111.901 29.7557 111.901 29.6023V29.5724C111.901 29.2003 111.796 28.9119 111.586 28.7074C111.379 28.5028 111.069 28.4006 110.657 28.4006C110.228 28.4006 109.89 28.4957 109.643 28.6861C109.399 28.8736 109.229 29.0824 109.136 29.3125L107.938 29.0398C108.08 28.642 108.288 28.321 108.56 28.0767C108.836 27.8295 109.153 27.6506 109.511 27.5398C109.869 27.4261 110.245 27.3693 110.64 27.3693C110.901 27.3693 111.178 27.4006 111.471 27.4631C111.766 27.5227 112.042 27.6335 112.298 27.7955C112.556 27.9574 112.768 28.1889 112.933 28.4901C113.097 28.7884 113.18 29.1761 113.18 29.6534V34H111.935V33.1051H111.884C111.802 33.2699 111.678 33.4318 111.514 33.5909C111.349 33.75 111.137 33.8821 110.879 33.9872C110.62 34.0923 110.31 34.1449 109.95 34.1449ZM110.227 33.1222C110.579 33.1222 110.88 33.0526 111.13 32.9134C111.383 32.7741 111.575 32.5923 111.705 32.3679C111.839 32.1406 111.906 31.8977 111.906 31.6392V30.7955C111.86 30.8409 111.772 30.8835 111.641 30.9233C111.514 30.9602 111.367 30.9929 111.202 31.0213C111.038 31.0469 110.877 31.071 110.721 31.0938C110.565 31.1136 110.434 31.1307 110.329 31.1449C110.082 31.1761 109.856 31.2287 109.651 31.3026C109.45 31.3764 109.288 31.483 109.166 31.6222C109.046 31.7585 108.987 31.9403 108.987 32.1676C108.987 32.483 109.103 32.7216 109.336 32.8835C109.569 33.0426 109.866 33.1222 110.227 33.1222Z" fill="#CECECE"/>
<path d="M50.9531 75V83H49.9844V75.8594H45.9531V83H44.9844V75H50.9531ZM55.4397 83.125C54.8981 83.125 54.4228 82.9961 54.0139 82.7383C53.6077 82.4805 53.29 82.1198 53.0608 81.6562C52.8343 81.1927 52.721 80.651 52.721 80.0312C52.721 79.4062 52.8343 78.8607 53.0608 78.3945C53.29 77.9284 53.6077 77.5664 54.0139 77.3086C54.4228 77.0508 54.8981 76.9219 55.4397 76.9219C55.9814 76.9219 56.4554 77.0508 56.8616 77.3086C57.2705 77.5664 57.5882 77.9284 57.8147 78.3945C58.0439 78.8607 58.1585 79.4062 58.1585 80.0312C58.1585 80.651 58.0439 81.1927 57.8147 81.6562C57.5882 82.1198 57.2705 82.4805 56.8616 82.7383C56.4554 82.9961 55.9814 83.125 55.4397 83.125ZM55.4397 82.2969C55.8512 82.2969 56.1897 82.1914 56.4554 81.9805C56.721 81.7695 56.9176 81.4922 57.0452 81.1484C57.1728 80.8047 57.2366 80.4323 57.2366 80.0312C57.2366 79.6302 57.1728 79.2565 57.0452 78.9102C56.9176 78.5638 56.721 78.2839 56.4554 78.0703C56.1897 77.8568 55.8512 77.75 55.4397 77.75C55.0283 77.75 54.6897 77.8568 54.4241 78.0703C54.1585 78.2839 53.9619 78.5638 53.8343 78.9102C53.7067 79.2565 53.6429 79.6302 53.6429 80.0312C53.6429 80.4323 53.7067 80.8047 53.8343 81.1484C53.9619 81.4922 54.1585 81.7695 54.4241 81.9805C54.6897 82.1914 55.0283 82.2969 55.4397 82.2969ZM59.1451 84.7188V82.1406H59.6451C59.7675 82.013 59.8729 81.875 59.9615 81.7266C60.05 81.5781 60.1268 81.4023 60.192 81.1992C60.2597 80.9935 60.317 80.7435 60.3638 80.4492C60.4107 80.1523 60.4524 79.7943 60.4888 79.375L60.692 77H64.5045V82.1406H65.4263V84.7188H64.5045V83H60.067V84.7188H59.1451ZM60.692 82.1406H63.5826V77.8594H61.5513L61.3951 79.375C61.33 80.0026 61.2492 80.5508 61.1529 81.0195C61.0565 81.4883 60.9029 81.862 60.692 82.1406ZM70.1837 83V77H71.1056V79.6094H71.715L73.8712 77H75.0587L72.6368 79.8906L75.09 83H73.9025L71.9337 80.4687H71.1056V83H70.1837ZM75.7807 83V82.1406H75.9994C76.1791 82.1406 76.3288 82.1055 76.4486 82.0352C76.5684 81.9622 76.6648 81.8359 76.7377 81.6562C76.8132 81.474 76.8705 81.2214 76.9096 80.8984C76.9512 80.5729 76.9812 80.1589 76.9994 79.6562L77.1088 77H81.1088V83H80.1869V77.8594H77.9838L77.89 80C77.8692 80.4922 77.8249 80.9258 77.7572 81.3008C77.6921 81.6732 77.5919 81.9857 77.4564 82.2383C77.3236 82.4909 77.1465 82.681 76.9252 82.8086C76.7038 82.9362 76.4265 83 76.0932 83H75.7807ZM85.8952 79.625V80.4844H82.7233V79.625H85.8952ZM83.5046 77V83H82.5827V77H83.5046ZM87.7389 83.125C87.1973 83.125 86.722 82.9961 86.3132 82.7383C85.9069 82.4805 85.5892 82.1198 85.36 81.6562C85.1335 81.1927 85.0202 80.651 85.0202 80.0312C85.0202 79.4062 85.1335 78.8607 85.36 78.3945C85.5892 77.9284 85.9069 77.5664 86.3132 77.3086C86.722 77.0508 87.1973 76.9219 87.7389 76.9219C88.2806 76.9219 88.7546 77.0508 89.1608 77.3086C89.5697 77.5664 89.8874 77.9284 90.1139 78.3945C90.3431 78.8607 90.4577 79.4062 90.4577 80.0312C90.4577 80.651 90.3431 81.1927 90.1139 81.6562C89.8874 82.1198 89.5697 82.4805 89.1608 82.7383C88.7546 82.9961 88.2806 83.125 87.7389 83.125ZM87.7389 82.2969C88.1504 82.2969 88.4889 82.1914 88.7546 81.9805C89.0202 81.7695 89.2168 81.4922 89.3444 81.1484C89.472 80.8047 89.5358 80.4323 89.5358 80.0312C89.5358 79.6302 89.472 79.2565 89.3444 78.9102C89.2168 78.5638 89.0202 78.2839 88.7546 78.0703C88.4889 77.8568 88.1504 77.75 87.7389 77.75C87.3275 77.75 86.9889 77.8568 86.7233 78.0703C86.4577 78.2839 86.2611 78.5638 86.1335 78.9102C86.0059 79.2565 85.9421 79.6302 85.9421 80.0312C85.9421 80.4323 86.0059 80.8047 86.1335 81.1484C86.2611 81.4922 86.4577 81.7695 86.7233 81.9805C86.9889 82.1914 87.3275 82.2969 87.7389 82.2969ZM96.8027 77V83H95.8808V77H96.8027ZM96.4433 79.8594V80.7187C96.235 80.7969 96.028 80.8659 95.8222 80.9258C95.6165 80.9831 95.4004 81.0286 95.1738 81.0625C94.9472 81.0937 94.6985 81.1094 94.4277 81.1094C93.748 81.1094 93.2024 80.9258 92.791 80.5586C92.3821 80.1914 92.1777 79.6406 92.1777 78.9062V76.9844H93.0996V78.9062C93.0996 79.2135 93.1582 79.4661 93.2754 79.6641C93.3925 79.862 93.5514 80.0091 93.7519 80.1055C93.9524 80.2018 94.1777 80.25 94.4277 80.25C94.8183 80.25 95.1712 80.2148 95.4863 80.1445C95.804 80.0716 96.123 79.9766 96.4433 79.8594Z" fill="#929292"/>
<path d="M317 143H43.5" stroke="url(#paint1_linear_237_204)" stroke-width="2" stroke-dasharray="6 6"/>
<path d="M234.5 143H42.5" stroke="url(#paint2_linear_237_204)" stroke-width="4"/>
<path d="M61.377 113.029C63.663 111.193 65.454 109.69 66.75 108.52C68.046 107.332 69.135 106.099 70.017 104.821C70.917 103.525 71.367 102.256 71.367 101.014C71.367 99.844 71.079 98.926 70.503 98.26C69.945 97.576 69.036 97.234 67.776 97.234C66.552 97.234 65.598 97.621 64.914 98.395C64.248 99.151 63.888 100.168 63.834 101.446H61.458C61.53 99.43 62.142 97.873 63.294 96.775C64.446 95.677 65.931 95.128 67.749 95.128C69.603 95.128 71.07 95.641 72.15 96.667C73.248 97.693 73.797 99.106 73.797 100.906C73.797 102.4 73.347 103.858 72.447 105.28C71.565 106.684 70.557 107.926 69.423 109.006C68.289 110.068 66.84 111.31 65.076 112.732H74.364V114.784H61.377V113.029ZM77.2043 105.037C77.2043 101.941 77.7083 99.529 78.7163 97.801C79.7243 96.055 81.4883 95.182 84.0083 95.182C86.5103 95.182 88.2653 96.055 89.2733 97.801C90.2813 99.529 90.7853 101.941 90.7853 105.037C90.7853 108.187 90.2813 110.635 89.2733 112.381C88.2653 114.127 86.5103 115 84.0083 115C81.4883 115 79.7243 114.127 78.7163 112.381C77.7083 110.635 77.2043 108.187 77.2043 105.037ZM88.3553 105.037C88.3553 103.471 88.2473 102.148 88.0313 101.068C87.8333 99.97 87.4103 99.088 86.7623 98.422C86.1323 97.756 85.2143 97.423 84.0083 97.423C82.7843 97.423 81.8483 97.756 81.2003 98.422C80.5703 99.088 80.1473 99.97 79.9313 101.068C79.7333 102.148 79.6343 103.471 79.6343 105.037C79.6343 106.657 79.7333 108.016 79.9313 109.114C80.1473 110.212 80.5703 111.094 81.2003 111.76C81.8483 112.426 82.7843 112.759 84.0083 112.759C85.2143 112.759 86.1323 112.426 86.7623 111.76C87.4103 111.094 87.8333 110.212 88.0313 109.114C88.2473 108.016 88.3553 106.657 88.3553 105.037ZM94.1584 105.037C94.1584 101.941 94.6624 99.529 95.6704 97.801C96.6784 96.055 98.4424 95.182 100.962 95.182C103.464 95.182 105.219 96.055 106.227 97.801C107.235 99.529 107.739 101.941 107.739 105.037C107.739 108.187 107.235 110.635 106.227 112.381C105.219 114.127 103.464 115 100.962 115C98.4424 115 96.6784 114.127 95.6704 112.381C94.6624 110.635 94.1584 108.187 94.1584 105.037ZM105.309 105.037C105.309 103.471 105.201 102.148 104.985 101.068C104.787 99.97 104.364 99.088 103.716 98.422C103.086 97.756 102.168 97.423 100.962 97.423C99.7384 97.423 98.8024 97.756 98.1544 98.422C97.5244 99.088 97.1014 99.97 96.8854 101.068C96.6874 102.148 96.5884 103.471 96.5884 105.037C96.5884 106.657 96.6874 108.016 96.8854 109.114C97.1014 110.212 97.5244 111.094 98.1544 111.76C98.8024 112.426 99.7384 112.759 100.962 112.759C102.168 112.759 103.086 112.426 103.716 111.76C104.364 111.094 104.787 110.212 104.985 109.114C105.201 108.016 105.309 106.657 105.309 105.037Z" fill="white"/>
<rect x="293.5" y="21.5" width="19" height="19" rx="9.5" fill="#232323"/>
<rect x="293.5" y="21.5" width="19" height="19" rx="9.5" stroke="#282828"/>
<circle cx="299" cy="31" r="1" fill="#464646"/>
<circle cx="303" cy="31" r="1" fill="#464646"/>
<circle cx="307" cy="31" r="1" fill="#464646"/>
<g filter="url(#filter0_f_237_204)">
<circle cx="234" cy="143" r="37" fill="#346DEB" fill-opacity="0.3"/>
</g>
<circle cx="234" cy="143" r="11" fill="#346DEB" fill-opacity="0.3"/>
<circle cx="234" cy="143" r="5" fill="#8EB3FF"/>
<path d="M58.5 171.5H127.5C135.232 171.5 141.5 177.768 141.5 185.5C141.5 193.232 135.232 199.5 127.5 199.5H58.5C50.768 199.5 44.5 193.232 44.5 185.5C44.5 177.768 50.768 171.5 58.5 171.5Z" fill="#0A0A0A"/>
<path d="M58.5 171.5H127.5C135.232 171.5 141.5 177.768 141.5 185.5C141.5 193.232 135.232 199.5 127.5 199.5H58.5C50.768 199.5 44.5 193.232 44.5 185.5C44.5 177.768 50.768 171.5 58.5 171.5Z" stroke="url(#paint3_linear_237_204)"/>
<g filter="url(#filter1_d_237_204)">
<path d="M61 185.5C61 182.186 63.6863 179.5 67 179.5C70.3137 179.5 73 182.186 73 185.5C73 188.814 70.3137 191.5 67 191.5C63.6863 191.5 61 188.814 61 185.5Z" fill="url(#paint4_linear_237_204)"/>
<path d="M66.1321 183.534C66.3115 183.009 67.0369 182.994 67.2496 183.487L67.2676 183.535L67.5097 184.243C67.5652 184.405 67.6548 184.554 67.7726 184.678C67.8904 184.803 68.0336 184.901 68.1925 184.966L68.2576 184.99L68.9656 185.232C69.4906 185.411 69.5065 186.137 69.0136 186.35L68.9656 186.368L68.2576 186.61C68.0952 186.665 67.9465 186.755 67.8217 186.873C67.6969 186.99 67.5988 187.134 67.534 187.293L67.5097 187.357L67.2679 188.066C67.0885 188.591 66.3631 188.606 66.1507 188.114L66.1321 188.066L65.8903 187.358C65.8348 187.195 65.7452 187.047 65.6274 186.922C65.5096 186.797 65.3664 186.699 65.2075 186.634L65.1427 186.61L64.4347 186.368C63.9094 186.188 63.8935 185.463 64.3867 185.251L64.4347 185.232L65.1427 184.99C65.3051 184.935 65.4536 184.845 65.5784 184.727C65.7032 184.61 65.8013 184.466 65.866 184.307L65.8903 184.243L66.1321 183.534ZM69.1 182.5C69.1561 182.5 69.2111 182.516 69.2587 182.545C69.3064 182.575 69.3447 182.618 69.3694 182.668L69.3838 182.703L69.4888 183.011L69.7969 183.116C69.8531 183.135 69.9024 183.17 69.9386 183.218C69.9747 183.265 69.996 183.322 69.9998 183.381C70.0036 183.44 69.9897 183.499 69.9599 183.551C69.93 183.602 69.8856 183.643 69.8323 183.669L69.7969 183.684L69.4891 183.789L69.3841 184.097C69.365 184.153 69.3295 184.202 69.2824 184.238C69.2352 184.275 69.1784 184.296 69.1191 184.3C69.0598 184.303 69.0007 184.289 68.9494 184.26C68.898 184.23 68.8567 184.185 68.8306 184.132L68.8162 184.097L68.7112 183.789L68.4031 183.684C68.3468 183.665 68.2975 183.63 68.2614 183.582C68.2253 183.535 68.204 183.478 68.2002 183.419C68.1964 183.36 68.2103 183.301 68.2401 183.249C68.2699 183.198 68.3143 183.157 68.3677 183.131L68.4031 183.116L68.7109 183.011L68.8159 182.703C68.8361 182.644 68.8744 182.592 68.9253 182.556C68.9763 182.52 69.0374 182.5 69.1 182.5Z" fill="black"/>
</g>
<path d="M83.2813 191.938V189.141H83.7969C83.974 188.979 84.1406 188.751 84.2969 188.457C84.4557 188.16 84.5898 187.764 84.6992 187.27C84.8112 186.772 84.8854 186.141 84.9219 185.375L85.0938 182H89.8438V189.141H90.7656V191.922H89.8438V190H84.2031V191.938H83.2813ZM84.9531 189.141H88.9219V182.859H85.9688L85.8438 185.375C85.8125 185.958 85.7578 186.487 85.6797 186.961C85.6016 187.432 85.5013 187.85 85.3789 188.215C85.2565 188.577 85.1146 188.885 84.9531 189.141ZM93.4664 188.641L96.357 184H97.4195V190H96.4976V185.359L93.6226 190H92.5445V184H93.4664V188.641ZM99.173 188.469H100.157C100.178 188.74 100.301 188.945 100.525 189.086C100.751 189.227 101.045 189.297 101.407 189.297C101.777 189.297 102.094 189.221 102.357 189.07C102.62 188.917 102.751 188.669 102.751 188.328C102.751 188.128 102.702 187.953 102.603 187.805C102.504 187.654 102.364 187.536 102.185 187.453C102.005 187.37 101.793 187.328 101.548 187.328H100.517V186.5H101.548C101.915 186.5 102.186 186.417 102.36 186.25C102.538 186.083 102.626 185.875 102.626 185.625C102.626 185.357 102.531 185.142 102.341 184.98C102.151 184.816 101.881 184.734 101.532 184.734C101.181 184.734 100.888 184.814 100.653 184.973C100.419 185.129 100.295 185.331 100.282 185.578H99.3136C99.324 185.255 99.423 184.97 99.6105 184.723C99.798 184.473 100.053 184.277 100.376 184.137C100.699 183.993 101.069 183.922 101.485 183.922C101.907 183.922 102.273 183.996 102.583 184.145C102.896 184.29 103.137 184.49 103.306 184.742C103.478 184.992 103.564 185.276 103.564 185.594C103.564 185.932 103.469 186.206 103.278 186.414C103.088 186.622 102.85 186.771 102.564 186.859V186.922C102.79 186.937 102.987 187.01 103.153 187.141C103.323 187.268 103.454 187.436 103.548 187.645C103.642 187.85 103.689 188.078 103.689 188.328C103.689 188.693 103.591 189.01 103.396 189.281C103.2 189.549 102.932 189.758 102.591 189.906C102.25 190.052 101.86 190.125 101.423 190.125C100.998 190.125 100.618 190.056 100.282 189.918C99.9464 189.777 99.6795 189.583 99.4816 189.336C99.2863 189.086 99.1834 188.797 99.173 188.469ZM107.189 190.141C106.809 190.141 106.464 190.069 106.154 189.926C105.844 189.78 105.598 189.57 105.416 189.297C105.233 189.021 105.142 188.687 105.142 188.297C105.142 187.953 105.21 187.674 105.345 187.461C105.481 187.245 105.662 187.076 105.888 186.953C106.115 186.831 106.365 186.74 106.638 186.68C106.914 186.617 107.192 186.568 107.47 186.531C107.835 186.484 108.131 186.449 108.357 186.426C108.586 186.4 108.753 186.357 108.857 186.297C108.964 186.237 109.017 186.133 109.017 185.984V185.953C109.017 185.568 108.912 185.268 108.701 185.055C108.493 184.841 108.176 184.734 107.752 184.734C107.312 184.734 106.966 184.831 106.716 185.023C106.466 185.216 106.291 185.422 106.189 185.641L105.314 185.328C105.47 184.964 105.679 184.68 105.939 184.477C106.202 184.271 106.489 184.128 106.799 184.047C107.111 183.964 107.418 183.922 107.72 183.922C107.913 183.922 108.134 183.945 108.384 183.992C108.637 184.036 108.881 184.129 109.115 184.27C109.352 184.41 109.549 184.622 109.705 184.906C109.861 185.19 109.939 185.57 109.939 186.047V190H109.017V189.187H108.97C108.908 189.318 108.804 189.457 108.658 189.605C108.512 189.754 108.318 189.88 108.076 189.984C107.834 190.089 107.538 190.141 107.189 190.141ZM107.33 189.312C107.694 189.312 108.002 189.241 108.252 189.098C108.504 188.954 108.694 188.77 108.822 188.543C108.952 188.316 109.017 188.078 109.017 187.828V186.984C108.978 187.031 108.892 187.074 108.759 187.113C108.629 187.15 108.478 187.182 108.306 187.211C108.137 187.237 107.972 187.26 107.81 187.281C107.651 187.299 107.522 187.315 107.424 187.328C107.184 187.359 106.96 187.41 106.752 187.48C106.546 187.548 106.379 187.651 106.252 187.789C106.127 187.924 106.064 188.109 106.064 188.344C106.064 188.664 106.183 188.906 106.42 189.07C106.659 189.232 106.963 189.312 107.33 189.312ZM112.984 188.641L115.874 184H116.937V190H116.015V185.359L113.14 190H112.062V184H112.984V188.641ZM115.265 182H116.124C116.124 182.422 115.978 182.767 115.687 183.035C115.395 183.303 114.999 183.437 114.499 183.437C114.007 183.437 113.615 183.303 113.323 183.035C113.034 182.767 112.89 182.422 112.89 182H113.749C113.749 182.203 113.805 182.382 113.917 182.535C114.032 182.689 114.226 182.766 114.499 182.766C114.773 182.766 114.968 182.689 115.085 182.535C115.205 182.382 115.265 182.203 115.265 182ZM123.081 186.578V187.437H119.768V186.578H123.081ZM119.987 184V190H119.065V184H119.987ZM123.784 184V190H122.862V184H123.784Z" fill="#969696"/>
<path d="M165.5 171.5H260.5C268.232 171.5 274.5 177.768 274.5 185.5C274.5 193.232 268.232 199.5 260.5 199.5H165.5C157.768 199.5 151.5 193.232 151.5 185.5C151.5 177.768 157.768 171.5 165.5 171.5Z" fill="#0A0A0A"/>
<path d="M165.5 171.5H260.5C268.232 171.5 274.5 177.768 274.5 185.5C274.5 193.232 268.232 199.5 260.5 199.5H165.5C157.768 199.5 151.5 193.232 151.5 185.5C151.5 177.768 157.768 171.5 165.5 171.5Z" stroke="url(#paint5_linear_237_204)"/>
<g filter="url(#filter2_d_237_204)">
<path d="M168 185.5C168 182.186 170.686 179.5 174 179.5C177.314 179.5 180 182.186 180 185.5C180 188.814 177.314 191.5 174 191.5C170.686 191.5 168 188.814 168 185.5Z" fill="url(#paint6_linear_237_204)"/>
<path d="M173.132 183.534C173.312 183.009 174.037 182.994 174.25 183.487L174.268 183.535L174.51 184.243C174.565 184.405 174.655 184.554 174.773 184.678C174.89 184.803 175.034 184.901 175.193 184.966L175.258 184.99L175.966 185.232C176.491 185.411 176.507 186.137 176.014 186.35L175.966 186.368L175.258 186.61C175.095 186.665 174.947 186.755 174.822 186.873C174.697 186.99 174.599 187.134 174.534 187.293L174.51 187.357L174.268 188.066C174.089 188.591 173.363 188.606 173.151 188.114L173.132 188.066L172.89 187.358C172.835 187.195 172.745 187.047 172.627 186.922C172.51 186.797 172.366 186.699 172.208 186.634L172.143 186.61L171.435 186.368C170.909 186.188 170.894 185.463 171.387 185.251L171.435 185.232L172.143 184.99C172.305 184.935 172.454 184.845 172.578 184.727C172.703 184.61 172.801 184.466 172.866 184.307L172.89 184.243L173.132 183.534ZM176.1 182.5C176.156 182.5 176.211 182.516 176.259 182.545C176.306 182.575 176.345 182.618 176.369 182.668L176.384 182.703L176.489 183.011L176.797 183.116C176.853 183.135 176.903 183.17 176.939 183.218C176.975 183.265 176.996 183.322 177 183.381C177.004 183.44 176.99 183.499 176.96 183.551C176.93 183.602 176.886 183.643 176.832 183.669L176.797 183.684L176.489 183.789L176.384 184.097C176.365 184.153 176.33 184.202 176.282 184.238C176.235 184.275 176.178 184.296 176.119 184.3C176.06 184.303 176.001 184.289 175.949 184.26C175.898 184.23 175.857 184.185 175.831 184.132L175.816 184.097L175.711 183.789L175.403 183.684C175.347 183.665 175.298 183.63 175.261 183.582C175.225 183.535 175.204 183.478 175.2 183.419C175.196 183.36 175.21 183.301 175.24 183.249C175.27 183.198 175.314 183.157 175.368 183.131L175.403 183.116L175.711 183.011L175.816 182.703C175.836 182.644 175.874 182.592 175.925 182.556C175.976 182.52 176.037 182.5 176.1 182.5Z" fill="black"/>
</g>
<path d="M190.969 182H191.922V188.297H192L196.375 182H197.313V190H196.344V183.719H196.266L191.906 190H190.969V182ZM203.582 186.578V187.437H200.269V186.578H203.582ZM200.488 184V190H199.566V184H200.488ZM204.285 184V190H203.363V184H204.285ZM205.592 184.859V184H210.467V184.859H208.498V190H207.576V184.859H205.592ZM214.456 190.125C213.878 190.125 213.379 189.997 212.96 189.742C212.543 189.484 212.221 189.125 211.995 188.664C211.771 188.201 211.659 187.661 211.659 187.047C211.659 186.432 211.771 185.891 211.995 185.422C212.221 184.951 212.536 184.583 212.94 184.32C213.346 184.055 213.82 183.922 214.362 183.922C214.674 183.922 214.983 183.974 215.288 184.078C215.592 184.182 215.87 184.352 216.12 184.586C216.37 184.818 216.569 185.125 216.717 185.508C216.866 185.891 216.94 186.362 216.94 186.922V187.312H212.315V186.516H216.003C216.003 186.177 215.935 185.875 215.799 185.609C215.667 185.344 215.477 185.134 215.229 184.98C214.984 184.827 214.695 184.75 214.362 184.75C213.995 184.75 213.677 184.841 213.409 185.023C213.143 185.203 212.939 185.437 212.796 185.727C212.652 186.016 212.581 186.326 212.581 186.656V187.188C212.581 187.641 212.659 188.025 212.815 188.34C212.974 188.652 213.194 188.891 213.475 189.055C213.757 189.216 214.083 189.297 214.456 189.297C214.698 189.297 214.917 189.263 215.112 189.195C215.31 189.125 215.48 189.021 215.624 188.883C215.767 188.742 215.878 188.568 215.956 188.359L216.846 188.609C216.753 188.911 216.595 189.177 216.374 189.406C216.152 189.633 215.879 189.81 215.553 189.937C215.228 190.063 214.862 190.125 214.456 190.125ZM222.486 184V184.859H219.704V190H218.782V184H222.486ZM224.271 192.25V184H225.162V184.953H225.271C225.339 184.849 225.433 184.716 225.553 184.555C225.675 184.391 225.849 184.245 226.076 184.117C226.305 183.987 226.615 183.922 227.006 183.922C227.511 183.922 227.956 184.048 228.342 184.301C228.727 184.553 229.028 184.911 229.244 185.375C229.46 185.839 229.568 186.385 229.568 187.016C229.568 187.651 229.46 188.202 229.244 188.668C229.028 189.132 228.728 189.491 228.346 189.746C227.963 189.999 227.521 190.125 227.021 190.125C226.636 190.125 226.327 190.061 226.096 189.934C225.864 189.803 225.685 189.656 225.56 189.492C225.435 189.326 225.339 189.187 225.271 189.078H225.193V192.25H224.271ZM225.178 187C225.178 187.453 225.244 187.853 225.377 188.199C225.51 188.543 225.704 188.812 225.959 189.008C226.214 189.201 226.526 189.297 226.896 189.297C227.282 189.297 227.603 189.195 227.861 188.992C228.122 188.786 228.317 188.51 228.447 188.164C228.58 187.815 228.646 187.427 228.646 187C228.646 186.578 228.581 186.198 228.451 185.859C228.323 185.518 228.129 185.249 227.869 185.051C227.611 184.85 227.287 184.75 226.896 184.75C226.521 184.75 226.206 184.845 225.951 185.035C225.696 185.223 225.503 185.486 225.373 185.824C225.243 186.16 225.178 186.552 225.178 187ZM233.18 190.141C232.8 190.141 232.455 190.069 232.145 189.926C231.835 189.78 231.589 189.57 231.407 189.297C231.224 189.021 231.133 188.687 231.133 188.297C231.133 187.953 231.201 187.674 231.336 187.461C231.472 187.245 231.653 187.076 231.879 186.953C232.106 186.831 232.356 186.74 232.629 186.68C232.905 186.617 233.183 186.568 233.461 186.531C233.826 186.484 234.121 186.449 234.348 186.426C234.577 186.4 234.744 186.357 234.848 186.297C234.955 186.237 235.008 186.133 235.008 185.984V185.953C235.008 185.568 234.903 185.268 234.692 185.055C234.483 184.841 234.167 184.734 233.743 184.734C233.302 184.734 232.957 184.831 232.707 185.023C232.457 185.216 232.282 185.422 232.18 185.641L231.305 185.328C231.461 184.964 231.67 184.68 231.93 184.477C232.193 184.271 232.48 184.128 232.789 184.047C233.102 183.964 233.409 183.922 233.711 183.922C233.904 183.922 234.125 183.945 234.375 183.992C234.628 184.036 234.871 184.129 235.106 184.27C235.343 184.41 235.539 184.622 235.696 184.906C235.852 185.19 235.93 185.57 235.93 186.047V190H235.008V189.187H234.961C234.899 189.318 234.795 189.457 234.649 189.605C234.503 189.754 234.309 189.88 234.067 189.984C233.825 190.089 233.529 190.141 233.18 190.141ZM233.321 189.312C233.685 189.312 233.993 189.241 234.243 189.098C234.495 188.954 234.685 188.77 234.813 188.543C234.943 188.316 235.008 188.078 235.008 187.828V186.984C234.969 187.031 234.883 187.074 234.75 187.113C234.62 187.15 234.469 187.182 234.297 187.211C234.128 187.237 233.963 187.26 233.801 187.281C233.642 187.299 233.513 187.315 233.414 187.328C233.175 187.359 232.951 187.41 232.743 187.48C232.537 187.548 232.37 187.651 232.243 187.789C232.118 187.924 232.055 188.109 232.055 188.344C232.055 188.664 232.174 188.906 232.411 189.07C232.65 189.232 232.953 189.312 233.321 189.312ZM242.771 184V189.141H243.615V191.938H242.693V190H238.053V184H238.975V189.141H241.85V184H242.771ZM246.397 188.641L249.288 184H250.35V190H249.428V185.359L246.553 190H245.475V184H246.397V188.641ZM256.088 190V184.844H254.494C254.135 184.844 253.852 184.927 253.647 185.094C253.441 185.26 253.338 185.49 253.338 185.781C253.338 186.068 253.43 186.293 253.615 186.457C253.803 186.621 254.059 186.703 254.385 186.703H256.322V187.562H254.385C253.979 187.562 253.628 187.491 253.334 187.348C253.04 187.204 252.813 187 252.654 186.734C252.495 186.466 252.416 186.148 252.416 185.781C252.416 185.411 252.499 185.094 252.666 184.828C252.833 184.562 253.071 184.358 253.381 184.215C253.693 184.072 254.064 184 254.494 184H256.963V190H256.088ZM252.088 190L253.791 187.016H254.791L253.088 190H252.088Z" fill="#969696"/>
<path d="M58.5 205.5H152.5C160.232 205.5 166.5 211.768 166.5 219.5C166.5 227.232 160.232 233.5 152.5 233.5H58.5C50.768 233.5 44.5 227.232 44.5 219.5C44.5 211.768 50.768 205.5 58.5 205.5Z" fill="#0A0A0A"/>
<path d="M58.5 205.5H152.5C160.232 205.5 166.5 211.768 166.5 219.5C166.5 227.232 160.232 233.5 152.5 233.5H58.5C50.768 233.5 44.5 227.232 44.5 219.5C44.5 211.768 50.768 205.5 58.5 205.5Z" stroke="url(#paint7_linear_237_204)"/>
<g filter="url(#filter3_d_237_204)">
<path d="M61 219.5C61 216.186 63.6863 213.5 67 213.5C70.3137 213.5 73 216.186 73 219.5C73 222.814 70.3137 225.5 67 225.5C63.6863 225.5 61 222.814 61 219.5Z" fill="url(#paint8_linear_237_204)"/>
<path d="M66.1321 217.534C66.3115 217.009 67.0369 216.994 67.2496 217.487L67.2676 217.535L67.5097 218.243C67.5652 218.405 67.6548 218.554 67.7726 218.678C67.8904 218.803 68.0336 218.901 68.1925 218.966L68.2576 218.99L68.9656 219.232C69.4906 219.411 69.5065 220.137 69.0136 220.35L68.9656 220.368L68.2576 220.61C68.0952 220.665 67.9465 220.755 67.8217 220.873C67.6969 220.99 67.5988 221.134 67.534 221.293L67.5097 221.357L67.2679 222.066C67.0885 222.591 66.3631 222.606 66.1507 222.114L66.1321 222.066L65.8903 221.358C65.8348 221.195 65.7452 221.047 65.6274 220.922C65.5096 220.797 65.3664 220.699 65.2075 220.634L65.1427 220.61L64.4347 220.368C63.9094 220.188 63.8935 219.463 64.3867 219.251L64.4347 219.232L65.1427 218.99C65.3051 218.935 65.4536 218.845 65.5784 218.727C65.7032 218.61 65.8013 218.466 65.866 218.307L65.8903 218.243L66.1321 217.534ZM69.1 216.5C69.1561 216.5 69.2111 216.516 69.2587 216.545C69.3064 216.575 69.3447 216.618 69.3694 216.668L69.3838 216.703L69.4888 217.011L69.7969 217.116C69.8531 217.135 69.9024 217.17 69.9386 217.218C69.9747 217.265 69.996 217.322 69.9998 217.381C70.0036 217.44 69.9897 217.499 69.9599 217.551C69.93 217.602 69.8856 217.643 69.8323 217.669L69.7969 217.684L69.4891 217.789L69.3841 218.097C69.365 218.153 69.3295 218.202 69.2824 218.238C69.2352 218.275 69.1784 218.296 69.1191 218.3C69.0598 218.303 69.0007 218.289 68.9494 218.26C68.898 218.23 68.8567 218.185 68.8306 218.132L68.8162 218.097L68.7112 217.789L68.4031 217.684C68.3468 217.665 68.2975 217.63 68.2614 217.582C68.2253 217.535 68.204 217.478 68.2002 217.419C68.1964 217.36 68.2103 217.301 68.2401 217.249C68.2699 217.198 68.3143 217.157 68.3677 217.131L68.4031 217.116L68.7109 217.011L68.8159 216.703C68.8361 216.644 68.8744 216.592 68.9253 216.556C68.9763 216.52 69.0374 216.5 69.1 216.5Z" fill="black"/>
</g>
<path d="M83.9688 224V216H86.6719C87.2995 216 87.8125 216.113 88.2109 216.34C88.612 216.564 88.9089 216.867 89.1016 217.25C89.2943 217.633 89.3906 218.06 89.3906 218.531C89.3906 219.003 89.2943 219.431 89.1016 219.816C88.9115 220.202 88.6172 220.509 88.2188 220.738C87.8203 220.965 87.3099 221.078 86.6875 221.078H84.75V220.219H86.6563C87.0859 220.219 87.431 220.145 87.6914 219.996C87.9518 219.848 88.1406 219.647 88.2578 219.395C88.3776 219.139 88.4375 218.852 88.4375 218.531C88.4375 218.211 88.3776 217.924 88.2578 217.672C88.1406 217.419 87.9505 217.221 87.6875 217.078C87.4245 216.932 87.0755 216.859 86.6406 216.859H84.9375V224H83.9688ZM93.0318 224.141C92.6516 224.141 92.3065 224.069 91.9966 223.926C91.6867 223.78 91.4407 223.57 91.2584 223.297C91.0761 223.021 90.9849 222.687 90.9849 222.297C90.9849 221.953 91.0526 221.674 91.188 221.461C91.3235 221.245 91.5045 221.076 91.731 220.953C91.9576 220.831 92.2076 220.74 92.481 220.68C92.7571 220.617 93.0344 220.568 93.313 220.531C93.6776 220.484 93.9732 220.449 94.1998 220.426C94.4289 220.4 94.5956 220.357 94.6998 220.297C94.8065 220.237 94.8599 220.133 94.8599 219.984V219.953C94.8599 219.568 94.7545 219.268 94.5435 219.055C94.3352 218.841 94.0188 218.734 93.5943 218.734C93.1542 218.734 92.8091 218.831 92.5591 219.023C92.3091 219.216 92.1334 219.422 92.0318 219.641L91.1568 219.328C91.313 218.964 91.5214 218.68 91.7818 218.477C92.0448 218.271 92.3313 218.128 92.6412 218.047C92.9537 217.964 93.261 217.922 93.563 217.922C93.7558 217.922 93.9771 217.945 94.2271 217.992C94.4797 218.036 94.7232 218.129 94.9576 218.27C95.1946 218.41 95.3912 218.622 95.5474 218.906C95.7037 219.19 95.7818 219.57 95.7818 220.047V224H94.8599V223.187H94.813C94.7505 223.318 94.6464 223.457 94.5005 223.605C94.3547 223.754 94.1607 223.88 93.9185 223.984C93.6763 224.089 93.3808 224.141 93.0318 224.141ZM93.1724 223.312C93.537 223.312 93.8443 223.241 94.0943 223.098C94.3469 222.954 94.537 222.77 94.6646 222.543C94.7948 222.316 94.8599 222.078 94.8599 221.828V220.984C94.8209 221.031 94.7349 221.074 94.6021 221.113C94.4719 221.15 94.3209 221.182 94.149 221.211C93.9797 221.237 93.8143 221.26 93.6529 221.281C93.494 221.299 93.3651 221.315 93.2662 221.328C93.0266 221.359 92.8026 221.41 92.5943 221.48C92.3886 221.548 92.2219 221.651 92.0943 221.789C91.9693 221.924 91.9068 222.109 91.9068 222.344C91.9068 222.664 92.0253 222.906 92.2623 223.07C92.5018 223.232 92.8052 223.312 93.1724 223.312ZM97.5294 222.469H98.5138C98.5346 222.74 98.657 222.945 98.881 223.086C99.1075 223.227 99.4018 223.297 99.7638 223.297C100.134 223.297 100.45 223.221 100.713 223.07C100.976 222.917 101.108 222.669 101.108 222.328C101.108 222.128 101.058 221.953 100.959 221.805C100.86 221.654 100.721 221.536 100.541 221.453C100.361 221.37 100.149 221.328 99.9044 221.328H98.8732V220.5H99.9044C100.272 220.5 100.542 220.417 100.717 220.25C100.894 220.083 100.983 219.875 100.983 219.625C100.983 219.357 100.887 219.142 100.697 218.98C100.507 218.816 100.238 218.734 99.8888 218.734C99.5372 218.734 99.2443 218.814 99.0099 218.973C98.7755 219.129 98.6518 219.331 98.6388 219.578H97.67C97.6805 219.255 97.7794 218.97 97.9669 218.723C98.1544 218.473 98.4096 218.277 98.7325 218.137C99.0555 217.993 99.4252 217.922 99.8419 217.922C100.264 217.922 100.63 217.996 100.94 218.145C101.252 218.29 101.493 218.49 101.662 218.742C101.834 218.992 101.92 219.276 101.92 219.594C101.92 219.932 101.825 220.206 101.635 220.414C101.445 220.622 101.206 220.771 100.92 220.859V220.922C101.147 220.937 101.343 221.01 101.51 221.141C101.679 221.268 101.811 221.436 101.904 221.645C101.998 221.85 102.045 222.078 102.045 222.328C102.045 222.693 101.947 223.01 101.752 223.281C101.557 223.549 101.289 223.758 100.947 223.906C100.606 224.052 100.217 224.125 99.7794 224.125C99.3549 224.125 98.9747 224.056 98.6388 223.918C98.3029 223.777 98.0359 223.583 97.838 223.336C97.6427 223.086 97.5398 222.797 97.5294 222.469ZM103.78 226.25V218H104.671V218.953H104.78C104.848 218.849 104.941 218.716 105.061 218.555C105.184 218.391 105.358 218.245 105.585 218.117C105.814 217.987 106.124 217.922 106.514 217.922C107.02 217.922 107.465 218.048 107.85 218.301C108.236 218.553 108.536 218.911 108.753 219.375C108.969 219.839 109.077 220.385 109.077 221.016C109.077 221.651 108.969 222.202 108.753 222.668C108.536 223.132 108.237 223.491 107.854 223.746C107.471 223.999 107.03 224.125 106.53 224.125C106.145 224.125 105.836 224.061 105.604 223.934C105.372 223.803 105.194 223.656 105.069 223.492C104.944 223.326 104.848 223.187 104.78 223.078H104.702V226.25H103.78ZM104.686 221C104.686 221.453 104.753 221.853 104.885 222.199C105.018 222.543 105.212 222.812 105.467 223.008C105.723 223.201 106.035 223.297 106.405 223.297C106.79 223.297 107.112 223.195 107.37 222.992C107.63 222.786 107.826 222.51 107.956 222.164C108.089 221.815 108.155 221.427 108.155 221C108.155 220.578 108.09 220.198 107.96 219.859C107.832 219.518 107.638 219.249 107.378 219.051C107.12 218.85 106.796 218.75 106.405 218.75C106.03 218.75 105.715 218.845 105.46 219.035C105.204 219.223 105.012 219.486 104.882 219.824C104.751 220.16 104.686 220.552 104.686 221ZM112.689 224.141C112.309 224.141 111.963 224.069 111.654 223.926C111.344 223.78 111.098 223.57 110.915 223.297C110.733 223.021 110.642 222.687 110.642 222.297C110.642 221.953 110.71 221.674 110.845 221.461C110.98 221.245 111.161 221.076 111.388 220.953C111.614 220.831 111.864 220.74 112.138 220.68C112.414 220.617 112.691 220.568 112.97 220.531C113.335 220.484 113.63 220.449 113.857 220.426C114.086 220.4 114.253 220.357 114.357 220.297C114.463 220.237 114.517 220.133 114.517 219.984V219.953C114.517 219.568 114.411 219.268 114.2 219.055C113.992 218.841 113.676 218.734 113.251 218.734C112.811 218.734 112.466 218.831 112.216 219.023C111.966 219.216 111.79 219.422 111.689 219.641L110.814 219.328C110.97 218.964 111.178 218.68 111.439 218.477C111.702 218.271 111.988 218.128 112.298 218.047C112.611 217.964 112.918 217.922 113.22 217.922C113.413 217.922 113.634 217.945 113.884 217.992C114.137 218.036 114.38 218.129 114.614 218.27C114.851 218.41 115.048 218.622 115.204 218.906C115.361 219.19 115.439 219.57 115.439 220.047V224H114.517V223.187H114.47C114.407 223.318 114.303 223.457 114.157 223.605C114.012 223.754 113.818 223.88 113.575 223.984C113.333 224.089 113.038 224.141 112.689 224.141ZM112.829 223.312C113.194 223.312 113.501 223.241 113.751 223.098C114.004 222.954 114.194 222.77 114.322 222.543C114.452 222.316 114.517 222.078 114.517 221.828V220.984C114.478 221.031 114.392 221.074 114.259 221.113C114.129 221.15 113.978 221.182 113.806 221.211C113.637 221.237 113.471 221.26 113.31 221.281C113.151 221.299 113.022 221.315 112.923 221.328C112.684 221.359 112.46 221.41 112.251 221.48C112.045 221.548 111.879 221.651 111.751 221.789C111.626 221.924 111.564 222.109 111.564 222.344C111.564 222.664 111.682 222.906 111.919 223.07C112.159 223.232 112.462 223.312 112.829 223.312ZM122.014 215.75L122.483 216.312C122.301 216.49 122.09 216.613 121.85 216.684C121.611 216.754 121.34 216.797 121.038 216.812C120.736 216.828 120.4 216.844 120.03 216.859C119.613 216.875 119.268 216.977 118.995 217.164C118.721 217.352 118.511 217.622 118.362 217.977C118.214 218.331 118.119 218.766 118.077 219.281H118.155C118.358 218.906 118.639 218.63 118.999 218.453C119.358 218.276 119.744 218.187 120.155 218.187C120.624 218.187 121.046 218.297 121.421 218.516C121.796 218.734 122.093 219.059 122.311 219.488C122.53 219.918 122.639 220.448 122.639 221.078C122.639 221.706 122.527 222.247 122.304 222.703C122.082 223.159 121.771 223.51 121.37 223.758C120.971 224.003 120.504 224.125 119.968 224.125C119.431 224.125 118.961 223.999 118.557 223.746C118.154 223.491 117.84 223.113 117.616 222.613C117.392 222.111 117.28 221.49 117.28 220.75V220.109C117.28 218.773 117.507 217.76 117.96 217.07C118.415 216.38 119.1 216.023 120.014 216C120.337 215.99 120.625 215.987 120.878 215.992C121.13 215.997 121.35 215.986 121.538 215.957C121.725 215.928 121.884 215.859 122.014 215.75ZM119.968 223.297C120.33 223.297 120.641 223.206 120.901 223.023C121.164 222.841 121.366 222.585 121.507 222.254C121.647 221.921 121.718 221.529 121.718 221.078C121.718 220.641 121.646 220.268 121.503 219.961C121.362 219.654 121.16 219.419 120.897 219.258C120.634 219.096 120.319 219.016 119.952 219.016C119.684 219.016 119.443 219.061 119.229 219.152C119.016 219.243 118.833 219.378 118.682 219.555C118.531 219.732 118.414 219.948 118.331 220.203C118.25 220.458 118.207 220.75 118.202 221.078C118.202 221.75 118.36 222.288 118.675 222.691C118.99 223.095 119.421 223.297 119.968 223.297ZM126.927 224.125C126.385 224.125 125.91 223.996 125.501 223.738C125.095 223.48 124.777 223.12 124.548 222.656C124.322 222.193 124.208 221.651 124.208 221.031C124.208 220.406 124.322 219.861 124.548 219.395C124.777 218.928 125.095 218.566 125.501 218.309C125.91 218.051 126.385 217.922 126.927 217.922C127.469 217.922 127.943 218.051 128.349 218.309C128.758 218.566 129.076 218.928 129.302 219.395C129.531 219.861 129.646 220.406 129.646 221.031C129.646 221.651 129.531 222.193 129.302 222.656C129.076 223.12 128.758 223.48 128.349 223.738C127.943 223.996 127.469 224.125 126.927 224.125ZM126.927 223.297C127.339 223.297 127.677 223.191 127.943 222.98C128.208 222.77 128.405 222.492 128.533 222.148C128.66 221.805 128.724 221.432 128.724 221.031C128.724 220.63 128.66 220.257 128.533 219.91C128.405 219.564 128.208 219.284 127.943 219.07C127.677 218.857 127.339 218.75 126.927 218.75C126.516 218.75 126.177 218.857 125.911 219.07C125.646 219.284 125.449 219.564 125.322 219.91C125.194 220.257 125.13 220.63 125.13 221.031C125.13 221.432 125.194 221.805 125.322 222.148C125.449 222.492 125.646 222.77 125.911 222.98C126.177 223.191 126.516 223.297 126.927 223.297ZM130.709 218.859V218H135.584V218.859H133.615V224H132.693V218.859H130.709ZM137.369 224V218H138.291V220.609H138.9L141.056 218H142.244L139.822 220.891L142.275 224H141.087L139.119 221.469H138.291V224H137.369ZM145.482 224.141C145.102 224.141 144.757 224.069 144.447 223.926C144.137 223.78 143.891 223.57 143.709 223.297C143.527 223.021 143.436 222.687 143.436 222.297C143.436 221.953 143.503 221.674 143.639 221.461C143.774 221.245 143.955 221.076 144.182 220.953C144.408 220.831 144.658 220.74 144.932 220.68C145.208 220.617 145.485 220.568 145.764 220.531C146.128 220.484 146.424 220.449 146.65 220.426C146.88 220.4 147.046 220.357 147.15 220.297C147.257 220.237 147.311 220.133 147.311 219.984V219.953C147.311 219.568 147.205 219.268 146.994 219.055C146.786 218.841 146.469 218.734 146.045 218.734C145.605 218.734 145.26 218.831 145.01 219.023C144.76 219.216 144.584 219.422 144.482 219.641L143.607 219.328C143.764 218.964 143.972 218.68 144.232 218.477C144.495 218.271 144.782 218.128 145.092 218.047C145.404 217.964 145.712 217.922 146.014 217.922C146.206 217.922 146.428 217.945 146.678 217.992C146.93 218.036 147.174 218.129 147.408 218.27C147.645 218.41 147.842 218.622 147.998 218.906C148.154 219.19 148.232 219.57 148.232 220.047V224H147.311V223.187H147.264C147.201 223.318 147.097 223.457 146.951 223.605C146.805 223.754 146.611 223.88 146.369 223.984C146.127 224.089 145.831 224.141 145.482 224.141ZM145.623 223.312C145.988 223.312 146.295 223.241 146.545 223.098C146.798 222.954 146.988 222.77 147.115 222.543C147.245 222.316 147.311 222.078 147.311 221.828V220.984C147.272 221.031 147.186 221.074 147.053 221.113C146.923 221.15 146.772 221.182 146.6 221.211C146.43 221.237 146.265 221.26 146.104 221.281C145.945 221.299 145.816 221.315 145.717 221.328C145.477 221.359 145.253 221.41 145.045 221.48C144.839 221.548 144.673 221.651 144.545 221.789C144.42 221.924 144.357 222.109 144.357 222.344C144.357 222.664 144.476 222.906 144.713 223.07C144.953 223.232 145.256 223.312 145.623 223.312Z" fill="#969696"/>
<path d="M190.5 205.5H278.5C286.232 205.5 292.5 211.768 292.5 219.5C292.5 227.232 286.232 233.5 278.5 233.5H190.5C182.768 233.5 176.5 227.232 176.5 219.5C176.5 211.768 182.768 205.5 190.5 205.5Z" fill="#0A0A0A"/>
<path d="M190.5 205.5H278.5C286.232 205.5 292.5 211.768 292.5 219.5C292.5 227.232 286.232 233.5 278.5 233.5H190.5C182.768 233.5 176.5 227.232 176.5 219.5C176.5 211.768 182.768 205.5 190.5 205.5Z" stroke="url(#paint9_linear_237_204)"/>
<g filter="url(#filter4_d_237_204)">
<path d="M193 219.5C193 216.186 195.686 213.5 199 213.5C202.314 213.5 205 216.186 205 219.5C205 222.814 202.314 225.5 199 225.5C195.686 225.5 193 222.814 193 219.5Z" fill="url(#paint10_linear_237_204)"/>
<path d="M198.132 217.534C198.312 217.009 199.037 216.994 199.25 217.487L199.268 217.535L199.51 218.243C199.565 218.405 199.655 218.554 199.773 218.678C199.89 218.803 200.034 218.901 200.193 218.966L200.258 218.99L200.966 219.232C201.491 219.411 201.507 220.137 201.014 220.35L200.966 220.368L200.258 220.61C200.095 220.665 199.947 220.755 199.822 220.873C199.697 220.99 199.599 221.134 199.534 221.293L199.51 221.357L199.268 222.066C199.089 222.591 198.363 222.606 198.151 222.114L198.132 222.066L197.89 221.358C197.835 221.195 197.745 221.047 197.627 220.922C197.51 220.797 197.366 220.699 197.208 220.634L197.143 220.61L196.435 220.368C195.909 220.188 195.894 219.463 196.387 219.251L196.435 219.232L197.143 218.99C197.305 218.935 197.454 218.845 197.578 218.727C197.703 218.61 197.801 218.466 197.866 218.307L197.89 218.243L198.132 217.534ZM201.1 216.5C201.156 216.5 201.211 216.516 201.259 216.545C201.306 216.575 201.345 216.618 201.369 216.668L201.384 216.703L201.489 217.011L201.797 217.116C201.853 217.135 201.903 217.17 201.939 217.218C201.975 217.265 201.996 217.322 202 217.381C202.004 217.44 201.99 217.499 201.96 217.551C201.93 217.602 201.886 217.643 201.832 217.669L201.797 217.684L201.489 217.789L201.384 218.097C201.365 218.153 201.33 218.202 201.282 218.238C201.235 218.275 201.178 218.296 201.119 218.3C201.06 218.303 201.001 218.289 200.949 218.26C200.898 218.23 200.857 218.185 200.831 218.132L200.816 218.097L200.711 217.789L200.403 217.684C200.347 217.665 200.298 217.63 200.261 217.582C200.225 217.535 200.204 217.478 200.2 217.419C200.196 217.36 200.21 217.301 200.24 217.249C200.27 217.198 200.314 217.157 200.368 217.131L200.403 217.116L200.711 217.011L200.816 216.703C200.836 216.644 200.874 216.592 200.925 216.556C200.976 216.52 201.037 216.5 201.1 216.5Z" fill="black"/>
</g>
<path d="M216.297 224H215.281L218.219 216H219.219L222.156 224H221.141L218.75 217.266H218.688L216.297 224ZM216.672 220.875H220.766V221.734H216.672V220.875ZM227.733 220.578V221.437H224.42V220.578H227.733ZM224.639 218V224H223.717V218H224.639ZM228.436 218V224H227.514V218H228.436ZM232.325 224.141C231.945 224.141 231.6 224.069 231.29 223.926C230.98 223.78 230.734 223.57 230.552 223.297C230.37 223.021 230.278 222.687 230.278 222.297C230.278 221.953 230.346 221.674 230.482 221.461C230.617 221.245 230.798 221.076 231.025 220.953C231.251 220.831 231.501 220.74 231.775 220.68C232.051 220.617 232.328 220.568 232.607 220.531C232.971 220.484 233.267 220.449 233.493 220.426C233.722 220.4 233.889 220.357 233.993 220.297C234.1 220.237 234.153 220.133 234.153 219.984V219.953C234.153 219.568 234.048 219.268 233.837 219.055C233.629 218.841 233.312 218.734 232.888 218.734C232.448 218.734 232.103 218.831 231.853 219.023C231.603 219.216 231.427 219.422 231.325 219.641L230.45 219.328C230.607 218.964 230.815 218.68 231.075 218.477C231.338 218.271 231.625 218.128 231.935 218.047C232.247 217.964 232.554 217.922 232.857 217.922C233.049 217.922 233.271 217.945 233.521 217.992C233.773 218.036 234.017 218.129 234.251 218.27C234.488 218.41 234.685 218.622 234.841 218.906C234.997 219.19 235.075 219.57 235.075 220.047V224H234.153V223.187H234.107C234.044 223.318 233.94 223.457 233.794 223.605C233.648 223.754 233.454 223.88 233.212 223.984C232.97 224.089 232.674 224.141 232.325 224.141ZM232.466 223.312C232.831 223.312 233.138 223.241 233.388 223.098C233.64 222.954 233.831 222.77 233.958 222.543C234.088 222.316 234.153 222.078 234.153 221.828V220.984C234.114 221.031 234.028 221.074 233.896 221.113C233.765 221.15 233.614 221.182 233.443 221.211C233.273 221.237 233.108 221.26 232.946 221.281C232.788 221.299 232.659 221.315 232.56 221.328C232.32 221.359 232.096 221.41 231.888 221.48C231.682 221.548 231.515 221.651 231.388 221.789C231.263 221.924 231.2 222.109 231.2 222.344C231.2 222.664 231.319 222.906 231.556 223.07C231.795 223.232 232.099 223.312 232.466 223.312ZM236.667 224V223.141H236.885C237.065 223.141 237.215 223.105 237.335 223.035C237.454 222.962 237.551 222.836 237.624 222.656C237.699 222.474 237.757 222.221 237.796 221.898C237.837 221.573 237.867 221.159 237.885 220.656L237.995 218H241.995V224H241.073V218.859H238.87L238.776 221C238.755 221.492 238.711 221.926 238.643 222.301C238.578 222.673 238.478 222.986 238.342 223.238C238.21 223.491 238.033 223.681 237.811 223.809C237.59 223.936 237.313 224 236.979 224H236.667ZM245.048 222.641L247.939 218H249.001V224H248.079V219.359L245.204 224H244.126V218H245.048V222.641ZM250.313 218.859V218H255.188V218.859H253.22V224H252.298V218.859H250.313ZM257.895 222.641L260.786 218H261.848V224H260.926V219.359L258.051 224H256.973V218H257.895V222.641ZM263.976 224V218H264.898V220.609H265.508L267.664 218H268.851L266.43 220.891L268.883 224H267.695L265.726 221.469H264.898V224H263.976ZM272.09 224.141C271.71 224.141 271.365 224.069 271.055 223.926C270.745 223.78 270.499 223.57 270.317 223.297C270.135 223.021 270.043 222.687 270.043 222.297C270.043 221.953 270.111 221.674 270.247 221.461C270.382 221.245 270.563 221.076 270.79 220.953C271.016 220.831 271.266 220.74 271.54 220.68C271.816 220.617 272.093 220.568 272.372 220.531C272.736 220.484 273.032 220.449 273.258 220.426C273.487 220.4 273.654 220.357 273.758 220.297C273.865 220.237 273.918 220.133 273.918 219.984V219.953C273.918 219.568 273.813 219.268 273.602 219.055C273.394 218.841 273.077 218.734 272.653 218.734C272.213 218.734 271.868 218.831 271.618 219.023C271.368 219.216 271.192 219.422 271.09 219.641L270.215 219.328C270.372 218.964 270.58 218.68 270.84 218.477C271.103 218.271 271.39 218.128 271.7 218.047C272.012 217.964 272.319 217.922 272.622 217.922C272.814 217.922 273.036 217.945 273.286 217.992C273.538 218.036 273.782 218.129 274.016 218.27C274.253 218.41 274.45 218.622 274.606 218.906C274.762 219.19 274.84 219.57 274.84 220.047V224H273.918V223.187H273.872C273.809 223.318 273.705 223.457 273.559 223.605C273.413 223.754 273.219 223.88 272.977 223.984C272.735 224.089 272.439 224.141 272.09 224.141ZM272.231 223.312C272.596 223.312 272.903 223.241 273.153 223.098C273.405 222.954 273.596 222.77 273.723 222.543C273.853 222.316 273.918 222.078 273.918 221.828V220.984C273.879 221.031 273.793 221.074 273.661 221.113C273.53 221.15 273.379 221.182 273.208 221.211C273.038 221.237 272.873 221.26 272.711 221.281C272.553 221.299 272.424 221.315 272.325 221.328C272.085 221.359 271.861 221.41 271.653 221.48C271.447 221.548 271.28 221.651 271.153 221.789C271.028 221.924 270.965 222.109 270.965 222.344C270.965 222.664 271.084 222.906 271.321 223.07C271.56 223.232 271.864 223.312 272.231 223.312Z" fill="#969696"/>
<path d="M48.75 24C48.0207 24 47.3212 24.2897 46.8055 24.8055C46.2897 25.3212 46 26.0207 46 26.75V28H62V26.75C62 26.0207 61.7103 25.3212 61.1945 24.8055C60.6788 24.2897 59.9793 24 59.25 24H48.75ZM62 29H46V33.25C46 33.9793 46.2897 34.6788 46.8055 35.1945C47.3212 35.7103 48.0207 36 48.75 36H59.25C59.9793 36 60.6788 35.7103 61.1945 35.1945C61.7103 34.6788 62 33.9793 62 33.25V29ZM57.5 33H59.5C59.6326 33 59.7598 33.0527 59.8536 33.1464C59.9473 33.2402 60 33.3674 60 33.5C60 33.6326 59.9473 33.7598 59.8536 33.8536C59.7598 33.9473 59.6326 34 59.5 34H57.5C57.3674 34 57.2402 33.9473 57.1464 33.8536C57.0527 33.7598 57 33.6326 57 33.5C57 33.3674 57.0527 33.2402 57.1464 33.1464C57.2402 33.0527 57.3674 33 57.5 33Z" fill="#CECECE"/>
<defs>
<filter id="filter0_f_237_204" x="123" y="32" width="222" height="222" filterUnits="userSpaceOnUse" color-interpolation-filters="sRGB">
<feFlood flood-opacity="0" result="BackgroundImageFix"/>
<feBlend mode="normal" in="SourceGraphic" in2="BackgroundImageFix" result="shape"/>
<feGaussianBlur stdDeviation="37" result="effect1_foregroundBlur_237_204"/>
</filter>
<filter id="filter1_d_237_204" x="41.4" y="159.9" width="51.2" height="51.2" filterUnits="userSpaceOnUse" color-interpolation-filters="sRGB">
<feFlood flood-opacity="0" result="BackgroundImageFix"/>
<feColorMatrix in="SourceAlpha" type="matrix" values="0 0 0 0 0 0 0 0 0 0 0 0 0 0 0 0 0 0 127 0" result="hardAlpha"/>
<feMorphology radius="1" operator="erode" in="SourceAlpha" result="effect1_dropShadow_237_204"/>
<feOffset/>
<feGaussianBlur stdDeviation="10.3"/>
<feComposite in2="hardAlpha" operator="out"/>
<feColorMatrix type="matrix" values="0 0 0 0 0.459486 0 0 0 0 0.602824 0 0 0 0 0.965385 0 0 0 0.5 0"/>
<feBlend mode="normal" in2="BackgroundImageFix" result="effect1_dropShadow_237_204"/>
<feBlend mode="normal" in="SourceGraphic" in2="effect1_dropShadow_237_204" result="shape"/>
</filter>
<filter id="filter2_d_237_204" x="148.4" y="159.9" width="51.2" height="51.2" filterUnits="userSpaceOnUse" color-interpolation-filters="sRGB">
<feFlood flood-opacity="0" result="BackgroundImageFix"/>
<feColorMatrix in="SourceAlpha" type="matrix" values="0 0 0 0 0 0 0 0 0 0 0 0 0 0 0 0 0 0 127 0" result="hardAlpha"/>
<feMorphology radius="1" operator="erode" in="SourceAlpha" result="effect1_dropShadow_237_204"/>
<feOffset/>
<feGaussianBlur stdDeviation="10.3"/>
<feComposite in2="hardAlpha" operator="out"/>
<feColorMatrix type="matrix" values="0 0 0 0 0.459486 0 0 0 0 0.602824 0 0 0 0 0.965385 0 0 0 0.5 0"/>
<feBlend mode="normal" in2="BackgroundImageFix" result="effect1_dropShadow_237_204"/>
<feBlend mode="normal" in="SourceGraphic" in2="effect1_dropShadow_237_204" result="shape"/>
</filter>
<filter id="filter3_d_237_204" x="41.4" y="193.9" width="51.2" height="51.2" filterUnits="userSpaceOnUse" color-interpolation-filters="sRGB">
<feFlood flood-opacity="0" result="BackgroundImageFix"/>
<feColorMatrix in="SourceAlpha" type="matrix" values="0 0 0 0 0 0 0 0 0 0 0 0 0 0 0 0 0 0 127 0" result="hardAlpha"/>
<feMorphology radius="1" operator="erode" in="SourceAlpha" result="effect1_dropShadow_237_204"/>
<feOffset/>
<feGaussianBlur stdDeviation="10.3"/>
<feComposite in2="hardAlpha" operator="out"/>
<feColorMatrix type="matrix" values="0 0 0 0 0.459486 0 0 0 0 0.602824 0 0 0 0 0.965385 0 0 0 0.5 0"/>
<feBlend mode="normal" in2="BackgroundImageFix" result="effect1_dropShadow_237_204"/>
<feBlend mode="normal" in="SourceGraphic" in2="effect1_dropShadow_237_204" result="shape"/>
</filter>
<filter id="filter4_d_237_204" x="173.4" y="193.9" width="51.2" height="51.2" filterUnits="userSpaceOnUse" color-interpolation-filters="sRGB">
<feFlood flood-opacity="0" result="BackgroundImageFix"/>
<feColorMatrix in="SourceAlpha" type="matrix" values="0 0 0 0 0 0 0 0 0 0 0 0 0 0 0 0 0 0 127 0" result="hardAlpha"/>
<feMorphology radius="1" operator="erode" in="SourceAlpha" result="effect1_dropShadow_237_204"/>
<feOffset/>
<feGaussianBlur stdDeviation="10.3"/>
<feComposite in2="hardAlpha" operator="out"/>
<feColorMatrix type="matrix" values="0 0 0 0 0.459486 0 0 0 0 0.602824 0 0 0 0 0.965385 0 0 0 0.5 0"/>
<feBlend mode="normal" in2="BackgroundImageFix" result="effect1_dropShadow_237_204"/>
<feBlend mode="normal" in="SourceGraphic" in2="effect1_dropShadow_237_204" result="shape"/>
</filter>
<linearGradient id="paint0_linear_237_204" x1="354.5" y1="254" x2="87.5" y2="-99.5" gradientUnits="userSpaceOnUse">
<stop offset="0.168445" stop-color="#252525"/>
<stop offset="1" stop-color="#313131"/>
</linearGradient>
<linearGradient id="paint1_linear_237_204" x1="46.5" y1="143" x2="331.5" y2="142.999" gradientUnits="userSpaceOnUse">
<stop stop-color="#181819"/>
<stop offset="0.485577" stop-color="#343435"/>
<stop offset="0.9999" stop-color="#181819"/>
</linearGradient>
<linearGradient id="paint2_linear_237_204" x1="226.539" y1="142.903" x2="7" y2="143" gradientUnits="userSpaceOnUse">
<stop stop-color="#346DFF"/>
<stop offset="1" stop-color="#101010" stop-opacity="0"/>
</linearGradient>
<linearGradient id="paint3_linear_237_204" x1="41.9229" y1="178.092" x2="87.9231" y2="232.621" gradientUnits="userSpaceOnUse">
<stop stop-color="#202B47"/>
<stop offset="1" stop-color="#1E1E1E"/>
</linearGradient>
<linearGradient id="paint4_linear_237_204" x1="69.4679" y1="185.862" x2="59.1633" y2="183.546" gradientUnits="userSpaceOnUse">
<stop stop-color="#346DFF"/>
<stop offset="1" stop-color="#7AB3FF"/>
</linearGradient>
<linearGradient id="paint5_linear_237_204" x1="148.372" y1="178.092" x2="191.45" y2="242.706" gradientUnits="userSpaceOnUse">
<stop stop-color="#202B47"/>
<stop offset="1" stop-color="#1E1E1E"/>
</linearGradient>
<linearGradient id="paint6_linear_237_204" x1="176.468" y1="185.862" x2="166.163" y2="183.546" gradientUnits="userSpaceOnUse">
<stop stop-color="#346DFF"/>
<stop offset="1" stop-color="#7AB3FF"/>
</linearGradient>
<linearGradient id="paint7_linear_237_204" x1="41.3931" y1="212.092" x2="84.6046" y2="276.383" gradientUnits="userSpaceOnUse">
<stop stop-color="#202B47"/>
<stop offset="1" stop-color="#1E1E1E"/>
</linearGradient>
<linearGradient id="paint8_linear_237_204" x1="69.4679" y1="219.862" x2="59.1633" y2="217.546" gradientUnits="userSpaceOnUse">
<stop stop-color="#346DFF"/>
<stop offset="1" stop-color="#7AB3FF"/>
</linearGradient>
<linearGradient id="paint9_linear_237_204" x1="173.52" y1="212.092" x2="217.508" y2="274.345" gradientUnits="userSpaceOnUse">
<stop stop-color="#202B47"/>
<stop offset="1" stop-color="#1E1E1E"/>
</linearGradient>
<linearGradient id="paint10_linear_237_204" x1="201.468" y1="219.862" x2="191.163" y2="217.546" gradientUnits="userSpaceOnUse">
<stop stop-color="#346DFF"/>
<stop offset="1" stop-color="#7AB3FF"/>
</linearGradient>
</defs>
</svg>
