<svg width="360" height="328" viewBox="0 0 360 328" fill="none" xmlns="http://www.w3.org/2000/svg">
<path d="M367.328 288.007L-72 62" stroke="url(#paint0_linear_237_205)"/>
<path d="M338.328 298.007L-101 72" stroke="url(#paint1_linear_237_205)"/>
<path d="M319.328 311.007L-120 85" stroke="url(#paint2_linear_237_205)"/>
<path d="M305.328 327.007L-134 101" stroke="url(#paint3_linear_237_205)"/>
<path d="M382.328 275.007L-57 49" stroke="url(#paint4_linear_237_205)"/>
<path d="M399.328 260.007L-40 34" stroke="url(#paint5_linear_237_205)"/>
<path d="M423.328 250.007L-16 24" stroke="url(#paint6_linear_237_205)"/>
<path d="M443.328 240.007L4.00002 14" stroke="url(#paint7_linear_237_205)"/>
<path d="M465.328 230.007L26 4.00004" stroke="url(#paint8_linear_237_205)"/>
<path d="M489.328 219.007L50 -6.99996" stroke="url(#paint9_linear_237_205)"/>
<path d="M511.328 208.007L72 -18" stroke="url(#paint10_linear_237_205)"/>
<path d="M530.328 195.007L91 -31" stroke="url(#paint11_linear_237_205)"/>
<path d="M558.328 186.007L119 -40" stroke="url(#paint12_linear_237_205)"/>
<g filter="url(#filter0_f_237_205)">
<rect width="163.136" height="31.3592" rx="10" transform="matrix(0.866025 -0.5 0.886484 0.46276 17 212.143)" fill="#579FFF"/>
</g>
<g filter="url(#filter1_d_237_205)">
<path d="M239.827 239.442L241.549 235L245.408 237.793L243.686 242.235L239.827 239.442Z" fill="#D9D9D9"/>
</g>
<g filter="url(#filter2_d_237_205)">
<g clip-path="url(#clip0_237_205)">
<rect width="169" height="34" rx="9" transform="matrix(0.880477 -0.474088 0.881773 0.471674 16.1951 193.49)" fill="url(#paint13_linear_237_205)"/>
<g filter="url(#filter3_di_237_205)">
<rect width="76" height="30" rx="8" transform="matrix(0.880477 -0.474088 0.881773 0.471674 19.7196 193.485)" fill="url(#paint14_linear_237_205)" shape-rendering="crispEdges"/>
<path d="M52.1449 194.009L45.732 190.578L48.0771 189.316C48.5315 189.071 48.9829 188.909 49.4312 188.829C49.8775 188.747 50.302 188.735 50.7047 188.792C51.1053 188.847 51.4642 188.96 51.7815 189.129C52.0487 189.272 52.2252 189.419 52.3109 189.57C52.3946 189.72 52.4094 189.869 52.3554 190.017C52.3013 190.163 52.2014 190.302 52.0555 190.434L52.1182 190.467C52.3412 190.358 52.6175 190.284 52.947 190.243C53.2766 190.2 53.6239 190.204 53.989 190.257C54.3541 190.309 54.7027 190.423 55.0346 190.601C55.3623 190.776 55.5795 190.975 55.6862 191.198C55.7929 191.418 55.763 191.655 55.5965 191.908C55.4278 192.161 55.0955 192.42 54.5994 192.687L52.1449 194.009ZM52.2813 193.045L53.6758 192.294C54.1385 192.045 54.3802 191.818 54.4008 191.614C54.4214 191.411 54.297 191.237 54.0277 191.093C53.8252 190.984 53.5884 190.913 53.3171 190.877C53.0459 190.842 52.7654 190.848 52.4755 190.897C52.1877 190.944 51.9145 191.037 51.656 191.177L50.2271 191.946L52.2813 193.045ZM49.4725 191.542L50.767 190.845C50.9837 190.729 51.1369 190.601 51.2264 190.463C51.318 190.325 51.3397 190.187 51.2915 190.052C51.2434 189.914 51.116 189.79 50.9093 189.68C50.6442 189.538 50.3291 189.469 49.9641 189.473C49.599 189.477 49.2247 189.582 48.8412 189.788L47.5217 190.499L49.4725 191.542ZM59.423 190.204C59.1186 190.368 58.7871 190.486 58.4284 190.558C58.0676 190.629 57.7068 190.645 57.3459 190.607C56.987 190.567 56.65 190.463 56.3348 190.294C56.0634 190.149 55.8921 190.001 55.821 189.852C55.7499 189.702 55.7517 189.552 55.8266 189.401C55.9015 189.251 56.0223 189.103 56.189 188.958C56.3557 188.812 56.5391 188.671 56.7391 188.534C56.9934 188.361 57.1997 188.221 57.3581 188.113C57.5144 188.004 57.6081 187.915 57.6393 187.844C57.6705 187.773 57.6298 187.708 57.517 187.648L57.4951 187.636C57.2216 187.49 56.9326 187.418 56.6281 187.421C56.3256 187.422 56.0233 187.504 55.721 187.667C55.4063 187.836 55.2281 188.007 55.1867 188.18C55.1452 188.35 55.1746 188.499 55.2749 188.626L54.1959 188.992C54.0078 188.78 53.9241 188.572 53.9447 188.368C53.9653 188.162 54.0662 187.966 54.2474 187.781C54.4265 187.595 54.661 187.424 54.9507 187.268C55.1425 187.165 55.3687 187.068 55.6293 186.977C55.8899 186.884 56.1736 186.818 56.4801 186.781C56.7888 186.742 57.1142 186.75 57.4564 186.803C57.7965 186.855 58.1419 186.975 58.4926 187.163L61.6865 188.871L60.7735 189.363L60.116 189.011L60.0784 189.031C60.1391 189.129 60.1674 189.241 60.1634 189.369C60.1594 189.496 60.1012 189.632 59.9887 189.775C59.8763 189.919 59.6877 190.062 59.423 190.204ZM58.8747 189.693C59.1332 189.554 59.303 189.407 59.3841 189.254C59.4673 189.099 59.4744 188.952 59.4054 188.812C59.3364 188.67 59.2069 188.548 59.0169 188.447L58.3969 188.115C58.397 188.151 58.3637 188.202 58.297 188.27C58.2303 188.335 58.147 188.405 58.047 188.482C57.9449 188.557 57.8448 188.63 57.7469 188.7C57.6469 188.77 57.5635 188.828 57.4968 188.875C57.3384 188.985 57.2113 189.095 57.1155 189.205C57.0218 189.314 56.9813 189.42 56.9939 189.522C57.0066 189.623 57.0964 189.718 57.2634 189.808C57.4951 189.932 57.7559 189.979 58.0459 189.951C58.3337 189.921 58.61 189.835 58.8747 189.693ZM62.2482 186.818L61.099 186.21L61.2616 186.122L61.1398 184.003L62.2592 183.4L62.3939 185.815L62.247 185.894L62.2482 186.818ZM63.0198 188.153L56.6069 184.723L57.5418 184.22L63.9547 187.65L63.0198 188.153ZM66.0527 186.52L62.0472 186.224L62.0368 185.527L67.2002 185.902L66.0527 186.52ZM69.9312 184.536C69.4664 184.786 68.9607 184.946 68.4143 185.013C67.8679 185.079 67.3182 185.06 66.7652 184.957C66.2123 184.854 65.6947 184.673 65.2125 184.415C64.724 184.154 64.3847 183.874 64.1944 183.575C64.0021 183.275 63.9673 182.979 64.09 182.687C64.2126 182.394 64.5001 182.127 64.9525 181.883C65.3172 181.687 65.7103 181.548 66.1315 181.467C66.5507 181.384 66.9689 181.361 67.3862 181.396C67.8055 181.43 68.1936 181.525 68.5505 181.68L67.6407 182.17C67.3652 182.076 67.0564 182.034 66.7143 182.043C66.3743 182.052 66.0553 182.136 65.7572 182.297C65.4966 182.437 65.3373 182.597 65.2791 182.776C65.2209 182.953 65.264 183.138 65.4082 183.332C65.5503 183.524 65.7925 183.712 66.1349 183.895C66.4856 184.082 66.8414 184.216 67.2024 184.295C67.5634 184.374 67.9107 184.398 68.2444 184.369C68.5803 184.338 68.8805 184.252 69.1452 184.109C69.3224 184.014 69.4506 183.91 69.5297 183.798C69.6088 183.683 69.6358 183.567 69.6106 183.448C69.5875 183.329 69.5091 183.212 69.3754 183.098L70.2853 182.608C70.563 182.792 70.7395 182.995 70.8149 183.217C70.8903 183.438 70.8562 183.663 70.7126 183.89C70.571 184.117 70.3106 184.332 69.9312 184.536ZM74.399 182.141C74.0947 182.304 73.7631 182.422 73.4045 182.495C73.0437 182.566 72.6828 182.582 72.3219 182.543C71.963 182.503 71.626 182.399 71.3108 182.23C71.0394 182.085 70.8682 181.938 70.797 181.788C70.7259 181.638 70.7278 181.488 70.8027 181.338C70.8776 181.188 70.9983 181.04 71.165 180.894C71.3317 180.748 71.5151 180.607 71.7151 180.47C71.9694 180.297 72.1757 180.157 72.3341 180.049C72.4904 179.941 72.5842 179.851 72.6154 179.78C72.6465 179.71 72.6058 179.644 72.4931 179.584L72.4711 179.572C72.1977 179.426 71.9087 179.354 71.6041 179.357C71.3016 179.358 70.9993 179.44 70.697 179.603C70.3823 179.773 70.2042 179.944 70.1627 180.116C70.1212 180.286 70.1506 180.435 70.2509 180.563L69.1719 180.929C68.9839 180.716 68.9001 180.508 68.9207 180.304C68.9413 180.098 69.0422 179.903 69.2234 179.718C69.4026 179.532 69.637 179.361 69.9268 179.205C70.1185 179.101 70.3447 179.004 70.6053 178.913C70.866 178.82 71.1496 178.755 71.4562 178.717C71.7648 178.679 72.0903 178.686 72.4324 178.739C72.7725 178.792 73.1179 178.911 73.4686 179.099L76.6626 180.807L75.7496 181.299L75.092 180.947L75.0545 180.968C75.1151 181.065 75.1434 181.177 75.1394 181.305C75.1354 181.433 75.0772 181.568 74.9648 181.712C74.8523 181.855 74.6637 181.998 74.399 182.141ZM73.8507 181.629C74.1092 181.49 74.279 181.344 74.3601 181.19C74.4434 181.036 74.4505 180.888 74.3814 180.748C74.3124 180.606 74.1829 180.485 73.9929 180.383L73.3729 180.051C73.373 180.087 73.3397 180.139 73.273 180.206C73.2064 180.271 73.123 180.342 73.023 180.418C72.9209 180.493 72.8209 180.566 72.7229 180.637C72.6229 180.706 72.5395 180.764 72.4728 180.812C72.3144 180.921 72.1874 181.031 72.0915 181.141C71.9978 181.25 71.9573 181.356 71.97 181.459C71.9826 181.559 72.0724 181.655 72.2394 181.744C72.4712 181.868 72.732 181.916 73.0219 181.887C73.3097 181.858 73.586 181.772 73.8507 181.629ZM76.075 178.059L78.9307 179.586L77.9958 180.09L73.1861 177.517L74.0835 177.034L74.8663 177.452L74.9257 177.42C74.7815 177.225 74.75 177.022 74.831 176.813C74.9142 176.602 75.1361 176.4 75.4967 176.205C75.8239 176.029 76.1794 175.912 76.5632 175.853C76.9448 175.793 77.3381 175.799 77.7428 175.87C78.1476 175.941 78.5483 176.083 78.945 176.295L82.0042 177.931L81.0694 178.435L78.1228 176.858C77.7742 176.672 77.4111 176.575 77.0335 176.568C76.6539 176.559 76.3056 176.64 75.9888 176.811C75.772 176.928 75.6261 177.057 75.5512 177.198C75.4784 177.338 75.4838 177.483 75.5675 177.633C75.6511 177.78 75.8203 177.922 76.075 178.059ZM85.2379 176.291C84.8502 176.5 84.405 176.633 83.9023 176.691C83.3997 176.746 82.8771 176.722 82.3346 176.617C81.7921 176.511 81.261 176.318 80.7412 176.04C80.2214 175.762 79.8632 175.478 79.6667 175.187C79.4723 174.895 79.4292 174.615 79.5373 174.346C79.6454 174.077 79.8923 173.839 80.2779 173.631C80.576 173.471 80.8658 173.368 81.1473 173.324C81.4289 173.278 81.6854 173.263 81.917 173.28C82.1507 173.295 82.3457 173.314 82.5022 173.338L82.5585 173.307L80.1756 172.033L81.1105 171.529L87.5234 174.96L86.6104 175.451L85.862 175.051L85.7838 175.093C85.8298 175.178 85.8654 175.284 85.8906 175.412C85.9179 175.538 85.8889 175.677 85.8036 175.828C85.7183 175.98 85.5297 176.134 85.2379 176.291ZM84.6458 175.753C84.9147 175.608 85.0709 175.448 85.1145 175.272C85.158 175.094 85.1004 174.911 84.9416 174.723C84.7849 174.534 84.5375 174.349 84.1993 174.168C83.8653 173.989 83.5251 173.859 83.1787 173.777C82.8323 173.694 82.4964 173.666 82.171 173.691C81.8456 173.716 81.5464 173.802 81.2734 173.949C80.992 174.1 80.8305 174.266 80.789 174.445C80.7476 174.624 80.8052 174.807 80.9619 174.994C81.1207 175.179 81.3587 175.357 81.676 175.527C81.9975 175.699 82.3346 175.828 82.6872 175.913C83.0399 175.999 83.3852 176.032 83.7231 176.011C84.061 175.988 84.3685 175.902 84.6458 175.753Z" fill="url(#paint15_linear_237_205)"/>
</g>
</g>
<rect x="0.881125" y="-0.0012068" width="168" height="33" rx="8.5" transform="matrix(0.880477 -0.474088 0.881773 0.471674 16.3015 193.907)" stroke="url(#paint16_linear_237_205)"/>
</g>
<g filter="url(#filter4_d_237_205)">
<g clip-path="url(#clip1_237_205)">
<rect width="152.508" height="34" rx="9" transform="matrix(0.880477 -0.474088 0.881773 0.471674 131.862 179.1)" fill="url(#paint17_linear_237_205)"/>
<g filter="url(#filter5_di_237_205)">
<rect width="72" height="30" rx="8" transform="matrix(0.880477 -0.474088 0.881773 0.471674 135.387 179.095)" fill="url(#paint18_linear_237_205)" shape-rendering="crispEdges"/>
<path d="M167.812 179.619L161.399 176.188L165.37 174.05L166.203 174.496L163.198 176.114L165.152 177.159L167.873 175.694L168.702 176.138L165.982 177.603L168.778 179.098L167.812 179.619ZM172.924 176.866L168.114 174.293L169.018 173.807L169.782 174.216L169.832 174.189C169.661 174.003 169.612 173.811 169.684 173.613C169.757 173.412 169.934 173.236 170.215 173.085C170.274 173.053 170.345 173.018 170.428 172.977C170.514 172.936 170.582 172.904 170.634 172.883L171.53 173.362C171.482 173.376 171.404 173.406 171.295 173.451C171.185 173.495 171.082 173.543 170.986 173.594C170.765 173.713 170.615 173.844 170.536 173.988C170.457 174.129 170.45 174.271 170.515 174.413C170.577 174.554 170.713 174.68 170.922 174.792L173.859 176.363L172.924 176.866ZM178.339 174.055C177.889 174.297 177.393 174.453 176.851 174.523C176.308 174.594 175.759 174.579 175.202 174.48C174.645 174.382 174.118 174.199 173.621 173.933C173.122 173.667 172.778 173.383 172.59 173.083C172.402 172.784 172.372 172.488 172.501 172.197C172.63 171.906 172.92 171.639 173.37 171.396C173.82 171.154 174.317 170.998 174.859 170.928C175.401 170.857 175.952 170.872 176.511 170.972C177.07 171.072 177.599 171.256 178.098 171.523C178.595 171.788 178.936 172.071 179.122 172.369C179.309 172.668 179.337 172.963 179.208 173.254C179.079 173.545 178.79 173.812 178.339 174.055ZM177.557 173.633C177.848 173.475 178.013 173.304 178.05 173.118C178.088 172.932 178.024 172.746 177.859 172.559C177.696 172.371 177.46 172.195 177.151 172.029C176.844 171.865 176.515 171.74 176.165 171.653C175.814 171.564 175.465 171.529 175.116 171.549C174.768 171.568 174.448 171.656 174.156 171.813C173.862 171.972 173.696 172.145 173.659 172.333C173.624 172.52 173.689 172.708 173.854 172.897C174.019 173.084 174.255 173.259 174.562 173.423C174.871 173.589 175.2 173.715 175.548 173.803C175.899 173.89 176.247 173.923 176.593 173.903C176.942 173.881 177.263 173.791 177.557 173.633ZM179.692 170.157L182.548 171.685L181.613 172.188L176.803 169.615L177.7 169.132L178.483 169.551L178.543 169.519C178.398 169.323 178.367 169.12 178.448 168.911C178.531 168.7 178.753 168.498 179.114 168.304C179.441 168.128 179.796 168.01 180.18 167.951C180.562 167.892 180.955 167.897 181.36 167.968C181.764 168.039 182.165 168.181 182.562 168.393L185.621 170.03L184.686 170.533L181.74 168.957C181.391 168.77 181.028 168.673 180.65 168.666C180.271 168.658 179.922 168.739 179.606 168.909C179.389 169.026 179.243 169.155 179.168 169.296C179.095 169.436 179.101 169.581 179.184 169.731C179.268 169.879 179.437 170.021 179.692 170.157ZM184.395 165.527L185.147 165.929L182.523 167.342L181.772 166.94L184.395 165.527ZM181.323 165.945L182.258 165.441L186.808 167.875C186.989 167.972 187.153 168.031 187.299 168.051C187.443 168.069 187.574 168.065 187.693 168.037C187.812 168.006 187.923 167.964 188.025 167.909C188.1 167.868 188.16 167.83 188.206 167.794C188.252 167.758 188.287 167.73 188.312 167.71L189.255 168.033C189.221 168.073 189.165 168.126 189.086 168.191C189.009 168.257 188.896 168.331 188.748 168.413C188.507 168.548 188.233 168.648 187.929 168.713C187.624 168.778 187.311 168.795 186.987 168.763C186.664 168.731 186.357 168.637 186.067 168.482L181.323 165.945ZM192.442 166.461C191.969 166.716 191.46 166.881 190.916 166.957C190.372 167.03 189.822 167.018 189.267 166.92C188.712 166.82 188.185 166.637 187.686 166.37C187.193 166.107 186.851 165.825 186.659 165.525C186.468 165.224 186.434 164.928 186.554 164.637C186.677 164.345 186.961 164.078 187.407 163.838C187.678 163.692 187.986 163.575 188.33 163.486C188.674 163.397 189.043 163.349 189.437 163.343C189.832 163.337 190.24 163.385 190.664 163.486C191.086 163.586 191.515 163.753 191.951 163.986L192.283 164.164L188.465 166.22L187.764 165.844L190.665 164.282C190.419 164.15 190.151 164.061 189.861 164.013C189.569 163.964 189.277 163.959 188.985 163.997C188.695 164.035 188.429 164.118 188.187 164.248C187.924 164.39 187.76 164.548 187.693 164.723C187.627 164.895 187.644 165.065 187.744 165.233C187.844 165.399 188.015 165.546 188.255 165.674L188.803 165.967C189.124 166.139 189.454 166.255 189.792 166.315C190.132 166.374 190.464 166.38 190.787 166.334C191.108 166.286 191.405 166.189 191.678 166.042C191.855 165.947 191.992 165.846 192.088 165.741C192.181 165.635 192.23 165.525 192.234 165.413C192.238 165.301 192.193 165.19 192.099 165.079L193.144 164.688C193.334 164.866 193.435 165.057 193.448 165.261C193.461 165.462 193.384 165.666 193.217 165.872C193.051 166.076 192.793 166.272 192.442 166.461ZM197.423 163.776C197.035 163.985 196.59 164.118 196.087 164.176C195.585 164.231 195.062 164.207 194.52 164.102C193.977 163.996 193.446 163.803 192.926 163.525C192.406 163.247 192.048 162.963 191.852 162.672C191.657 162.38 191.614 162.1 191.722 161.831C191.83 161.562 192.077 161.324 192.463 161.116C192.761 160.955 193.051 160.853 193.332 160.809C193.614 160.763 193.87 160.748 194.102 160.764C194.336 160.78 194.531 160.799 194.687 160.822L194.743 160.792L192.361 159.517L193.295 159.014L199.708 162.444L198.795 162.936L198.047 162.536L197.969 162.578C198.015 162.663 198.05 162.769 198.076 162.897C198.103 163.023 198.074 163.162 197.989 163.313C197.903 163.465 197.715 163.619 197.423 163.776ZM196.831 163.238C197.1 163.093 197.256 162.933 197.299 162.757C197.343 162.579 197.285 162.396 197.127 162.208C196.97 162.019 196.722 161.834 196.384 161.653C196.05 161.474 195.71 161.344 195.364 161.261C195.017 161.179 194.681 161.15 194.356 161.176C194.031 161.201 193.731 161.287 193.458 161.434C193.177 161.585 193.015 161.751 192.974 161.93C192.933 162.109 192.99 162.292 193.147 162.479C193.306 162.664 193.544 162.842 193.861 163.012C194.182 163.184 194.52 163.312 194.872 163.398C195.225 163.484 195.57 163.516 195.908 163.496C196.246 163.473 196.553 163.387 196.831 163.238Z" fill="url(#paint19_linear_237_205)"/>
<path d="M167.812 179.619L161.399 176.188L165.37 174.05L166.203 174.496L163.198 176.114L165.152 177.159L167.873 175.694L168.702 176.138L165.982 177.603L168.778 179.098L167.812 179.619ZM172.924 176.866L168.114 174.293L169.018 173.807L169.782 174.216L169.832 174.189C169.661 174.003 169.612 173.811 169.684 173.613C169.757 173.412 169.934 173.236 170.215 173.085C170.274 173.053 170.345 173.018 170.428 172.977C170.514 172.936 170.582 172.904 170.634 172.883L171.53 173.362C171.482 173.376 171.404 173.406 171.295 173.451C171.185 173.495 171.082 173.543 170.986 173.594C170.765 173.713 170.615 173.844 170.536 173.988C170.457 174.129 170.45 174.271 170.515 174.413C170.577 174.554 170.713 174.68 170.922 174.792L173.859 176.363L172.924 176.866ZM178.339 174.055C177.889 174.297 177.393 174.453 176.851 174.523C176.308 174.594 175.759 174.579 175.202 174.48C174.645 174.382 174.118 174.199 173.621 173.933C173.122 173.667 172.778 173.383 172.59 173.083C172.402 172.784 172.372 172.488 172.501 172.197C172.63 171.906 172.92 171.639 173.37 171.396C173.82 171.154 174.317 170.998 174.859 170.928C175.401 170.857 175.952 170.872 176.511 170.972C177.07 171.072 177.599 171.256 178.098 171.523C178.595 171.788 178.936 172.071 179.122 172.369C179.309 172.668 179.337 172.963 179.208 173.254C179.079 173.545 178.79 173.812 178.339 174.055ZM177.557 173.633C177.848 173.475 178.013 173.304 178.05 173.118C178.088 172.932 178.024 172.746 177.859 172.559C177.696 172.371 177.46 172.195 177.151 172.029C176.844 171.865 176.515 171.74 176.165 171.653C175.814 171.564 175.465 171.529 175.116 171.549C174.768 171.568 174.448 171.656 174.156 171.813C173.862 171.972 173.696 172.145 173.659 172.333C173.624 172.52 173.689 172.708 173.854 172.897C174.019 173.084 174.255 173.259 174.562 173.423C174.871 173.589 175.2 173.715 175.548 173.803C175.899 173.89 176.247 173.923 176.593 173.903C176.942 173.881 177.263 173.791 177.557 173.633ZM179.692 170.157L182.548 171.685L181.613 172.188L176.803 169.615L177.7 169.132L178.483 169.551L178.543 169.519C178.398 169.323 178.367 169.12 178.448 168.911C178.531 168.7 178.753 168.498 179.114 168.304C179.441 168.128 179.796 168.01 180.18 167.951C180.562 167.892 180.955 167.897 181.36 167.968C181.764 168.039 182.165 168.181 182.562 168.393L185.621 170.03L184.686 170.533L181.74 168.957C181.391 168.77 181.028 168.673 180.65 168.666C180.271 168.658 179.922 168.739 179.606 168.909C179.389 169.026 179.243 169.155 179.168 169.296C179.095 169.436 179.101 169.581 179.184 169.731C179.268 169.879 179.437 170.021 179.692 170.157ZM184.395 165.527L185.147 165.929L182.523 167.342L181.772 166.94L184.395 165.527ZM181.323 165.945L182.258 165.441L186.808 167.875C186.989 167.972 187.153 168.031 187.299 168.051C187.443 168.069 187.574 168.065 187.693 168.037C187.812 168.006 187.923 167.964 188.025 167.909C188.1 167.868 188.16 167.83 188.206 167.794C188.252 167.758 188.287 167.73 188.312 167.71L189.255 168.033C189.221 168.073 189.165 168.126 189.086 168.191C189.009 168.257 188.896 168.331 188.748 168.413C188.507 168.548 188.233 168.648 187.929 168.713C187.624 168.778 187.311 168.795 186.987 168.763C186.664 168.731 186.357 168.637 186.067 168.482L181.323 165.945ZM192.442 166.461C191.969 166.716 191.46 166.881 190.916 166.957C190.372 167.03 189.822 167.018 189.267 166.92C188.712 166.82 188.185 166.637 187.686 166.37C187.193 166.107 186.851 165.825 186.659 165.525C186.468 165.224 186.434 164.928 186.554 164.637C186.677 164.345 186.961 164.078 187.407 163.838C187.678 163.692 187.986 163.575 188.33 163.486C188.674 163.397 189.043 163.349 189.437 163.343C189.832 163.337 190.24 163.385 190.664 163.486C191.086 163.586 191.515 163.753 191.951 163.986L192.283 164.164L188.465 166.22L187.764 165.844L190.665 164.282C190.419 164.15 190.151 164.061 189.861 164.013C189.569 163.964 189.277 163.959 188.985 163.997C188.695 164.035 188.429 164.118 188.187 164.248C187.924 164.39 187.76 164.548 187.693 164.723C187.627 164.895 187.644 165.065 187.744 165.233C187.844 165.399 188.015 165.546 188.255 165.674L188.803 165.967C189.124 166.139 189.454 166.255 189.792 166.315C190.132 166.374 190.464 166.38 190.787 166.334C191.108 166.286 191.405 166.189 191.678 166.042C191.855 165.947 191.992 165.846 192.088 165.741C192.181 165.635 192.23 165.525 192.234 165.413C192.238 165.301 192.193 165.19 192.099 165.079L193.144 164.688C193.334 164.866 193.435 165.057 193.448 165.261C193.461 165.462 193.384 165.666 193.217 165.872C193.051 166.076 192.793 166.272 192.442 166.461ZM197.423 163.776C197.035 163.985 196.59 164.118 196.087 164.176C195.585 164.231 195.062 164.207 194.52 164.102C193.977 163.996 193.446 163.803 192.926 163.525C192.406 163.247 192.048 162.963 191.852 162.672C191.657 162.38 191.614 162.1 191.722 161.831C191.83 161.562 192.077 161.324 192.463 161.116C192.761 160.955 193.051 160.853 193.332 160.809C193.614 160.763 193.87 160.748 194.102 160.764C194.336 160.78 194.531 160.799 194.687 160.822L194.743 160.792L192.361 159.517L193.295 159.014L199.708 162.444L198.795 162.936L198.047 162.536L197.969 162.578C198.015 162.663 198.05 162.769 198.076 162.897C198.103 163.023 198.074 163.162 197.989 163.313C197.903 163.465 197.715 163.619 197.423 163.776ZM196.831 163.238C197.1 163.093 197.256 162.933 197.299 162.757C197.343 162.579 197.285 162.396 197.127 162.208C196.97 162.019 196.722 161.834 196.384 161.653C196.05 161.474 195.71 161.344 195.364 161.261C195.017 161.179 194.681 161.15 194.356 161.176C194.031 161.201 193.731 161.287 193.458 161.434C193.177 161.585 193.015 161.751 192.974 161.93C192.933 162.109 192.99 162.292 193.147 162.479C193.306 162.664 193.544 162.842 193.861 163.012C194.182 163.184 194.52 163.312 194.872 163.398C195.225 163.484 195.57 163.516 195.908 163.496C196.246 163.473 196.553 163.387 196.831 163.238Z" fill="url(#paint20_linear_237_205)"/>
</g>
</g>
<rect x="0.881125" y="-0.0012068" width="151.508" height="33" rx="8.5" transform="matrix(0.880477 -0.474088 0.881773 0.471674 131.969 179.517)" stroke="url(#paint21_linear_237_205)"/>
</g>
<g filter="url(#filter6_d_237_205)">
<g clip-path="url(#clip2_237_205)">
<path d="M220.534 191.578C216.151 189.233 216.146 185.422 220.522 183.066L353.474 111.478C357.851 109.122 364.952 109.112 369.335 111.457L383.443 119.004C387.826 121.348 387.831 125.159 383.455 127.515L250.503 199.103C246.126 201.459 239.025 201.469 234.642 199.124L220.534 191.578Z" fill="url(#paint22_linear_237_205)"/>
<g filter="url(#filter7_di_237_205)">
<rect width="68" height="30" rx="8" transform="matrix(0.880477 -0.474088 0.881773 0.471674 216.122 187.328)" fill="url(#paint23_linear_237_205)" shape-rendering="crispEdges"/>
<path d="M250.621 186.735L248.548 187.851L242.135 184.421L244.274 183.269C244.901 182.931 245.568 182.71 246.275 182.605C246.98 182.499 247.691 182.509 248.409 182.636C249.127 182.76 249.819 183 250.485 183.356C251.153 183.714 251.605 184.086 251.841 184.475C252.079 184.862 252.099 185.248 251.899 185.633C251.697 186.018 251.271 186.385 250.621 186.735ZM248.668 186.879L249.722 186.311C250.21 186.049 250.524 185.781 250.663 185.509C250.8 185.236 250.774 184.962 250.584 184.688C250.391 184.413 250.041 184.14 249.534 183.868C249.031 183.599 248.524 183.414 248.013 183.313C247.504 183.21 247.001 183.196 246.505 183.268C246.008 183.34 245.527 183.502 245.06 183.753L243.946 184.353L248.668 186.879ZM257.082 183.36C256.609 183.615 256.1 183.78 255.556 183.856C255.011 183.929 254.462 183.917 253.907 183.82C253.352 183.72 252.825 183.536 252.326 183.269C251.833 183.006 251.491 182.724 251.298 182.424C251.108 182.123 251.073 181.827 251.194 181.536C251.316 181.244 251.601 180.977 252.047 180.737C252.318 180.591 252.625 180.474 252.97 180.385C253.314 180.296 253.683 180.249 254.077 180.242C254.471 180.236 254.88 180.284 255.304 180.385C255.725 180.485 256.154 180.652 256.59 180.886L256.922 181.063L253.105 183.119L252.403 182.744L255.305 181.181C255.059 181.049 254.79 180.96 254.5 180.912C254.208 180.863 253.916 180.858 253.624 180.896C253.334 180.934 253.068 181.017 252.827 181.148C252.564 181.289 252.399 181.447 252.333 181.622C252.266 181.794 252.283 181.965 252.384 182.132C252.484 182.298 252.654 182.445 252.894 182.573L253.442 182.866C253.764 183.038 254.093 183.154 254.431 183.214C254.772 183.273 255.103 183.279 255.427 183.233C255.748 183.186 256.045 183.088 256.318 182.941C256.495 182.846 256.632 182.746 256.727 182.64C256.821 182.534 256.87 182.425 256.874 182.313C256.878 182.201 256.833 182.089 256.739 181.979L257.784 181.588C257.974 181.765 258.075 181.956 258.088 182.16C258.101 182.361 258.024 182.565 257.857 182.771C257.691 182.975 257.432 183.172 257.082 183.36ZM260.134 177.71L259.437 178.247C259.293 178.208 259.133 178.183 258.958 178.172C258.785 178.16 258.603 178.172 258.411 178.208C258.219 178.244 258.026 178.314 257.832 178.419C257.567 178.561 257.406 178.712 257.348 178.871C257.287 179.029 257.35 179.158 257.536 179.257C257.697 179.343 257.886 179.38 258.103 179.369C258.319 179.357 258.592 179.297 258.919 179.188L259.857 178.871C260.401 178.688 260.888 178.595 261.318 178.592C261.748 178.589 262.133 178.679 262.473 178.861C262.761 179.015 262.935 179.197 262.993 179.408C263.052 179.616 262.997 179.834 262.828 180.061C262.662 180.287 262.385 180.505 261.997 180.714C261.459 181.003 260.905 181.178 260.336 181.238C259.765 181.297 259.227 181.234 258.724 181.047L259.49 180.487C259.782 180.583 260.077 180.616 260.373 180.587C260.667 180.556 260.955 180.465 261.236 180.313C261.542 180.148 261.724 179.983 261.78 179.816C261.834 179.648 261.768 179.514 261.582 179.415C261.432 179.334 261.249 179.297 261.034 179.303C260.822 179.308 260.574 179.358 260.293 179.453L259.302 179.796C258.751 179.982 258.257 180.073 257.819 180.07C257.383 180.065 256.994 179.971 256.651 179.787C256.367 179.636 256.198 179.46 256.144 179.261C256.089 179.062 256.142 178.855 256.302 178.641C256.461 178.426 256.72 178.221 257.081 178.027C257.6 177.747 258.121 177.588 258.644 177.548C259.166 177.507 259.662 177.561 260.134 177.71ZM264.979 179.004L260.17 176.431L261.104 175.928L265.914 178.5L264.979 179.004ZM259.9 175.78C259.737 175.867 259.543 175.913 259.318 175.918C259.093 175.921 258.904 175.881 258.751 175.8C258.597 175.717 258.523 175.616 258.529 175.496C258.535 175.374 258.619 175.269 258.782 175.182C258.944 175.094 259.138 175.049 259.364 175.047C259.589 175.042 259.779 175.081 259.933 175.163C260.086 175.245 260.159 175.347 260.153 175.469C260.147 175.589 260.062 175.692 259.9 175.78ZM271.177 177.71C270.796 177.915 270.417 178.065 270.042 178.16C269.669 178.253 269.313 178.302 268.975 178.307C268.637 178.312 268.328 178.285 268.046 178.226L268.518 177.616C268.666 177.635 268.838 177.646 269.034 177.651C269.234 177.655 269.452 177.633 269.688 177.584C269.926 177.535 270.174 177.44 270.432 177.301C270.786 177.11 270.993 176.906 271.051 176.689C271.111 176.473 270.953 176.264 270.577 176.063L269.632 175.557L269.572 175.589C269.618 175.674 269.651 175.779 269.67 175.903C269.691 176.026 269.656 176.162 269.564 176.31C269.472 176.458 269.28 176.611 268.986 176.769C268.606 176.973 268.176 177.11 267.694 177.179C267.212 177.246 266.708 177.233 266.183 177.142C265.657 177.049 265.138 176.866 264.627 176.592C264.115 176.318 263.763 176.037 263.571 175.749C263.381 175.459 263.341 175.18 263.451 174.913C263.559 174.644 263.806 174.406 264.192 174.198C264.49 174.038 264.781 173.935 265.064 173.89C265.346 173.843 265.603 173.828 265.837 173.843C266.073 173.857 266.269 173.876 266.425 173.899L266.494 173.862L265.715 173.445L266.631 172.952L271.547 175.582C271.96 175.803 272.203 176.036 272.277 176.281C272.35 176.526 272.287 176.771 272.087 177.015C271.889 177.258 271.586 177.49 271.177 177.71ZM268.416 176.243C268.684 176.098 268.849 175.942 268.909 175.775C268.97 175.606 268.93 175.432 268.79 175.255C268.65 175.075 268.414 174.896 268.082 174.718C267.758 174.545 267.425 174.419 267.083 174.338C266.741 174.258 266.408 174.231 266.085 174.258C265.759 174.283 265.46 174.369 265.187 174.516C264.906 174.667 264.744 174.833 264.703 175.012C264.659 175.19 264.714 175.371 264.866 175.556C265.021 175.739 265.252 175.913 265.559 176.077C265.874 176.246 266.198 176.368 266.532 176.443C266.866 176.519 267.194 176.542 267.515 176.513C267.838 176.482 268.138 176.392 268.416 176.243ZM270.861 172.771L273.717 174.299L272.782 174.802L267.973 172.229L268.87 171.746L269.653 172.165L269.712 172.133C269.568 171.937 269.536 171.735 269.617 171.525C269.701 171.315 269.922 171.112 270.283 170.918C270.61 170.742 270.966 170.624 271.35 170.566C271.731 170.506 272.124 170.512 272.529 170.583C272.934 170.654 273.335 170.795 273.731 171.007L276.791 172.644L275.856 173.147L272.909 171.571C272.561 171.385 272.197 171.288 271.82 171.28C271.44 171.272 271.092 171.353 270.775 171.524C270.558 171.64 270.412 171.769 270.338 171.911C270.265 172.051 270.27 172.196 270.354 172.345C270.437 172.493 270.607 172.635 270.861 172.771Z" fill="url(#paint24_linear_237_205)"/>
<path d="M250.621 186.735L248.548 187.851L242.135 184.421L244.274 183.269C244.901 182.931 245.568 182.71 246.275 182.605C246.98 182.499 247.691 182.509 248.409 182.636C249.127 182.76 249.819 183 250.485 183.356C251.153 183.714 251.605 184.086 251.841 184.475C252.079 184.862 252.099 185.248 251.899 185.633C251.697 186.018 251.271 186.385 250.621 186.735ZM248.668 186.879L249.722 186.311C250.21 186.049 250.524 185.781 250.663 185.509C250.8 185.236 250.774 184.962 250.584 184.688C250.391 184.413 250.041 184.14 249.534 183.868C249.031 183.599 248.524 183.414 248.013 183.313C247.504 183.21 247.001 183.196 246.505 183.268C246.008 183.34 245.527 183.502 245.06 183.753L243.946 184.353L248.668 186.879ZM257.082 183.36C256.609 183.615 256.1 183.78 255.556 183.856C255.011 183.929 254.462 183.917 253.907 183.82C253.352 183.72 252.825 183.536 252.326 183.269C251.833 183.006 251.491 182.724 251.298 182.424C251.108 182.123 251.073 181.827 251.194 181.536C251.316 181.244 251.601 180.977 252.047 180.737C252.318 180.591 252.625 180.474 252.97 180.385C253.314 180.296 253.683 180.249 254.077 180.242C254.471 180.236 254.88 180.284 255.304 180.385C255.725 180.485 256.154 180.652 256.59 180.886L256.922 181.063L253.105 183.119L252.403 182.744L255.305 181.181C255.059 181.049 254.79 180.96 254.5 180.912C254.208 180.863 253.916 180.858 253.624 180.896C253.334 180.934 253.068 181.017 252.827 181.148C252.564 181.289 252.399 181.447 252.333 181.622C252.266 181.794 252.283 181.965 252.384 182.132C252.484 182.298 252.654 182.445 252.894 182.573L253.442 182.866C253.764 183.038 254.093 183.154 254.431 183.214C254.772 183.273 255.103 183.279 255.427 183.233C255.748 183.186 256.045 183.088 256.318 182.941C256.495 182.846 256.632 182.746 256.727 182.64C256.821 182.534 256.87 182.425 256.874 182.313C256.878 182.201 256.833 182.089 256.739 181.979L257.784 181.588C257.974 181.765 258.075 181.956 258.088 182.16C258.101 182.361 258.024 182.565 257.857 182.771C257.691 182.975 257.432 183.172 257.082 183.36ZM260.134 177.71L259.437 178.247C259.293 178.208 259.133 178.183 258.958 178.172C258.785 178.16 258.603 178.172 258.411 178.208C258.219 178.244 258.026 178.314 257.832 178.419C257.567 178.561 257.406 178.712 257.348 178.871C257.287 179.029 257.35 179.158 257.536 179.257C257.697 179.343 257.886 179.38 258.103 179.369C258.319 179.357 258.592 179.297 258.919 179.188L259.857 178.871C260.401 178.688 260.888 178.595 261.318 178.592C261.748 178.589 262.133 178.679 262.473 178.861C262.761 179.015 262.935 179.197 262.993 179.408C263.052 179.616 262.997 179.834 262.828 180.061C262.662 180.287 262.385 180.505 261.997 180.714C261.459 181.003 260.905 181.178 260.336 181.238C259.765 181.297 259.227 181.234 258.724 181.047L259.49 180.487C259.782 180.583 260.077 180.616 260.373 180.587C260.667 180.556 260.955 180.465 261.236 180.313C261.542 180.148 261.724 179.983 261.78 179.816C261.834 179.648 261.768 179.514 261.582 179.415C261.432 179.334 261.249 179.297 261.034 179.303C260.822 179.308 260.574 179.358 260.293 179.453L259.302 179.796C258.751 179.982 258.257 180.073 257.819 180.07C257.383 180.065 256.994 179.971 256.651 179.787C256.367 179.636 256.198 179.46 256.144 179.261C256.089 179.062 256.142 178.855 256.302 178.641C256.461 178.426 256.72 178.221 257.081 178.027C257.6 177.747 258.121 177.588 258.644 177.548C259.166 177.507 259.662 177.561 260.134 177.71ZM264.979 179.004L260.17 176.431L261.104 175.928L265.914 178.5L264.979 179.004ZM259.9 175.78C259.737 175.867 259.543 175.913 259.318 175.918C259.093 175.921 258.904 175.881 258.751 175.8C258.597 175.717 258.523 175.616 258.529 175.496C258.535 175.374 258.619 175.269 258.782 175.182C258.944 175.094 259.138 175.049 259.364 175.047C259.589 175.042 259.779 175.081 259.933 175.163C260.086 175.245 260.159 175.347 260.153 175.469C260.147 175.589 260.062 175.692 259.9 175.78ZM271.177 177.71C270.796 177.915 270.417 178.065 270.042 178.16C269.669 178.253 269.313 178.302 268.975 178.307C268.637 178.312 268.328 178.285 268.046 178.226L268.518 177.616C268.666 177.635 268.838 177.646 269.034 177.651C269.234 177.655 269.452 177.633 269.688 177.584C269.926 177.535 270.174 177.44 270.432 177.301C270.786 177.11 270.993 176.906 271.051 176.689C271.111 176.473 270.953 176.264 270.577 176.063L269.632 175.557L269.572 175.589C269.618 175.674 269.651 175.779 269.67 175.903C269.691 176.026 269.656 176.162 269.564 176.31C269.472 176.458 269.28 176.611 268.986 176.769C268.606 176.973 268.176 177.11 267.694 177.179C267.212 177.246 266.708 177.233 266.183 177.142C265.657 177.049 265.138 176.866 264.627 176.592C264.115 176.318 263.763 176.037 263.571 175.749C263.381 175.459 263.341 175.18 263.451 174.913C263.559 174.644 263.806 174.406 264.192 174.198C264.49 174.038 264.781 173.935 265.064 173.89C265.346 173.843 265.603 173.828 265.837 173.843C266.073 173.857 266.269 173.876 266.425 173.899L266.494 173.862L265.715 173.445L266.631 172.952L271.547 175.582C271.96 175.803 272.203 176.036 272.277 176.281C272.35 176.526 272.287 176.771 272.087 177.015C271.889 177.258 271.586 177.49 271.177 177.71ZM268.416 176.243C268.684 176.098 268.849 175.942 268.909 175.775C268.97 175.606 268.93 175.432 268.79 175.255C268.65 175.075 268.414 174.896 268.082 174.718C267.758 174.545 267.425 174.419 267.083 174.338C266.741 174.258 266.408 174.231 266.085 174.258C265.759 174.283 265.46 174.369 265.187 174.516C264.906 174.667 264.744 174.833 264.703 175.012C264.659 175.19 264.714 175.371 264.866 175.556C265.021 175.739 265.252 175.913 265.559 176.077C265.874 176.246 266.198 176.368 266.532 176.443C266.866 176.519 267.194 176.542 267.515 176.513C267.838 176.482 268.138 176.392 268.416 176.243ZM270.861 172.771L273.717 174.299L272.782 174.802L267.973 172.229L268.87 171.746L269.653 172.165L269.712 172.133C269.568 171.937 269.536 171.735 269.617 171.525C269.701 171.315 269.922 171.112 270.283 170.918C270.61 170.742 270.966 170.624 271.35 170.566C271.731 170.506 272.124 170.512 272.529 170.583C272.934 170.654 273.335 170.795 273.731 171.007L276.791 172.644L275.856 173.147L272.909 171.571C272.561 171.385 272.197 171.288 271.82 171.28C271.44 171.272 271.092 171.353 270.775 171.524C270.558 171.64 270.412 171.769 270.338 171.911C270.265 172.051 270.27 172.196 270.354 172.345C270.437 172.493 270.607 172.635 270.861 172.771Z" fill="url(#paint25_linear_237_205)"/>
</g>
</g>
<path d="M220.963 183.302L353.915 111.714C358.049 109.489 364.755 109.48 368.894 111.694L383.003 119.241C387.142 121.455 387.147 125.054 383.014 127.28L250.062 198.867C245.928 201.092 239.222 201.102 235.083 198.887L220.974 191.341C216.835 189.126 216.83 185.527 220.963 183.302Z" stroke="url(#paint26_linear_237_205)"/>
</g>
<g filter="url(#filter8_d_237_205)">
<g clip-path="url(#clip3_237_205)">
<path d="M120.936 97.5014C116.553 95.1569 116.548 91.346 120.924 88.9896L319.13 -17.7332C323.507 -20.0897 330.607 -20.0994 334.99 -17.7549L349.099 -10.2081C353.482 -7.86366 353.487 -4.05277 349.11 -1.69629L150.905 105.026C146.528 107.383 139.427 107.393 135.044 105.048L120.936 97.5014Z" fill="url(#paint27_linear_237_205)"/>
<g filter="url(#filter9_di_237_205)">
<rect width="77" height="30" rx="8" transform="matrix(0.880477 -0.474088 0.881773 0.471674 116.525 93.2515)" fill="url(#paint28_linear_237_205)" shape-rendering="crispEdges"/>
<path d="M149.491 93.4837L148.465 94.0359L144.357 89.3648L145.473 88.7637L154.19 90.9533L153.165 91.5055L146.106 89.673L146.056 89.7L149.491 93.4837ZM147.151 92.0478L150.478 90.2565L151.292 90.692L147.966 92.4833L147.151 92.0478ZM153.207 88.4174L156.063 89.945L155.128 90.4484L150.318 87.8756L151.216 87.3925L151.998 87.8112L152.058 87.7792C151.914 87.5835 151.882 87.3809 151.963 87.1715C152.046 86.9609 152.268 86.7585 152.629 86.5643C152.956 86.3881 153.312 86.2706 153.695 86.2119C154.077 86.152 154.47 86.1577 154.875 86.2288C155.28 86.2998 155.68 86.4415 156.077 86.6536L159.136 88.2901L158.201 88.7935L155.255 87.2173C154.906 87.0308 154.543 86.9339 154.166 86.9266C153.786 86.9182 153.438 86.9993 153.121 87.1699C152.904 87.2866 152.758 87.4155 152.683 87.5567C152.61 87.6967 152.616 87.8417 152.7 87.9916C152.783 88.1393 152.952 88.2812 153.207 88.4174ZM161.982 86.872C161.678 87.0359 161.346 87.1539 160.988 87.226C160.627 87.297 160.266 87.3132 159.905 87.2745C159.546 87.2347 159.209 87.1305 158.894 86.9619C158.623 86.8167 158.451 86.6692 158.38 86.5192C158.309 86.3693 158.311 86.2193 158.386 86.0692C158.461 85.9191 158.582 85.7711 158.748 85.6254C158.915 85.4796 159.098 85.3383 159.298 85.2014C159.553 85.0287 159.759 84.8885 159.917 84.7808C160.074 84.672 160.167 84.5823 160.199 84.5117C160.23 84.4411 160.189 84.3757 160.076 84.3154L160.054 84.3037C159.781 84.1574 159.492 84.0856 159.187 84.0882C158.885 84.0898 158.583 84.1719 158.28 84.3346C157.966 84.5041 157.787 84.6751 157.746 84.8476C157.704 85.0178 157.734 85.1666 157.834 85.2941L156.755 85.66C156.567 85.4475 156.483 85.2394 156.504 85.0357C156.525 84.8296 156.625 84.6341 156.807 84.4492C156.986 84.2631 157.22 84.092 157.51 83.936C157.702 83.8328 157.928 83.7356 158.189 83.6446C158.449 83.5513 158.733 83.486 159.039 83.4486C159.348 83.4101 159.674 83.4175 160.016 83.4708C160.356 83.523 160.701 83.6428 161.052 83.8304L164.246 85.5389L163.333 86.0305L162.675 85.6788L162.638 85.699C162.698 85.7963 162.727 85.9087 162.723 86.0364C162.719 86.164 162.66 86.2995 162.548 86.443C162.436 86.5865 162.247 86.7294 161.982 86.872ZM161.434 86.3606C161.692 86.2214 161.862 86.0751 161.943 85.9216C162.027 85.767 162.034 85.6197 161.965 85.4799C161.896 85.3378 161.766 85.216 161.576 85.1143L160.956 84.7827C160.956 84.8185 160.923 84.8701 160.856 84.9373C160.79 85.0024 160.706 85.073 160.606 85.1493C160.504 85.2244 160.404 85.2973 160.306 85.368C160.206 85.4375 160.123 85.4959 160.056 85.543C159.898 85.6529 159.771 85.7628 159.675 85.8726C159.581 85.9813 159.541 86.0872 159.553 86.1902C159.566 86.2909 159.656 86.3859 159.823 86.4753C160.054 86.5992 160.315 86.647 160.605 86.6186C160.893 86.5891 161.169 86.5031 161.434 86.3606ZM160.101 80.8873L166.514 84.3176L165.579 84.821L159.166 81.3907L160.101 80.8873ZM167.86 83.593L163.05 81.0203L163.985 80.5169L168.795 83.0896L167.86 83.593ZM162.78 80.3691C162.617 80.4566 162.424 80.5028 162.198 80.5076C161.973 80.5101 161.784 80.4706 161.632 80.3891C161.477 80.3065 161.403 80.2053 161.409 80.0855C161.415 79.9634 161.5 79.8586 161.662 79.7711C161.825 79.6836 162.019 79.6385 162.244 79.636C162.469 79.6312 162.659 79.6701 162.814 79.7527C162.966 79.8342 163.039 79.936 163.033 80.0581C163.027 80.1779 162.943 80.2815 162.78 80.3691ZM167.573 78.5852L168.324 78.9871L165.701 80.3996L164.949 79.9977L167.573 78.5852ZM164.5 79.0025L165.435 78.4991L169.985 80.9328C170.167 81.03 170.331 81.0885 170.477 81.1085C170.621 81.1273 170.752 81.1226 170.871 81.0945C170.99 81.0641 171.1 81.0214 171.202 80.9664C171.277 80.926 171.338 80.8879 171.384 80.852C171.429 80.8161 171.465 80.7881 171.49 80.7679L172.432 81.0907C172.399 81.131 172.343 81.1837 172.263 81.2488C172.186 81.3149 172.074 81.389 171.926 81.4709C171.684 81.6056 171.411 81.7056 171.106 81.7709C170.802 81.8363 170.488 81.8529 170.165 81.8209C169.841 81.7889 169.535 81.6953 169.244 81.5401L164.5 79.0025ZM173.504 80.5537L168.695 77.9809L169.63 77.4775L174.439 80.0503L173.504 80.5537ZM168.425 77.3297C168.262 77.4173 168.068 77.4634 167.843 77.4682C167.618 77.4708 167.429 77.4313 167.276 77.3498C167.122 77.2671 167.048 77.1659 167.054 77.0461C167.06 76.9241 167.144 76.8193 167.307 76.7318C167.469 76.6442 167.663 76.5992 167.889 76.5966C168.114 76.5918 168.304 76.6308 168.458 76.7134C168.611 76.7949 168.684 76.8967 168.678 77.0187C168.672 77.1385 168.587 77.2422 168.425 77.3297ZM177.905 78.2883C177.44 78.5386 176.935 78.6977 176.388 78.7657C175.842 78.8313 175.292 78.8125 174.739 78.7091C174.186 78.6058 173.669 78.4251 173.186 78.1672C172.698 77.9059 172.359 77.6259 172.168 77.3273C171.976 77.0275 171.941 76.7314 172.064 76.4391C172.187 76.1467 172.474 75.8788 172.926 75.6352C173.291 75.4388 173.684 75.3 174.105 75.2188C174.525 75.1365 174.943 75.113 175.36 75.1482C175.779 75.1824 176.168 75.277 176.524 75.4321L175.615 75.922C175.339 75.8284 175.03 75.7863 174.688 75.7957C174.348 75.804 174.029 75.8884 173.731 76.0489C173.471 76.1892 173.311 76.3489 173.253 76.5281C173.195 76.7051 173.238 76.8903 173.382 77.0838C173.524 77.2761 173.766 77.4639 174.109 77.647C174.459 77.8346 174.815 77.9679 175.176 78.0469C175.537 78.1259 175.885 78.1506 176.218 78.121C176.554 78.0904 176.854 78.0037 177.119 77.8612C177.296 77.7658 177.424 77.6621 177.504 77.55C177.583 77.4357 177.61 77.3193 177.584 77.2006C177.561 77.0809 177.483 76.964 177.349 76.85L178.259 76.3601C178.537 76.5444 178.713 76.7473 178.789 76.9689C178.864 77.1905 178.83 77.415 178.686 77.6424C178.545 77.8688 178.284 78.0841 177.905 78.2883ZM182.373 75.8928C182.069 76.0566 181.737 76.1746 181.378 76.2468C181.018 76.3178 180.657 76.334 180.296 76.2953C179.937 76.2555 179.6 76.1513 179.285 75.9827C179.013 75.8375 178.842 75.6899 178.771 75.54C178.7 75.3901 178.702 75.2401 178.777 75.09C178.851 74.9399 178.972 74.7919 179.139 74.6462C179.306 74.5004 179.489 74.3591 179.689 74.2222C179.943 74.0495 180.15 73.9092 180.308 73.8016C180.464 73.6928 180.558 73.6031 180.589 73.5325C180.62 73.4619 180.58 73.3965 180.467 73.3362L180.445 73.3245C180.172 73.1782 179.883 73.1064 179.578 73.109C179.276 73.1106 178.973 73.1927 178.671 73.3554C178.356 73.5249 178.178 73.6959 178.137 73.8683C178.095 74.0386 178.124 74.1874 178.225 74.3149L177.146 74.6808C176.958 74.4683 176.874 74.2602 176.895 74.0564C176.915 73.8504 177.016 73.6549 177.197 73.47C177.376 73.2839 177.611 73.1128 177.901 72.9568C178.092 72.8536 178.319 72.7564 178.579 72.6654C178.84 72.5721 179.123 72.5068 179.43 72.4694C179.739 72.4309 180.064 72.4383 180.406 72.4916C180.746 72.5437 181.092 72.6636 181.443 72.8512L184.636 74.5597L183.723 75.0513L183.066 74.6995L183.028 74.7198C183.089 74.8171 183.117 74.9295 183.113 75.0572C183.109 75.1848 183.051 75.3203 182.939 75.4638C182.826 75.6072 182.638 75.7502 182.373 75.8928ZM181.825 75.3814C182.083 75.2422 182.253 75.0958 182.334 74.9424C182.417 74.7878 182.424 74.6405 182.355 74.5007C182.286 74.3586 182.157 74.2368 181.967 74.1351L181.347 73.8035C181.347 73.8393 181.314 73.8909 181.247 73.9581C181.18 74.0231 181.097 74.0938 180.997 74.1701C180.895 74.2452 180.795 74.3181 180.697 74.3888C180.597 74.4583 180.513 74.5166 180.447 74.5638C180.288 74.6737 180.161 74.7836 180.065 74.8934C179.972 75.0021 179.931 75.108 179.944 75.211C179.956 75.3117 180.046 75.4067 180.213 75.4961C180.445 75.62 180.706 75.6678 180.996 75.6394C181.284 75.6099 181.56 75.5239 181.825 75.3814Z" fill="url(#paint29_linear_237_205)"/>
</g>
</g>
<path d="M121.365 89.2254L319.571 -17.4972C323.704 -19.7227 330.41 -19.7319 334.55 -17.5177L348.658 -9.9709C352.798 -7.75666 352.802 -4.15749 348.669 -1.93192L150.464 104.791C146.33 107.016 139.624 107.025 135.485 104.811L121.376 97.2644C117.237 95.0501 117.232 91.451 121.365 89.2254Z" stroke="url(#paint30_linear_237_205)"/>
</g>
<g filter="url(#filter10_di_237_205)">
<path d="M104.559 180.077C103.56 180.544 103.432 182.026 104.503 182.559L104.815 182.714C109.583 185.084 114.561 187.006 119.684 188.456C120.905 188.802 121.873 187.408 121.168 186.381L118.253 182.127C117.974 181.721 117.984 181.149 118.311 180.719L121.521 176.507C122.258 175.54 121.438 174.045 120.136 174.389C114.897 175.777 109.791 177.63 104.882 179.926L104.559 180.077Z" fill="url(#paint31_linear_237_205)"/>
<path d="M104.614 182.336C103.808 181.935 103.826 180.842 104.518 180.386L104.665 180.303L104.988 180.153C109.578 178.006 114.339 176.247 119.222 174.896L120.201 174.631C120.735 174.49 121.156 174.721 121.379 175.086C121.579 175.413 121.615 175.839 121.42 176.204L121.323 176.355L121.322 176.356L118.112 180.567L118.043 180.666C117.743 181.133 117.727 181.717 117.987 182.172L118.047 182.268L120.962 186.522C121.521 187.336 120.79 188.425 119.844 188.238L119.752 188.215C114.963 186.86 110.301 185.091 105.82 182.928L104.926 182.49L104.614 182.336Z" stroke="#BCBCBC" stroke-width="0.5"/>
</g>
<path d="M437 -35L280 49.5" stroke="url(#paint32_linear_237_205)"/>
<path d="M439 115L282 199.5" stroke="url(#paint33_linear_237_205)"/>
<path d="M257 -22L-31 129.5" stroke="url(#paint34_linear_237_205)"/>
<g filter="url(#filter11_d_237_205)">
<circle cx="279.5" cy="49.5" r="1.5" fill="#B6B6B6"/>
</g>
<g filter="url(#filter12_d_237_205)">
<circle cx="281.5" cy="199.5" r="1.5" fill="#B6B6B6"/>
</g>
<g filter="url(#filter13_d_237_205)">
<circle cx="36.5" cy="66.5" r="1.5" fill="#D9D9D9"/>
</g>
<g filter="url(#filter14_d_237_205)">
<circle cx="167.5" cy="10.5" r="2.5" fill="#D9D9D9"/>
</g>
<defs>
<filter id="filter0_f_237_205" x="-61.8679" y="49.3896" width="326.815" height="258.45" filterUnits="userSpaceOnUse" color-interpolation-filters="sRGB">
<feFlood flood-opacity="0" result="BackgroundImageFix"/>
<feBlend mode="normal" in="SourceGraphic" in2="BackgroundImageFix" result="shape"/>
<feGaussianBlur stdDeviation="42" result="effect1_foregroundBlur_237_205"/>
</filter>
<filter id="filter1_d_237_205" x="212.827" y="208" width="59.5811" height="61.2351" filterUnits="userSpaceOnUse" color-interpolation-filters="sRGB">
<feFlood flood-opacity="0" result="BackgroundImageFix"/>
<feColorMatrix in="SourceAlpha" type="matrix" values="0 0 0 0 0 0 0 0 0 0 0 0 0 0 0 0 0 0 127 0" result="hardAlpha"/>
<feOffset/>
<feGaussianBlur stdDeviation="13.5"/>
<feComposite in2="hardAlpha" operator="out"/>
<feColorMatrix type="matrix" values="0 0 0 0 1 0 0 0 0 1 0 0 0 0 1 0 0 0 1 0"/>
<feBlend mode="normal" in2="BackgroundImageFix" result="effect1_dropShadow_237_205"/>
<feBlend mode="normal" in="SourceGraphic" in2="effect1_dropShadow_237_205" result="shape"/>
</filter>
<filter id="filter2_d_237_205" x="3.19513" y="107.369" width="208.781" height="126.158" filterUnits="userSpaceOnUse" color-interpolation-filters="sRGB">
<feFlood flood-opacity="0" result="BackgroundImageFix"/>
<feColorMatrix in="SourceAlpha" type="matrix" values="0 0 0 0 0 0 0 0 0 0 0 0 0 0 0 0 0 0 127 0" result="hardAlpha"/>
<feOffset dx="2" dy="9"/>
<feGaussianBlur stdDeviation="7.5"/>
<feComposite in2="hardAlpha" operator="out"/>
<feColorMatrix type="matrix" values="0 0 0 0 0 0 0 0 0 0 0 0 0 0 0 0 0 0 0.37 0"/>
<feBlend mode="normal" in2="BackgroundImageFix" result="effect1_dropShadow_237_205"/>
<feBlend mode="normal" in="SourceGraphic" in2="effect1_dropShadow_237_205" result="shape"/>
</filter>
<filter id="filter3_di_237_205" x="8.71962" y="142.455" width="123.369" height="80.1809" filterUnits="userSpaceOnUse" color-interpolation-filters="sRGB">
<feFlood flood-opacity="0" result="BackgroundImageFix"/>
<feColorMatrix in="SourceAlpha" type="matrix" values="0 0 0 0 0 0 0 0 0 0 0 0 0 0 0 0 0 0 127 0" result="hardAlpha"/>
<feOffset dx="4"/>
<feGaussianBlur stdDeviation="7.5"/>
<feComposite in2="hardAlpha" operator="out"/>
<feColorMatrix type="matrix" values="0 0 0 0 0 0 0 0 0 0 0 0 0 0 0 0 0 0 0.3 0"/>
<feBlend mode="normal" in2="BackgroundImageFix" result="effect1_dropShadow_237_205"/>
<feBlend mode="normal" in="SourceGraphic" in2="effect1_dropShadow_237_205" result="shape"/>
<feColorMatrix in="SourceAlpha" type="matrix" values="0 0 0 0 0 0 0 0 0 0 0 0 0 0 0 0 0 0 127 0" result="hardAlpha"/>
<feOffset dx="3" dy="-1"/>
<feGaussianBlur stdDeviation="4"/>
<feComposite in2="hardAlpha" operator="arithmetic" k2="-1" k3="1"/>
<feColorMatrix type="matrix" values="0 0 0 0 0.639216 0 0 0 0 0.701961 0 0 0 0 1 0 0 0 1 0"/>
<feBlend mode="normal" in2="shape" result="effect2_innerShadow_237_205"/>
</filter>
<filter id="filter4_d_237_205" x="118.862" y="100.798" width="194.26" height="118.339" filterUnits="userSpaceOnUse" color-interpolation-filters="sRGB">
<feFlood flood-opacity="0" result="BackgroundImageFix"/>
<feColorMatrix in="SourceAlpha" type="matrix" values="0 0 0 0 0 0 0 0 0 0 0 0 0 0 0 0 0 0 127 0" result="hardAlpha"/>
<feOffset dx="2" dy="9"/>
<feGaussianBlur stdDeviation="7.5"/>
<feComposite in2="hardAlpha" operator="out"/>
<feColorMatrix type="matrix" values="0 0 0 0 0 0 0 0 0 0 0 0 0 0 0 0 0 0 0.37 0"/>
<feBlend mode="normal" in2="BackgroundImageFix" result="effect1_dropShadow_237_205"/>
<feBlend mode="normal" in="SourceGraphic" in2="effect1_dropShadow_237_205" result="shape"/>
</filter>
<filter id="filter5_di_237_205" x="124.387" y="129.961" width="119.848" height="78.2844" filterUnits="userSpaceOnUse" color-interpolation-filters="sRGB">
<feFlood flood-opacity="0" result="BackgroundImageFix"/>
<feColorMatrix in="SourceAlpha" type="matrix" values="0 0 0 0 0 0 0 0 0 0 0 0 0 0 0 0 0 0 127 0" result="hardAlpha"/>
<feOffset dx="4"/>
<feGaussianBlur stdDeviation="7.5"/>
<feComposite in2="hardAlpha" operator="out"/>
<feColorMatrix type="matrix" values="0 0 0 0 0 0 0 0 0 0 0 0 0 0 0 0 0 0 0.7 0"/>
<feBlend mode="normal" in2="BackgroundImageFix" result="effect1_dropShadow_237_205"/>
<feBlend mode="normal" in="SourceGraphic" in2="effect1_dropShadow_237_205" result="shape"/>
<feColorMatrix in="SourceAlpha" type="matrix" values="0 0 0 0 0 0 0 0 0 0 0 0 0 0 0 0 0 0 127 0" result="hardAlpha"/>
<feOffset dx="5" dy="-1"/>
<feGaussianBlur stdDeviation="4.5"/>
<feComposite in2="hardAlpha" operator="arithmetic" k2="-1" k3="1"/>
<feColorMatrix type="matrix" values="0 0 0 0 0.324098 0 0 0 0 0.324098 0 0 0 0 0.324098 0 0 0 0.4 0"/>
<feBlend mode="normal" in2="shape" result="effect2_innerShadow_237_205"/>
</filter>
<filter id="filter6_d_237_205" x="199.598" y="101.212" width="208.781" height="126.158" filterUnits="userSpaceOnUse" color-interpolation-filters="sRGB">
<feFlood flood-opacity="0" result="BackgroundImageFix"/>
<feColorMatrix in="SourceAlpha" type="matrix" values="0 0 0 0 0 0 0 0 0 0 0 0 0 0 0 0 0 0 127 0" result="hardAlpha"/>
<feOffset dx="2" dy="9"/>
<feGaussianBlur stdDeviation="7.5"/>
<feComposite in2="hardAlpha" operator="out"/>
<feColorMatrix type="matrix" values="0 0 0 0 0 0 0 0 0 0 0 0 0 0 0 0 0 0 0.37 0"/>
<feBlend mode="normal" in2="BackgroundImageFix" result="effect1_dropShadow_237_205"/>
<feBlend mode="normal" in="SourceGraphic" in2="effect1_dropShadow_237_205" result="shape"/>
</filter>
<filter id="filter7_di_237_205" x="205.122" y="140.09" width="116.326" height="76.3882" filterUnits="userSpaceOnUse" color-interpolation-filters="sRGB">
<feFlood flood-opacity="0" result="BackgroundImageFix"/>
<feColorMatrix in="SourceAlpha" type="matrix" values="0 0 0 0 0 0 0 0 0 0 0 0 0 0 0 0 0 0 127 0" result="hardAlpha"/>
<feOffset dx="4"/>
<feGaussianBlur stdDeviation="7.5"/>
<feComposite in2="hardAlpha" operator="out"/>
<feColorMatrix type="matrix" values="0 0 0 0 0 0 0 0 0 0 0 0 0 0 0 0 0 0 0.7 0"/>
<feBlend mode="normal" in2="BackgroundImageFix" result="effect1_dropShadow_237_205"/>
<feBlend mode="normal" in="SourceGraphic" in2="effect1_dropShadow_237_205" result="shape"/>
<feColorMatrix in="SourceAlpha" type="matrix" values="0 0 0 0 0 0 0 0 0 0 0 0 0 0 0 0 0 0 127 0" result="hardAlpha"/>
<feOffset dx="5" dy="-1"/>
<feGaussianBlur stdDeviation="4.5"/>
<feComposite in2="hardAlpha" operator="arithmetic" k2="-1" k3="1"/>
<feColorMatrix type="matrix" values="0 0 0 0 0.324098 0 0 0 0 0.324098 0 0 0 0 0.324098 0 0 0 0.4 0"/>
<feBlend mode="normal" in2="shape" result="effect2_innerShadow_237_205"/>
</filter>
<filter id="filter8_d_237_205" x="100" y="-28" width="274.035" height="161.293" filterUnits="userSpaceOnUse" color-interpolation-filters="sRGB">
<feFlood flood-opacity="0" result="BackgroundImageFix"/>
<feColorMatrix in="SourceAlpha" type="matrix" values="0 0 0 0 0 0 0 0 0 0 0 0 0 0 0 0 0 0 127 0" result="hardAlpha"/>
<feOffset dx="2" dy="9"/>
<feGaussianBlur stdDeviation="7.5"/>
<feComposite in2="hardAlpha" operator="out"/>
<feColorMatrix type="matrix" values="0 0 0 0 0 0 0 0 0 0 0 0 0 0 0 0 0 0 0.37 0"/>
<feBlend mode="normal" in2="BackgroundImageFix" result="effect1_dropShadow_237_205"/>
<feBlend mode="normal" in="SourceGraphic" in2="effect1_dropShadow_237_205" result="shape"/>
</filter>
<filter id="filter9_di_237_205" x="105.525" y="41.7466" width="124.25" height="80.655" filterUnits="userSpaceOnUse" color-interpolation-filters="sRGB">
<feFlood flood-opacity="0" result="BackgroundImageFix"/>
<feColorMatrix in="SourceAlpha" type="matrix" values="0 0 0 0 0 0 0 0 0 0 0 0 0 0 0 0 0 0 127 0" result="hardAlpha"/>
<feOffset dx="4"/>
<feGaussianBlur stdDeviation="7.5"/>
<feComposite in2="hardAlpha" operator="out"/>
<feColorMatrix type="matrix" values="0 0 0 0 0 0 0 0 0 0 0 0 0 0 0 0 0 0 0.7 0"/>
<feBlend mode="normal" in2="BackgroundImageFix" result="effect1_dropShadow_237_205"/>
<feBlend mode="normal" in="SourceGraphic" in2="effect1_dropShadow_237_205" result="shape"/>
<feColorMatrix in="SourceAlpha" type="matrix" values="0 0 0 0 0 0 0 0 0 0 0 0 0 0 0 0 0 0 127 0" result="hardAlpha"/>
<feOffset dx="5" dy="-1"/>
<feGaussianBlur stdDeviation="4.5"/>
<feComposite in2="hardAlpha" operator="arithmetic" k2="-1" k3="1"/>
<feColorMatrix type="matrix" values="0 0 0 0 0.324098 0 0 0 0 0.324098 0 0 0 0 0.324098 0 0 0 0.4 0"/>
<feBlend mode="normal" in2="shape" result="effect2_innerShadow_237_205"/>
</filter>
<filter id="filter10_di_237_205" x="93.7534" y="164.339" width="38.0457" height="34.1709" filterUnits="userSpaceOnUse" color-interpolation-filters="sRGB">
<feFlood flood-opacity="0" result="BackgroundImageFix"/>
<feColorMatrix in="SourceAlpha" type="matrix" values="0 0 0 0 0 0 0 0 0 0 0 0 0 0 0 0 0 0 127 0" result="hardAlpha"/>
<feOffset/>
<feGaussianBlur stdDeviation="5"/>
<feComposite in2="hardAlpha" operator="out"/>
<feColorMatrix type="matrix" values="0 0 0 0 0.639216 0 0 0 0 0.701961 0 0 0 0 1 0 0 0 0.3 0"/>
<feBlend mode="normal" in2="BackgroundImageFix" result="effect1_dropShadow_237_205"/>
<feBlend mode="normal" in="SourceGraphic" in2="effect1_dropShadow_237_205" result="shape"/>
<feColorMatrix in="SourceAlpha" type="matrix" values="0 0 0 0 0 0 0 0 0 0 0 0 0 0 0 0 0 0 127 0" result="hardAlpha"/>
<feOffset dx="3" dy="-1"/>
<feGaussianBlur stdDeviation="4"/>
<feComposite in2="hardAlpha" operator="arithmetic" k2="-1" k3="1"/>
<feColorMatrix type="matrix" values="0 0 0 0 0.639216 0 0 0 0 0.701961 0 0 0 0 1 0 0 0 1 0"/>
<feBlend mode="normal" in2="shape" result="effect2_innerShadow_237_205"/>
</filter>
<filter id="filter11_d_237_205" x="251" y="21" width="57" height="57" filterUnits="userSpaceOnUse" color-interpolation-filters="sRGB">
<feFlood flood-opacity="0" result="BackgroundImageFix"/>
<feColorMatrix in="SourceAlpha" type="matrix" values="0 0 0 0 0 0 0 0 0 0 0 0 0 0 0 0 0 0 127 0" result="hardAlpha"/>
<feOffset/>
<feGaussianBlur stdDeviation="13.5"/>
<feComposite in2="hardAlpha" operator="out"/>
<feColorMatrix type="matrix" values="0 0 0 0 1 0 0 0 0 1 0 0 0 0 1 0 0 0 1 0"/>
<feBlend mode="normal" in2="BackgroundImageFix" result="effect1_dropShadow_237_205"/>
<feBlend mode="normal" in="SourceGraphic" in2="effect1_dropShadow_237_205" result="shape"/>
</filter>
<filter id="filter12_d_237_205" x="253" y="171" width="57" height="57" filterUnits="userSpaceOnUse" color-interpolation-filters="sRGB">
<feFlood flood-opacity="0" result="BackgroundImageFix"/>
<feColorMatrix in="SourceAlpha" type="matrix" values="0 0 0 0 0 0 0 0 0 0 0 0 0 0 0 0 0 0 127 0" result="hardAlpha"/>
<feOffset/>
<feGaussianBlur stdDeviation="13.5"/>
<feComposite in2="hardAlpha" operator="out"/>
<feColorMatrix type="matrix" values="0 0 0 0 1 0 0 0 0 1 0 0 0 0 1 0 0 0 1 0"/>
<feBlend mode="normal" in2="BackgroundImageFix" result="effect1_dropShadow_237_205"/>
<feBlend mode="normal" in="SourceGraphic" in2="effect1_dropShadow_237_205" result="shape"/>
</filter>
<filter id="filter13_d_237_205" x="8" y="38" width="57" height="57" filterUnits="userSpaceOnUse" color-interpolation-filters="sRGB">
<feFlood flood-opacity="0" result="BackgroundImageFix"/>
<feColorMatrix in="SourceAlpha" type="matrix" values="0 0 0 0 0 0 0 0 0 0 0 0 0 0 0 0 0 0 127 0" result="hardAlpha"/>
<feOffset/>
<feGaussianBlur stdDeviation="13.5"/>
<feComposite in2="hardAlpha" operator="out"/>
<feColorMatrix type="matrix" values="0 0 0 0 1 0 0 0 0 1 0 0 0 0 1 0 0 0 1 0"/>
<feBlend mode="normal" in2="BackgroundImageFix" result="effect1_dropShadow_237_205"/>
<feBlend mode="normal" in="SourceGraphic" in2="effect1_dropShadow_237_205" result="shape"/>
</filter>
<filter id="filter14_d_237_205" x="138" y="-19" width="59" height="59" filterUnits="userSpaceOnUse" color-interpolation-filters="sRGB">
<feFlood flood-opacity="0" result="BackgroundImageFix"/>
<feColorMatrix in="SourceAlpha" type="matrix" values="0 0 0 0 0 0 0 0 0 0 0 0 0 0 0 0 0 0 127 0" result="hardAlpha"/>
<feOffset/>
<feGaussianBlur stdDeviation="13.5"/>
<feComposite in2="hardAlpha" operator="out"/>
<feColorMatrix type="matrix" values="0 0 0 0 1 0 0 0 0 1 0 0 0 0 1 0 0 0 1 0"/>
<feBlend mode="normal" in2="BackgroundImageFix" result="effect1_dropShadow_237_205"/>
<feBlend mode="normal" in="SourceGraphic" in2="effect1_dropShadow_237_205" result="shape"/>
</filter>
<linearGradient id="paint0_linear_237_205" x1="328.828" y1="275.507" x2="10.328" y2="98.5071" gradientUnits="userSpaceOnUse">
<stop stop-color="#131313"/>
<stop offset="0.485577" stop-color="#1B1B1C"/>
<stop offset="0.9999" stop-color="#131313"/>
</linearGradient>
<linearGradient id="paint1_linear_237_205" x1="299.828" y1="285.507" x2="-18.672" y2="108.507" gradientUnits="userSpaceOnUse">
<stop stop-color="#131313"/>
<stop offset="0.485577" stop-color="#1B1B1C"/>
<stop offset="0.9999" stop-color="#131313"/>
</linearGradient>
<linearGradient id="paint2_linear_237_205" x1="280.828" y1="298.507" x2="-37.672" y2="121.507" gradientUnits="userSpaceOnUse">
<stop stop-color="#131313"/>
<stop offset="0.485577" stop-color="#1B1B1C"/>
<stop offset="0.9999" stop-color="#131313"/>
</linearGradient>
<linearGradient id="paint3_linear_237_205" x1="266.828" y1="314.507" x2="-51.672" y2="137.507" gradientUnits="userSpaceOnUse">
<stop stop-color="#131313"/>
<stop offset="0.485577" stop-color="#1B1B1C"/>
<stop offset="0.9999" stop-color="#131313"/>
</linearGradient>
<linearGradient id="paint4_linear_237_205" x1="343.828" y1="262.507" x2="25.328" y2="85.5071" gradientUnits="userSpaceOnUse">
<stop stop-color="#131313"/>
<stop offset="0.485577" stop-color="#1B1B1C"/>
<stop offset="0.9999" stop-color="#131313"/>
</linearGradient>
<linearGradient id="paint5_linear_237_205" x1="360.828" y1="247.507" x2="42.328" y2="70.5071" gradientUnits="userSpaceOnUse">
<stop stop-color="#131313"/>
<stop offset="0.485577" stop-color="#1B1B1C"/>
<stop offset="0.9999" stop-color="#131313"/>
</linearGradient>
<linearGradient id="paint6_linear_237_205" x1="384.828" y1="237.507" x2="66.328" y2="60.5071" gradientUnits="userSpaceOnUse">
<stop stop-color="#131313"/>
<stop offset="0.485577" stop-color="#1B1B1C"/>
<stop offset="0.9999" stop-color="#131313"/>
</linearGradient>
<linearGradient id="paint7_linear_237_205" x1="404.828" y1="227.507" x2="86.328" y2="50.5071" gradientUnits="userSpaceOnUse">
<stop stop-color="#131313"/>
<stop offset="0.485577" stop-color="#1B1B1C"/>
<stop offset="0.9999" stop-color="#131313"/>
</linearGradient>
<linearGradient id="paint8_linear_237_205" x1="426.828" y1="217.507" x2="108.328" y2="40.5071" gradientUnits="userSpaceOnUse">
<stop stop-color="#131313"/>
<stop offset="0.485577" stop-color="#1B1B1C"/>
<stop offset="0.9999" stop-color="#131313"/>
</linearGradient>
<linearGradient id="paint9_linear_237_205" x1="450.828" y1="206.507" x2="132.328" y2="29.5071" gradientUnits="userSpaceOnUse">
<stop stop-color="#131313"/>
<stop offset="0.485577" stop-color="#1B1B1C"/>
<stop offset="0.9999" stop-color="#131313"/>
</linearGradient>
<linearGradient id="paint10_linear_237_205" x1="472.828" y1="195.507" x2="154.328" y2="18.5071" gradientUnits="userSpaceOnUse">
<stop stop-color="#131313"/>
<stop offset="0.485577" stop-color="#1B1B1C"/>
<stop offset="0.9999" stop-color="#131313"/>
</linearGradient>
<linearGradient id="paint11_linear_237_205" x1="491.828" y1="182.507" x2="173.328" y2="5.50709" gradientUnits="userSpaceOnUse">
<stop stop-color="#131313"/>
<stop offset="0.485577" stop-color="#1B1B1C"/>
<stop offset="0.9999" stop-color="#131313"/>
</linearGradient>
<linearGradient id="paint12_linear_237_205" x1="519.828" y1="173.507" x2="201.328" y2="-3.49291" gradientUnits="userSpaceOnUse">
<stop stop-color="#131313"/>
<stop offset="0.485577" stop-color="#1B1B1C"/>
<stop offset="0.9999" stop-color="#131313"/>
</linearGradient>
<linearGradient id="paint13_linear_237_205" x1="1.11072" y1="7.24145" x2="165.409" y2="19.4376" gradientUnits="userSpaceOnUse">
<stop stop-color="#15203B"/>
<stop offset="0.528717" stop-color="#1D2843"/>
<stop offset="0.876669" stop-color="#222D48"/>
</linearGradient>
<linearGradient id="paint14_linear_237_205" x1="53.6301" y1="15.9038" x2="1.85129" y2="-13.5714" gradientUnits="userSpaceOnUse">
<stop stop-color="#346DFF"/>
<stop offset="1" stop-color="#7AB3FF"/>
</linearGradient>
<linearGradient id="paint15_linear_237_205" x1="47.9143" y1="192.501" x2="62.9661" y2="160.021" gradientUnits="userSpaceOnUse">
<stop stop-color="white"/>
<stop offset="1" stop-color="#858585"/>
</linearGradient>
<linearGradient id="paint16_linear_237_205" x1="1.59565" y1="36.255" x2="170.14" y2="-3.27247" gradientUnits="userSpaceOnUse">
<stop stop-color="#7E90BD"/>
<stop offset="0.268122" stop-color="#2E4171"/>
<stop offset="0.372137" stop-color="#0F2254"/>
<stop offset="1" stop-color="#60729F"/>
</linearGradient>
<linearGradient id="paint17_linear_237_205" x1="77.4853" y1="-2.50255" x2="72.4786" y2="55.8886" gradientUnits="userSpaceOnUse">
<stop stop-color="#0A0A0A"/>
<stop offset="0.876669" stop-color="#151515"/>
</linearGradient>
<linearGradient id="paint18_linear_237_205" x1="23.0824" y1="-1.31068" x2="29.4412" y2="31.2797" gradientUnits="userSpaceOnUse">
<stop stop-color="#161616"/>
<stop offset="1" stop-color="#242424"/>
</linearGradient>
<linearGradient id="paint19_linear_237_205" x1="163.582" y1="178.111" x2="182.177" y2="144.982" gradientUnits="userSpaceOnUse">
<stop stop-color="white"/>
<stop offset="1" stop-color="#B7B7B7"/>
</linearGradient>
<linearGradient id="paint20_linear_237_205" x1="163.582" y1="178.111" x2="178.587" y2="151.112" gradientUnits="userSpaceOnUse">
<stop stop-color="white"/>
<stop offset="1" stop-color="#5D5D5D"/>
</linearGradient>
<linearGradient id="paint21_linear_237_205" x1="122.679" y1="28.3848" x2="4.30844" y2="-2.427" gradientUnits="userSpaceOnUse">
<stop offset="0.168445" stop-color="#252525"/>
<stop offset="1" stop-color="#8B8B8B"/>
</linearGradient>
<linearGradient id="paint22_linear_237_205" x1="285.993" y1="145.445" x2="305.644" y2="188.048" gradientUnits="userSpaceOnUse">
<stop stop-color="#0A0A0A"/>
<stop offset="0.876669" stop-color="#151515"/>
</linearGradient>
<linearGradient id="paint23_linear_237_205" x1="21.8" y1="-1.31068" x2="28.5032" y2="31.1356" gradientUnits="userSpaceOnUse">
<stop stop-color="#161616"/>
<stop offset="1" stop-color="#242424"/>
</linearGradient>
<linearGradient id="paint24_linear_237_205" x1="244.317" y1="186.343" x2="260.868" y2="156.707" gradientUnits="userSpaceOnUse">
<stop stop-color="white"/>
<stop offset="1" stop-color="#B7B7B7"/>
</linearGradient>
<linearGradient id="paint25_linear_237_205" x1="244.317" y1="186.343" x2="257.687" y2="162.19" gradientUnits="userSpaceOnUse">
<stop stop-color="white"/>
<stop offset="1" stop-color="#5D5D5D"/>
</linearGradient>
<linearGradient id="paint26_linear_237_205" x1="400.487" y1="131.293" x2="220.164" y2="189.257" gradientUnits="userSpaceOnUse">
<stop offset="0.465011" stop-color="#252525"/>
<stop offset="1" stop-color="#8B8B8B"/>
</linearGradient>
<linearGradient id="paint27_linear_237_205" x1="219.549" y1="33.5174" x2="240.252" y2="76.331" gradientUnits="userSpaceOnUse">
<stop stop-color="#0A0A0A"/>
<stop offset="0.876669" stop-color="#151515"/>
</linearGradient>
<linearGradient id="paint28_linear_237_205" x1="24.6853" y1="-1.31068" x2="30.6588" y2="31.4306" gradientUnits="userSpaceOnUse">
<stop stop-color="#161616"/>
<stop offset="1" stop-color="#242424"/>
</linearGradient>
<linearGradient id="paint29_linear_237_205" x1="144.719" y1="92.2671" x2="161.787" y2="61.7099" gradientUnits="userSpaceOnUse">
<stop stop-color="white"/>
<stop offset="1" stop-color="#5D5D5D"/>
</linearGradient>
<linearGradient id="paint30_linear_237_205" x1="169" y1="-2.5" x2="185.932" y2="124.614" gradientUnits="userSpaceOnUse">
<stop offset="0.168445" stop-color="#252525"/>
<stop offset="1" stop-color="#8B8B8B"/>
</linearGradient>
<linearGradient id="paint31_linear_237_205" x1="117.299" y1="177.518" x2="108.122" y2="187.757" gradientUnits="userSpaceOnUse">
<stop stop-color="#346DFF"/>
<stop offset="1" stop-color="#7AB3FF"/>
</linearGradient>
<linearGradient id="paint32_linear_237_205" x1="280" y1="45.275" x2="389.408" y2="53.987" gradientUnits="userSpaceOnUse">
<stop stop-color="#B6B6B6"/>
<stop offset="1" stop-color="#181818"/>
</linearGradient>
<linearGradient id="paint33_linear_237_205" x1="282" y1="195.275" x2="391.408" y2="203.987" gradientUnits="userSpaceOnUse">
<stop stop-color="#B6B6B6"/>
<stop offset="1" stop-color="#181818"/>
</linearGradient>
<linearGradient id="paint34_linear_237_205" x1="-31" y1="125.275" x2="78.4081" y2="133.987" gradientUnits="userSpaceOnUse">
<stop stop-color="#B6B6B6"/>
<stop offset="1" stop-color="#181818"/>
</linearGradient>
<clipPath id="clip0_237_205">
<rect width="169" height="34" rx="9" transform="matrix(0.880477 -0.474088 0.881773 0.471674 16.1951 193.49)" fill="white"/>
</clipPath>
<clipPath id="clip1_237_205">
<rect width="152.508" height="34" rx="9" transform="matrix(0.880477 -0.474088 0.881773 0.471674 131.862 179.1)" fill="white"/>
</clipPath>
<clipPath id="clip2_237_205">
<path d="M220.534 191.578C216.151 189.233 216.146 185.422 220.522 183.066L353.474 111.478C357.851 109.122 364.952 109.112 369.335 111.457L383.443 119.004C387.826 121.348 387.831 125.159 383.455 127.515L250.503 199.103C246.126 201.459 239.025 201.469 234.642 199.124L220.534 191.578Z" fill="white"/>
</clipPath>
<clipPath id="clip3_237_205">
<path d="M120.936 97.5014C116.553 95.1569 116.548 91.346 120.924 88.9896L319.13 -17.7332C323.507 -20.0897 330.607 -20.0994 334.99 -17.7549L349.099 -10.2081C353.482 -7.86366 353.487 -4.05277 349.11 -1.69629L150.905 105.026C146.528 107.383 139.427 107.393 135.044 105.048L120.936 97.5014Z" fill="white"/>
</clipPath>
</defs>
</svg>
