<svg width="208" height="235" viewBox="0 0 208 235" fill="none" xmlns="http://www.w3.org/2000/svg">
<path d="M105 180V166.212C105 164.835 104.293 163.556 103.127 162.824L85.3729 151.676C84.2074 150.944 83.5 149.665 83.5 148.288V129.5" stroke="url(#paint0_linear_237_202)"/>
<g filter="url(#filter0_d_237_202)">
<path d="M103.483 173.113L105.113 171L106.743 173.113L105.113 175.226L103.483 173.113Z" fill="#D9D9D9"/>
</g>
<g filter="url(#filter1_d_237_202)">
<path d="M102.483 57.1128L104.113 55L105.743 57.1128L104.113 59.2256L102.483 57.1128Z" fill="#D9D9D9"/>
</g>
<path d="M190 124H188V109H190V124ZM196 123H194V111H196V123ZM202 122H200V112H202V122ZM208 120H206V114H208V120Z" fill="url(#paint1_linear_237_202)"/>
<path d="M18 109L20 109L20 124L18 124L18 109ZM12 110L14 110L14 122L12 122L12 110ZM6 111L8 111L8 121L6 121L6 111ZM9.61651e-07 113L2 113L2 119L4.37114e-07 119L9.61651e-07 113Z" fill="url(#paint2_linear_237_202)"/>
<rect x="75.5" y="7.5" width="57" height="57" rx="28.5" fill="#0A0A0A"/>
<rect x="75.5" y="7.5" width="57" height="57" rx="28.5" stroke="url(#paint3_linear_237_202)"/>
<g filter="url(#filter2_d_237_202)">
<path d="M103.997 19.9666L103.775 20.7199V42.5795L103.997 42.8007L114.144 36.8029L103.997 19.9666Z" fill="url(#paint4_linear_237_202)"/>
</g>
<g filter="url(#filter3_d_237_202)">
<path d="M103.997 19.9666L93.85 36.8029L103.997 42.8008V32.1908V19.9666Z" fill="url(#paint5_linear_237_202)"/>
</g>
<g filter="url(#filter4_d_237_202)">
<path d="M103.997 44.7219L103.872 44.8741V52.661L103.997 53.0259L114.15 38.7271L103.997 44.7219Z" fill="url(#paint6_linear_237_202)"/>
</g>
<g filter="url(#filter5_d_237_202)">
<path d="M103.997 53.0259V44.7219L93.85 38.7271L103.997 53.0259Z" fill="url(#paint7_linear_237_202)"/>
</g>
<g filter="url(#filter6_d_237_202)">
<path d="M103.997 42.8008L114.144 36.803L103.997 32.1909V42.8008Z" fill="#0044F0"/>
</g>
<path d="M93.8501 36.803L103.997 42.8008V32.1909L93.8501 36.803Z" fill="#0008B4"/>
<circle cx="105" cy="200" r="28.5" fill="#0A0A0A" stroke="url(#paint8_linear_237_202)"/>
<rect x="29.5" y="96.5" width="149" height="40" rx="3.5" fill="#191919" stroke="#080808" stroke-width="5"/>
<g filter="url(#filter7_d_237_202)">
<rect x="95" y="79" width="17" height="73" rx="3" fill="url(#paint9_linear_237_202)"/>
</g>
<g filter="url(#filter8_d_237_202)">
<rect x="76" y="106" width="15" height="24" rx="2" fill="url(#paint10_linear_237_202)"/>
</g>
<g filter="url(#filter9_d_237_202)">
<rect x="95" y="79" width="17" height="73" rx="2" fill="url(#paint11_linear_237_202)"/>
</g>
<g filter="url(#filter10_d_237_202)">
<rect x="58" y="110" width="14" height="14" rx="3" fill="url(#paint12_linear_237_202)"/>
</g>
<g filter="url(#filter11_d_237_202)">
<rect x="116" y="110" width="14" height="15" rx="2" fill="url(#paint13_linear_237_202)"/>
</g>
<g filter="url(#filter12_d_237_202)">
<rect x="133" y="91" width="15" height="52" rx="3" fill="url(#paint14_linear_237_202)"/>
</g>
<g filter="url(#filter13_d_237_202)">
<rect x="152" y="106" width="15" height="23" rx="3" fill="url(#paint15_linear_237_202)"/>
</g>
<g filter="url(#filter14_d_237_202)">
<rect x="39" y="105" width="15" height="23" rx="3" fill="url(#paint16_linear_237_202)"/>
</g>
<g filter="url(#filter15_d_237_202)">
<path d="M109.349 198.676L102.974 196.824C102.236 196.613 101.722 195.928 101.722 195.166C101.722 194.211 102.501 193.438 103.464 193.438H107.377C108.097 193.438 108.806 193.654 109.396 194.053C109.756 194.293 110.24 194.234 110.547 193.936L112.601 191.943C113.02 191.539 112.961 190.865 112.495 190.508C111.571 189.789 110.5 189.273 109.363 188.993C108.293 188.73 107.389 187.858 107.389 186.756V185.938C107.389 185.422 106.964 185 106.444 185H104.556C104.036 185 103.611 185.422 103.611 185.938V188.602C103.611 188.684 103.545 188.75 103.464 188.75C99.7035 188.75 96.6813 191.955 97.0296 195.758C97.2775 198.459 99.3553 200.656 101.976 201.418L108.026 203.176C108.764 203.393 109.278 204.072 109.278 204.834C109.278 205.789 108.499 206.562 107.537 206.562H103.623C102.903 206.562 102.194 206.346 101.604 205.947C101.244 205.707 100.76 205.766 100.453 206.064L98.399 208.057C97.9799 208.461 98.0389 209.135 98.5053 209.492C99.4294 210.211 100.501 210.727 101.637 211.007C102.707 211.27 103.611 212.142 103.611 213.244V214.062C103.611 214.578 104.036 215 104.556 215H106.444C106.964 215 107.389 214.578 107.389 214.062V213.2C107.389 212.111 108.278 211.249 109.322 210.937C111.283 210.35 112.938 208.941 113.628 206.979C114.897 203.369 112.766 199.666 109.349 198.676Z" fill="url(#paint17_linear_237_202)"/>
</g>
<defs>
<filter id="filter0_d_237_202" x="76.483" y="144" width="57.2595" height="58.2256" filterUnits="userSpaceOnUse" color-interpolation-filters="sRGB">
<feFlood flood-opacity="0" result="BackgroundImageFix"/>
<feColorMatrix in="SourceAlpha" type="matrix" values="0 0 0 0 0 0 0 0 0 0 0 0 0 0 0 0 0 0 127 0" result="hardAlpha"/>
<feOffset/>
<feGaussianBlur stdDeviation="13.5"/>
<feComposite in2="hardAlpha" operator="out"/>
<feColorMatrix type="matrix" values="0 0 0 0 1 0 0 0 0 1 0 0 0 0 1 0 0 0 1 0"/>
<feBlend mode="normal" in2="BackgroundImageFix" result="effect1_dropShadow_237_202"/>
<feBlend mode="normal" in="SourceGraphic" in2="effect1_dropShadow_237_202" result="shape"/>
</filter>
<filter id="filter1_d_237_202" x="75.483" y="28" width="57.2595" height="58.2256" filterUnits="userSpaceOnUse" color-interpolation-filters="sRGB">
<feFlood flood-opacity="0" result="BackgroundImageFix"/>
<feColorMatrix in="SourceAlpha" type="matrix" values="0 0 0 0 0 0 0 0 0 0 0 0 0 0 0 0 0 0 127 0" result="hardAlpha"/>
<feOffset/>
<feGaussianBlur stdDeviation="13.5"/>
<feComposite in2="hardAlpha" operator="out"/>
<feColorMatrix type="matrix" values="0 0 0 0 1 0 0 0 0 1 0 0 0 0 1 0 0 0 1 0"/>
<feBlend mode="normal" in2="BackgroundImageFix" result="effect1_dropShadow_237_202"/>
<feBlend mode="normal" in="SourceGraphic" in2="effect1_dropShadow_237_202" result="shape"/>
</filter>
<filter id="filter2_d_237_202" x="84.1753" y="0.366552" width="49.5687" height="62.0342" filterUnits="userSpaceOnUse" color-interpolation-filters="sRGB">
<feFlood flood-opacity="0" result="BackgroundImageFix"/>
<feColorMatrix in="SourceAlpha" type="matrix" values="0 0 0 0 0 0 0 0 0 0 0 0 0 0 0 0 0 0 127 0" result="hardAlpha"/>
<feMorphology radius="1" operator="erode" in="SourceAlpha" result="effect1_dropShadow_237_202"/>
<feOffset/>
<feGaussianBlur stdDeviation="10.3"/>
<feComposite in2="hardAlpha" operator="out"/>
<feColorMatrix type="matrix" values="0 0 0 0 0.459486 0 0 0 0 0.602824 0 0 0 0 0.965385 0 0 0 0.5 0"/>
<feBlend mode="normal" in2="BackgroundImageFix" result="effect1_dropShadow_237_202"/>
<feBlend mode="normal" in="SourceGraphic" in2="effect1_dropShadow_237_202" result="shape"/>
</filter>
<filter id="filter3_d_237_202" x="74.25" y="0.366552" width="49.347" height="62.0342" filterUnits="userSpaceOnUse" color-interpolation-filters="sRGB">
<feFlood flood-opacity="0" result="BackgroundImageFix"/>
<feColorMatrix in="SourceAlpha" type="matrix" values="0 0 0 0 0 0 0 0 0 0 0 0 0 0 0 0 0 0 127 0" result="hardAlpha"/>
<feMorphology radius="1" operator="erode" in="SourceAlpha" result="effect1_dropShadow_237_202"/>
<feOffset/>
<feGaussianBlur stdDeviation="10.3"/>
<feComposite in2="hardAlpha" operator="out"/>
<feColorMatrix type="matrix" values="0 0 0 0 0.459486 0 0 0 0 0.602824 0 0 0 0 0.965385 0 0 0 0.5 0"/>
<feBlend mode="normal" in2="BackgroundImageFix" result="effect1_dropShadow_237_202"/>
<feBlend mode="normal" in="SourceGraphic" in2="effect1_dropShadow_237_202" result="shape"/>
</filter>
<filter id="filter4_d_237_202" x="84.2719" y="19.1271" width="49.478" height="53.4988" filterUnits="userSpaceOnUse" color-interpolation-filters="sRGB">
<feFlood flood-opacity="0" result="BackgroundImageFix"/>
<feColorMatrix in="SourceAlpha" type="matrix" values="0 0 0 0 0 0 0 0 0 0 0 0 0 0 0 0 0 0 127 0" result="hardAlpha"/>
<feMorphology radius="1" operator="erode" in="SourceAlpha" result="effect1_dropShadow_237_202"/>
<feOffset/>
<feGaussianBlur stdDeviation="10.3"/>
<feComposite in2="hardAlpha" operator="out"/>
<feColorMatrix type="matrix" values="0 0 0 0 0.459486 0 0 0 0 0.602824 0 0 0 0 0.965385 0 0 0 0.5 0"/>
<feBlend mode="normal" in2="BackgroundImageFix" result="effect1_dropShadow_237_202"/>
<feBlend mode="normal" in="SourceGraphic" in2="effect1_dropShadow_237_202" result="shape"/>
</filter>
<filter id="filter5_d_237_202" x="74.25" y="19.1271" width="49.347" height="53.4988" filterUnits="userSpaceOnUse" color-interpolation-filters="sRGB">
<feFlood flood-opacity="0" result="BackgroundImageFix"/>
<feColorMatrix in="SourceAlpha" type="matrix" values="0 0 0 0 0 0 0 0 0 0 0 0 0 0 0 0 0 0 127 0" result="hardAlpha"/>
<feMorphology radius="1" operator="erode" in="SourceAlpha" result="effect1_dropShadow_237_202"/>
<feOffset/>
<feGaussianBlur stdDeviation="10.3"/>
<feComposite in2="hardAlpha" operator="out"/>
<feColorMatrix type="matrix" values="0 0 0 0 0.459486 0 0 0 0 0.602824 0 0 0 0 0.965385 0 0 0 0.5 0"/>
<feBlend mode="normal" in2="BackgroundImageFix" result="effect1_dropShadow_237_202"/>
<feBlend mode="normal" in="SourceGraphic" in2="effect1_dropShadow_237_202" result="shape"/>
</filter>
<filter id="filter6_d_237_202" x="84.3968" y="12.5909" width="49.3469" height="49.8099" filterUnits="userSpaceOnUse" color-interpolation-filters="sRGB">
<feFlood flood-opacity="0" result="BackgroundImageFix"/>
<feColorMatrix in="SourceAlpha" type="matrix" values="0 0 0 0 0 0 0 0 0 0 0 0 0 0 0 0 0 0 127 0" result="hardAlpha"/>
<feMorphology radius="1" operator="erode" in="SourceAlpha" result="effect1_dropShadow_237_202"/>
<feOffset/>
<feGaussianBlur stdDeviation="10.3"/>
<feComposite in2="hardAlpha" operator="out"/>
<feColorMatrix type="matrix" values="0 0 0 0 0.459486 0 0 0 0 0.602824 0 0 0 0 0.965385 0 0 0 0.5 0"/>
<feBlend mode="normal" in2="BackgroundImageFix" result="effect1_dropShadow_237_202"/>
<feBlend mode="normal" in="SourceGraphic" in2="effect1_dropShadow_237_202" result="shape"/>
</filter>
<filter id="filter7_d_237_202" x="91" y="75" width="25" height="81" filterUnits="userSpaceOnUse" color-interpolation-filters="sRGB">
<feFlood flood-opacity="0" result="BackgroundImageFix"/>
<feColorMatrix in="SourceAlpha" type="matrix" values="0 0 0 0 0 0 0 0 0 0 0 0 0 0 0 0 0 0 127 0" result="hardAlpha"/>
<feOffset/>
<feGaussianBlur stdDeviation="2"/>
<feComposite in2="hardAlpha" operator="out"/>
<feColorMatrix type="matrix" values="0 0 0 0 0 0 0 0 0 0 0 0 0 0 0 0 0 0 0.25 0"/>
<feBlend mode="normal" in2="BackgroundImageFix" result="effect1_dropShadow_237_202"/>
<feBlend mode="normal" in="SourceGraphic" in2="effect1_dropShadow_237_202" result="shape"/>
</filter>
<filter id="filter8_d_237_202" x="56.4" y="86.4" width="54.2" height="63.2" filterUnits="userSpaceOnUse" color-interpolation-filters="sRGB">
<feFlood flood-opacity="0" result="BackgroundImageFix"/>
<feColorMatrix in="SourceAlpha" type="matrix" values="0 0 0 0 0 0 0 0 0 0 0 0 0 0 0 0 0 0 127 0" result="hardAlpha"/>
<feMorphology radius="1" operator="erode" in="SourceAlpha" result="effect1_dropShadow_237_202"/>
<feOffset/>
<feGaussianBlur stdDeviation="10.3"/>
<feComposite in2="hardAlpha" operator="out"/>
<feColorMatrix type="matrix" values="0 0 0 0 0.459486 0 0 0 0 0.602824 0 0 0 0 0.965385 0 0 0 0.5 0"/>
<feBlend mode="normal" in2="BackgroundImageFix" result="effect1_dropShadow_237_202"/>
<feBlend mode="normal" in="SourceGraphic" in2="effect1_dropShadow_237_202" result="shape"/>
</filter>
<filter id="filter9_d_237_202" x="75.4" y="59.4" width="56.2" height="112.2" filterUnits="userSpaceOnUse" color-interpolation-filters="sRGB">
<feFlood flood-opacity="0" result="BackgroundImageFix"/>
<feColorMatrix in="SourceAlpha" type="matrix" values="0 0 0 0 0 0 0 0 0 0 0 0 0 0 0 0 0 0 127 0" result="hardAlpha"/>
<feMorphology radius="1" operator="erode" in="SourceAlpha" result="effect1_dropShadow_237_202"/>
<feOffset/>
<feGaussianBlur stdDeviation="10.3"/>
<feComposite in2="hardAlpha" operator="out"/>
<feColorMatrix type="matrix" values="0 0 0 0 0.459486 0 0 0 0 0.602824 0 0 0 0 0.965385 0 0 0 0.5 0"/>
<feBlend mode="normal" in2="BackgroundImageFix" result="effect1_dropShadow_237_202"/>
<feBlend mode="normal" in="SourceGraphic" in2="effect1_dropShadow_237_202" result="shape"/>
</filter>
<filter id="filter10_d_237_202" x="54" y="106" width="22" height="22" filterUnits="userSpaceOnUse" color-interpolation-filters="sRGB">
<feFlood flood-opacity="0" result="BackgroundImageFix"/>
<feColorMatrix in="SourceAlpha" type="matrix" values="0 0 0 0 0 0 0 0 0 0 0 0 0 0 0 0 0 0 127 0" result="hardAlpha"/>
<feOffset/>
<feGaussianBlur stdDeviation="2"/>
<feComposite in2="hardAlpha" operator="out"/>
<feColorMatrix type="matrix" values="0 0 0 0 0 0 0 0 0 0 0 0 0 0 0 0 0 0 0.25 0"/>
<feBlend mode="normal" in2="BackgroundImageFix" result="effect1_dropShadow_237_202"/>
<feBlend mode="normal" in="SourceGraphic" in2="effect1_dropShadow_237_202" result="shape"/>
</filter>
<filter id="filter11_d_237_202" x="112" y="106" width="22" height="23" filterUnits="userSpaceOnUse" color-interpolation-filters="sRGB">
<feFlood flood-opacity="0" result="BackgroundImageFix"/>
<feColorMatrix in="SourceAlpha" type="matrix" values="0 0 0 0 0 0 0 0 0 0 0 0 0 0 0 0 0 0 127 0" result="hardAlpha"/>
<feOffset/>
<feGaussianBlur stdDeviation="2"/>
<feComposite in2="hardAlpha" operator="out"/>
<feColorMatrix type="matrix" values="0 0 0 0 0 0 0 0 0 0 0 0 0 0 0 0 0 0 0.25 0"/>
<feBlend mode="normal" in2="BackgroundImageFix" result="effect1_dropShadow_237_202"/>
<feBlend mode="normal" in="SourceGraphic" in2="effect1_dropShadow_237_202" result="shape"/>
</filter>
<filter id="filter12_d_237_202" x="129" y="87" width="23" height="60" filterUnits="userSpaceOnUse" color-interpolation-filters="sRGB">
<feFlood flood-opacity="0" result="BackgroundImageFix"/>
<feColorMatrix in="SourceAlpha" type="matrix" values="0 0 0 0 0 0 0 0 0 0 0 0 0 0 0 0 0 0 127 0" result="hardAlpha"/>
<feOffset/>
<feGaussianBlur stdDeviation="2"/>
<feComposite in2="hardAlpha" operator="out"/>
<feColorMatrix type="matrix" values="0 0 0 0 0 0 0 0 0 0 0 0 0 0 0 0 0 0 0.25 0"/>
<feBlend mode="normal" in2="BackgroundImageFix" result="effect1_dropShadow_237_202"/>
<feBlend mode="normal" in="SourceGraphic" in2="effect1_dropShadow_237_202" result="shape"/>
</filter>
<filter id="filter13_d_237_202" x="148" y="102" width="23" height="31" filterUnits="userSpaceOnUse" color-interpolation-filters="sRGB">
<feFlood flood-opacity="0" result="BackgroundImageFix"/>
<feColorMatrix in="SourceAlpha" type="matrix" values="0 0 0 0 0 0 0 0 0 0 0 0 0 0 0 0 0 0 127 0" result="hardAlpha"/>
<feOffset/>
<feGaussianBlur stdDeviation="2"/>
<feComposite in2="hardAlpha" operator="out"/>
<feColorMatrix type="matrix" values="0 0 0 0 0 0 0 0 0 0 0 0 0 0 0 0 0 0 0.25 0"/>
<feBlend mode="normal" in2="BackgroundImageFix" result="effect1_dropShadow_237_202"/>
<feBlend mode="normal" in="SourceGraphic" in2="effect1_dropShadow_237_202" result="shape"/>
</filter>
<filter id="filter14_d_237_202" x="35" y="101" width="23" height="31" filterUnits="userSpaceOnUse" color-interpolation-filters="sRGB">
<feFlood flood-opacity="0" result="BackgroundImageFix"/>
<feColorMatrix in="SourceAlpha" type="matrix" values="0 0 0 0 0 0 0 0 0 0 0 0 0 0 0 0 0 0 127 0" result="hardAlpha"/>
<feOffset/>
<feGaussianBlur stdDeviation="2"/>
<feComposite in2="hardAlpha" operator="out"/>
<feColorMatrix type="matrix" values="0 0 0 0 0 0 0 0 0 0 0 0 0 0 0 0 0 0 0.25 0"/>
<feBlend mode="normal" in2="BackgroundImageFix" result="effect1_dropShadow_237_202"/>
<feBlend mode="normal" in="SourceGraphic" in2="effect1_dropShadow_237_202" result="shape"/>
</filter>
<filter id="filter15_d_237_202" x="77.4022" y="165.4" width="56.1963" height="69.2" filterUnits="userSpaceOnUse" color-interpolation-filters="sRGB">
<feFlood flood-opacity="0" result="BackgroundImageFix"/>
<feColorMatrix in="SourceAlpha" type="matrix" values="0 0 0 0 0 0 0 0 0 0 0 0 0 0 0 0 0 0 127 0" result="hardAlpha"/>
<feMorphology radius="1" operator="erode" in="SourceAlpha" result="effect1_dropShadow_237_202"/>
<feOffset/>
<feGaussianBlur stdDeviation="10.3"/>
<feComposite in2="hardAlpha" operator="out"/>
<feColorMatrix type="matrix" values="0 0 0 0 0.459486 0 0 0 0 0.602824 0 0 0 0 0.965385 0 0 0 0.5 0"/>
<feBlend mode="normal" in2="BackgroundImageFix" result="effect1_dropShadow_237_202"/>
<feBlend mode="normal" in="SourceGraphic" in2="effect1_dropShadow_237_202" result="shape"/>
</filter>
<linearGradient id="paint0_linear_237_202" x1="84" y1="145" x2="100" y2="177.5" gradientUnits="userSpaceOnUse">
<stop stop-color="#414141"/>
<stop offset="0.949762" stop-color="#D9D9D9"/>
</linearGradient>
<linearGradient id="paint1_linear_237_202" x1="181.5" y1="120.5" x2="210.5" y2="119.5" gradientUnits="userSpaceOnUse">
<stop stop-color="#181819"/>
<stop offset="0.485577" stop-color="#343435"/>
<stop offset="0.9999" stop-color="#181819"/>
</linearGradient>
<linearGradient id="paint2_linear_237_202" x1="-2.5" y1="117.5" x2="33.5" y2="115" gradientUnits="userSpaceOnUse">
<stop stop-color="#181819"/>
<stop offset="0.485577" stop-color="#343435"/>
<stop offset="0.9999" stop-color="#181819"/>
</linearGradient>
<linearGradient id="paint3_linear_237_202" x1="73.7707" y1="21.1835" x2="132.077" y2="41.6366" gradientUnits="userSpaceOnUse">
<stop stop-color="#202B47"/>
<stop offset="1" stop-color="#1E1E1E"/>
</linearGradient>
<linearGradient id="paint4_linear_237_202" x1="111.092" y1="32.0715" x2="101.835" y2="31.127" gradientUnits="userSpaceOnUse">
<stop stop-color="#346DFF"/>
<stop offset="1" stop-color="#7AB3FF"/>
</linearGradient>
<linearGradient id="paint5_linear_237_202" x1="101.01" y1="32.0716" x2="91.9473" y2="31.1666" gradientUnits="userSpaceOnUse">
<stop stop-color="#346DFF"/>
<stop offset="1" stop-color="#7AB3FF"/>
</linearGradient>
<linearGradient id="paint6_linear_237_202" x1="111.125" y1="46.3072" x2="102.089" y2="44.8478" gradientUnits="userSpaceOnUse">
<stop stop-color="#346DFF"/>
<stop offset="1" stop-color="#7AB3FF"/>
</linearGradient>
<linearGradient id="paint7_linear_237_202" x1="101.01" y1="46.3072" x2="92.0839" y2="44.8838" gradientUnits="userSpaceOnUse">
<stop stop-color="#346DFF"/>
<stop offset="1" stop-color="#7AB3FF"/>
</linearGradient>
<linearGradient id="paint8_linear_237_202" x1="74.7707" y1="185.183" x2="133.077" y2="205.637" gradientUnits="userSpaceOnUse">
<stop stop-color="#202B47"/>
<stop offset="1" stop-color="#1E1E1E"/>
</linearGradient>
<linearGradient id="paint9_linear_237_202" x1="92.6625" y1="79" x2="128.305" y2="83.8432" gradientUnits="userSpaceOnUse">
<stop stop-color="#636363"/>
<stop offset="1" stop-color="#4E4E4E"/>
</linearGradient>
<linearGradient id="paint10_linear_237_202" x1="76" y1="123" x2="91" y2="123.5" gradientUnits="userSpaceOnUse">
<stop stop-color="#346DFF"/>
<stop offset="1" stop-color="#7AB3FF"/>
</linearGradient>
<linearGradient id="paint11_linear_237_202" x1="112" y1="118" x2="95" y2="118.5" gradientUnits="userSpaceOnUse">
<stop stop-color="#346DFF"/>
<stop offset="1" stop-color="#7AB3FF"/>
</linearGradient>
<linearGradient id="paint12_linear_237_202" x1="56.075" y1="110" x2="78.3765" y2="123.013" gradientUnits="userSpaceOnUse">
<stop stop-color="#636363"/>
<stop offset="1" stop-color="#4E4E4E"/>
</linearGradient>
<linearGradient id="paint13_linear_237_202" x1="114.075" y1="110" x2="137.131" y2="122.556" gradientUnits="userSpaceOnUse">
<stop stop-color="#636363"/>
<stop offset="1" stop-color="#4E4E4E"/>
</linearGradient>
<linearGradient id="paint14_linear_237_202" x1="130.938" y1="91" x2="162.085" y2="96.2426" gradientUnits="userSpaceOnUse">
<stop stop-color="#636363"/>
<stop offset="1" stop-color="#4E4E4E"/>
</linearGradient>
<linearGradient id="paint15_linear_237_202" x1="149.938" y1="106" x2="177.916" y2="116.647" gradientUnits="userSpaceOnUse">
<stop stop-color="#636363"/>
<stop offset="1" stop-color="#4E4E4E"/>
</linearGradient>
<linearGradient id="paint16_linear_237_202" x1="47" y1="100.5" x2="55.3718" y2="125.927" gradientUnits="userSpaceOnUse">
<stop stop-color="#4F4F4F"/>
<stop offset="1" stop-color="#535353"/>
</linearGradient>
<linearGradient id="paint17_linear_237_202" x1="97.0022" y1="206.25" x2="114.002" y2="206.764" gradientUnits="userSpaceOnUse">
<stop stop-color="#346DFF"/>
<stop offset="1" stop-color="#7AB3FF"/>
</linearGradient>
</defs>
</svg>
